{
	"asset":{
		"generator":"Khronos glTF Blender I/O v5.1.20",
		"version":"2.0"
	},
	"scene":0,
	"scenes":[
		{
			"name":"Scene",
			"nodes":[
				0
			]
		}
	],
	"nodes":[
		{
			"mesh":0,
			"name":"forge_dead_dwarf"
		}
	],
	"materials":[
		{
			"doubleSided":true,
			"emissiveFactor":[
				1,
				1,
				1
			],
			"emissiveTexture":{
				"index":0
			},
			"name":"forge_mat",
			"pbrMetallicRoughness":{
				"baseColorTexture":{
					"index":1
				},
				"metallicFactor":0,
				"roughnessFactor":0.8999999761581421
			}
		}
	],
	"meshes":[
		{
			"name":"Mesh",
			"primitives":[
				{
					"attributes":{
						"POSITION":0,
						"NORMAL":1,
						"TEXCOORD_0":2,
						"TEXCOORD_1":3,
						"COLOR_0":4,
						"COLOR_1":5
					},
					"indices":6,
					"material":0
				}
			]
		}
	],
	"textures":[
		{
			"sampler":0,
			"source":0
		},
		{
			"sampler":0,
			"source":1
		}
	],
	"images":[
		{
			"mimeType":"image/png",
			"name":"Dungeons_2_Texture_Emission_01",
			"uri":"Dungeons_2_Texture_Emission_01.png"
		},
		{
			"mimeType":"image/png",
			"name":"Dungeons_2_Texture_01_A",
			"uri":"Dungeons_2_Texture_01_A.png"
		}
	],
	"accessors":[
		{
			"bufferView":0,
			"componentType":5126,
			"count":6738,
			"max":[
				0.6770788431167603,
				1.452484369277954,
				0.670440137386322
			],
			"min":[
				-0.6770788431167603,
				0,
				-0.670440137386322
			],
			"type":"VEC3"
		},
		{
			"bufferView":1,
			"componentType":5126,
			"count":6738,
			"type":"VEC3"
		},
		{
			"bufferView":2,
			"componentType":5126,
			"count":6738,
			"type":"VEC2"
		},
		{
			"bufferView":3,
			"componentType":5126,
			"count":6738,
			"type":"VEC2"
		},
		{
			"bufferView":4,
			"componentType":5121,
			"count":6738,
			"normalized":true,
			"type":"VEC4"
		},
		{
			"bufferView":5,
			"componentType":5123,
			"count":6738,
			"normalized":true,
			"type":"VEC4"
		},
		{
			"bufferView":6,
			"componentType":5123,
			"count":9522,
			"type":"SCALAR"
		}
	],
	"bufferViews":[
		{
			"buffer":0,
			"byteLength":80856,
			"byteOffset":0,
			"target":34962
		},
		{
			"buffer":0,
			"byteLength":80856,
			"byteOffset":80856,
			"target":34962
		},
		{
			"buffer":0,
			"byteLength":53904,
			"byteOffset":161712,
			"target":34962
		},
		{
			"buffer":0,
			"byteLength":53904,
			"byteOffset":215616,
			"target":34962
		},
		{
			"buffer":0,
			"byteLength":26952,
			"byteOffset":269520,
			"target":34962
		},
		{
			"buffer":0,
			"byteLength":53904,
			"byteOffset":296472,
			"target":34962
		},
		{
			"buffer":0,
			"byteLength":19044,
			"byteOffset":350376,
			"target":34963
		}
	],
	"samplers":[
		{
			"magFilter":9729,
			"minFilter":9987
		}
	],
	"buffers":[
		{
			"byteLength":369420,
			"uri":"forge_dead_dwarf.bin"
		}
	]
}
