{
	"asset":{
		"generator":"Khronos glTF Blender I/O v5.1.20",
		"version":"2.0"
	},
	"scene":0,
	"scenes":[
		{
			"name":"Scene",
			"nodes":[
				0
			]
		}
	],
	"nodes":[
		{
			"mesh":0,
			"name":"forge_pillar"
		}
	],
	"materials":[
		{
			"doubleSided":true,
			"emissiveFactor":[
				1,
				1,
				1
			],
			"emissiveTexture":{
				"index":0
			},
			"name":"forge_mat",
			"pbrMetallicRoughness":{
				"baseColorTexture":{
					"index":1
				},
				"metallicFactor":0,
				"roughnessFactor":0.8999999761581421
			}
		}
	],
	"meshes":[
		{
			"name":"Mesh",
			"primitives":[
				{
					"attributes":{
						"POSITION":0,
						"NORMAL":1,
						"TEXCOORD_0":2,
						"TEXCOORD_1":3
					},
					"indices":4,
					"material":0
				}
			]
		}
	],
	"textures":[
		{
			"sampler":0,
			"source":0
		},
		{
			"sampler":0,
			"source":1
		}
	],
	"images":[
		{
			"mimeType":"image/png",
			"name":"Dungeons_2_Texture_Emission_01",
			"uri":"Dungeons_2_Texture_Emission_01.png"
		},
		{
			"mimeType":"image/png",
			"name":"Dungeons_2_Texture_01_A",
			"uri":"Dungeons_2_Texture_01_A.png"
		}
	],
	"accessors":[
		{
			"bufferView":0,
			"componentType":5126,
			"count":509,
			"max":[
				0.6209262609481812,
				5,
				0.6209264993667603
			],
			"min":[
				-0.620926558971405,
				-4.687864674224329e-08,
				-0.6209268569946289
			],
			"type":"VEC3"
		},
		{
			"bufferView":1,
			"componentType":5126,
			"count":509,
			"type":"VEC3"
		},
		{
			"bufferView":2,
			"componentType":5126,
			"count":509,
			"type":"VEC2"
		},
		{
			"bufferView":3,
			"componentType":5126,
			"count":509,
			"type":"VEC2"
		},
		{
			"bufferView":4,
			"componentType":5123,
			"count":894,
			"type":"SCALAR"
		}
	],
	"bufferViews":[
		{
			"buffer":0,
			"byteLength":6108,
			"byteOffset":0,
			"target":34962
		},
		{
			"buffer":0,
			"byteLength":6108,
			"byteOffset":6108,
			"target":34962
		},
		{
			"buffer":0,
			"byteLength":4072,
			"byteOffset":12216,
			"target":34962
		},
		{
			"buffer":0,
			"byteLength":4072,
			"byteOffset":16288,
			"target":34962
		},
		{
			"buffer":0,
			"byteLength":1788,
			"byteOffset":20360,
			"target":34963
		}
	],
	"samplers":[
		{
			"magFilter":9729,
			"minFilter":9987
		}
	],
	"buffers":[
		{
			"byteLength":22148,
			"uri":"forge_pillar.bin"
		}
	]
}
