{
	"asset":{
		"generator":"Khronos glTF Blender I/O v5.1.20",
		"version":"2.0"
	},
	"scene":0,
	"scenes":[
		{
			"name":"Scene",
			"nodes":[
				0
			]
		}
	],
	"nodes":[
		{
			"mesh":0,
			"name":"forge_totem"
		}
	],
	"materials":[
		{
			"doubleSided":true,
			"emissiveFactor":[
				1,
				1,
				1
			],
			"emissiveTexture":{
				"index":0
			},
			"name":"forge_mat",
			"pbrMetallicRoughness":{
				"baseColorTexture":{
					"index":1
				},
				"metallicFactor":0,
				"roughnessFactor":0.8999999761581421
			}
		}
	],
	"meshes":[
		{
			"name":"Mesh",
			"primitives":[
				{
					"attributes":{
						"POSITION":0,
						"NORMAL":1,
						"TEXCOORD_0":2,
						"TEXCOORD_1":3
					},
					"indices":4,
					"material":0
				}
			]
		}
	],
	"textures":[
		{
			"sampler":0,
			"source":0
		},
		{
			"sampler":0,
			"source":1
		}
	],
	"images":[
		{
			"mimeType":"image/png",
			"name":"Dungeons_2_Texture_Emission_01",
			"uri":"Dungeons_2_Texture_Emission_01.png"
		},
		{
			"mimeType":"image/png",
			"name":"Dungeons_2_Texture_01_A",
			"uri":"Dungeons_2_Texture_01_A.png"
		}
	],
	"accessors":[
		{
			"bufferView":0,
			"componentType":5126,
			"count":2346,
			"max":[
				0.24637696146965027,
				1.4341962337493896,
				0.30897951126098633
			],
			"min":[
				-0.24637696146965027,
				0,
				-0.30897951126098633
			],
			"type":"VEC3"
		},
		{
			"bufferView":1,
			"componentType":5126,
			"count":2346,
			"type":"VEC3"
		},
		{
			"bufferView":2,
			"componentType":5126,
			"count":2346,
			"type":"VEC2"
		},
		{
			"bufferView":3,
			"componentType":5126,
			"count":2346,
			"type":"VEC2"
		},
		{
			"bufferView":4,
			"componentType":5123,
			"count":4062,
			"type":"SCALAR"
		}
	],
	"bufferViews":[
		{
			"buffer":0,
			"byteLength":28152,
			"byteOffset":0,
			"target":34962
		},
		{
			"buffer":0,
			"byteLength":28152,
			"byteOffset":28152,
			"target":34962
		},
		{
			"buffer":0,
			"byteLength":18768,
			"byteOffset":56304,
			"target":34962
		},
		{
			"buffer":0,
			"byteLength":18768,
			"byteOffset":75072,
			"target":34962
		},
		{
			"buffer":0,
			"byteLength":8124,
			"byteOffset":93840,
			"target":34963
		}
	],
	"samplers":[
		{
			"magFilter":9729,
			"minFilter":9987
		}
	],
	"buffers":[
		{
			"byteLength":101964,
			"uri":"forge_totem.bin"
		}
	]
}
