{
	"asset":{
		"generator":"Khronos glTF Blender I/O v5.1.20",
		"version":"2.0"
	},
	"scene":0,
	"scenes":[
		{
			"name":"Scene",
			"nodes":[
				0
			]
		}
	],
	"nodes":[
		{
			"mesh":0,
			"name":"forge_stool"
		}
	],
	"materials":[
		{
			"doubleSided":true,
			"emissiveFactor":[
				1,
				1,
				1
			],
			"emissiveTexture":{
				"index":0
			},
			"name":"forge_mat",
			"pbrMetallicRoughness":{
				"baseColorTexture":{
					"index":1
				},
				"metallicFactor":0,
				"roughnessFactor":0.8999999761581421
			}
		}
	],
	"meshes":[
		{
			"name":"Mesh",
			"primitives":[
				{
					"attributes":{
						"POSITION":0,
						"NORMAL":1,
						"TEXCOORD_0":2,
						"TEXCOORD_1":3
					},
					"indices":4,
					"material":0
				}
			]
		}
	],
	"textures":[
		{
			"sampler":0,
			"source":0
		},
		{
			"sampler":0,
			"source":1
		}
	],
	"images":[
		{
			"mimeType":"image/png",
			"name":"Dungeons_2_Texture_Emission_01",
			"uri":"Dungeons_2_Texture_Emission_01.png"
		},
		{
			"mimeType":"image/png",
			"name":"Dungeons_2_Texture_01_A",
			"uri":"Dungeons_2_Texture_01_A.png"
		}
	],
	"accessors":[
		{
			"bufferView":0,
			"componentType":5126,
			"count":372,
			"max":[
				0.22029004991054535,
				0.4649064838886261,
				0.22028988599777222
			],
			"min":[
				-0.22029006481170654,
				-1.2753907263629571e-08,
				-0.220289945602417
			],
			"type":"VEC3"
		},
		{
			"bufferView":1,
			"componentType":5126,
			"count":372,
			"type":"VEC3"
		},
		{
			"bufferView":2,
			"componentType":5126,
			"count":372,
			"type":"VEC2"
		},
		{
			"bufferView":3,
			"componentType":5126,
			"count":372,
			"type":"VEC2"
		},
		{
			"bufferView":4,
			"componentType":5123,
			"count":630,
			"type":"SCALAR"
		}
	],
	"bufferViews":[
		{
			"buffer":0,
			"byteLength":4464,
			"byteOffset":0,
			"target":34962
		},
		{
			"buffer":0,
			"byteLength":4464,
			"byteOffset":4464,
			"target":34962
		},
		{
			"buffer":0,
			"byteLength":2976,
			"byteOffset":8928,
			"target":34962
		},
		{
			"buffer":0,
			"byteLength":2976,
			"byteOffset":11904,
			"target":34962
		},
		{
			"buffer":0,
			"byteLength":1260,
			"byteOffset":14880,
			"target":34963
		}
	],
	"samplers":[
		{
			"magFilter":9729,
			"minFilter":9987
		}
	],
	"buffers":[
		{
			"byteLength":16140,
			"uri":"forge_stool.bin"
		}
	]
}
