{
	"asset":{
		"generator":"Khronos glTF Blender I/O v5.1.20",
		"version":"2.0"
	},
	"scene":0,
	"scenes":[
		{
			"name":"Scene",
			"nodes":[
				0
			]
		}
	],
	"nodes":[
		{
			"mesh":0,
			"name":"forge_crystal"
		}
	],
	"materials":[
		{
			"doubleSided":true,
			"emissiveFactor":[
				1,
				1,
				1
			],
			"emissiveTexture":{
				"index":0
			},
			"name":"forge_mat",
			"pbrMetallicRoughness":{
				"baseColorTexture":{
					"index":1
				},
				"metallicFactor":0,
				"roughnessFactor":0.8999999761581421
			}
		}
	],
	"meshes":[
		{
			"name":"Mesh",
			"primitives":[
				{
					"attributes":{
						"POSITION":0,
						"NORMAL":1,
						"TEXCOORD_0":2,
						"TEXCOORD_1":3
					},
					"indices":4,
					"material":0
				},
				{
					"attributes":{
						"POSITION":5,
						"NORMAL":6,
						"TEXCOORD_0":7,
						"TEXCOORD_1":8
					},
					"indices":9,
					"material":0
				}
			]
		}
	],
	"textures":[
		{
			"sampler":0,
			"source":0
		},
		{
			"sampler":0,
			"source":1
		}
	],
	"images":[
		{
			"mimeType":"image/png",
			"name":"Dungeons_2_Texture_Emission_01",
			"uri":"Dungeons_2_Texture_Emission_01.png"
		},
		{
			"mimeType":"image/png",
			"name":"Dungeons_2_Texture_01_A",
			"uri":"Dungeons_2_Texture_01_A.png"
		}
	],
	"accessors":[
		{
			"bufferView":0,
			"componentType":5126,
			"count":124,
			"max":[
				0.3660898804664612,
				0.5959024429321289,
				0.3237939476966858
			],
			"min":[
				-0.3660898804664612,
				0,
				-0.43793636560440063
			],
			"type":"VEC3"
		},
		{
			"bufferView":1,
			"componentType":5126,
			"count":124,
			"type":"VEC3"
		},
		{
			"bufferView":2,
			"componentType":5126,
			"count":124,
			"type":"VEC2"
		},
		{
			"bufferView":3,
			"componentType":5126,
			"count":124,
			"type":"VEC2"
		},
		{
			"bufferView":4,
			"componentType":5123,
			"count":138,
			"type":"SCALAR"
		},
		{
			"bufferView":5,
			"componentType":5126,
			"count":874,
			"max":[
				0.33939409255981445,
				1.1536535024642944,
				0.43793636560440063
			],
			"min":[
				-0.36162638664245605,
				0.12539955973625183,
				-0.37352511286735535
			],
			"type":"VEC3"
		},
		{
			"bufferView":6,
			"componentType":5126,
			"count":874,
			"type":"VEC3"
		},
		{
			"bufferView":7,
			"componentType":5126,
			"count":874,
			"type":"VEC2"
		},
		{
			"bufferView":8,
			"componentType":5126,
			"count":874,
			"type":"VEC2"
		},
		{
			"bufferView":9,
			"componentType":5123,
			"count":906,
			"type":"SCALAR"
		}
	],
	"bufferViews":[
		{
			"buffer":0,
			"byteLength":1488,
			"byteOffset":0,
			"target":34962
		},
		{
			"buffer":0,
			"byteLength":1488,
			"byteOffset":1488,
			"target":34962
		},
		{
			"buffer":0,
			"byteLength":992,
			"byteOffset":2976,
			"target":34962
		},
		{
			"buffer":0,
			"byteLength":992,
			"byteOffset":3968,
			"target":34962
		},
		{
			"buffer":0,
			"byteLength":276,
			"byteOffset":4960,
			"target":34963
		},
		{
			"buffer":0,
			"byteLength":10488,
			"byteOffset":5236,
			"target":34962
		},
		{
			"buffer":0,
			"byteLength":10488,
			"byteOffset":15724,
			"target":34962
		},
		{
			"buffer":0,
			"byteLength":6992,
			"byteOffset":26212,
			"target":34962
		},
		{
			"buffer":0,
			"byteLength":6992,
			"byteOffset":33204,
			"target":34962
		},
		{
			"buffer":0,
			"byteLength":1812,
			"byteOffset":40196,
			"target":34963
		}
	],
	"samplers":[
		{
			"magFilter":9729,
			"minFilter":9987
		}
	],
	"buffers":[
		{
			"byteLength":42008,
			"uri":"forge_crystal.bin"
		}
	]
}
