{
	"asset":{
		"generator":"Khronos glTF Blender I/O v5.1.20",
		"version":"2.0"
	},
	"scene":0,
	"scenes":[
		{
			"name":"Scene",
			"nodes":[
				0
			]
		}
	],
	"nodes":[
		{
			"mesh":0,
			"name":"forge_spike"
		}
	],
	"materials":[
		{
			"doubleSided":true,
			"emissiveFactor":[
				1,
				1,
				1
			],
			"emissiveTexture":{
				"index":0
			},
			"name":"forge_mat",
			"pbrMetallicRoughness":{
				"baseColorTexture":{
					"index":1
				},
				"metallicFactor":0,
				"roughnessFactor":0.8999999761581421
			}
		}
	],
	"meshes":[
		{
			"name":"Mesh",
			"primitives":[
				{
					"attributes":{
						"POSITION":0,
						"NORMAL":1,
						"TEXCOORD_0":2,
						"TEXCOORD_1":3
					},
					"indices":4,
					"material":0
				}
			]
		}
	],
	"textures":[
		{
			"sampler":0,
			"source":0
		},
		{
			"sampler":0,
			"source":1
		}
	],
	"images":[
		{
			"mimeType":"image/png",
			"name":"Dungeons_2_Texture_Emission_01",
			"uri":"Dungeons_2_Texture_Emission_01.png"
		},
		{
			"mimeType":"image/png",
			"name":"Dungeons_2_Texture_01_A",
			"uri":"Dungeons_2_Texture_01_A.png"
		}
	],
	"accessors":[
		{
			"bufferView":0,
			"componentType":5126,
			"count":493,
			"max":[
				0.6937780380249023,
				1.8111181259155273,
				0.2733120918273926
			],
			"min":[
				-0.6937780380249023,
				0,
				-0.2733120620250702
			],
			"type":"VEC3"
		},
		{
			"bufferView":1,
			"componentType":5126,
			"count":493,
			"type":"VEC3"
		},
		{
			"bufferView":2,
			"componentType":5126,
			"count":493,
			"type":"VEC2"
		},
		{
			"bufferView":3,
			"componentType":5126,
			"count":493,
			"type":"VEC2"
		},
		{
			"bufferView":4,
			"componentType":5123,
			"count":888,
			"type":"SCALAR"
		}
	],
	"bufferViews":[
		{
			"buffer":0,
			"byteLength":5916,
			"byteOffset":0,
			"target":34962
		},
		{
			"buffer":0,
			"byteLength":5916,
			"byteOffset":5916,
			"target":34962
		},
		{
			"buffer":0,
			"byteLength":3944,
			"byteOffset":11832,
			"target":34962
		},
		{
			"buffer":0,
			"byteLength":3944,
			"byteOffset":15776,
			"target":34962
		},
		{
			"buffer":0,
			"byteLength":1776,
			"byteOffset":19720,
			"target":34963
		}
	],
	"samplers":[
		{
			"magFilter":9729,
			"minFilter":9987
		}
	],
	"buffers":[
		{
			"byteLength":21496,
			"uri":"forge_spike.bin"
		}
	]
}
