{
	"asset":{
		"generator":"Khronos glTF Blender I/O v5.1.20",
		"version":"2.0"
	},
	"scene":0,
	"scenes":[
		{
			"name":"Scene",
			"nodes":[
				0
			]
		}
	],
	"nodes":[
		{
			"mesh":0,
			"name":"bog_shaman_hut"
		}
	],
	"materials":[
		{
			"doubleSided":true,
			"name":"bog_tiling_mat",
			"pbrMetallicRoughness":{
				"baseColorTexture":{
					"index":0
				},
				"metallicFactor":0,
				"roughnessFactor":0.8999999761581421
			}
		},
		{
			"doubleSided":true,
			"emissiveFactor":[
				1,
				1,
				1
			],
			"emissiveTexture":{
				"index":1
			},
			"name":"bog_mat",
			"pbrMetallicRoughness":{
				"baseColorTexture":{
					"index":2
				},
				"metallicFactor":0,
				"roughnessFactor":0.8999999761581421
			}
		}
	],
	"meshes":[
		{
			"name":"Mesh",
			"primitives":[
				{
					"attributes":{
						"POSITION":0,
						"NORMAL":1,
						"TEXCOORD_0":2,
						"TEXCOORD_1":3
					},
					"indices":4,
					"material":0
				},
				{
					"attributes":{
						"POSITION":5,
						"NORMAL":6,
						"TEXCOORD_0":7,
						"TEXCOORD_1":8
					},
					"indices":9,
					"material":1
				}
			]
		}
	],
	"textures":[
		{
			"sampler":0,
			"source":0
		},
		{
			"sampler":0,
			"source":1
		},
		{
			"sampler":0,
			"source":2
		}
	],
	"images":[
		{
			"mimeType":"image/png",
			"name":"Mud_Texture_01",
			"uri":"Mud_Texture_01.png"
		},
		{
			"mimeType":"image/png",
			"name":"PolygonGoblinWarCamp_Emissive_01_A",
			"uri":"PolygonGoblinWarCamp_Emissive_01_A.png"
		},
		{
			"mimeType":"image/png",
			"name":"PolygonGoblinWarCamp_Texture_01_A",
			"uri":"PolygonGoblinWarCamp_Texture_01_A.png"
		}
	],
	"accessors":[
		{
			"bufferView":0,
			"componentType":5126,
			"count":17232,
			"max":[
				6.528706073760986,
				6.756385326385498,
				5.159528732299805
			],
			"min":[
				-6.528706073760986,
				0,
				-5.159528732299805
			],
			"type":"VEC3"
		},
		{
			"bufferView":1,
			"componentType":5126,
			"count":17232,
			"type":"VEC3"
		},
		{
			"bufferView":2,
			"componentType":5126,
			"count":17232,
			"type":"VEC2"
		},
		{
			"bufferView":3,
			"componentType":5126,
			"count":17232,
			"type":"VEC2"
		},
		{
			"bufferView":4,
			"componentType":5123,
			"count":24531,
			"type":"SCALAR"
		},
		{
			"bufferView":5,
			"componentType":5126,
			"count":1280,
			"max":[
				4.2387375831604,
				5.5990400314331055,
				3.802917957305908
			],
			"min":[
				-3.7015879154205322,
				0.3575739860534668,
				-2.4921717643737793
			],
			"type":"VEC3"
		},
		{
			"bufferView":6,
			"componentType":5126,
			"count":1280,
			"type":"VEC3"
		},
		{
			"bufferView":7,
			"componentType":5126,
			"count":1280,
			"type":"VEC2"
		},
		{
			"bufferView":8,
			"componentType":5126,
			"count":1280,
			"type":"VEC2"
		},
		{
			"bufferView":9,
			"componentType":5123,
			"count":1764,
			"type":"SCALAR"
		}
	],
	"bufferViews":[
		{
			"buffer":0,
			"byteLength":206784,
			"byteOffset":0,
			"target":34962
		},
		{
			"buffer":0,
			"byteLength":206784,
			"byteOffset":206784,
			"target":34962
		},
		{
			"buffer":0,
			"byteLength":137856,
			"byteOffset":413568,
			"target":34962
		},
		{
			"buffer":0,
			"byteLength":137856,
			"byteOffset":551424,
			"target":34962
		},
		{
			"buffer":0,
			"byteLength":49062,
			"byteOffset":689280,
			"target":34963
		},
		{
			"buffer":0,
			"byteLength":15360,
			"byteOffset":738344,
			"target":34962
		},
		{
			"buffer":0,
			"byteLength":15360,
			"byteOffset":753704,
			"target":34962
		},
		{
			"buffer":0,
			"byteLength":10240,
			"byteOffset":769064,
			"target":34962
		},
		{
			"buffer":0,
			"byteLength":10240,
			"byteOffset":779304,
			"target":34962
		},
		{
			"buffer":0,
			"byteLength":3528,
			"byteOffset":789544,
			"target":34963
		}
	],
	"samplers":[
		{
			"magFilter":9729,
			"minFilter":9987
		}
	],
	"buffers":[
		{
			"byteLength":793072,
			"uri":"bog_shaman_hut.bin"
		}
	]
}
