{
	"asset":{
		"generator":"Khronos glTF Blender I/O v5.1.20",
		"version":"2.0"
	},
	"scene":0,
	"scenes":[
		{
			"name":"Scene",
			"nodes":[
				0
			]
		}
	],
	"nodes":[
		{
			"mesh":0,
			"name":"bog_cage"
		}
	],
	"materials":[
		{
			"doubleSided":true,
			"name":"bog_tiling_mat",
			"pbrMetallicRoughness":{
				"baseColorTexture":{
					"index":0
				},
				"metallicFactor":0,
				"roughnessFactor":0.8999999761581421
			}
		}
	],
	"meshes":[
		{
			"name":"Mesh",
			"primitives":[
				{
					"attributes":{
						"POSITION":0,
						"NORMAL":1,
						"TEXCOORD_0":2
					},
					"indices":3,
					"material":0
				}
			]
		}
	],
	"textures":[
		{
			"sampler":0,
			"source":0
		}
	],
	"images":[
		{
			"mimeType":"image/png",
			"name":"Mud_Texture_01",
			"uri":"Mud_Texture_01.png"
		}
	],
	"accessors":[
		{
			"bufferView":0,
			"componentType":5126,
			"count":6657,
			"max":[
				0.7546435594558716,
				2.5139083862304688,
				0.6829052567481995
			],
			"min":[
				-0.7546435594558716,
				0,
				-0.6829052567481995
			],
			"type":"VEC3"
		},
		{
			"bufferView":1,
			"componentType":5126,
			"count":6657,
			"type":"VEC3"
		},
		{
			"bufferView":2,
			"componentType":5126,
			"count":6657,
			"type":"VEC2"
		},
		{
			"bufferView":3,
			"componentType":5123,
			"count":9366,
			"type":"SCALAR"
		}
	],
	"bufferViews":[
		{
			"buffer":0,
			"byteLength":79884,
			"byteOffset":0,
			"target":34962
		},
		{
			"buffer":0,
			"byteLength":79884,
			"byteOffset":79884,
			"target":34962
		},
		{
			"buffer":0,
			"byteLength":53256,
			"byteOffset":159768,
			"target":34962
		},
		{
			"buffer":0,
			"byteLength":18732,
			"byteOffset":213024,
			"target":34963
		}
	],
	"samplers":[
		{
			"magFilter":9729,
			"minFilter":9987
		}
	],
	"buffers":[
		{
			"byteLength":231756,
			"uri":"bog_cage.bin"
		}
	]
}
