{
	"asset":{
		"generator":"Khronos glTF Blender I/O v5.1.20",
		"version":"2.0"
	},
	"scene":0,
	"scenes":[
		{
			"name":"Scene",
			"nodes":[
				0
			]
		}
	],
	"nodes":[
		{
			"mesh":0,
			"name":"bog_wall_c"
		}
	],
	"materials":[
		{
			"doubleSided":true,
			"name":"bog_tiling_mat",
			"pbrMetallicRoughness":{
				"baseColorTexture":{
					"index":0
				},
				"metallicFactor":0,
				"roughnessFactor":0.8999999761581421
			}
		},
		{
			"doubleSided":true,
			"emissiveFactor":[
				1,
				1,
				1
			],
			"emissiveTexture":{
				"index":1
			},
			"name":"bog_mat",
			"pbrMetallicRoughness":{
				"baseColorTexture":{
					"index":2
				},
				"metallicFactor":0,
				"roughnessFactor":0.8999999761581421
			}
		}
	],
	"meshes":[
		{
			"name":"Mesh",
			"primitives":[
				{
					"attributes":{
						"POSITION":0,
						"NORMAL":1,
						"TEXCOORD_0":2,
						"TEXCOORD_1":3
					},
					"indices":4,
					"material":0
				},
				{
					"attributes":{
						"POSITION":5,
						"NORMAL":6,
						"TEXCOORD_0":7,
						"TEXCOORD_1":8
					},
					"indices":9,
					"material":1
				}
			]
		}
	],
	"textures":[
		{
			"sampler":0,
			"source":0
		},
		{
			"sampler":0,
			"source":1
		},
		{
			"sampler":0,
			"source":2
		}
	],
	"images":[
		{
			"mimeType":"image/png",
			"name":"Mud_Texture_01",
			"uri":"Mud_Texture_01.png"
		},
		{
			"mimeType":"image/png",
			"name":"PolygonGoblinWarCamp_Emissive_01_A",
			"uri":"PolygonGoblinWarCamp_Emissive_01_A.png"
		},
		{
			"mimeType":"image/png",
			"name":"PolygonGoblinWarCamp_Texture_01_A",
			"uri":"PolygonGoblinWarCamp_Texture_01_A.png"
		}
	],
	"accessors":[
		{
			"bufferView":0,
			"componentType":5126,
			"count":2192,
			"max":[
				-0.11966921389102936,
				5.817927360534668,
				0.6844968795776367
			],
			"min":[
				-4.9914374351501465,
				0.11759191751480103,
				-0.7091490030288696
			],
			"type":"VEC3"
		},
		{
			"bufferView":1,
			"componentType":5126,
			"count":2192,
			"type":"VEC3"
		},
		{
			"bufferView":2,
			"componentType":5126,
			"count":2192,
			"type":"VEC2"
		},
		{
			"bufferView":3,
			"componentType":5126,
			"count":2192,
			"type":"VEC2"
		},
		{
			"bufferView":4,
			"componentType":5123,
			"count":2586,
			"type":"SCALAR"
		},
		{
			"bufferView":5,
			"componentType":5126,
			"count":2685,
			"max":[
				4.9914374351501465,
				7.0695481300354,
				0.7091490030288696
			],
			"min":[
				-0.1438969075679779,
				0,
				-0.5576028823852539
			],
			"type":"VEC3"
		},
		{
			"bufferView":6,
			"componentType":5126,
			"count":2685,
			"type":"VEC3"
		},
		{
			"bufferView":7,
			"componentType":5126,
			"count":2685,
			"type":"VEC2"
		},
		{
			"bufferView":8,
			"componentType":5126,
			"count":2685,
			"type":"VEC2"
		},
		{
			"bufferView":9,
			"componentType":5123,
			"count":3366,
			"type":"SCALAR"
		}
	],
	"bufferViews":[
		{
			"buffer":0,
			"byteLength":26304,
			"byteOffset":0,
			"target":34962
		},
		{
			"buffer":0,
			"byteLength":26304,
			"byteOffset":26304,
			"target":34962
		},
		{
			"buffer":0,
			"byteLength":17536,
			"byteOffset":52608,
			"target":34962
		},
		{
			"buffer":0,
			"byteLength":17536,
			"byteOffset":70144,
			"target":34962
		},
		{
			"buffer":0,
			"byteLength":5172,
			"byteOffset":87680,
			"target":34963
		},
		{
			"buffer":0,
			"byteLength":32220,
			"byteOffset":92852,
			"target":34962
		},
		{
			"buffer":0,
			"byteLength":32220,
			"byteOffset":125072,
			"target":34962
		},
		{
			"buffer":0,
			"byteLength":21480,
			"byteOffset":157292,
			"target":34962
		},
		{
			"buffer":0,
			"byteLength":21480,
			"byteOffset":178772,
			"target":34962
		},
		{
			"buffer":0,
			"byteLength":6732,
			"byteOffset":200252,
			"target":34963
		}
	],
	"samplers":[
		{
			"magFilter":9729,
			"minFilter":9987
		}
	],
	"buffers":[
		{
			"byteLength":206984,
			"uri":"bog_wall_c.bin"
		}
	]
}
