{
	"asset":{
		"generator":"Khronos glTF Blender I/O v5.1.20",
		"version":"2.0"
	},
	"scene":0,
	"scenes":[
		{
			"name":"Scene",
			"nodes":[
				0
			]
		}
	],
	"nodes":[
		{
			"mesh":0,
			"name":"bog_wall_e"
		}
	],
	"materials":[
		{
			"doubleSided":true,
			"emissiveFactor":[
				1,
				1,
				1
			],
			"emissiveTexture":{
				"index":0
			},
			"name":"bog_mat",
			"pbrMetallicRoughness":{
				"baseColorTexture":{
					"index":1
				},
				"metallicFactor":0,
				"roughnessFactor":0.8999999761581421
			}
		},
		{
			"doubleSided":true,
			"name":"bog_tiling_mat",
			"pbrMetallicRoughness":{
				"baseColorTexture":{
					"index":2
				},
				"metallicFactor":0,
				"roughnessFactor":0.8999999761581421
			}
		}
	],
	"meshes":[
		{
			"name":"Mesh",
			"primitives":[
				{
					"attributes":{
						"POSITION":0,
						"NORMAL":1,
						"TEXCOORD_0":2,
						"TEXCOORD_1":3
					},
					"indices":4,
					"material":0
				},
				{
					"attributes":{
						"POSITION":5,
						"NORMAL":6,
						"TEXCOORD_0":7,
						"TEXCOORD_1":8
					},
					"indices":9,
					"material":1
				}
			]
		}
	],
	"textures":[
		{
			"sampler":0,
			"source":0
		},
		{
			"sampler":0,
			"source":1
		},
		{
			"sampler":0,
			"source":2
		}
	],
	"images":[
		{
			"mimeType":"image/png",
			"name":"PolygonGoblinWarCamp_Emissive_01_A",
			"uri":"PolygonGoblinWarCamp_Emissive_01_A.png"
		},
		{
			"mimeType":"image/png",
			"name":"PolygonGoblinWarCamp_Texture_01_A",
			"uri":"PolygonGoblinWarCamp_Texture_01_A.png"
		},
		{
			"mimeType":"image/png",
			"name":"Mud_Texture_01",
			"uri":"Mud_Texture_01.png"
		}
	],
	"accessors":[
		{
			"bufferView":0,
			"componentType":5126,
			"count":2242,
			"max":[
				0.007009051740169525,
				6.244294166564941,
				0.8406052589416504
			],
			"min":[
				-4.986731052398682,
				0,
				-0.6846100091934204
			],
			"type":"VEC3"
		},
		{
			"bufferView":1,
			"componentType":5126,
			"count":2242,
			"type":"VEC3"
		},
		{
			"bufferView":2,
			"componentType":5126,
			"count":2242,
			"type":"VEC2"
		},
		{
			"bufferView":3,
			"componentType":5126,
			"count":2242,
			"type":"VEC2"
		},
		{
			"bufferView":4,
			"componentType":5123,
			"count":3120,
			"type":"SCALAR"
		},
		{
			"bufferView":5,
			"componentType":5126,
			"count":3106,
			"max":[
				4.986731052398682,
				6.609573841094971,
				0.553040623664856
			],
			"min":[
				0.024744674563407898,
				0.023717612028121948,
				-0.8406052589416504
			],
			"type":"VEC3"
		},
		{
			"bufferView":6,
			"componentType":5126,
			"count":3106,
			"type":"VEC3"
		},
		{
			"bufferView":7,
			"componentType":5126,
			"count":3106,
			"type":"VEC2"
		},
		{
			"bufferView":8,
			"componentType":5126,
			"count":3106,
			"type":"VEC2"
		},
		{
			"bufferView":9,
			"componentType":5123,
			"count":3900,
			"type":"SCALAR"
		}
	],
	"bufferViews":[
		{
			"buffer":0,
			"byteLength":26904,
			"byteOffset":0,
			"target":34962
		},
		{
			"buffer":0,
			"byteLength":26904,
			"byteOffset":26904,
			"target":34962
		},
		{
			"buffer":0,
			"byteLength":17936,
			"byteOffset":53808,
			"target":34962
		},
		{
			"buffer":0,
			"byteLength":17936,
			"byteOffset":71744,
			"target":34962
		},
		{
			"buffer":0,
			"byteLength":6240,
			"byteOffset":89680,
			"target":34963
		},
		{
			"buffer":0,
			"byteLength":37272,
			"byteOffset":95920,
			"target":34962
		},
		{
			"buffer":0,
			"byteLength":37272,
			"byteOffset":133192,
			"target":34962
		},
		{
			"buffer":0,
			"byteLength":24848,
			"byteOffset":170464,
			"target":34962
		},
		{
			"buffer":0,
			"byteLength":24848,
			"byteOffset":195312,
			"target":34962
		},
		{
			"buffer":0,
			"byteLength":7800,
			"byteOffset":220160,
			"target":34963
		}
	],
	"samplers":[
		{
			"magFilter":9729,
			"minFilter":9987
		}
	],
	"buffers":[
		{
			"byteLength":227960,
			"uri":"bog_wall_e.bin"
		}
	]
}
