{
	"asset":{
		"generator":"Khronos glTF Blender I/O v5.1.20",
		"version":"2.0"
	},
	"scene":0,
	"scenes":[
		{
			"name":"Scene",
			"nodes":[
				0
			]
		}
	],
	"nodes":[
		{
			"mesh":0,
			"name":"bog_ruins_arch"
		}
	],
	"materials":[
		{
			"doubleSided":true,
			"emissiveFactor":[
				1,
				1,
				1
			],
			"emissiveTexture":{
				"index":0
			},
			"name":"bog_mat",
			"pbrMetallicRoughness":{
				"baseColorTexture":{
					"index":1
				},
				"metallicFactor":0,
				"roughnessFactor":0.8999999761581421
			}
		}
	],
	"meshes":[
		{
			"name":"Mesh",
			"primitives":[
				{
					"attributes":{
						"POSITION":0,
						"NORMAL":1,
						"TEXCOORD_0":2
					},
					"indices":3,
					"material":0
				}
			]
		}
	],
	"textures":[
		{
			"sampler":0,
			"source":0
		},
		{
			"sampler":0,
			"source":1
		}
	],
	"images":[
		{
			"mimeType":"image/png",
			"name":"PolygonGoblinWarCamp_Emissive_01_A",
			"uri":"PolygonGoblinWarCamp_Emissive_01_A.png"
		},
		{
			"mimeType":"image/png",
			"name":"PolygonGoblinWarCamp_Texture_01_A",
			"uri":"PolygonGoblinWarCamp_Texture_01_A.png"
		}
	],
	"accessors":[
		{
			"bufferView":0,
			"componentType":5126,
			"count":7995,
			"max":[
				3.879837989807129,
				4.021705627441406,
				0.5088574290275574
			],
			"min":[
				-3.87983775138855,
				-2.9412920099503026e-08,
				-0.5088579058647156
			],
			"type":"VEC3"
		},
		{
			"bufferView":1,
			"componentType":5126,
			"count":7995,
			"type":"VEC3"
		},
		{
			"bufferView":2,
			"componentType":5126,
			"count":7995,
			"type":"VEC2"
		},
		{
			"bufferView":3,
			"componentType":5123,
			"count":11742,
			"type":"SCALAR"
		}
	],
	"bufferViews":[
		{
			"buffer":0,
			"byteLength":95940,
			"byteOffset":0,
			"target":34962
		},
		{
			"buffer":0,
			"byteLength":95940,
			"byteOffset":95940,
			"target":34962
		},
		{
			"buffer":0,
			"byteLength":63960,
			"byteOffset":191880,
			"target":34962
		},
		{
			"buffer":0,
			"byteLength":23484,
			"byteOffset":255840,
			"target":34963
		}
	],
	"samplers":[
		{
			"magFilter":9729,
			"minFilter":9987
		}
	],
	"buffers":[
		{
			"byteLength":279324,
			"uri":"bog_ruins_arch.bin"
		}
	]
}
