{
	"asset":{
		"generator":"Khronos glTF Blender I/O v5.1.20",
		"version":"2.0"
	},
	"scene":0,
	"scenes":[
		{
			"name":"Scene",
			"nodes":[
				0
			]
		}
	],
	"nodes":[
		{
			"mesh":0,
			"name":"bog_forge"
		}
	],
	"materials":[
		{
			"doubleSided":true,
			"emissiveFactor":[
				1,
				1,
				1
			],
			"emissiveTexture":{
				"index":0
			},
			"name":"bog_mat",
			"pbrMetallicRoughness":{
				"baseColorTexture":{
					"index":1
				},
				"metallicFactor":0,
				"roughnessFactor":0.8999999761581421
			}
		}
	],
	"meshes":[
		{
			"name":"Mesh",
			"primitives":[
				{
					"attributes":{
						"POSITION":0,
						"NORMAL":1,
						"TEXCOORD_0":2,
						"TEXCOORD_1":3
					},
					"indices":4,
					"material":0
				}
			]
		}
	],
	"textures":[
		{
			"sampler":0,
			"source":0
		},
		{
			"sampler":0,
			"source":1
		}
	],
	"images":[
		{
			"mimeType":"image/png",
			"name":"PolygonGoblinWarCamp_Emissive_01_A",
			"uri":"PolygonGoblinWarCamp_Emissive_01_A.png"
		},
		{
			"mimeType":"image/png",
			"name":"PolygonGoblinWarCamp_Texture_01_A",
			"uri":"PolygonGoblinWarCamp_Texture_01_A.png"
		}
	],
	"accessors":[
		{
			"bufferView":0,
			"componentType":5126,
			"count":4335,
			"max":[
				0.7856468558311462,
				3.6237010955810547,
				0.7811582684516907
			],
			"min":[
				-1.0174614191055298,
				0,
				-0.7811582684516907
			],
			"type":"VEC3"
		},
		{
			"bufferView":1,
			"componentType":5126,
			"count":4335,
			"type":"VEC3"
		},
		{
			"bufferView":2,
			"componentType":5126,
			"count":4335,
			"type":"VEC2"
		},
		{
			"bufferView":3,
			"componentType":5126,
			"count":4335,
			"type":"VEC2"
		},
		{
			"bufferView":4,
			"componentType":5123,
			"count":6234,
			"type":"SCALAR"
		}
	],
	"bufferViews":[
		{
			"buffer":0,
			"byteLength":52020,
			"byteOffset":0,
			"target":34962
		},
		{
			"buffer":0,
			"byteLength":52020,
			"byteOffset":52020,
			"target":34962
		},
		{
			"buffer":0,
			"byteLength":34680,
			"byteOffset":104040,
			"target":34962
		},
		{
			"buffer":0,
			"byteLength":34680,
			"byteOffset":138720,
			"target":34962
		},
		{
			"buffer":0,
			"byteLength":12468,
			"byteOffset":173400,
			"target":34963
		}
	],
	"samplers":[
		{
			"magFilter":9729,
			"minFilter":9987
		}
	],
	"buffers":[
		{
			"byteLength":185868,
			"uri":"bog_forge.bin"
		}
	]
}
