{
	"asset":{
		"generator":"Khronos glTF Blender I/O v5.1.20",
		"version":"2.0"
	},
	"scene":0,
	"scenes":[
		{
			"name":"Scene",
			"nodes":[
				0
			]
		}
	],
	"nodes":[
		{
			"mesh":0,
			"name":"bog_log"
		}
	],
	"materials":[
		{
			"doubleSided":true,
			"emissiveFactor":[
				1,
				1,
				1
			],
			"emissiveTexture":{
				"index":0
			},
			"name":"bog_mat",
			"pbrMetallicRoughness":{
				"baseColorTexture":{
					"index":1
				},
				"metallicFactor":0,
				"roughnessFactor":0.8999999761581421
			}
		}
	],
	"meshes":[
		{
			"name":"Mesh",
			"primitives":[
				{
					"attributes":{
						"POSITION":0,
						"NORMAL":1,
						"TEXCOORD_0":2,
						"COLOR_0":3,
						"COLOR_1":4,
						"COLOR_2":5,
						"COLOR_3":6
					},
					"indices":7,
					"material":0
				}
			]
		}
	],
	"textures":[
		{
			"sampler":0,
			"source":0
		},
		{
			"sampler":0,
			"source":1
		}
	],
	"images":[
		{
			"mimeType":"image/png",
			"name":"PolygonGoblinWarCamp_Emissive_01_A",
			"uri":"PolygonGoblinWarCamp_Emissive_01_A.png"
		},
		{
			"mimeType":"image/png",
			"name":"PolygonGoblinWarCamp_Texture_01_A",
			"uri":"PolygonGoblinWarCamp_Texture_01_A.png"
		}
	],
	"accessors":[
		{
			"bufferView":0,
			"componentType":5126,
			"count":1078,
			"max":[
				0.6098479628562927,
				1.5812828540802002,
				2.868630886077881
			],
			"min":[
				-0.6098479628562927,
				0,
				-2.868630886077881
			],
			"type":"VEC3"
		},
		{
			"bufferView":1,
			"componentType":5126,
			"count":1078,
			"type":"VEC3"
		},
		{
			"bufferView":2,
			"componentType":5126,
			"count":1078,
			"type":"VEC2"
		},
		{
			"bufferView":3,
			"componentType":5121,
			"count":1078,
			"normalized":true,
			"type":"VEC4"
		},
		{
			"bufferView":4,
			"componentType":5123,
			"count":1078,
			"normalized":true,
			"type":"VEC4"
		},
		{
			"bufferView":5,
			"componentType":5123,
			"count":1078,
			"normalized":true,
			"type":"VEC4"
		},
		{
			"bufferView":6,
			"componentType":5123,
			"count":1078,
			"normalized":true,
			"type":"VEC4"
		},
		{
			"bufferView":7,
			"componentType":5123,
			"count":1488,
			"type":"SCALAR"
		}
	],
	"bufferViews":[
		{
			"buffer":0,
			"byteLength":12936,
			"byteOffset":0,
			"target":34962
		},
		{
			"buffer":0,
			"byteLength":12936,
			"byteOffset":12936,
			"target":34962
		},
		{
			"buffer":0,
			"byteLength":8624,
			"byteOffset":25872,
			"target":34962
		},
		{
			"buffer":0,
			"byteLength":4312,
			"byteOffset":34496,
			"target":34962
		},
		{
			"buffer":0,
			"byteLength":8624,
			"byteOffset":38808,
			"target":34962
		},
		{
			"buffer":0,
			"byteLength":8624,
			"byteOffset":47432,
			"target":34962
		},
		{
			"buffer":0,
			"byteLength":8624,
			"byteOffset":56056,
			"target":34962
		},
		{
			"buffer":0,
			"byteLength":2976,
			"byteOffset":64680,
			"target":34963
		}
	],
	"samplers":[
		{
			"magFilter":9729,
			"minFilter":9987
		}
	],
	"buffers":[
		{
			"byteLength":67656,
			"uri":"bog_log.bin"
		}
	]
}
