{
	"asset":{
		"generator":"Khronos glTF Blender I/O v5.1.20",
		"version":"2.0"
	},
	"scene":0,
	"scenes":[
		{
			"name":"Scene",
			"nodes":[
				0
			]
		}
	],
	"nodes":[
		{
			"mesh":0,
			"name":"bog_tent_b"
		}
	],
	"materials":[
		{
			"doubleSided":true,
			"name":"bog_tiling_mat",
			"pbrMetallicRoughness":{
				"baseColorTexture":{
					"index":0
				},
				"metallicFactor":0,
				"roughnessFactor":0.8999999761581421
			}
		},
		{
			"doubleSided":true,
			"emissiveFactor":[
				1,
				1,
				1
			],
			"emissiveTexture":{
				"index":1
			},
			"name":"bog_mat",
			"pbrMetallicRoughness":{
				"baseColorTexture":{
					"index":2
				},
				"metallicFactor":0,
				"roughnessFactor":0.8999999761581421
			}
		}
	],
	"meshes":[
		{
			"name":"Mesh",
			"primitives":[
				{
					"attributes":{
						"POSITION":0,
						"NORMAL":1,
						"TEXCOORD_0":2
					},
					"indices":3,
					"material":0
				},
				{
					"attributes":{
						"POSITION":4,
						"NORMAL":5,
						"TEXCOORD_0":6
					},
					"indices":7,
					"material":1
				}
			]
		}
	],
	"textures":[
		{
			"sampler":0,
			"source":0
		},
		{
			"sampler":0,
			"source":1
		},
		{
			"sampler":0,
			"source":2
		}
	],
	"images":[
		{
			"mimeType":"image/png",
			"name":"Mud_Texture_01",
			"uri":"Mud_Texture_01.png"
		},
		{
			"mimeType":"image/png",
			"name":"PolygonGoblinWarCamp_Emissive_01_A",
			"uri":"PolygonGoblinWarCamp_Emissive_01_A.png"
		},
		{
			"mimeType":"image/png",
			"name":"PolygonGoblinWarCamp_Texture_01_A",
			"uri":"PolygonGoblinWarCamp_Texture_01_A.png"
		}
	],
	"accessors":[
		{
			"bufferView":0,
			"componentType":5126,
			"count":5433,
			"max":[
				3.9212231636047363,
				3.8327560424804688,
				2.3882956504821777
			],
			"min":[
				-3.9212231636047363,
				0,
				-2.3882956504821777
			],
			"type":"VEC3"
		},
		{
			"bufferView":1,
			"componentType":5126,
			"count":5433,
			"type":"VEC3"
		},
		{
			"bufferView":2,
			"componentType":5126,
			"count":5433,
			"type":"VEC2"
		},
		{
			"bufferView":3,
			"componentType":5123,
			"count":8787,
			"type":"SCALAR"
		},
		{
			"bufferView":4,
			"componentType":5126,
			"count":54,
			"max":[
				3.6129443645477295,
				2.9411375522613525,
				1.6149699687957764
			],
			"min":[
				-3.5539157390594482,
				0.5455469489097595,
				-1.8143213987350464
			],
			"type":"VEC3"
		},
		{
			"bufferView":5,
			"componentType":5126,
			"count":54,
			"type":"VEC3"
		},
		{
			"bufferView":6,
			"componentType":5126,
			"count":54,
			"type":"VEC2"
		},
		{
			"bufferView":7,
			"componentType":5123,
			"count":144,
			"type":"SCALAR"
		}
	],
	"bufferViews":[
		{
			"buffer":0,
			"byteLength":65196,
			"byteOffset":0,
			"target":34962
		},
		{
			"buffer":0,
			"byteLength":65196,
			"byteOffset":65196,
			"target":34962
		},
		{
			"buffer":0,
			"byteLength":43464,
			"byteOffset":130392,
			"target":34962
		},
		{
			"buffer":0,
			"byteLength":17574,
			"byteOffset":173856,
			"target":34963
		},
		{
			"buffer":0,
			"byteLength":648,
			"byteOffset":191432,
			"target":34962
		},
		{
			"buffer":0,
			"byteLength":648,
			"byteOffset":192080,
			"target":34962
		},
		{
			"buffer":0,
			"byteLength":432,
			"byteOffset":192728,
			"target":34962
		},
		{
			"buffer":0,
			"byteLength":288,
			"byteOffset":193160,
			"target":34963
		}
	],
	"samplers":[
		{
			"magFilter":9729,
			"minFilter":9987
		}
	],
	"buffers":[
		{
			"byteLength":193448,
			"uri":"bog_tent_b.bin"
		}
	]
}
