{
	"asset":{
		"generator":"Khronos glTF Blender I/O v5.1.20",
		"version":"2.0"
	},
	"scene":0,
	"scenes":[
		{
			"name":"Scene",
			"nodes":[
				0
			]
		}
	],
	"nodes":[
		{
			"mesh":0,
			"name":"bog_hq"
		}
	],
	"materials":[
		{
			"doubleSided":true,
			"emissiveFactor":[
				1,
				1,
				1
			],
			"emissiveTexture":{
				"index":0
			},
			"name":"bog_mat",
			"pbrMetallicRoughness":{
				"baseColorTexture":{
					"index":1
				},
				"metallicFactor":0,
				"roughnessFactor":0.8999999761581421
			}
		},
		{
			"doubleSided":true,
			"name":"bog_tiling_mat",
			"pbrMetallicRoughness":{
				"baseColorTexture":{
					"index":2
				},
				"metallicFactor":0,
				"roughnessFactor":0.8999999761581421
			}
		}
	],
	"meshes":[
		{
			"name":"Mesh",
			"primitives":[
				{
					"attributes":{
						"POSITION":0,
						"NORMAL":1,
						"TEXCOORD_0":2,
						"TEXCOORD_1":3
					},
					"indices":4,
					"material":0
				},
				{
					"attributes":{
						"POSITION":5,
						"NORMAL":6,
						"TEXCOORD_0":7,
						"TEXCOORD_1":8
					},
					"indices":9,
					"material":0
				},
				{
					"attributes":{
						"POSITION":10,
						"NORMAL":11,
						"TEXCOORD_0":12,
						"TEXCOORD_1":13
					},
					"indices":14,
					"material":0
				},
				{
					"attributes":{
						"POSITION":15,
						"NORMAL":16,
						"TEXCOORD_0":17,
						"TEXCOORD_1":18
					},
					"indices":19,
					"material":1
				},
				{
					"attributes":{
						"POSITION":20,
						"NORMAL":21,
						"TEXCOORD_0":22,
						"TEXCOORD_1":23
					},
					"indices":24,
					"material":0
				}
			]
		}
	],
	"textures":[
		{
			"sampler":0,
			"source":0
		},
		{
			"sampler":0,
			"source":1
		},
		{
			"sampler":0,
			"source":2
		}
	],
	"images":[
		{
			"mimeType":"image/png",
			"name":"PolygonGoblinWarCamp_Emissive_01_A",
			"uri":"PolygonGoblinWarCamp_Emissive_01_A.png"
		},
		{
			"mimeType":"image/png",
			"name":"PolygonGoblinWarCamp_Texture_01_A",
			"uri":"PolygonGoblinWarCamp_Texture_01_A.png"
		},
		{
			"mimeType":"image/png",
			"name":"Mud_Texture_01",
			"uri":"Mud_Texture_01.png"
		}
	],
	"accessors":[
		{
			"bufferView":0,
			"componentType":5126,
			"count":1386,
			"max":[
				0.9116525650024414,
				10.386853218078613,
				5.302115440368652
			],
			"min":[
				-10.20366096496582,
				0.665316104888916,
				-3.973367691040039
			],
			"type":"VEC3"
		},
		{
			"bufferView":1,
			"componentType":5126,
			"count":1386,
			"type":"VEC3"
		},
		{
			"bufferView":2,
			"componentType":5126,
			"count":1386,
			"type":"VEC2"
		},
		{
			"bufferView":3,
			"componentType":5126,
			"count":1386,
			"type":"VEC2"
		},
		{
			"bufferView":4,
			"componentType":5123,
			"count":2064,
			"type":"SCALAR"
		},
		{
			"bufferView":5,
			"componentType":5126,
			"count":2425,
			"max":[
				5.684390068054199,
				12.538193702697754,
				4.926973342895508
			],
			"min":[
				-9.681861877441406,
				1.7368276119232178,
				-4.238551139831543
			],
			"type":"VEC3"
		},
		{
			"bufferView":6,
			"componentType":5126,
			"count":2425,
			"type":"VEC3"
		},
		{
			"bufferView":7,
			"componentType":5126,
			"count":2425,
			"type":"VEC2"
		},
		{
			"bufferView":8,
			"componentType":5126,
			"count":2425,
			"type":"VEC2"
		},
		{
			"bufferView":9,
			"componentType":5123,
			"count":3462,
			"type":"SCALAR"
		},
		{
			"bufferView":10,
			"componentType":5126,
			"count":494,
			"max":[
				-4.954143047332764,
				4.387100696563721,
				5.453481674194336
			],
			"min":[
				-10.393430709838867,
				1.9230759143829346,
				0.49289536476135254
			],
			"type":"VEC3"
		},
		{
			"bufferView":11,
			"componentType":5126,
			"count":494,
			"type":"VEC3"
		},
		{
			"bufferView":12,
			"componentType":5126,
			"count":494,
			"type":"VEC2"
		},
		{
			"bufferView":13,
			"componentType":5126,
			"count":494,
			"type":"VEC2"
		},
		{
			"bufferView":14,
			"componentType":5123,
			"count":708,
			"type":"SCALAR"
		},
		{
			"bufferView":15,
			"componentType":5126,
			"count":64744,
			"max":[
				11.099725723266602,
				13.350133895874023,
				6.366828918457031
			],
			"min":[
				-11.099725723266602,
				0,
				-6.366828918457031
			],
			"type":"VEC3"
		},
		{
			"bufferView":16,
			"componentType":5126,
			"count":64744,
			"type":"VEC3"
		},
		{
			"bufferView":17,
			"componentType":5126,
			"count":64744,
			"type":"VEC2"
		},
		{
			"bufferView":18,
			"componentType":5126,
			"count":64744,
			"type":"VEC2"
		},
		{
			"bufferView":19,
			"componentType":5123,
			"count":93009,
			"type":"SCALAR"
		},
		{
			"bufferView":20,
			"componentType":5126,
			"count":926,
			"max":[
				10.431079864501953,
				2.7474091053009033,
				4.838396072387695
			],
			"min":[
				4.500936508178711,
				0.6347368955612183,
				-0.8970677256584167
			],
			"type":"VEC3"
		},
		{
			"bufferView":21,
			"componentType":5126,
			"count":926,
			"type":"VEC3"
		},
		{
			"bufferView":22,
			"componentType":5126,
			"count":926,
			"type":"VEC2"
		},
		{
			"bufferView":23,
			"componentType":5126,
			"count":926,
			"type":"VEC2"
		},
		{
			"bufferView":24,
			"componentType":5123,
			"count":1428,
			"type":"SCALAR"
		}
	],
	"bufferViews":[
		{
			"buffer":0,
			"byteLength":16632,
			"byteOffset":0,
			"target":34962
		},
		{
			"buffer":0,
			"byteLength":16632,
			"byteOffset":16632,
			"target":34962
		},
		{
			"buffer":0,
			"byteLength":11088,
			"byteOffset":33264,
			"target":34962
		},
		{
			"buffer":0,
			"byteLength":11088,
			"byteOffset":44352,
			"target":34962
		},
		{
			"buffer":0,
			"byteLength":4128,
			"byteOffset":55440,
			"target":34963
		},
		{
			"buffer":0,
			"byteLength":29100,
			"byteOffset":59568,
			"target":34962
		},
		{
			"buffer":0,
			"byteLength":29100,
			"byteOffset":88668,
			"target":34962
		},
		{
			"buffer":0,
			"byteLength":19400,
			"byteOffset":117768,
			"target":34962
		},
		{
			"buffer":0,
			"byteLength":19400,
			"byteOffset":137168,
			"target":34962
		},
		{
			"buffer":0,
			"byteLength":6924,
			"byteOffset":156568,
			"target":34963
		},
		{
			"buffer":0,
			"byteLength":5928,
			"byteOffset":163492,
			"target":34962
		},
		{
			"buffer":0,
			"byteLength":5928,
			"byteOffset":169420,
			"target":34962
		},
		{
			"buffer":0,
			"byteLength":3952,
			"byteOffset":175348,
			"target":34962
		},
		{
			"buffer":0,
			"byteLength":3952,
			"byteOffset":179300,
			"target":34962
		},
		{
			"buffer":0,
			"byteLength":1416,
			"byteOffset":183252,
			"target":34963
		},
		{
			"buffer":0,
			"byteLength":776928,
			"byteOffset":184668,
			"target":34962
		},
		{
			"buffer":0,
			"byteLength":776928,
			"byteOffset":961596,
			"target":34962
		},
		{
			"buffer":0,
			"byteLength":517952,
			"byteOffset":1738524,
			"target":34962
		},
		{
			"buffer":0,
			"byteLength":517952,
			"byteOffset":2256476,
			"target":34962
		},
		{
			"buffer":0,
			"byteLength":186018,
			"byteOffset":2774428,
			"target":34963
		},
		{
			"buffer":0,
			"byteLength":11112,
			"byteOffset":2960448,
			"target":34962
		},
		{
			"buffer":0,
			"byteLength":11112,
			"byteOffset":2971560,
			"target":34962
		},
		{
			"buffer":0,
			"byteLength":7408,
			"byteOffset":2982672,
			"target":34962
		},
		{
			"buffer":0,
			"byteLength":7408,
			"byteOffset":2990080,
			"target":34962
		},
		{
			"buffer":0,
			"byteLength":2856,
			"byteOffset":2997488,
			"target":34963
		}
	],
	"samplers":[
		{
			"magFilter":9729,
			"minFilter":9987
		}
	],
	"buffers":[
		{
			"byteLength":3000344,
			"uri":"bog_hq.bin"
		}
	]
}
