{
	"asset":{
		"generator":"Khronos glTF Blender I/O v5.1.20",
		"version":"2.0"
	},
	"scene":0,
	"scenes":[
		{
			"name":"Scene",
			"nodes":[
				0
			]
		}
	],
	"nodes":[
		{
			"mesh":0,
			"name":"bog_treehouse"
		}
	],
	"materials":[
		{
			"doubleSided":true,
			"name":"bog_tiling_mat",
			"pbrMetallicRoughness":{
				"baseColorTexture":{
					"index":0
				},
				"metallicFactor":0,
				"roughnessFactor":0.8999999761581421
			}
		}
	],
	"meshes":[
		{
			"name":"Mesh",
			"primitives":[
				{
					"attributes":{
						"POSITION":0,
						"NORMAL":1,
						"TEXCOORD_0":2,
						"TEXCOORD_1":3
					},
					"indices":4,
					"material":0
				}
			]
		}
	],
	"textures":[
		{
			"sampler":0,
			"source":0
		}
	],
	"images":[
		{
			"mimeType":"image/png",
			"name":"Mud_Texture_01",
			"uri":"Mud_Texture_01.png"
		}
	],
	"accessors":[
		{
			"bufferView":0,
			"componentType":5126,
			"count":7326,
			"max":[
				3.287806272506714,
				8.838955879211426,
				3.099944829940796
			],
			"min":[
				-3.287806272506714,
				1.572445427200364e-07,
				-3.099945306777954
			],
			"type":"VEC3"
		},
		{
			"bufferView":1,
			"componentType":5126,
			"count":7326,
			"type":"VEC3"
		},
		{
			"bufferView":2,
			"componentType":5126,
			"count":7326,
			"type":"VEC2"
		},
		{
			"bufferView":3,
			"componentType":5126,
			"count":7326,
			"type":"VEC2"
		},
		{
			"bufferView":4,
			"componentType":5123,
			"count":10218,
			"type":"SCALAR"
		}
	],
	"bufferViews":[
		{
			"buffer":0,
			"byteLength":87912,
			"byteOffset":0,
			"target":34962
		},
		{
			"buffer":0,
			"byteLength":87912,
			"byteOffset":87912,
			"target":34962
		},
		{
			"buffer":0,
			"byteLength":58608,
			"byteOffset":175824,
			"target":34962
		},
		{
			"buffer":0,
			"byteLength":58608,
			"byteOffset":234432,
			"target":34962
		},
		{
			"buffer":0,
			"byteLength":20436,
			"byteOffset":293040,
			"target":34963
		}
	],
	"samplers":[
		{
			"magFilter":9729,
			"minFilter":9987
		}
	],
	"buffers":[
		{
			"byteLength":313476,
			"uri":"bog_treehouse.bin"
		}
	]
}
