{
	"asset":{
		"generator":"Khronos glTF Blender I/O v5.1.20",
		"version":"2.0"
	},
	"scene":0,
	"scenes":[
		{
			"name":"Scene",
			"nodes":[
				0
			]
		}
	],
	"nodes":[
		{
			"mesh":0,
			"name":"bog_walkway"
		}
	],
	"materials":[
		{
			"doubleSided":true,
			"emissiveFactor":[
				1,
				1,
				1
			],
			"emissiveTexture":{
				"index":0
			},
			"name":"bog_mat",
			"pbrMetallicRoughness":{
				"baseColorTexture":{
					"index":1
				},
				"metallicFactor":0,
				"roughnessFactor":0.8999999761581421
			}
		}
	],
	"meshes":[
		{
			"name":"Mesh",
			"primitives":[
				{
					"attributes":{
						"POSITION":0,
						"NORMAL":1,
						"TEXCOORD_0":2,
						"TEXCOORD_1":3
					},
					"indices":4,
					"material":0
				}
			]
		}
	],
	"textures":[
		{
			"sampler":0,
			"source":0
		},
		{
			"sampler":0,
			"source":1
		}
	],
	"images":[
		{
			"mimeType":"image/png",
			"name":"PolygonGoblinWarCamp_Emissive_01_A",
			"uri":"PolygonGoblinWarCamp_Emissive_01_A.png"
		},
		{
			"mimeType":"image/png",
			"name":"PolygonGoblinWarCamp_Texture_01_A",
			"uri":"PolygonGoblinWarCamp_Texture_01_A.png"
		}
	],
	"accessors":[
		{
			"bufferView":0,
			"componentType":5126,
			"count":1973,
			"max":[
				1.4571298360824585,
				2.6717541217803955,
				1.358156442642212
			],
			"min":[
				-1.4571298360824585,
				0,
				-1.358156442642212
			],
			"type":"VEC3"
		},
		{
			"bufferView":1,
			"componentType":5126,
			"count":1973,
			"type":"VEC3"
		},
		{
			"bufferView":2,
			"componentType":5126,
			"count":1973,
			"type":"VEC2"
		},
		{
			"bufferView":3,
			"componentType":5126,
			"count":1973,
			"type":"VEC2"
		},
		{
			"bufferView":4,
			"componentType":5123,
			"count":2802,
			"type":"SCALAR"
		}
	],
	"bufferViews":[
		{
			"buffer":0,
			"byteLength":23676,
			"byteOffset":0,
			"target":34962
		},
		{
			"buffer":0,
			"byteLength":23676,
			"byteOffset":23676,
			"target":34962
		},
		{
			"buffer":0,
			"byteLength":15784,
			"byteOffset":47352,
			"target":34962
		},
		{
			"buffer":0,
			"byteLength":15784,
			"byteOffset":63136,
			"target":34962
		},
		{
			"buffer":0,
			"byteLength":5604,
			"byteOffset":78920,
			"target":34963
		}
	],
	"samplers":[
		{
			"magFilter":9729,
			"minFilter":9987
		}
	],
	"buffers":[
		{
			"byteLength":84524,
			"uri":"bog_walkway.bin"
		}
	]
}
