{
	"asset":{
		"generator":"Khronos glTF Blender I/O v5.1.20",
		"version":"2.0"
	},
	"scene":0,
	"scenes":[
		{
			"name":"Scene",
			"nodes":[
				0
			]
		}
	],
	"nodes":[
		{
			"mesh":0,
			"name":"bog_table"
		}
	],
	"materials":[
		{
			"doubleSided":true,
			"emissiveFactor":[
				1,
				1,
				1
			],
			"emissiveTexture":{
				"index":0
			},
			"name":"bog_mat",
			"pbrMetallicRoughness":{
				"baseColorTexture":{
					"index":1
				},
				"metallicFactor":0,
				"roughnessFactor":0.8999999761581421
			}
		}
	],
	"meshes":[
		{
			"name":"Mesh",
			"primitives":[
				{
					"attributes":{
						"POSITION":0,
						"NORMAL":1,
						"TEXCOORD_0":2,
						"TEXCOORD_1":3
					},
					"indices":4,
					"material":0
				}
			]
		}
	],
	"textures":[
		{
			"sampler":0,
			"source":0
		},
		{
			"sampler":0,
			"source":1
		}
	],
	"images":[
		{
			"mimeType":"image/png",
			"name":"PolygonGoblinWarCamp_Emissive_01_A",
			"uri":"PolygonGoblinWarCamp_Emissive_01_A.png"
		},
		{
			"mimeType":"image/png",
			"name":"PolygonGoblinWarCamp_Texture_01_A",
			"uri":"PolygonGoblinWarCamp_Texture_01_A.png"
		}
	],
	"accessors":[
		{
			"bufferView":0,
			"componentType":5126,
			"count":1865,
			"max":[
				0.7396525144577026,
				1.3249156475067139,
				1.695254921913147
			],
			"min":[
				-0.7396525144577026,
				-9.162156544562094e-08,
				-1.6952550411224365
			],
			"type":"VEC3"
		},
		{
			"bufferView":1,
			"componentType":5126,
			"count":1865,
			"type":"VEC3"
		},
		{
			"bufferView":2,
			"componentType":5126,
			"count":1865,
			"type":"VEC2"
		},
		{
			"bufferView":3,
			"componentType":5126,
			"count":1865,
			"type":"VEC2"
		},
		{
			"bufferView":4,
			"componentType":5123,
			"count":2670,
			"type":"SCALAR"
		}
	],
	"bufferViews":[
		{
			"buffer":0,
			"byteLength":22380,
			"byteOffset":0,
			"target":34962
		},
		{
			"buffer":0,
			"byteLength":22380,
			"byteOffset":22380,
			"target":34962
		},
		{
			"buffer":0,
			"byteLength":14920,
			"byteOffset":44760,
			"target":34962
		},
		{
			"buffer":0,
			"byteLength":14920,
			"byteOffset":59680,
			"target":34962
		},
		{
			"buffer":0,
			"byteLength":5340,
			"byteOffset":74600,
			"target":34963
		}
	],
	"samplers":[
		{
			"magFilter":9729,
			"minFilter":9987
		}
	],
	"buffers":[
		{
			"byteLength":79940,
			"uri":"bog_table.bin"
		}
	]
}
