{
	"asset":{
		"generator":"Khronos glTF Blender I/O v5.1.20",
		"version":"2.0"
	},
	"scene":0,
	"scenes":[
		{
			"name":"Scene",
			"nodes":[
				0
			]
		}
	],
	"nodes":[
		{
			"mesh":0,
			"name":"bog_spit"
		}
	],
	"materials":[
		{
			"doubleSided":true,
			"emissiveFactor":[
				1,
				1,
				1
			],
			"emissiveTexture":{
				"index":0
			},
			"name":"bog_mat",
			"pbrMetallicRoughness":{
				"baseColorTexture":{
					"index":1
				},
				"metallicFactor":0,
				"roughnessFactor":0.8999999761581421
			}
		}
	],
	"meshes":[
		{
			"name":"Mesh",
			"primitives":[
				{
					"attributes":{
						"POSITION":0,
						"NORMAL":1,
						"TEXCOORD_0":2,
						"TEXCOORD_1":3
					},
					"indices":4,
					"material":0
				}
			]
		}
	],
	"textures":[
		{
			"sampler":0,
			"source":0
		},
		{
			"sampler":0,
			"source":1
		}
	],
	"images":[
		{
			"mimeType":"image/png",
			"name":"PolygonGoblinWarCamp_Emissive_01_A",
			"uri":"PolygonGoblinWarCamp_Emissive_01_A.png"
		},
		{
			"mimeType":"image/png",
			"name":"PolygonGoblinWarCamp_Texture_01_A",
			"uri":"PolygonGoblinWarCamp_Texture_01_A.png"
		}
	],
	"accessors":[
		{
			"bufferView":0,
			"componentType":5126,
			"count":8795,
			"max":[
				2.0821924209594727,
				2.7750725746154785,
				0.7674641609191895
			],
			"min":[
				-2.0821924209594727,
				0,
				-0.7674641609191895
			],
			"type":"VEC3"
		},
		{
			"bufferView":1,
			"componentType":5126,
			"count":8795,
			"type":"VEC3"
		},
		{
			"bufferView":2,
			"componentType":5126,
			"count":8795,
			"type":"VEC2"
		},
		{
			"bufferView":3,
			"componentType":5126,
			"count":8795,
			"type":"VEC2"
		},
		{
			"bufferView":4,
			"componentType":5123,
			"count":12156,
			"type":"SCALAR"
		}
	],
	"bufferViews":[
		{
			"buffer":0,
			"byteLength":105540,
			"byteOffset":0,
			"target":34962
		},
		{
			"buffer":0,
			"byteLength":105540,
			"byteOffset":105540,
			"target":34962
		},
		{
			"buffer":0,
			"byteLength":70360,
			"byteOffset":211080,
			"target":34962
		},
		{
			"buffer":0,
			"byteLength":70360,
			"byteOffset":281440,
			"target":34962
		},
		{
			"buffer":0,
			"byteLength":24312,
			"byteOffset":351800,
			"target":34963
		}
	],
	"samplers":[
		{
			"magFilter":9729,
			"minFilter":9987
		}
	],
	"buffers":[
		{
			"byteLength":376112,
			"uri":"bog_spit.bin"
		}
	]
}
