{
	"asset":{
		"generator":"Khronos glTF Blender I/O v5.1.20",
		"version":"2.0"
	},
	"scene":0,
	"scenes":[
		{
			"name":"Scene",
			"nodes":[
				0
			]
		}
	],
	"nodes":[
		{
			"mesh":0,
			"name":"bog_platform"
		}
	],
	"materials":[
		{
			"doubleSided":true,
			"emissiveFactor":[
				1,
				1,
				1
			],
			"emissiveTexture":{
				"index":0
			},
			"name":"bog_mat",
			"pbrMetallicRoughness":{
				"baseColorTexture":{
					"index":1
				},
				"metallicFactor":0,
				"roughnessFactor":0.8999999761581421
			}
		}
	],
	"meshes":[
		{
			"name":"Mesh",
			"primitives":[
				{
					"attributes":{
						"POSITION":0,
						"NORMAL":1,
						"TEXCOORD_0":2
					},
					"indices":3,
					"material":0
				},
				{
					"attributes":{
						"POSITION":4,
						"NORMAL":5,
						"TEXCOORD_0":6
					},
					"indices":7,
					"material":0
				}
			]
		}
	],
	"textures":[
		{
			"sampler":0,
			"source":0
		},
		{
			"sampler":0,
			"source":1
		}
	],
	"images":[
		{
			"mimeType":"image/png",
			"name":"PolygonGoblinWarCamp_Emissive_01_A",
			"uri":"PolygonGoblinWarCamp_Emissive_01_A.png"
		},
		{
			"mimeType":"image/png",
			"name":"PolygonGoblinWarCamp_Texture_01_A",
			"uri":"PolygonGoblinWarCamp_Texture_01_A.png"
		}
	],
	"accessors":[
		{
			"bufferView":0,
			"componentType":5126,
			"count":773,
			"max":[
				1.7193044424057007,
				7.953835487365723,
				1.5149447917938232
			],
			"min":[
				-1.7193044424057007,
				0,
				-1.5149447917938232
			],
			"type":"VEC3"
		},
		{
			"bufferView":1,
			"componentType":5126,
			"count":773,
			"type":"VEC3"
		},
		{
			"bufferView":2,
			"componentType":5126,
			"count":773,
			"type":"VEC2"
		},
		{
			"bufferView":3,
			"componentType":5123,
			"count":1326,
			"type":"SCALAR"
		},
		{
			"bufferView":4,
			"componentType":5126,
			"count":214,
			"max":[
				1.6182804107666016,
				7.2555341720581055,
				1.4440088272094727
			],
			"min":[
				-1.415471076965332,
				5.157855033874512,
				-1.4120969772338867
			],
			"type":"VEC3"
		},
		{
			"bufferView":5,
			"componentType":5126,
			"count":214,
			"type":"VEC3"
		},
		{
			"bufferView":6,
			"componentType":5126,
			"count":214,
			"type":"VEC2"
		},
		{
			"bufferView":7,
			"componentType":5123,
			"count":528,
			"type":"SCALAR"
		}
	],
	"bufferViews":[
		{
			"buffer":0,
			"byteLength":9276,
			"byteOffset":0,
			"target":34962
		},
		{
			"buffer":0,
			"byteLength":9276,
			"byteOffset":9276,
			"target":34962
		},
		{
			"buffer":0,
			"byteLength":6184,
			"byteOffset":18552,
			"target":34962
		},
		{
			"buffer":0,
			"byteLength":2652,
			"byteOffset":24736,
			"target":34963
		},
		{
			"buffer":0,
			"byteLength":2568,
			"byteOffset":27388,
			"target":34962
		},
		{
			"buffer":0,
			"byteLength":2568,
			"byteOffset":29956,
			"target":34962
		},
		{
			"buffer":0,
			"byteLength":1712,
			"byteOffset":32524,
			"target":34962
		},
		{
			"buffer":0,
			"byteLength":1056,
			"byteOffset":34236,
			"target":34963
		}
	],
	"samplers":[
		{
			"magFilter":9729,
			"minFilter":9987
		}
	],
	"buffers":[
		{
			"byteLength":35292,
			"uri":"bog_platform.bin"
		}
	]
}
