{
	"asset":{
		"generator":"Khronos glTF Blender I/O v5.1.20",
		"version":"2.0"
	},
	"scene":0,
	"scenes":[
		{
			"name":"Scene",
			"nodes":[
				0
			]
		}
	],
	"nodes":[
		{
			"mesh":0,
			"name":"bog_balloon"
		}
	],
	"materials":[
		{
			"doubleSided":true,
			"name":"bog_tiling_mat",
			"pbrMetallicRoughness":{
				"baseColorTexture":{
					"index":0
				},
				"metallicFactor":0,
				"roughnessFactor":0.8999999761581421
			}
		},
		{
			"doubleSided":true,
			"emissiveFactor":[
				1,
				1,
				1
			],
			"emissiveTexture":{
				"index":1
			},
			"name":"bog_mat",
			"pbrMetallicRoughness":{
				"baseColorTexture":{
					"index":2
				},
				"metallicFactor":0,
				"roughnessFactor":0.8999999761581421
			}
		}
	],
	"meshes":[
		{
			"name":"Mesh",
			"primitives":[
				{
					"attributes":{
						"POSITION":0,
						"NORMAL":1,
						"TEXCOORD_0":2,
						"TEXCOORD_1":3
					},
					"indices":4,
					"material":0
				},
				{
					"attributes":{
						"POSITION":5,
						"NORMAL":6,
						"TEXCOORD_0":7,
						"TEXCOORD_1":8
					},
					"indices":9,
					"material":1
				}
			]
		}
	],
	"textures":[
		{
			"sampler":0,
			"source":0
		},
		{
			"sampler":0,
			"source":1
		},
		{
			"sampler":0,
			"source":2
		}
	],
	"images":[
		{
			"mimeType":"image/png",
			"name":"Mud_Texture_01",
			"uri":"Mud_Texture_01.png"
		},
		{
			"mimeType":"image/png",
			"name":"PolygonGoblinWarCamp_Emissive_01_A",
			"uri":"PolygonGoblinWarCamp_Emissive_01_A.png"
		},
		{
			"mimeType":"image/png",
			"name":"PolygonGoblinWarCamp_Texture_01_A",
			"uri":"PolygonGoblinWarCamp_Texture_01_A.png"
		}
	],
	"accessors":[
		{
			"bufferView":0,
			"componentType":5126,
			"count":28728,
			"max":[
				2.539022922515869,
				10.368521690368652,
				3.410778522491455
			],
			"min":[
				-2.484121322631836,
				2.600006103515625,
				-3.410778522491455
			],
			"type":"VEC3"
		},
		{
			"bufferView":1,
			"componentType":5126,
			"count":28728,
			"type":"VEC3"
		},
		{
			"bufferView":2,
			"componentType":5126,
			"count":28728,
			"type":"VEC2"
		},
		{
			"bufferView":3,
			"componentType":5126,
			"count":28728,
			"type":"VEC2"
		},
		{
			"bufferView":4,
			"componentType":5123,
			"count":42336,
			"type":"SCALAR"
		},
		{
			"bufferView":5,
			"componentType":5126,
			"count":14998,
			"max":[
				4.877628803253174,
				9.630133628845215,
				2.6385111808776855
			],
			"min":[
				-4.877628803253174,
				0,
				-2.6660261154174805
			],
			"type":"VEC3"
		},
		{
			"bufferView":6,
			"componentType":5126,
			"count":14998,
			"type":"VEC3"
		},
		{
			"bufferView":7,
			"componentType":5126,
			"count":14998,
			"type":"VEC2"
		},
		{
			"bufferView":8,
			"componentType":5126,
			"count":14998,
			"type":"VEC2"
		},
		{
			"bufferView":9,
			"componentType":5123,
			"count":22464,
			"type":"SCALAR"
		}
	],
	"bufferViews":[
		{
			"buffer":0,
			"byteLength":344736,
			"byteOffset":0,
			"target":34962
		},
		{
			"buffer":0,
			"byteLength":344736,
			"byteOffset":344736,
			"target":34962
		},
		{
			"buffer":0,
			"byteLength":229824,
			"byteOffset":689472,
			"target":34962
		},
		{
			"buffer":0,
			"byteLength":229824,
			"byteOffset":919296,
			"target":34962
		},
		{
			"buffer":0,
			"byteLength":84672,
			"byteOffset":1149120,
			"target":34963
		},
		{
			"buffer":0,
			"byteLength":179976,
			"byteOffset":1233792,
			"target":34962
		},
		{
			"buffer":0,
			"byteLength":179976,
			"byteOffset":1413768,
			"target":34962
		},
		{
			"buffer":0,
			"byteLength":119984,
			"byteOffset":1593744,
			"target":34962
		},
		{
			"buffer":0,
			"byteLength":119984,
			"byteOffset":1713728,
			"target":34962
		},
		{
			"buffer":0,
			"byteLength":44928,
			"byteOffset":1833712,
			"target":34963
		}
	],
	"samplers":[
		{
			"magFilter":9729,
			"minFilter":9987
		}
	],
	"buffers":[
		{
			"byteLength":1878640,
			"uri":"bog_balloon.bin"
		}
	]
}
