{
	"asset":{
		"generator":"Khronos glTF Blender I/O v5.1.20",
		"version":"2.0"
	},
	"scene":0,
	"scenes":[
		{
			"name":"Scene",
			"nodes":[
				0
			]
		}
	],
	"nodes":[
		{
			"mesh":0,
			"name":"bog_barrier"
		}
	],
	"materials":[
		{
			"doubleSided":true,
			"name":"bog_tiling_mat",
			"pbrMetallicRoughness":{
				"baseColorTexture":{
					"index":0
				},
				"metallicFactor":0,
				"roughnessFactor":0.8999999761581421
			}
		}
	],
	"meshes":[
		{
			"name":"Mesh",
			"primitives":[
				{
					"attributes":{
						"POSITION":0,
						"NORMAL":1,
						"TEXCOORD_0":2
					},
					"indices":3,
					"material":0
				}
			]
		}
	],
	"textures":[
		{
			"sampler":0,
			"source":0
		}
	],
	"images":[
		{
			"mimeType":"image/png",
			"name":"Mud_Texture_01",
			"uri":"Mud_Texture_01.png"
		}
	],
	"accessors":[
		{
			"bufferView":0,
			"componentType":5126,
			"count":1848,
			"max":[
				1.3196077346801758,
				1.5072907209396362,
				0.684041440486908
			],
			"min":[
				-1.3196077346801758,
				0,
				-0.6840415000915527
			],
			"type":"VEC3"
		},
		{
			"bufferView":1,
			"componentType":5126,
			"count":1848,
			"type":"VEC3"
		},
		{
			"bufferView":2,
			"componentType":5126,
			"count":1848,
			"type":"VEC2"
		},
		{
			"bufferView":3,
			"componentType":5123,
			"count":2406,
			"type":"SCALAR"
		}
	],
	"bufferViews":[
		{
			"buffer":0,
			"byteLength":22176,
			"byteOffset":0,
			"target":34962
		},
		{
			"buffer":0,
			"byteLength":22176,
			"byteOffset":22176,
			"target":34962
		},
		{
			"buffer":0,
			"byteLength":14784,
			"byteOffset":44352,
			"target":34962
		},
		{
			"buffer":0,
			"byteLength":4812,
			"byteOffset":59136,
			"target":34963
		}
	],
	"samplers":[
		{
			"magFilter":9729,
			"minFilter":9987
		}
	],
	"buffers":[
		{
			"byteLength":63948,
			"uri":"bog_barrier.bin"
		}
	]
}
