{
	"asset":{
		"generator":"Khronos glTF Blender I/O v5.1.20",
		"version":"2.0"
	},
	"scene":0,
	"scenes":[
		{
			"name":"Scene",
			"nodes":[
				0
			]
		}
	],
	"nodes":[
		{
			"mesh":0,
			"name":"bog_seat"
		}
	],
	"materials":[
		{
			"doubleSided":true,
			"name":"bog_tiling_mat",
			"pbrMetallicRoughness":{
				"baseColorTexture":{
					"index":0
				},
				"metallicFactor":0,
				"roughnessFactor":0.8999999761581421
			}
		}
	],
	"meshes":[
		{
			"name":"Mesh",
			"primitives":[
				{
					"attributes":{
						"POSITION":0,
						"NORMAL":1,
						"TEXCOORD_0":2
					},
					"indices":3,
					"material":0
				}
			]
		}
	],
	"textures":[
		{
			"sampler":0,
			"source":0
		}
	],
	"images":[
		{
			"mimeType":"image/png",
			"name":"Mud_Texture_01",
			"uri":"Mud_Texture_01.png"
		}
	],
	"accessors":[
		{
			"bufferView":0,
			"componentType":5126,
			"count":940,
			"max":[
				0.33726805448532104,
				0.6412283778190613,
				0.29924649000167847
			],
			"min":[
				-0.3372683525085449,
				-2.68765409927596e-09,
				-0.2992468476295471
			],
			"type":"VEC3"
		},
		{
			"bufferView":1,
			"componentType":5126,
			"count":940,
			"type":"VEC3"
		},
		{
			"bufferView":2,
			"componentType":5126,
			"count":940,
			"type":"VEC2"
		},
		{
			"bufferView":3,
			"componentType":5123,
			"count":1110,
			"type":"SCALAR"
		}
	],
	"bufferViews":[
		{
			"buffer":0,
			"byteLength":11280,
			"byteOffset":0,
			"target":34962
		},
		{
			"buffer":0,
			"byteLength":11280,
			"byteOffset":11280,
			"target":34962
		},
		{
			"buffer":0,
			"byteLength":7520,
			"byteOffset":22560,
			"target":34962
		},
		{
			"buffer":0,
			"byteLength":2220,
			"byteOffset":30080,
			"target":34963
		}
	],
	"samplers":[
		{
			"magFilter":9729,
			"minFilter":9987
		}
	],
	"buffers":[
		{
			"byteLength":32300,
			"uri":"bog_seat.bin"
		}
	]
}
