{
	"asset":{
		"generator":"Khronos glTF Blender I/O v5.1.20",
		"version":"2.0"
	},
	"scene":0,
	"scenes":[
		{
			"name":"Scene",
			"nodes":[
				0
			]
		}
	],
	"nodes":[
		{
			"mesh":0,
			"name":"bog_tree_b"
		}
	],
	"materials":[
		{
			"doubleSided":true,
			"emissiveFactor":[
				1,
				1,
				1
			],
			"emissiveTexture":{
				"index":0
			},
			"name":"bog_mat",
			"pbrMetallicRoughness":{
				"baseColorTexture":{
					"index":1
				},
				"metallicFactor":0,
				"roughnessFactor":0.8999999761581421
			}
		}
	],
	"meshes":[
		{
			"name":"Mesh",
			"primitives":[
				{
					"attributes":{
						"POSITION":0,
						"NORMAL":1,
						"TEXCOORD_0":2,
						"TEXCOORD_1":3
					},
					"indices":4,
					"material":0
				}
			]
		}
	],
	"textures":[
		{
			"sampler":0,
			"source":0
		},
		{
			"sampler":0,
			"source":1
		}
	],
	"images":[
		{
			"mimeType":"image/png",
			"name":"PolygonGoblinWarCamp_Emissive_01_A",
			"uri":"PolygonGoblinWarCamp_Emissive_01_A.png"
		},
		{
			"mimeType":"image/png",
			"name":"PolygonGoblinWarCamp_Texture_01_A",
			"uri":"PolygonGoblinWarCamp_Texture_01_A.png"
		}
	],
	"accessors":[
		{
			"bufferView":0,
			"componentType":5126,
			"count":2103,
			"max":[
				4.871367931365967,
				7.412928581237793,
				2.9642982482910156
			],
			"min":[
				-4.871367931365967,
				0,
				-2.9642982482910156
			],
			"type":"VEC3"
		},
		{
			"bufferView":1,
			"componentType":5126,
			"count":2103,
			"type":"VEC3"
		},
		{
			"bufferView":2,
			"componentType":5126,
			"count":2103,
			"type":"VEC2"
		},
		{
			"bufferView":3,
			"componentType":5126,
			"count":2103,
			"type":"VEC2"
		},
		{
			"bufferView":4,
			"componentType":5123,
			"count":2958,
			"type":"SCALAR"
		}
	],
	"bufferViews":[
		{
			"buffer":0,
			"byteLength":25236,
			"byteOffset":0,
			"target":34962
		},
		{
			"buffer":0,
			"byteLength":25236,
			"byteOffset":25236,
			"target":34962
		},
		{
			"buffer":0,
			"byteLength":16824,
			"byteOffset":50472,
			"target":34962
		},
		{
			"buffer":0,
			"byteLength":16824,
			"byteOffset":67296,
			"target":34962
		},
		{
			"buffer":0,
			"byteLength":5916,
			"byteOffset":84120,
			"target":34963
		}
	],
	"samplers":[
		{
			"magFilter":9729,
			"minFilter":9987
		}
	],
	"buffers":[
		{
			"byteLength":90036,
			"uri":"bog_tree_b.bin"
		}
	]
}
