{
	"asset":{
		"generator":"Khronos glTF Blender I/O v5.1.20",
		"version":"2.0"
	},
	"scene":0,
	"scenes":[
		{
			"name":"Scene",
			"nodes":[
				0
			]
		}
	],
	"nodes":[
		{
			"mesh":0,
			"name":"bog_warhorn"
		}
	],
	"materials":[
		{
			"doubleSided":true,
			"name":"bog_tiling_mat",
			"pbrMetallicRoughness":{
				"baseColorTexture":{
					"index":0
				},
				"metallicFactor":0,
				"roughnessFactor":0.8999999761581421
			}
		}
	],
	"meshes":[
		{
			"name":"Mesh",
			"primitives":[
				{
					"attributes":{
						"POSITION":0,
						"NORMAL":1,
						"TEXCOORD_0":2
					},
					"indices":3,
					"material":0
				}
			]
		}
	],
	"textures":[
		{
			"sampler":0,
			"source":0
		}
	],
	"images":[
		{
			"mimeType":"image/png",
			"name":"Mud_Texture_01",
			"uri":"Mud_Texture_01.png"
		}
	],
	"accessors":[
		{
			"bufferView":0,
			"componentType":5126,
			"count":6674,
			"max":[
				1.1686354875564575,
				6.024679660797119,
				3.4530725479125977
			],
			"min":[
				-1.1686354875564575,
				0,
				-3.4530725479125977
			],
			"type":"VEC3"
		},
		{
			"bufferView":1,
			"componentType":5126,
			"count":6674,
			"type":"VEC3"
		},
		{
			"bufferView":2,
			"componentType":5126,
			"count":6674,
			"type":"VEC2"
		},
		{
			"bufferView":3,
			"componentType":5123,
			"count":9750,
			"type":"SCALAR"
		}
	],
	"bufferViews":[
		{
			"buffer":0,
			"byteLength":80088,
			"byteOffset":0,
			"target":34962
		},
		{
			"buffer":0,
			"byteLength":80088,
			"byteOffset":80088,
			"target":34962
		},
		{
			"buffer":0,
			"byteLength":53392,
			"byteOffset":160176,
			"target":34962
		},
		{
			"buffer":0,
			"byteLength":19500,
			"byteOffset":213568,
			"target":34963
		}
	],
	"samplers":[
		{
			"magFilter":9729,
			"minFilter":9987
		}
	],
	"buffers":[
		{
			"byteLength":233068,
			"uri":"bog_warhorn.bin"
		}
	]
}
