{
	"asset":{
		"generator":"Khronos glTF Blender I/O v5.1.20",
		"version":"2.0"
	},
	"scene":0,
	"scenes":[
		{
			"name":"Scene",
			"nodes":[
				0
			]
		}
	],
	"nodes":[
		{
			"mesh":0,
			"name":"bog_anvil"
		}
	],
	"materials":[
		{
			"doubleSided":true,
			"emissiveFactor":[
				1,
				1,
				1
			],
			"emissiveTexture":{
				"index":0
			},
			"name":"bog_mat",
			"pbrMetallicRoughness":{
				"baseColorTexture":{
					"index":1
				},
				"metallicFactor":0,
				"roughnessFactor":0.8999999761581421
			}
		}
	],
	"meshes":[
		{
			"name":"Mesh",
			"primitives":[
				{
					"attributes":{
						"POSITION":0,
						"NORMAL":1,
						"TEXCOORD_0":2,
						"TEXCOORD_1":3
					},
					"indices":4,
					"material":0
				}
			]
		}
	],
	"textures":[
		{
			"sampler":0,
			"source":0
		},
		{
			"sampler":0,
			"source":1
		}
	],
	"images":[
		{
			"mimeType":"image/png",
			"name":"PolygonGoblinWarCamp_Emissive_01_A",
			"uri":"PolygonGoblinWarCamp_Emissive_01_A.png"
		},
		{
			"mimeType":"image/png",
			"name":"PolygonGoblinWarCamp_Texture_01_A",
			"uri":"PolygonGoblinWarCamp_Texture_01_A.png"
		}
	],
	"accessors":[
		{
			"bufferView":0,
			"componentType":5126,
			"count":10065,
			"max":[
				0.27815312147140503,
				0.5724105834960938,
				0.625095009803772
			],
			"min":[
				-0.27815312147140503,
				0,
				-0.625095009803772
			],
			"type":"VEC3"
		},
		{
			"bufferView":1,
			"componentType":5126,
			"count":10065,
			"type":"VEC3"
		},
		{
			"bufferView":2,
			"componentType":5126,
			"count":10065,
			"type":"VEC2"
		},
		{
			"bufferView":3,
			"componentType":5126,
			"count":10065,
			"type":"VEC2"
		},
		{
			"bufferView":4,
			"componentType":5123,
			"count":13032,
			"type":"SCALAR"
		}
	],
	"bufferViews":[
		{
			"buffer":0,
			"byteLength":120780,
			"byteOffset":0,
			"target":34962
		},
		{
			"buffer":0,
			"byteLength":120780,
			"byteOffset":120780,
			"target":34962
		},
		{
			"buffer":0,
			"byteLength":80520,
			"byteOffset":241560,
			"target":34962
		},
		{
			"buffer":0,
			"byteLength":80520,
			"byteOffset":322080,
			"target":34962
		},
		{
			"buffer":0,
			"byteLength":26064,
			"byteOffset":402600,
			"target":34963
		}
	],
	"samplers":[
		{
			"magFilter":9729,
			"minFilter":9987
		}
	],
	"buffers":[
		{
			"byteLength":428664,
			"uri":"bog_anvil.bin"
		}
	]
}
