{
	"asset":{
		"generator":"Khronos glTF Blender I/O v5.1.20",
		"version":"2.0"
	},
	"scene":0,
	"scenes":[
		{
			"name":"Scene",
			"nodes":[
				0
			]
		}
	],
	"nodes":[
		{
			"mesh":0,
			"name":"bog_trebuchet"
		}
	],
	"materials":[
		{
			"doubleSided":true,
			"emissiveFactor":[
				1,
				1,
				1
			],
			"emissiveTexture":{
				"index":0
			},
			"name":"bog_mat",
			"pbrMetallicRoughness":{
				"baseColorTexture":{
					"index":1
				},
				"metallicFactor":0,
				"roughnessFactor":0.8999999761581421
			}
		}
	],
	"meshes":[
		{
			"name":"Mesh",
			"primitives":[
				{
					"attributes":{
						"POSITION":0,
						"NORMAL":1,
						"TEXCOORD_0":2
					},
					"indices":3,
					"material":0
				}
			]
		}
	],
	"textures":[
		{
			"sampler":0,
			"source":0
		},
		{
			"sampler":0,
			"source":1
		}
	],
	"images":[
		{
			"mimeType":"image/png",
			"name":"PolygonGoblinWarCamp_Emissive_01_A",
			"uri":"PolygonGoblinWarCamp_Emissive_01_A.png"
		},
		{
			"mimeType":"image/png",
			"name":"PolygonGoblinWarCamp_Texture_01_A",
			"uri":"PolygonGoblinWarCamp_Texture_01_A.png"
		}
	],
	"accessors":[
		{
			"bufferView":0,
			"componentType":5126,
			"count":13177,
			"max":[
				2.5432753562927246,
				5.688152313232422,
				5.167109489440918
			],
			"min":[
				-2.5432753562927246,
				0.006957744248211384,
				-3.63332200050354
			],
			"type":"VEC3"
		},
		{
			"bufferView":1,
			"componentType":5126,
			"count":13177,
			"type":"VEC3"
		},
		{
			"bufferView":2,
			"componentType":5126,
			"count":13177,
			"type":"VEC2"
		},
		{
			"bufferView":3,
			"componentType":5123,
			"count":20769,
			"type":"SCALAR"
		}
	],
	"bufferViews":[
		{
			"buffer":0,
			"byteLength":158124,
			"byteOffset":0,
			"target":34962
		},
		{
			"buffer":0,
			"byteLength":158124,
			"byteOffset":158124,
			"target":34962
		},
		{
			"buffer":0,
			"byteLength":105416,
			"byteOffset":316248,
			"target":34962
		},
		{
			"buffer":0,
			"byteLength":41538,
			"byteOffset":421664,
			"target":34963
		}
	],
	"samplers":[
		{
			"magFilter":9729,
			"minFilter":9987
		}
	],
	"buffers":[
		{
			"byteLength":463204,
			"uri":"bog_trebuchet.bin"
		}
	]
}
