{
	"asset":{
		"generator":"Khronos glTF Blender I/O v5.1.20",
		"version":"2.0"
	},
	"scene":0,
	"scenes":[
		{
			"name":"Scene",
			"nodes":[
				0
			]
		}
	],
	"nodes":[
		{
			"mesh":0,
			"name":"bog_tent_leader"
		}
	],
	"materials":[
		{
			"doubleSided":true,
			"name":"bog_tiling_mat",
			"pbrMetallicRoughness":{
				"baseColorTexture":{
					"index":0
				},
				"metallicFactor":0,
				"roughnessFactor":0.8999999761581421
			}
		},
		{
			"doubleSided":true,
			"emissiveFactor":[
				1,
				1,
				1
			],
			"emissiveTexture":{
				"index":1
			},
			"name":"bog_mat",
			"pbrMetallicRoughness":{
				"baseColorTexture":{
					"index":2
				},
				"metallicFactor":0,
				"roughnessFactor":0.8999999761581421
			}
		}
	],
	"meshes":[
		{
			"name":"Mesh",
			"primitives":[
				{
					"attributes":{
						"POSITION":0,
						"NORMAL":1,
						"TEXCOORD_0":2,
						"TEXCOORD_1":3
					},
					"indices":4,
					"material":0
				},
				{
					"attributes":{
						"POSITION":5,
						"NORMAL":6,
						"TEXCOORD_0":7,
						"TEXCOORD_1":8
					},
					"indices":9,
					"material":1
				}
			]
		}
	],
	"textures":[
		{
			"sampler":0,
			"source":0
		},
		{
			"sampler":0,
			"source":1
		},
		{
			"sampler":0,
			"source":2
		}
	],
	"images":[
		{
			"mimeType":"image/png",
			"name":"Mud_Texture_01",
			"uri":"Mud_Texture_01.png"
		},
		{
			"mimeType":"image/png",
			"name":"PolygonGoblinWarCamp_Emissive_01_A",
			"uri":"PolygonGoblinWarCamp_Emissive_01_A.png"
		},
		{
			"mimeType":"image/png",
			"name":"PolygonGoblinWarCamp_Texture_01_A",
			"uri":"PolygonGoblinWarCamp_Texture_01_A.png"
		}
	],
	"accessors":[
		{
			"bufferView":0,
			"componentType":5126,
			"count":11142,
			"max":[
				3.8169362545013428,
				7.996108055114746,
				4.207784652709961
			],
			"min":[
				-3.8169362545013428,
				0.0016827619401738048,
				-4.207784652709961
			],
			"type":"VEC3"
		},
		{
			"bufferView":1,
			"componentType":5126,
			"count":11142,
			"type":"VEC3"
		},
		{
			"bufferView":2,
			"componentType":5126,
			"count":11142,
			"type":"VEC2"
		},
		{
			"bufferView":3,
			"componentType":5126,
			"count":11142,
			"type":"VEC2"
		},
		{
			"bufferView":4,
			"componentType":5123,
			"count":15657,
			"type":"SCALAR"
		},
		{
			"bufferView":5,
			"componentType":5126,
			"count":107,
			"max":[
				2.058098793029785,
				3.6048219203948975,
				2.3580687046051025
			],
			"min":[
				-2.2400450706481934,
				0.0016828333027660847,
				-1.5535732507705688
			],
			"type":"VEC3"
		},
		{
			"bufferView":6,
			"componentType":5126,
			"count":107,
			"type":"VEC3"
		},
		{
			"bufferView":7,
			"componentType":5126,
			"count":107,
			"type":"VEC2"
		},
		{
			"bufferView":8,
			"componentType":5126,
			"count":107,
			"type":"VEC2"
		},
		{
			"bufferView":9,
			"componentType":5123,
			"count":216,
			"type":"SCALAR"
		}
	],
	"bufferViews":[
		{
			"buffer":0,
			"byteLength":133704,
			"byteOffset":0,
			"target":34962
		},
		{
			"buffer":0,
			"byteLength":133704,
			"byteOffset":133704,
			"target":34962
		},
		{
			"buffer":0,
			"byteLength":89136,
			"byteOffset":267408,
			"target":34962
		},
		{
			"buffer":0,
			"byteLength":89136,
			"byteOffset":356544,
			"target":34962
		},
		{
			"buffer":0,
			"byteLength":31314,
			"byteOffset":445680,
			"target":34963
		},
		{
			"buffer":0,
			"byteLength":1284,
			"byteOffset":476996,
			"target":34962
		},
		{
			"buffer":0,
			"byteLength":1284,
			"byteOffset":478280,
			"target":34962
		},
		{
			"buffer":0,
			"byteLength":856,
			"byteOffset":479564,
			"target":34962
		},
		{
			"buffer":0,
			"byteLength":856,
			"byteOffset":480420,
			"target":34962
		},
		{
			"buffer":0,
			"byteLength":432,
			"byteOffset":481276,
			"target":34963
		}
	],
	"samplers":[
		{
			"magFilter":9729,
			"minFilter":9987
		}
	],
	"buffers":[
		{
			"byteLength":481708,
			"uri":"bog_tent_leader.bin"
		}
	]
}
