{
	"asset":{
		"generator":"Khronos glTF Blender I/O v5.1.20",
		"version":"2.0"
	},
	"scene":0,
	"scenes":[
		{
			"name":"Scene",
			"nodes":[
				0
			]
		}
	],
	"nodes":[
		{
			"mesh":0,
			"name":"bog_cage_wagon"
		}
	],
	"materials":[
		{
			"doubleSided":true,
			"name":"bog_tiling_mat",
			"pbrMetallicRoughness":{
				"baseColorTexture":{
					"index":0
				},
				"metallicFactor":0,
				"roughnessFactor":0.8999999761581421
			}
		},
		{
			"doubleSided":true,
			"emissiveFactor":[
				1,
				1,
				1
			],
			"emissiveTexture":{
				"index":1
			},
			"name":"bog_mat",
			"pbrMetallicRoughness":{
				"baseColorTexture":{
					"index":2
				},
				"metallicFactor":0,
				"roughnessFactor":0.8999999761581421
			}
		}
	],
	"meshes":[
		{
			"name":"Mesh",
			"primitives":[
				{
					"attributes":{
						"POSITION":0,
						"NORMAL":1,
						"TEXCOORD_0":2
					},
					"indices":3,
					"material":0
				},
				{
					"attributes":{
						"POSITION":4,
						"NORMAL":5,
						"TEXCOORD_0":6
					},
					"indices":7,
					"material":1
				}
			]
		}
	],
	"textures":[
		{
			"sampler":0,
			"source":0
		},
		{
			"sampler":0,
			"source":1
		},
		{
			"sampler":0,
			"source":2
		}
	],
	"images":[
		{
			"mimeType":"image/png",
			"name":"Mud_Texture_01",
			"uri":"Mud_Texture_01.png"
		},
		{
			"mimeType":"image/png",
			"name":"PolygonGoblinWarCamp_Emissive_01_A",
			"uri":"PolygonGoblinWarCamp_Emissive_01_A.png"
		},
		{
			"mimeType":"image/png",
			"name":"PolygonGoblinWarCamp_Texture_01_A",
			"uri":"PolygonGoblinWarCamp_Texture_01_A.png"
		}
	],
	"accessors":[
		{
			"bufferView":0,
			"componentType":5126,
			"count":13607,
			"max":[
				1.2819634675979614,
				3.954805374145508,
				2.7401397228240967
			],
			"min":[
				-1.2629473209381104,
				0.4473381042480469,
				-2.7401397228240967
			],
			"type":"VEC3"
		},
		{
			"bufferView":1,
			"componentType":5126,
			"count":13607,
			"type":"VEC3"
		},
		{
			"bufferView":2,
			"componentType":5126,
			"count":13607,
			"type":"VEC2"
		},
		{
			"bufferView":3,
			"componentType":5123,
			"count":20463,
			"type":"SCALAR"
		},
		{
			"bufferView":4,
			"componentType":5126,
			"count":7569,
			"max":[
				1.3580578565597534,
				1.7870925664901733,
				1.8335959911346436
			],
			"min":[
				-1.3580578565597534,
				0.030573613941669464,
				-0.9950774908065796
			],
			"type":"VEC3"
		},
		{
			"bufferView":5,
			"componentType":5126,
			"count":7569,
			"type":"VEC3"
		},
		{
			"bufferView":6,
			"componentType":5126,
			"count":7569,
			"type":"VEC2"
		},
		{
			"bufferView":7,
			"componentType":5123,
			"count":10800,
			"type":"SCALAR"
		}
	],
	"bufferViews":[
		{
			"buffer":0,
			"byteLength":163284,
			"byteOffset":0,
			"target":34962
		},
		{
			"buffer":0,
			"byteLength":163284,
			"byteOffset":163284,
			"target":34962
		},
		{
			"buffer":0,
			"byteLength":108856,
			"byteOffset":326568,
			"target":34962
		},
		{
			"buffer":0,
			"byteLength":40926,
			"byteOffset":435424,
			"target":34963
		},
		{
			"buffer":0,
			"byteLength":90828,
			"byteOffset":476352,
			"target":34962
		},
		{
			"buffer":0,
			"byteLength":90828,
			"byteOffset":567180,
			"target":34962
		},
		{
			"buffer":0,
			"byteLength":60552,
			"byteOffset":658008,
			"target":34962
		},
		{
			"buffer":0,
			"byteLength":21600,
			"byteOffset":718560,
			"target":34963
		}
	],
	"samplers":[
		{
			"magFilter":9729,
			"minFilter":9987
		}
	],
	"buffers":[
		{
			"byteLength":740160,
			"uri":"bog_cage_wagon.bin"
		}
	]
}
