{
	"asset":{
		"generator":"Khronos glTF Blender I/O v5.1.20",
		"version":"2.0"
	},
	"scene":0,
	"scenes":[
		{
			"name":"Scene",
			"nodes":[
				0
			]
		}
	],
	"nodes":[
		{
			"mesh":0,
			"name":"bog_drum"
		}
	],
	"materials":[
		{
			"doubleSided":true,
			"name":"bog_tiling_mat",
			"pbrMetallicRoughness":{
				"baseColorTexture":{
					"index":0
				},
				"metallicFactor":0,
				"roughnessFactor":0.8999999761581421
			}
		}
	],
	"meshes":[
		{
			"name":"Mesh",
			"primitives":[
				{
					"attributes":{
						"POSITION":0,
						"NORMAL":1,
						"TEXCOORD_0":2
					},
					"indices":3,
					"material":0
				}
			]
		}
	],
	"textures":[
		{
			"sampler":0,
			"source":0
		}
	],
	"images":[
		{
			"mimeType":"image/png",
			"name":"Mud_Texture_01",
			"uri":"Mud_Texture_01.png"
		}
	],
	"accessors":[
		{
			"bufferView":0,
			"componentType":5126,
			"count":1723,
			"max":[
				0.514080822467804,
				0.63730388879776,
				0.5196919441223145
			],
			"min":[
				-0.514080822467804,
				0,
				-0.5196919441223145
			],
			"type":"VEC3"
		},
		{
			"bufferView":1,
			"componentType":5126,
			"count":1723,
			"type":"VEC3"
		},
		{
			"bufferView":2,
			"componentType":5126,
			"count":1723,
			"type":"VEC2"
		},
		{
			"bufferView":3,
			"componentType":5123,
			"count":2544,
			"type":"SCALAR"
		}
	],
	"bufferViews":[
		{
			"buffer":0,
			"byteLength":20676,
			"byteOffset":0,
			"target":34962
		},
		{
			"buffer":0,
			"byteLength":20676,
			"byteOffset":20676,
			"target":34962
		},
		{
			"buffer":0,
			"byteLength":13784,
			"byteOffset":41352,
			"target":34962
		},
		{
			"buffer":0,
			"byteLength":5088,
			"byteOffset":55136,
			"target":34963
		}
	],
	"samplers":[
		{
			"magFilter":9729,
			"minFilter":9987
		}
	],
	"buffers":[
		{
			"byteLength":60224,
			"uri":"bog_drum.bin"
		}
	]
}
