{
	"asset":{
		"generator":"Khronos glTF Blender I/O v5.1.20",
		"version":"2.0"
	},
	"scene":0,
	"scenes":[
		{
			"name":"Scene",
			"nodes":[
				0
			]
		}
	],
	"nodes":[
		{
			"mesh":0,
			"name":"bog_meat_rack"
		}
	],
	"materials":[
		{
			"doubleSided":true,
			"emissiveFactor":[
				1,
				1,
				1
			],
			"emissiveTexture":{
				"index":0
			},
			"name":"bog_mat",
			"pbrMetallicRoughness":{
				"baseColorTexture":{
					"index":1
				},
				"metallicFactor":0,
				"roughnessFactor":0.8999999761581421
			}
		}
	],
	"meshes":[
		{
			"name":"Mesh",
			"primitives":[
				{
					"attributes":{
						"POSITION":0,
						"NORMAL":1,
						"TEXCOORD_0":2,
						"TEXCOORD_1":3
					},
					"indices":4,
					"material":0
				}
			]
		}
	],
	"textures":[
		{
			"sampler":0,
			"source":0
		},
		{
			"sampler":0,
			"source":1
		}
	],
	"images":[
		{
			"mimeType":"image/png",
			"name":"PolygonGoblinWarCamp_Emissive_01_A",
			"uri":"PolygonGoblinWarCamp_Emissive_01_A.png"
		},
		{
			"mimeType":"image/png",
			"name":"PolygonGoblinWarCamp_Texture_01_A",
			"uri":"PolygonGoblinWarCamp_Texture_01_A.png"
		}
	],
	"accessors":[
		{
			"bufferView":0,
			"componentType":5126,
			"count":8370,
			"max":[
				1.906386375427246,
				3.302518606185913,
				1.5387095212936401
			],
			"min":[
				-1.906386375427246,
				0,
				-0.7135614156723022
			],
			"type":"VEC3"
		},
		{
			"bufferView":1,
			"componentType":5126,
			"count":8370,
			"type":"VEC3"
		},
		{
			"bufferView":2,
			"componentType":5126,
			"count":8370,
			"type":"VEC2"
		},
		{
			"bufferView":3,
			"componentType":5126,
			"count":8370,
			"type":"VEC2"
		},
		{
			"bufferView":4,
			"componentType":5123,
			"count":11715,
			"type":"SCALAR"
		}
	],
	"bufferViews":[
		{
			"buffer":0,
			"byteLength":100440,
			"byteOffset":0,
			"target":34962
		},
		{
			"buffer":0,
			"byteLength":100440,
			"byteOffset":100440,
			"target":34962
		},
		{
			"buffer":0,
			"byteLength":66960,
			"byteOffset":200880,
			"target":34962
		},
		{
			"buffer":0,
			"byteLength":66960,
			"byteOffset":267840,
			"target":34962
		},
		{
			"buffer":0,
			"byteLength":23430,
			"byteOffset":334800,
			"target":34963
		}
	],
	"samplers":[
		{
			"magFilter":9729,
			"minFilter":9987
		}
	],
	"buffers":[
		{
			"byteLength":358232,
			"uri":"bog_meat_rack.bin"
		}
	]
}
