{
	"asset":{
		"generator":"Khronos glTF Blender I/O v5.1.20",
		"version":"2.0"
	},
	"scene":0,
	"scenes":[
		{
			"name":"Scene",
			"nodes":[
				0
			]
		}
	],
	"nodes":[
		{
			"mesh":0,
			"name":"bog_bush"
		}
	],
	"materials":[
		{
			"doubleSided":true,
			"emissiveFactor":[
				1,
				1,
				1
			],
			"emissiveTexture":{
				"index":0
			},
			"name":"bog_mat",
			"pbrMetallicRoughness":{
				"baseColorTexture":{
					"index":1
				},
				"metallicFactor":0,
				"roughnessFactor":0.8999999761581421
			}
		}
	],
	"meshes":[
		{
			"name":"Mesh",
			"primitives":[
				{
					"attributes":{
						"POSITION":0,
						"NORMAL":1,
						"TEXCOORD_0":2,
						"COLOR_0":3,
						"COLOR_1":4
					},
					"indices":5,
					"material":0
				}
			]
		}
	],
	"textures":[
		{
			"sampler":0,
			"source":0
		},
		{
			"sampler":0,
			"source":1
		}
	],
	"images":[
		{
			"mimeType":"image/png",
			"name":"PolygonGoblinWarCamp_Emissive_01_A",
			"uri":"PolygonGoblinWarCamp_Emissive_01_A.png"
		},
		{
			"mimeType":"image/png",
			"name":"PolygonGoblinWarCamp_Texture_01_A",
			"uri":"PolygonGoblinWarCamp_Texture_01_A.png"
		}
	],
	"accessors":[
		{
			"bufferView":0,
			"componentType":5126,
			"count":1683,
			"max":[
				1.5888818502426147,
				1.3039137125015259,
				1.1673364639282227
			],
			"min":[
				-1.5888818502426147,
				0,
				-1.1673364639282227
			],
			"type":"VEC3"
		},
		{
			"bufferView":1,
			"componentType":5126,
			"count":1683,
			"type":"VEC3"
		},
		{
			"bufferView":2,
			"componentType":5126,
			"count":1683,
			"type":"VEC2"
		},
		{
			"bufferView":3,
			"componentType":5121,
			"count":1683,
			"normalized":true,
			"type":"VEC4"
		},
		{
			"bufferView":4,
			"componentType":5123,
			"count":1683,
			"normalized":true,
			"type":"VEC4"
		},
		{
			"bufferView":5,
			"componentType":5123,
			"count":1746,
			"type":"SCALAR"
		}
	],
	"bufferViews":[
		{
			"buffer":0,
			"byteLength":20196,
			"byteOffset":0,
			"target":34962
		},
		{
			"buffer":0,
			"byteLength":20196,
			"byteOffset":20196,
			"target":34962
		},
		{
			"buffer":0,
			"byteLength":13464,
			"byteOffset":40392,
			"target":34962
		},
		{
			"buffer":0,
			"byteLength":6732,
			"byteOffset":53856,
			"target":34962
		},
		{
			"buffer":0,
			"byteLength":13464,
			"byteOffset":60588,
			"target":34962
		},
		{
			"buffer":0,
			"byteLength":3492,
			"byteOffset":74052,
			"target":34963
		}
	],
	"samplers":[
		{
			"magFilter":9729,
			"minFilter":9987
		}
	],
	"buffers":[
		{
			"byteLength":77544,
			"uri":"bog_bush.bin"
		}
	]
}
