{
	"asset":{
		"generator":"Khronos glTF Blender I/O v5.1.20",
		"version":"2.0"
	},
	"scene":0,
	"scenes":[
		{
			"name":"Scene",
			"nodes":[
				0
			]
		}
	],
	"nodes":[
		{
			"mesh":0,
			"name":"bog_gate"
		}
	],
	"materials":[
		{
			"doubleSided":true,
			"name":"bog_tiling_mat",
			"pbrMetallicRoughness":{
				"baseColorTexture":{
					"index":0
				},
				"metallicFactor":0,
				"roughnessFactor":0.8999999761581421
			}
		}
	],
	"meshes":[
		{
			"name":"Mesh",
			"primitives":[
				{
					"attributes":{
						"POSITION":0,
						"NORMAL":1,
						"TEXCOORD_0":2
					},
					"indices":3,
					"material":0
				}
			]
		}
	],
	"textures":[
		{
			"sampler":0,
			"source":0
		}
	],
	"images":[
		{
			"mimeType":"image/png",
			"name":"Mud_Texture_01",
			"uri":"Mud_Texture_01.png"
		}
	],
	"accessors":[
		{
			"bufferView":0,
			"componentType":5126,
			"count":5034,
			"max":[
				4.986486911773682,
				6.897125244140625,
				1.342840552330017
			],
			"min":[
				-4.986486911773682,
				0,
				-1.342840552330017
			],
			"type":"VEC3"
		},
		{
			"bufferView":1,
			"componentType":5126,
			"count":5034,
			"type":"VEC3"
		},
		{
			"bufferView":2,
			"componentType":5126,
			"count":5034,
			"type":"VEC2"
		},
		{
			"bufferView":3,
			"componentType":5123,
			"count":8334,
			"type":"SCALAR"
		}
	],
	"bufferViews":[
		{
			"buffer":0,
			"byteLength":60408,
			"byteOffset":0,
			"target":34962
		},
		{
			"buffer":0,
			"byteLength":60408,
			"byteOffset":60408,
			"target":34962
		},
		{
			"buffer":0,
			"byteLength":40272,
			"byteOffset":120816,
			"target":34962
		},
		{
			"buffer":0,
			"byteLength":16668,
			"byteOffset":161088,
			"target":34963
		}
	],
	"samplers":[
		{
			"magFilter":9729,
			"minFilter":9987
		}
	],
	"buffers":[
		{
			"byteLength":177756,
			"uri":"bog_gate.bin"
		}
	]
}
