{
	"asset":{
		"generator":"Khronos glTF Blender I/O v5.1.20",
		"version":"2.0"
	},
	"scene":0,
	"scenes":[
		{
			"name":"Scene",
			"nodes":[
				0
			]
		}
	],
	"nodes":[
		{
			"mesh":0,
			"name":"bog_tower_b"
		}
	],
	"materials":[
		{
			"doubleSided":true,
			"name":"bog_tiling_mat",
			"pbrMetallicRoughness":{
				"baseColorTexture":{
					"index":0
				},
				"metallicFactor":0,
				"roughnessFactor":0.8999999761581421
			}
		}
	],
	"meshes":[
		{
			"name":"Mesh",
			"primitives":[
				{
					"attributes":{
						"POSITION":0,
						"NORMAL":1,
						"TEXCOORD_0":2
					},
					"indices":3,
					"material":0
				}
			]
		}
	],
	"textures":[
		{
			"sampler":0,
			"source":0
		}
	],
	"images":[
		{
			"mimeType":"image/png",
			"name":"Mud_Texture_01",
			"uri":"Mud_Texture_01.png"
		}
	],
	"accessors":[
		{
			"bufferView":0,
			"componentType":5126,
			"count":8263,
			"max":[
				1.3365398645401,
				8.958385467529297,
				1.5773195028305054
			],
			"min":[
				-1.3365398645401,
				6.812283004364872e-08,
				-1.5773204565048218
			],
			"type":"VEC3"
		},
		{
			"bufferView":1,
			"componentType":5126,
			"count":8263,
			"type":"VEC3"
		},
		{
			"bufferView":2,
			"componentType":5126,
			"count":8263,
			"type":"VEC2"
		},
		{
			"bufferView":3,
			"componentType":5123,
			"count":12399,
			"type":"SCALAR"
		}
	],
	"bufferViews":[
		{
			"buffer":0,
			"byteLength":99156,
			"byteOffset":0,
			"target":34962
		},
		{
			"buffer":0,
			"byteLength":99156,
			"byteOffset":99156,
			"target":34962
		},
		{
			"buffer":0,
			"byteLength":66104,
			"byteOffset":198312,
			"target":34962
		},
		{
			"buffer":0,
			"byteLength":24798,
			"byteOffset":264416,
			"target":34963
		}
	],
	"samplers":[
		{
			"magFilter":9729,
			"minFilter":9987
		}
	],
	"buffers":[
		{
			"byteLength":289216,
			"uri":"bog_tower_b.bin"
		}
	]
}
