{
	"asset":{
		"generator":"Khronos glTF Blender I/O v5.1.20",
		"version":"2.0"
	},
	"scene":0,
	"scenes":[
		{
			"name":"Scene",
			"nodes":[
				0
			]
		}
	],
	"nodes":[
		{
			"mesh":0,
			"name":"bog_tower"
		}
	],
	"materials":[
		{
			"doubleSided":true,
			"name":"bog_tiling_mat",
			"pbrMetallicRoughness":{
				"baseColorTexture":{
					"index":0
				},
				"metallicFactor":0,
				"roughnessFactor":0.8999999761581421
			}
		},
		{
			"doubleSided":true,
			"emissiveFactor":[
				1,
				1,
				1
			],
			"emissiveTexture":{
				"index":1
			},
			"name":"bog_mat",
			"pbrMetallicRoughness":{
				"baseColorTexture":{
					"index":2
				},
				"metallicFactor":0,
				"roughnessFactor":0.8999999761581421
			}
		}
	],
	"meshes":[
		{
			"name":"Mesh",
			"primitives":[
				{
					"attributes":{
						"POSITION":0,
						"NORMAL":1,
						"TEXCOORD_0":2,
						"TEXCOORD_1":3
					},
					"indices":4,
					"material":0
				},
				{
					"attributes":{
						"POSITION":5,
						"NORMAL":6,
						"TEXCOORD_0":7,
						"TEXCOORD_1":8
					},
					"indices":9,
					"material":1
				}
			]
		}
	],
	"textures":[
		{
			"sampler":0,
			"source":0
		},
		{
			"sampler":0,
			"source":1
		},
		{
			"sampler":0,
			"source":2
		}
	],
	"images":[
		{
			"mimeType":"image/png",
			"name":"Mud_Texture_01",
			"uri":"Mud_Texture_01.png"
		},
		{
			"mimeType":"image/png",
			"name":"PolygonGoblinWarCamp_Emissive_01_A",
			"uri":"PolygonGoblinWarCamp_Emissive_01_A.png"
		},
		{
			"mimeType":"image/png",
			"name":"PolygonGoblinWarCamp_Texture_01_A",
			"uri":"PolygonGoblinWarCamp_Texture_01_A.png"
		}
	],
	"accessors":[
		{
			"bufferView":0,
			"componentType":5126,
			"count":14545,
			"max":[
				1.881759524345398,
				9.318865776062012,
				1.833383321762085
			],
			"min":[
				-1.881759524345398,
				0,
				-1.833383321762085
			],
			"type":"VEC3"
		},
		{
			"bufferView":1,
			"componentType":5126,
			"count":14545,
			"type":"VEC3"
		},
		{
			"bufferView":2,
			"componentType":5126,
			"count":14545,
			"type":"VEC2"
		},
		{
			"bufferView":3,
			"componentType":5126,
			"count":14545,
			"type":"VEC2"
		},
		{
			"bufferView":4,
			"componentType":5123,
			"count":20943,
			"type":"SCALAR"
		},
		{
			"bufferView":5,
			"componentType":5126,
			"count":2204,
			"max":[
				1.807604193687439,
				7.196749210357666,
				1.8230347633361816
			],
			"min":[
				-1.782795786857605,
				1.9462705850601196,
				-1.7991118431091309
			],
			"type":"VEC3"
		},
		{
			"bufferView":6,
			"componentType":5126,
			"count":2204,
			"type":"VEC3"
		},
		{
			"bufferView":7,
			"componentType":5126,
			"count":2204,
			"type":"VEC2"
		},
		{
			"bufferView":8,
			"componentType":5126,
			"count":2204,
			"type":"VEC2"
		},
		{
			"bufferView":9,
			"componentType":5123,
			"count":3054,
			"type":"SCALAR"
		}
	],
	"bufferViews":[
		{
			"buffer":0,
			"byteLength":174540,
			"byteOffset":0,
			"target":34962
		},
		{
			"buffer":0,
			"byteLength":174540,
			"byteOffset":174540,
			"target":34962
		},
		{
			"buffer":0,
			"byteLength":116360,
			"byteOffset":349080,
			"target":34962
		},
		{
			"buffer":0,
			"byteLength":116360,
			"byteOffset":465440,
			"target":34962
		},
		{
			"buffer":0,
			"byteLength":41886,
			"byteOffset":581800,
			"target":34963
		},
		{
			"buffer":0,
			"byteLength":26448,
			"byteOffset":623688,
			"target":34962
		},
		{
			"buffer":0,
			"byteLength":26448,
			"byteOffset":650136,
			"target":34962
		},
		{
			"buffer":0,
			"byteLength":17632,
			"byteOffset":676584,
			"target":34962
		},
		{
			"buffer":0,
			"byteLength":17632,
			"byteOffset":694216,
			"target":34962
		},
		{
			"buffer":0,
			"byteLength":6108,
			"byteOffset":711848,
			"target":34963
		}
	],
	"samplers":[
		{
			"magFilter":9729,
			"minFilter":9987
		}
	],
	"buffers":[
		{
			"byteLength":717956,
			"uri":"bog_tower.bin"
		}
	]
}
