{
	"asset":{
		"generator":"Khronos glTF Blender I/O v5.1.20",
		"version":"2.0"
	},
	"scene":0,
	"scenes":[
		{
			"name":"Scene",
			"nodes":[
				0
			]
		}
	],
	"nodes":[
		{
			"mesh":0,
			"name":"bog_tent_a"
		}
	],
	"materials":[
		{
			"doubleSided":true,
			"name":"bog_tiling_mat",
			"pbrMetallicRoughness":{
				"baseColorTexture":{
					"index":0
				},
				"metallicFactor":0,
				"roughnessFactor":0.8999999761581421
			}
		},
		{
			"doubleSided":true,
			"emissiveFactor":[
				1,
				1,
				1
			],
			"emissiveTexture":{
				"index":1
			},
			"name":"bog_mat",
			"pbrMetallicRoughness":{
				"baseColorTexture":{
					"index":2
				},
				"metallicFactor":0,
				"roughnessFactor":0.8999999761581421
			}
		}
	],
	"meshes":[
		{
			"name":"Mesh",
			"primitives":[
				{
					"attributes":{
						"POSITION":0,
						"NORMAL":1,
						"TEXCOORD_0":2
					},
					"indices":3,
					"material":0
				},
				{
					"attributes":{
						"POSITION":4,
						"NORMAL":5,
						"TEXCOORD_0":6
					},
					"indices":7,
					"material":1
				}
			]
		}
	],
	"textures":[
		{
			"sampler":0,
			"source":0
		},
		{
			"sampler":0,
			"source":1
		},
		{
			"sampler":0,
			"source":2
		}
	],
	"images":[
		{
			"mimeType":"image/png",
			"name":"Mud_Texture_01",
			"uri":"Mud_Texture_01.png"
		},
		{
			"mimeType":"image/png",
			"name":"PolygonGoblinWarCamp_Emissive_01_A",
			"uri":"PolygonGoblinWarCamp_Emissive_01_A.png"
		},
		{
			"mimeType":"image/png",
			"name":"PolygonGoblinWarCamp_Texture_01_A",
			"uri":"PolygonGoblinWarCamp_Texture_01_A.png"
		}
	],
	"accessors":[
		{
			"bufferView":0,
			"componentType":5126,
			"count":5136,
			"max":[
				2.4164109230041504,
				3.04647159576416,
				2.4264743328094482
			],
			"min":[
				-2.4259912967681885,
				0.029738962650299072,
				-2.4698567390441895
			],
			"type":"VEC3"
		},
		{
			"bufferView":1,
			"componentType":5126,
			"count":5136,
			"type":"VEC3"
		},
		{
			"bufferView":2,
			"componentType":5126,
			"count":5136,
			"type":"VEC2"
		},
		{
			"bufferView":3,
			"componentType":5123,
			"count":7428,
			"type":"SCALAR"
		},
		{
			"bufferView":4,
			"componentType":5126,
			"count":945,
			"max":[
				2.9601831436157227,
				2.988718032836914,
				4.72109842300415
			],
			"min":[
				-3.1243090629577637,
				0.4568382799625397,
				-0.9611592292785645
			],
			"type":"VEC3"
		},
		{
			"bufferView":5,
			"componentType":5126,
			"count":945,
			"type":"VEC3"
		},
		{
			"bufferView":6,
			"componentType":5126,
			"count":945,
			"type":"VEC2"
		},
		{
			"bufferView":7,
			"componentType":5123,
			"count":1404,
			"type":"SCALAR"
		}
	],
	"bufferViews":[
		{
			"buffer":0,
			"byteLength":61632,
			"byteOffset":0,
			"target":34962
		},
		{
			"buffer":0,
			"byteLength":61632,
			"byteOffset":61632,
			"target":34962
		},
		{
			"buffer":0,
			"byteLength":41088,
			"byteOffset":123264,
			"target":34962
		},
		{
			"buffer":0,
			"byteLength":14856,
			"byteOffset":164352,
			"target":34963
		},
		{
			"buffer":0,
			"byteLength":11340,
			"byteOffset":179208,
			"target":34962
		},
		{
			"buffer":0,
			"byteLength":11340,
			"byteOffset":190548,
			"target":34962
		},
		{
			"buffer":0,
			"byteLength":7560,
			"byteOffset":201888,
			"target":34962
		},
		{
			"buffer":0,
			"byteLength":2808,
			"byteOffset":209448,
			"target":34963
		}
	],
	"samplers":[
		{
			"magFilter":9729,
			"minFilter":9987
		}
	],
	"buffers":[
		{
			"byteLength":212256,
			"uri":"bog_tent_a.bin"
		}
	]
}
