{
	"asset":{
		"generator":"Khronos glTF Blender I/O v5.1.20",
		"version":"2.0"
	},
	"scene":0,
	"scenes":[
		{
			"name":"Scene",
			"nodes":[
				0
			]
		}
	],
	"nodes":[
		{
			"mesh":0,
			"name":"bog_flag"
		}
	],
	"materials":[
		{
			"doubleSided":true,
			"emissiveFactor":[
				1,
				1,
				1
			],
			"emissiveTexture":{
				"index":0
			},
			"name":"bog_mat",
			"pbrMetallicRoughness":{
				"baseColorTexture":{
					"index":1
				},
				"metallicFactor":0,
				"roughnessFactor":0.8999999761581421
			}
		},
		{
			"doubleSided":true,
			"name":"bog_tiling_mat",
			"pbrMetallicRoughness":{
				"baseColorTexture":{
					"index":2
				},
				"metallicFactor":0,
				"roughnessFactor":0.8999999761581421
			}
		}
	],
	"meshes":[
		{
			"name":"Mesh",
			"primitives":[
				{
					"attributes":{
						"POSITION":0,
						"NORMAL":1,
						"TEXCOORD_0":2,
						"TEXCOORD_1":3
					},
					"indices":4,
					"material":0
				},
				{
					"attributes":{
						"POSITION":5,
						"NORMAL":6,
						"TEXCOORD_0":7,
						"TEXCOORD_1":8
					},
					"indices":9,
					"material":1
				}
			]
		}
	],
	"textures":[
		{
			"sampler":0,
			"source":0
		},
		{
			"sampler":0,
			"source":1
		},
		{
			"sampler":0,
			"source":2
		}
	],
	"images":[
		{
			"mimeType":"image/png",
			"name":"PolygonGoblinWarCamp_Emissive_01_A",
			"uri":"PolygonGoblinWarCamp_Emissive_01_A.png"
		},
		{
			"mimeType":"image/png",
			"name":"PolygonGoblinWarCamp_Texture_01_A",
			"uri":"PolygonGoblinWarCamp_Texture_01_A.png"
		},
		{
			"mimeType":"image/png",
			"name":"Mud_Texture_01",
			"uri":"Mud_Texture_01.png"
		}
	],
	"accessors":[
		{
			"bufferView":0,
			"componentType":5126,
			"count":1040,
			"max":[
				0.38166260719299316,
				2.1807680130004883,
				0.08904938399791718
			],
			"min":[
				-0.38166260719299316,
				0,
				-0.08904938399791718
			],
			"type":"VEC3"
		},
		{
			"bufferView":1,
			"componentType":5126,
			"count":1040,
			"type":"VEC3"
		},
		{
			"bufferView":2,
			"componentType":5126,
			"count":1040,
			"type":"VEC2"
		},
		{
			"bufferView":3,
			"componentType":5126,
			"count":1040,
			"type":"VEC2"
		},
		{
			"bufferView":4,
			"componentType":5123,
			"count":1506,
			"type":"SCALAR"
		},
		{
			"bufferView":5,
			"componentType":5126,
			"count":2830,
			"max":[
				0.3018872141838074,
				2.1241984367370605,
				0.07305606454610825
			],
			"min":[
				-0.2645900249481201,
				0.6893532872200012,
				-0.062408447265625
			],
			"type":"VEC3"
		},
		{
			"bufferView":6,
			"componentType":5126,
			"count":2830,
			"type":"VEC3"
		},
		{
			"bufferView":7,
			"componentType":5126,
			"count":2830,
			"type":"VEC2"
		},
		{
			"bufferView":8,
			"componentType":5126,
			"count":2830,
			"type":"VEC2"
		},
		{
			"bufferView":9,
			"componentType":5123,
			"count":4230,
			"type":"SCALAR"
		}
	],
	"bufferViews":[
		{
			"buffer":0,
			"byteLength":12480,
			"byteOffset":0,
			"target":34962
		},
		{
			"buffer":0,
			"byteLength":12480,
			"byteOffset":12480,
			"target":34962
		},
		{
			"buffer":0,
			"byteLength":8320,
			"byteOffset":24960,
			"target":34962
		},
		{
			"buffer":0,
			"byteLength":8320,
			"byteOffset":33280,
			"target":34962
		},
		{
			"buffer":0,
			"byteLength":3012,
			"byteOffset":41600,
			"target":34963
		},
		{
			"buffer":0,
			"byteLength":33960,
			"byteOffset":44612,
			"target":34962
		},
		{
			"buffer":0,
			"byteLength":33960,
			"byteOffset":78572,
			"target":34962
		},
		{
			"buffer":0,
			"byteLength":22640,
			"byteOffset":112532,
			"target":34962
		},
		{
			"buffer":0,
			"byteLength":22640,
			"byteOffset":135172,
			"target":34962
		},
		{
			"buffer":0,
			"byteLength":8460,
			"byteOffset":157812,
			"target":34963
		}
	],
	"samplers":[
		{
			"magFilter":9729,
			"minFilter":9987
		}
	],
	"buffers":[
		{
			"byteLength":166272,
			"uri":"bog_flag.bin"
		}
	]
}
