{
	"asset":{
		"generator":"Khronos glTF Blender I/O v5.1.20",
		"version":"2.0"
	},
	"scene":0,
	"scenes":[
		{
			"name":"Scene",
			"nodes":[
				0
			]
		}
	],
	"nodes":[
		{
			"mesh":0,
			"name":"bog_ram"
		}
	],
	"materials":[
		{
			"doubleSided":true,
			"name":"bog_tiling_mat",
			"pbrMetallicRoughness":{
				"baseColorTexture":{
					"index":0
				},
				"metallicFactor":0,
				"roughnessFactor":0.8999999761581421
			}
		},
		{
			"doubleSided":true,
			"emissiveFactor":[
				1,
				1,
				1
			],
			"emissiveTexture":{
				"index":1
			},
			"name":"bog_mat",
			"pbrMetallicRoughness":{
				"baseColorTexture":{
					"index":2
				},
				"metallicFactor":0,
				"roughnessFactor":0.8999999761581421
			}
		}
	],
	"meshes":[
		{
			"name":"Mesh",
			"primitives":[
				{
					"attributes":{
						"POSITION":0,
						"NORMAL":1,
						"TEXCOORD_0":2,
						"TEXCOORD_1":3
					},
					"indices":4,
					"material":0
				},
				{
					"attributes":{
						"POSITION":5,
						"NORMAL":6,
						"TEXCOORD_0":7,
						"TEXCOORD_1":8
					},
					"indices":9,
					"material":1
				}
			]
		}
	],
	"textures":[
		{
			"sampler":0,
			"source":0
		},
		{
			"sampler":0,
			"source":1
		},
		{
			"sampler":0,
			"source":2
		}
	],
	"images":[
		{
			"mimeType":"image/png",
			"name":"Mud_Texture_01",
			"uri":"Mud_Texture_01.png"
		},
		{
			"mimeType":"image/png",
			"name":"PolygonGoblinWarCamp_Emissive_01_A",
			"uri":"PolygonGoblinWarCamp_Emissive_01_A.png"
		},
		{
			"mimeType":"image/png",
			"name":"PolygonGoblinWarCamp_Texture_01_A",
			"uri":"PolygonGoblinWarCamp_Texture_01_A.png"
		}
	],
	"accessors":[
		{
			"bufferView":0,
			"componentType":5126,
			"count":10818,
			"max":[
				1.9762520790100098,
				2.9987547397613525,
				2.4647104740142822
			],
			"min":[
				-1.9762520790100098,
				0.4019242525100708,
				-2.4647109508514404
			],
			"type":"VEC3"
		},
		{
			"bufferView":1,
			"componentType":5126,
			"count":10818,
			"type":"VEC3"
		},
		{
			"bufferView":2,
			"componentType":5126,
			"count":10818,
			"type":"VEC2"
		},
		{
			"bufferView":3,
			"componentType":5126,
			"count":10818,
			"type":"VEC2"
		},
		{
			"bufferView":4,
			"componentType":5123,
			"count":14928,
			"type":"SCALAR"
		},
		{
			"bufferView":5,
			"componentType":5126,
			"count":8491,
			"max":[
				1.1676770448684692,
				2.7614283561706543,
				2.2960829734802246
			],
			"min":[
				-1.2713305950164795,
				-9.846533544077829e-08,
				-1.7715424299240112
			],
			"type":"VEC3"
		},
		{
			"bufferView":6,
			"componentType":5126,
			"count":8491,
			"type":"VEC3"
		},
		{
			"bufferView":7,
			"componentType":5126,
			"count":8491,
			"type":"VEC2"
		},
		{
			"bufferView":8,
			"componentType":5126,
			"count":8491,
			"type":"VEC2"
		},
		{
			"bufferView":9,
			"componentType":5123,
			"count":13932,
			"type":"SCALAR"
		}
	],
	"bufferViews":[
		{
			"buffer":0,
			"byteLength":129816,
			"byteOffset":0,
			"target":34962
		},
		{
			"buffer":0,
			"byteLength":129816,
			"byteOffset":129816,
			"target":34962
		},
		{
			"buffer":0,
			"byteLength":86544,
			"byteOffset":259632,
			"target":34962
		},
		{
			"buffer":0,
			"byteLength":86544,
			"byteOffset":346176,
			"target":34962
		},
		{
			"buffer":0,
			"byteLength":29856,
			"byteOffset":432720,
			"target":34963
		},
		{
			"buffer":0,
			"byteLength":101892,
			"byteOffset":462576,
			"target":34962
		},
		{
			"buffer":0,
			"byteLength":101892,
			"byteOffset":564468,
			"target":34962
		},
		{
			"buffer":0,
			"byteLength":67928,
			"byteOffset":666360,
			"target":34962
		},
		{
			"buffer":0,
			"byteLength":67928,
			"byteOffset":734288,
			"target":34962
		},
		{
			"buffer":0,
			"byteLength":27864,
			"byteOffset":802216,
			"target":34963
		}
	],
	"samplers":[
		{
			"magFilter":9729,
			"minFilter":9987
		}
	],
	"buffers":[
		{
			"byteLength":830080,
			"uri":"bog_ram.bin"
		}
	]
}
