{
	"asset":{
		"generator":"Khronos glTF Blender I/O v5.1.20",
		"version":"2.0"
	},
	"scene":0,
	"scenes":[
		{
			"name":"Scene",
			"nodes":[
				0
			]
		}
	],
	"nodes":[
		{
			"mesh":0,
			"name":"bog_fence"
		}
	],
	"materials":[
		{
			"doubleSided":true,
			"name":"bog_tiling_mat",
			"pbrMetallicRoughness":{
				"baseColorTexture":{
					"index":0
				},
				"metallicFactor":0,
				"roughnessFactor":0.8999999761581421
			}
		}
	],
	"meshes":[
		{
			"name":"Mesh",
			"primitives":[
				{
					"attributes":{
						"POSITION":0,
						"NORMAL":1,
						"TEXCOORD_0":2
					},
					"indices":3,
					"material":0
				}
			]
		}
	],
	"textures":[
		{
			"sampler":0,
			"source":0
		}
	],
	"images":[
		{
			"mimeType":"image/png",
			"name":"Mud_Texture_01",
			"uri":"Mud_Texture_01.png"
		}
	],
	"accessors":[
		{
			"bufferView":0,
			"componentType":5126,
			"count":3462,
			"max":[
				5.006158828735352,
				1.58393394947052,
				0.7159869074821472
			],
			"min":[
				-5.006158828735352,
				0,
				-0.7159868478775024
			],
			"type":"VEC3"
		},
		{
			"bufferView":1,
			"componentType":5126,
			"count":3462,
			"type":"VEC3"
		},
		{
			"bufferView":2,
			"componentType":5126,
			"count":3462,
			"type":"VEC2"
		},
		{
			"bufferView":3,
			"componentType":5123,
			"count":4302,
			"type":"SCALAR"
		}
	],
	"bufferViews":[
		{
			"buffer":0,
			"byteLength":41544,
			"byteOffset":0,
			"target":34962
		},
		{
			"buffer":0,
			"byteLength":41544,
			"byteOffset":41544,
			"target":34962
		},
		{
			"buffer":0,
			"byteLength":27696,
			"byteOffset":83088,
			"target":34962
		},
		{
			"buffer":0,
			"byteLength":8604,
			"byteOffset":110784,
			"target":34963
		}
	],
	"samplers":[
		{
			"magFilter":9729,
			"minFilter":9987
		}
	],
	"buffers":[
		{
			"byteLength":119388,
			"uri":"bog_fence.bin"
		}
	]
}
