{
	"asset":{
		"generator":"Khronos glTF Blender I/O v5.1.20",
		"version":"2.0"
	},
	"scene":0,
	"scenes":[
		{
			"name":"Scene",
			"nodes":[
				0
			]
		}
	],
	"nodes":[
		{
			"mesh":0,
			"name":"bog_brazier"
		}
	],
	"materials":[
		{
			"doubleSided":true,
			"emissiveFactor":[
				1,
				1,
				1
			],
			"emissiveTexture":{
				"index":0
			},
			"name":"bog_mat",
			"pbrMetallicRoughness":{
				"baseColorTexture":{
					"index":1
				},
				"metallicFactor":0,
				"roughnessFactor":0.8999999761581421
			}
		}
	],
	"meshes":[
		{
			"name":"Mesh",
			"primitives":[
				{
					"attributes":{
						"POSITION":0,
						"NORMAL":1,
						"TEXCOORD_0":2
					},
					"indices":3,
					"material":0
				}
			]
		}
	],
	"textures":[
		{
			"sampler":0,
			"source":0
		},
		{
			"sampler":0,
			"source":1
		}
	],
	"images":[
		{
			"mimeType":"image/png",
			"name":"PolygonGoblinWarCamp_Emissive_01_A",
			"uri":"PolygonGoblinWarCamp_Emissive_01_A.png"
		},
		{
			"mimeType":"image/png",
			"name":"PolygonGoblinWarCamp_Texture_01_A",
			"uri":"PolygonGoblinWarCamp_Texture_01_A.png"
		}
	],
	"accessors":[
		{
			"bufferView":0,
			"componentType":5126,
			"count":3349,
			"max":[
				0.6501481533050537,
				0.8328396081924438,
				0.6899479627609253
			],
			"min":[
				-0.6501481533050537,
				-1.8280925384583924e-10,
				-0.6899479627609253
			],
			"type":"VEC3"
		},
		{
			"bufferView":1,
			"componentType":5126,
			"count":3349,
			"type":"VEC3"
		},
		{
			"bufferView":2,
			"componentType":5126,
			"count":3349,
			"type":"VEC2"
		},
		{
			"bufferView":3,
			"componentType":5123,
			"count":4749,
			"type":"SCALAR"
		}
	],
	"bufferViews":[
		{
			"buffer":0,
			"byteLength":40188,
			"byteOffset":0,
			"target":34962
		},
		{
			"buffer":0,
			"byteLength":40188,
			"byteOffset":40188,
			"target":34962
		},
		{
			"buffer":0,
			"byteLength":26792,
			"byteOffset":80376,
			"target":34962
		},
		{
			"buffer":0,
			"byteLength":9498,
			"byteOffset":107168,
			"target":34963
		}
	],
	"samplers":[
		{
			"magFilter":9729,
			"minFilter":9987
		}
	],
	"buffers":[
		{
			"byteLength":116668,
			"uri":"bog_brazier.bin"
		}
	]
}
