{
	"asset":{
		"generator":"Khronos glTF Blender I/O v5.1.20",
		"version":"2.0"
	},
	"scene":0,
	"scenes":[
		{
			"name":"Scene",
			"nodes":[
				0
			]
		}
	],
	"nodes":[
		{
			"mesh":0,
			"name":"bog_skull_pile_b"
		}
	],
	"materials":[
		{
			"doubleSided":true,
			"name":"bog_tiling_mat",
			"pbrMetallicRoughness":{
				"baseColorTexture":{
					"index":0
				},
				"metallicFactor":0,
				"roughnessFactor":0.8999999761581421
			}
		}
	],
	"meshes":[
		{
			"name":"Mesh",
			"primitives":[
				{
					"attributes":{
						"POSITION":0,
						"NORMAL":1,
						"TEXCOORD_0":2
					},
					"indices":3,
					"material":0
				}
			]
		}
	],
	"textures":[
		{
			"sampler":0,
			"source":0
		}
	],
	"images":[
		{
			"mimeType":"image/png",
			"name":"Mud_Texture_01",
			"uri":"Mud_Texture_01.png"
		}
	],
	"accessors":[
		{
			"bufferView":0,
			"componentType":5126,
			"count":1438,
			"max":[
				0.2852413058280945,
				0.3443320095539093,
				0.3390004336833954
			],
			"min":[
				-0.2852413058280945,
				0,
				-0.3390004336833954
			],
			"type":"VEC3"
		},
		{
			"bufferView":1,
			"componentType":5126,
			"count":1438,
			"type":"VEC3"
		},
		{
			"bufferView":2,
			"componentType":5126,
			"count":1438,
			"type":"VEC2"
		},
		{
			"bufferView":3,
			"componentType":5123,
			"count":2766,
			"type":"SCALAR"
		}
	],
	"bufferViews":[
		{
			"buffer":0,
			"byteLength":17256,
			"byteOffset":0,
			"target":34962
		},
		{
			"buffer":0,
			"byteLength":17256,
			"byteOffset":17256,
			"target":34962
		},
		{
			"buffer":0,
			"byteLength":11504,
			"byteOffset":34512,
			"target":34962
		},
		{
			"buffer":0,
			"byteLength":5532,
			"byteOffset":46016,
			"target":34963
		}
	],
	"samplers":[
		{
			"magFilter":9729,
			"minFilter":9987
		}
	],
	"buffers":[
		{
			"byteLength":51548,
			"uri":"bog_skull_pile_b.bin"
		}
	]
}
