{
	"asset":{
		"generator":"Khronos glTF Blender I/O v5.1.20",
		"version":"2.0"
	},
	"scene":0,
	"scenes":[
		{
			"name":"Scene",
			"nodes":[
				0
			]
		}
	],
	"nodes":[
		{
			"mesh":0,
			"name":"banner"
		}
	],
	"materials":[
		{
			"doubleSided":true,
			"emissiveFactor":[
				1,
				1,
				1
			],
			"emissiveTexture":{
				"index":0
			},
			"name":"DarkFortress_Mat",
			"pbrMetallicRoughness":{
				"baseColorTexture":{
					"index":1
				},
				"metallicFactor":0,
				"roughnessFactor":0.8999999761581421
			}
		}
	],
	"meshes":[
		{
			"name":"Mesh.014",
			"primitives":[
				{
					"attributes":{
						"POSITION":0,
						"NORMAL":1,
						"TEXCOORD_0":2,
						"TEXCOORD_1":3,
						"COLOR_0":4,
						"COLOR_1":5
					},
					"indices":6,
					"material":0
				}
			]
		}
	],
	"textures":[
		{
			"sampler":0,
			"source":0
		},
		{
			"sampler":0,
			"source":1
		}
	],
	"images":[
		{
			"mimeType":"image/png",
			"name":"PolygonDarkFortress_Emissive_01_A",
			"uri":"PolygonDarkFortress_Emissive_01_A.png"
		},
		{
			"mimeType":"image/png",
			"name":"PolygonDarkFortress_Texture_01_A",
			"uri":"PolygonDarkFortress_Texture_01_A.png"
		}
	],
	"accessors":[
		{
			"bufferView":0,
			"componentType":5126,
			"count":2784,
			"max":[
				0.6175913214683533,
				0,
				0.2595449984073639
			],
			"min":[
				-0.948634147644043,
				-4.338316917419434,
				-0.2595449984073639
			],
			"type":"VEC3"
		},
		{
			"bufferView":1,
			"componentType":5126,
			"count":2784,
			"type":"VEC3"
		},
		{
			"bufferView":2,
			"componentType":5126,
			"count":2784,
			"type":"VEC2"
		},
		{
			"bufferView":3,
			"componentType":5126,
			"count":2784,
			"type":"VEC2"
		},
		{
			"bufferView":4,
			"componentType":5121,
			"count":2784,
			"normalized":true,
			"type":"VEC4"
		},
		{
			"bufferView":5,
			"componentType":5123,
			"count":2784,
			"normalized":true,
			"type":"VEC4"
		},
		{
			"bufferView":6,
			"componentType":5123,
			"count":4326,
			"type":"SCALAR"
		}
	],
	"bufferViews":[
		{
			"buffer":0,
			"byteLength":33408,
			"byteOffset":0,
			"target":34962
		},
		{
			"buffer":0,
			"byteLength":33408,
			"byteOffset":33408,
			"target":34962
		},
		{
			"buffer":0,
			"byteLength":22272,
			"byteOffset":66816,
			"target":34962
		},
		{
			"buffer":0,
			"byteLength":22272,
			"byteOffset":89088,
			"target":34962
		},
		{
			"buffer":0,
			"byteLength":11136,
			"byteOffset":111360,
			"target":34962
		},
		{
			"buffer":0,
			"byteLength":22272,
			"byteOffset":122496,
			"target":34962
		},
		{
			"buffer":0,
			"byteLength":8652,
			"byteOffset":144768,
			"target":34963
		}
	],
	"samplers":[
		{
			"magFilter":9729,
			"minFilter":9987
		}
	],
	"buffers":[
		{
			"byteLength":153420,
			"uri":"banner.bin"
		}
	]
}
