{
	"asset":{
		"generator":"Khronos glTF Blender I/O v5.1.20",
		"version":"2.0"
	},
	"scene":0,
	"scenes":[
		{
			"name":"Scene",
			"nodes":[
				0
			]
		}
	],
	"nodes":[
		{
			"mesh":0,
			"name":"cage"
		}
	],
	"materials":[
		{
			"doubleSided":true,
			"emissiveFactor":[
				1,
				1,
				1
			],
			"emissiveTexture":{
				"index":0
			},
			"name":"DarkFortress_Mat",
			"pbrMetallicRoughness":{
				"baseColorTexture":{
					"index":1
				},
				"metallicFactor":0,
				"roughnessFactor":0.8999999761581421
			}
		}
	],
	"meshes":[
		{
			"name":"Mesh.012",
			"primitives":[
				{
					"attributes":{
						"POSITION":0,
						"NORMAL":1,
						"TEXCOORD_0":2,
						"TEXCOORD_1":3
					},
					"indices":4,
					"material":0
				}
			]
		}
	],
	"textures":[
		{
			"sampler":0,
			"source":0
		},
		{
			"sampler":0,
			"source":1
		}
	],
	"images":[
		{
			"mimeType":"image/png",
			"name":"PolygonDarkFortress_Emissive_01_A",
			"uri":"PolygonDarkFortress_Emissive_01_A.png"
		},
		{
			"mimeType":"image/png",
			"name":"PolygonDarkFortress_Texture_01_A",
			"uri":"PolygonDarkFortress_Texture_01_A.png"
		}
	],
	"accessors":[
		{
			"bufferView":0,
			"componentType":5126,
			"count":2674,
			"max":[
				0.7486575841903687,
				2.3523552417755127,
				0.7203449606895447
			],
			"min":[
				-0.7486575841903687,
				0,
				-0.7203449606895447
			],
			"type":"VEC3"
		},
		{
			"bufferView":1,
			"componentType":5126,
			"count":2674,
			"type":"VEC3"
		},
		{
			"bufferView":2,
			"componentType":5126,
			"count":2674,
			"type":"VEC2"
		},
		{
			"bufferView":3,
			"componentType":5126,
			"count":2674,
			"type":"VEC2"
		},
		{
			"bufferView":4,
			"componentType":5123,
			"count":4248,
			"type":"SCALAR"
		}
	],
	"bufferViews":[
		{
			"buffer":0,
			"byteLength":32088,
			"byteOffset":0,
			"target":34962
		},
		{
			"buffer":0,
			"byteLength":32088,
			"byteOffset":32088,
			"target":34962
		},
		{
			"buffer":0,
			"byteLength":21392,
			"byteOffset":64176,
			"target":34962
		},
		{
			"buffer":0,
			"byteLength":21392,
			"byteOffset":85568,
			"target":34962
		},
		{
			"buffer":0,
			"byteLength":8496,
			"byteOffset":106960,
			"target":34963
		}
	],
	"samplers":[
		{
			"magFilter":9729,
			"minFilter":9987
		}
	],
	"buffers":[
		{
			"byteLength":115456,
			"uri":"cage.bin"
		}
	]
}
