{
	"asset":{
		"generator":"Khronos glTF Blender I/O v5.1.20",
		"version":"2.0"
	},
	"scene":0,
	"scenes":[
		{
			"name":"Scene",
			"nodes":[
				0
			]
		}
	],
	"nodes":[
		{
			"mesh":0,
			"name":"chair"
		}
	],
	"materials":[
		{
			"doubleSided":true,
			"name":"DarkFortress_Brick",
			"pbrMetallicRoughness":{
				"baseColorTexture":{
					"index":0
				},
				"metallicFactor":0,
				"roughnessFactor":0.8999999761581421
			}
		}
	],
	"meshes":[
		{
			"name":"Mesh.009",
			"primitives":[
				{
					"attributes":{
						"POSITION":0,
						"NORMAL":1,
						"TEXCOORD_0":2,
						"TEXCOORD_1":3
					},
					"indices":4,
					"material":0
				}
			]
		}
	],
	"textures":[
		{
			"sampler":0,
			"source":0
		}
	],
	"images":[
		{
			"mimeType":"image/png",
			"name":"Brick_Large_Texture_01",
			"uri":"Brick_Large_Texture_01.png"
		}
	],
	"accessors":[
		{
			"bufferView":0,
			"componentType":5126,
			"count":1859,
			"max":[
				0.25830894708633423,
				0.9979684352874756,
				0.22673210501670837
			],
			"min":[
				-0.25830891728401184,
				-1.5028383870685502e-08,
				-0.22673217952251434
			],
			"type":"VEC3"
		},
		{
			"bufferView":1,
			"componentType":5126,
			"count":1859,
			"type":"VEC3"
		},
		{
			"bufferView":2,
			"componentType":5126,
			"count":1859,
			"type":"VEC2"
		},
		{
			"bufferView":3,
			"componentType":5126,
			"count":1859,
			"type":"VEC2"
		},
		{
			"bufferView":4,
			"componentType":5123,
			"count":2904,
			"type":"SCALAR"
		}
	],
	"bufferViews":[
		{
			"buffer":0,
			"byteLength":22308,
			"byteOffset":0,
			"target":34962
		},
		{
			"buffer":0,
			"byteLength":22308,
			"byteOffset":22308,
			"target":34962
		},
		{
			"buffer":0,
			"byteLength":14872,
			"byteOffset":44616,
			"target":34962
		},
		{
			"buffer":0,
			"byteLength":14872,
			"byteOffset":59488,
			"target":34962
		},
		{
			"buffer":0,
			"byteLength":5808,
			"byteOffset":74360,
			"target":34963
		}
	],
	"samplers":[
		{
			"magFilter":9729,
			"minFilter":9987
		}
	],
	"buffers":[
		{
			"byteLength":80168,
			"uri":"chair.bin"
		}
	]
}
