{
	"asset":{
		"generator":"Khronos glTF Blender I/O v5.1.20",
		"version":"2.0"
	},
	"scene":0,
	"scenes":[
		{
			"name":"Scene",
			"nodes":[
				0
			]
		}
	],
	"nodes":[
		{
			"mesh":0,
			"name":"chest"
		}
	],
	"materials":[
		{
			"doubleSided":true,
			"name":"DarkFortress_Brick",
			"pbrMetallicRoughness":{
				"baseColorTexture":{
					"index":0
				},
				"metallicFactor":0,
				"roughnessFactor":0.8999999761581421
			}
		},
		{
			"doubleSided":true,
			"emissiveFactor":[
				1,
				1,
				1
			],
			"emissiveTexture":{
				"index":1
			},
			"name":"DarkFortress_Mat",
			"pbrMetallicRoughness":{
				"baseColorTexture":{
					"index":2
				},
				"metallicFactor":0,
				"roughnessFactor":0.8999999761581421
			}
		}
	],
	"meshes":[
		{
			"name":"Mesh.016",
			"primitives":[
				{
					"attributes":{
						"POSITION":0,
						"NORMAL":1,
						"TEXCOORD_0":2,
						"TEXCOORD_1":3
					},
					"indices":4,
					"material":0
				},
				{
					"attributes":{
						"POSITION":5,
						"NORMAL":6,
						"TEXCOORD_0":7,
						"TEXCOORD_1":8
					},
					"indices":9,
					"material":1
				}
			]
		}
	],
	"textures":[
		{
			"sampler":0,
			"source":0
		},
		{
			"sampler":0,
			"source":1
		},
		{
			"sampler":0,
			"source":2
		}
	],
	"images":[
		{
			"mimeType":"image/png",
			"name":"Brick_Large_Texture_01",
			"uri":"Brick_Large_Texture_01.png"
		},
		{
			"mimeType":"image/png",
			"name":"PolygonDarkFortress_Emissive_01_A",
			"uri":"PolygonDarkFortress_Emissive_01_A.png"
		},
		{
			"mimeType":"image/png",
			"name":"PolygonDarkFortress_Texture_01_A",
			"uri":"PolygonDarkFortress_Texture_01_A.png"
		}
	],
	"accessors":[
		{
			"bufferView":0,
			"componentType":5126,
			"count":5739,
			"max":[
				0.5529394745826721,
				0.7356694936752319,
				0.3444505035877228
			],
			"min":[
				-0.5529394745826721,
				0,
				-0.3481026887893677
			],
			"type":"VEC3"
		},
		{
			"bufferView":1,
			"componentType":5126,
			"count":5739,
			"type":"VEC3"
		},
		{
			"bufferView":2,
			"componentType":5126,
			"count":5739,
			"type":"VEC2"
		},
		{
			"bufferView":3,
			"componentType":5126,
			"count":5739,
			"type":"VEC2"
		},
		{
			"bufferView":4,
			"componentType":5123,
			"count":8676,
			"type":"SCALAR"
		},
		{
			"bufferView":5,
			"componentType":5126,
			"count":4909,
			"max":[
				0.6286593079566956,
				0.9217584133148193,
				0.3363457918167114
			],
			"min":[
				-0.6286593079566956,
				0.3407728374004364,
				-0.351247102022171
			],
			"type":"VEC3"
		},
		{
			"bufferView":6,
			"componentType":5126,
			"count":4909,
			"type":"VEC3"
		},
		{
			"bufferView":7,
			"componentType":5126,
			"count":4909,
			"type":"VEC2"
		},
		{
			"bufferView":8,
			"componentType":5126,
			"count":4909,
			"type":"VEC2"
		},
		{
			"bufferView":9,
			"componentType":5123,
			"count":6261,
			"type":"SCALAR"
		}
	],
	"bufferViews":[
		{
			"buffer":0,
			"byteLength":68868,
			"byteOffset":0,
			"target":34962
		},
		{
			"buffer":0,
			"byteLength":68868,
			"byteOffset":68868,
			"target":34962
		},
		{
			"buffer":0,
			"byteLength":45912,
			"byteOffset":137736,
			"target":34962
		},
		{
			"buffer":0,
			"byteLength":45912,
			"byteOffset":183648,
			"target":34962
		},
		{
			"buffer":0,
			"byteLength":17352,
			"byteOffset":229560,
			"target":34963
		},
		{
			"buffer":0,
			"byteLength":58908,
			"byteOffset":246912,
			"target":34962
		},
		{
			"buffer":0,
			"byteLength":58908,
			"byteOffset":305820,
			"target":34962
		},
		{
			"buffer":0,
			"byteLength":39272,
			"byteOffset":364728,
			"target":34962
		},
		{
			"buffer":0,
			"byteLength":39272,
			"byteOffset":404000,
			"target":34962
		},
		{
			"buffer":0,
			"byteLength":12522,
			"byteOffset":443272,
			"target":34963
		}
	],
	"samplers":[
		{
			"magFilter":9729,
			"minFilter":9987
		}
	],
	"buffers":[
		{
			"byteLength":455796,
			"uri":"chest.bin"
		}
	]
}
