{
	"asset":{
		"generator":"Khronos glTF Blender I/O v5.1.20",
		"version":"2.0"
	},
	"scene":0,
	"scenes":[
		{
			"name":"Scene",
			"nodes":[
				0
			]
		}
	],
	"nodes":[
		{
			"mesh":0,
			"name":"parapet"
		}
	],
	"materials":[
		{
			"doubleSided":true,
			"name":"DarkFortress_Brick",
			"pbrMetallicRoughness":{
				"baseColorTexture":{
					"index":0
				},
				"metallicFactor":0,
				"roughnessFactor":0.8999999761581421
			}
		}
	],
	"meshes":[
		{
			"name":"Mesh.028",
			"primitives":[
				{
					"attributes":{
						"POSITION":0,
						"NORMAL":1,
						"TEXCOORD_0":2
					},
					"indices":3,
					"material":0
				}
			]
		}
	],
	"textures":[
		{
			"sampler":0,
			"source":0
		}
	],
	"images":[
		{
			"mimeType":"image/png",
			"name":"Brick_Large_Texture_01",
			"uri":"Brick_Large_Texture_01.png"
		}
	],
	"accessors":[
		{
			"bufferView":0,
			"componentType":5126,
			"count":587,
			"max":[
				2.5,
				1.9875408411026,
				0.46049296855926514
			],
			"min":[
				-2.5,
				0,
				-0.4604929983615875
			],
			"type":"VEC3"
		},
		{
			"bufferView":1,
			"componentType":5126,
			"count":587,
			"type":"VEC3"
		},
		{
			"bufferView":2,
			"componentType":5126,
			"count":587,
			"type":"VEC2"
		},
		{
			"bufferView":3,
			"componentType":5123,
			"count":1038,
			"type":"SCALAR"
		}
	],
	"bufferViews":[
		{
			"buffer":0,
			"byteLength":7044,
			"byteOffset":0,
			"target":34962
		},
		{
			"buffer":0,
			"byteLength":7044,
			"byteOffset":7044,
			"target":34962
		},
		{
			"buffer":0,
			"byteLength":4696,
			"byteOffset":14088,
			"target":34962
		},
		{
			"buffer":0,
			"byteLength":2076,
			"byteOffset":18784,
			"target":34963
		}
	],
	"samplers":[
		{
			"magFilter":9729,
			"minFilter":9987
		}
	],
	"buffers":[
		{
			"byteLength":20860,
			"uri":"parapet.bin"
		}
	]
}
