{
	"asset":{
		"generator":"Khronos glTF Blender I/O v5.1.20",
		"version":"2.0"
	},
	"scene":0,
	"scenes":[
		{
			"name":"Scene",
			"nodes":[
				0
			]
		}
	],
	"nodes":[
		{
			"mesh":0,
			"name":"rubble"
		}
	],
	"materials":[
		{
			"doubleSided":true,
			"emissiveFactor":[
				1,
				1,
				1
			],
			"emissiveTexture":{
				"index":0
			},
			"name":"DarkFortress_Mat",
			"pbrMetallicRoughness":{
				"baseColorTexture":{
					"index":1
				},
				"metallicFactor":0,
				"roughnessFactor":0.8999999761581421
			}
		}
	],
	"meshes":[
		{
			"name":"Mesh.025",
			"primitives":[
				{
					"attributes":{
						"POSITION":0,
						"NORMAL":1,
						"TEXCOORD_0":2,
						"TEXCOORD_1":3
					},
					"indices":4,
					"material":0
				}
			]
		}
	],
	"textures":[
		{
			"sampler":0,
			"source":0
		},
		{
			"sampler":0,
			"source":1
		}
	],
	"images":[
		{
			"mimeType":"image/png",
			"name":"PolygonDarkFortress_Emissive_01_A",
			"uri":"PolygonDarkFortress_Emissive_01_A.png"
		},
		{
			"mimeType":"image/png",
			"name":"PolygonDarkFortress_Texture_01_A",
			"uri":"PolygonDarkFortress_Texture_01_A.png"
		}
	],
	"accessors":[
		{
			"bufferView":0,
			"componentType":5126,
			"count":1201,
			"max":[
				1.192143440246582,
				0.31582364439964294,
				0.7931106090545654
			],
			"min":[
				-1.192143440246582,
				0,
				-0.7931106090545654
			],
			"type":"VEC3"
		},
		{
			"bufferView":1,
			"componentType":5126,
			"count":1201,
			"type":"VEC3"
		},
		{
			"bufferView":2,
			"componentType":5126,
			"count":1201,
			"type":"VEC2"
		},
		{
			"bufferView":3,
			"componentType":5126,
			"count":1201,
			"type":"VEC2"
		},
		{
			"bufferView":4,
			"componentType":5123,
			"count":1410,
			"type":"SCALAR"
		}
	],
	"bufferViews":[
		{
			"buffer":0,
			"byteLength":14412,
			"byteOffset":0,
			"target":34962
		},
		{
			"buffer":0,
			"byteLength":14412,
			"byteOffset":14412,
			"target":34962
		},
		{
			"buffer":0,
			"byteLength":9608,
			"byteOffset":28824,
			"target":34962
		},
		{
			"buffer":0,
			"byteLength":9608,
			"byteOffset":38432,
			"target":34962
		},
		{
			"buffer":0,
			"byteLength":2820,
			"byteOffset":48040,
			"target":34963
		}
	],
	"samplers":[
		{
			"magFilter":9729,
			"minFilter":9987
		}
	],
	"buffers":[
		{
			"byteLength":50860,
			"uri":"rubble.bin"
		}
	]
}
