{
	"asset":{
		"generator":"Khronos glTF Blender I/O v5.1.20",
		"version":"2.0"
	},
	"scene":0,
	"scenes":[
		{
			"name":"Scene",
			"nodes":[
				0
			]
		}
	],
	"nodes":[
		{
			"mesh":0,
			"name":"table"
		}
	],
	"materials":[
		{
			"doubleSided":true,
			"emissiveFactor":[
				1,
				1,
				1
			],
			"emissiveTexture":{
				"index":0
			},
			"name":"DarkFortress_Mat",
			"pbrMetallicRoughness":{
				"baseColorTexture":{
					"index":1
				},
				"metallicFactor":0,
				"roughnessFactor":0.8999999761581421
			}
		}
	],
	"meshes":[
		{
			"name":"Mesh.008",
			"primitives":[
				{
					"attributes":{
						"POSITION":0,
						"NORMAL":1,
						"TEXCOORD_0":2,
						"TEXCOORD_1":3
					},
					"indices":4,
					"material":0
				}
			]
		}
	],
	"textures":[
		{
			"sampler":0,
			"source":0
		},
		{
			"sampler":0,
			"source":1
		}
	],
	"images":[
		{
			"mimeType":"image/png",
			"name":"PolygonDarkFortress_Emissive_01_A",
			"uri":"PolygonDarkFortress_Emissive_01_A.png"
		},
		{
			"mimeType":"image/png",
			"name":"PolygonDarkFortress_Texture_01_A",
			"uri":"PolygonDarkFortress_Texture_01_A.png"
		}
	],
	"accessors":[
		{
			"bufferView":0,
			"componentType":5126,
			"count":1631,
			"max":[
				1.008534550666809,
				0.9523895978927612,
				0.5110102891921997
			],
			"min":[
				-1.008534550666809,
				-3.518344016129049e-08,
				-0.5110104084014893
			],
			"type":"VEC3"
		},
		{
			"bufferView":1,
			"componentType":5126,
			"count":1631,
			"type":"VEC3"
		},
		{
			"bufferView":2,
			"componentType":5126,
			"count":1631,
			"type":"VEC2"
		},
		{
			"bufferView":3,
			"componentType":5126,
			"count":1631,
			"type":"VEC2"
		},
		{
			"bufferView":4,
			"componentType":5123,
			"count":2682,
			"type":"SCALAR"
		}
	],
	"bufferViews":[
		{
			"buffer":0,
			"byteLength":19572,
			"byteOffset":0,
			"target":34962
		},
		{
			"buffer":0,
			"byteLength":19572,
			"byteOffset":19572,
			"target":34962
		},
		{
			"buffer":0,
			"byteLength":13048,
			"byteOffset":39144,
			"target":34962
		},
		{
			"buffer":0,
			"byteLength":13048,
			"byteOffset":52192,
			"target":34962
		},
		{
			"buffer":0,
			"byteLength":5364,
			"byteOffset":65240,
			"target":34963
		}
	],
	"samplers":[
		{
			"magFilter":9729,
			"minFilter":9987
		}
	],
	"buffers":[
		{
			"byteLength":70604,
			"uri":"table.bin"
		}
	]
}
