{
	"asset":{
		"generator":"Khronos glTF Blender I/O v5.1.20",
		"version":"2.0"
	},
	"scene":0,
	"scenes":[
		{
			"name":"Scene",
			"nodes":[
				0
			]
		}
	],
	"nodes":[
		{
			"mesh":0,
			"name":"torch_stand"
		}
	],
	"materials":[
		{
			"doubleSided":true,
			"emissiveFactor":[
				1,
				1,
				1
			],
			"emissiveTexture":{
				"index":0
			},
			"name":"DarkFortress_Mat",
			"pbrMetallicRoughness":{
				"baseColorTexture":{
					"index":1
				},
				"metallicFactor":0,
				"roughnessFactor":0.8999999761581421
			}
		}
	],
	"meshes":[
		{
			"name":"Mesh.005",
			"primitives":[
				{
					"attributes":{
						"POSITION":0,
						"NORMAL":1,
						"TEXCOORD_0":2
					},
					"indices":3,
					"material":0
				}
			]
		}
	],
	"textures":[
		{
			"sampler":0,
			"source":0
		},
		{
			"sampler":0,
			"source":1
		}
	],
	"images":[
		{
			"mimeType":"image/png",
			"name":"PolygonDarkFortress_Emissive_01_A",
			"uri":"PolygonDarkFortress_Emissive_01_A.png"
		},
		{
			"mimeType":"image/png",
			"name":"PolygonDarkFortress_Texture_01_A",
			"uri":"PolygonDarkFortress_Texture_01_A.png"
		}
	],
	"accessors":[
		{
			"bufferView":0,
			"componentType":5126,
			"count":1310,
			"max":[
				0.12527965009212494,
				1.2343052625656128,
				0.1433389037847519
			],
			"min":[
				-0.12527966499328613,
				-3.8156158232993675e-09,
				-0.14333906769752502
			],
			"type":"VEC3"
		},
		{
			"bufferView":1,
			"componentType":5126,
			"count":1310,
			"type":"VEC3"
		},
		{
			"bufferView":2,
			"componentType":5126,
			"count":1310,
			"type":"VEC2"
		},
		{
			"bufferView":3,
			"componentType":5123,
			"count":1986,
			"type":"SCALAR"
		}
	],
	"bufferViews":[
		{
			"buffer":0,
			"byteLength":15720,
			"byteOffset":0,
			"target":34962
		},
		{
			"buffer":0,
			"byteLength":15720,
			"byteOffset":15720,
			"target":34962
		},
		{
			"buffer":0,
			"byteLength":10480,
			"byteOffset":31440,
			"target":34962
		},
		{
			"buffer":0,
			"byteLength":3972,
			"byteOffset":41920,
			"target":34963
		}
	],
	"samplers":[
		{
			"magFilter":9729,
			"minFilter":9987
		}
	],
	"buffers":[
		{
			"byteLength":45892,
			"uri":"torch_stand.bin"
		}
	]
}
