{
	"asset":{
		"generator":"Khronos glTF Blender I/O v5.1.20",
		"version":"2.0"
	},
	"scene":0,
	"scenes":[
		{
			"name":"Scene",
			"nodes":[
				0
			]
		}
	],
	"nodes":[
		{
			"mesh":0,
			"name":"wall_l_door"
		}
	],
	"materials":[
		{
			"doubleSided":true,
			"emissiveFactor":[
				1,
				1,
				1
			],
			"emissiveTexture":{
				"index":0
			},
			"name":"DarkFortress_Mat",
			"pbrMetallicRoughness":{
				"baseColorTexture":{
					"index":1
				},
				"metallicFactor":0,
				"roughnessFactor":0.8999999761581421
			}
		},
		{
			"doubleSided":true,
			"name":"DarkFortress_Brick",
			"pbrMetallicRoughness":{
				"baseColorTexture":{
					"index":2
				},
				"metallicFactor":0,
				"roughnessFactor":0.8999999761581421
			}
		}
	],
	"meshes":[
		{
			"name":"Mesh.022",
			"primitives":[
				{
					"attributes":{
						"POSITION":0,
						"NORMAL":1,
						"TEXCOORD_0":2,
						"TEXCOORD_1":3
					},
					"indices":4,
					"material":0
				},
				{
					"attributes":{
						"POSITION":5,
						"NORMAL":6,
						"TEXCOORD_0":7,
						"TEXCOORD_1":8
					},
					"indices":9,
					"material":1
				},
				{
					"attributes":{
						"POSITION":10,
						"NORMAL":11,
						"TEXCOORD_0":12,
						"TEXCOORD_1":13
					},
					"indices":14,
					"material":1
				}
			]
		}
	],
	"textures":[
		{
			"sampler":0,
			"source":0
		},
		{
			"sampler":0,
			"source":1
		},
		{
			"sampler":0,
			"source":2
		}
	],
	"images":[
		{
			"mimeType":"image/png",
			"name":"PolygonDarkFortress_Emissive_01_A",
			"uri":"PolygonDarkFortress_Emissive_01_A.png"
		},
		{
			"mimeType":"image/png",
			"name":"PolygonDarkFortress_Texture_01_A",
			"uri":"PolygonDarkFortress_Texture_01_A.png"
		},
		{
			"mimeType":"image/png",
			"name":"Brick_Large_Texture_01",
			"uri":"Brick_Large_Texture_01.png"
		}
	],
	"accessors":[
		{
			"bufferView":0,
			"componentType":5126,
			"count":1532,
			"max":[
				0.03759765625,
				2.6242501735687256,
				0.36560702323913574
			],
			"min":[
				-2.423415422439575,
				0,
				-0.36560702323913574
			],
			"type":"VEC3"
		},
		{
			"bufferView":1,
			"componentType":5126,
			"count":1532,
			"type":"VEC3"
		},
		{
			"bufferView":2,
			"componentType":5126,
			"count":1532,
			"type":"VEC2"
		},
		{
			"bufferView":3,
			"componentType":5126,
			"count":1532,
			"type":"VEC2"
		},
		{
			"bufferView":4,
			"componentType":5123,
			"count":2010,
			"type":"SCALAR"
		},
		{
			"bufferView":5,
			"componentType":5126,
			"count":32,
			"max":[
				2.4999914169311523,
				6.044114589691162,
				1.490116545710407e-07
			],
			"min":[
				-2.4999914169311523,
				0.032628510147333145,
				-0.2292492836713791
			],
			"type":"VEC3"
		},
		{
			"bufferView":6,
			"componentType":5126,
			"count":32,
			"type":"VEC3"
		},
		{
			"bufferView":7,
			"componentType":5126,
			"count":32,
			"type":"VEC2"
		},
		{
			"bufferView":8,
			"componentType":5126,
			"count":32,
			"type":"VEC2"
		},
		{
			"bufferView":9,
			"componentType":5123,
			"count":48,
			"type":"SCALAR"
		},
		{
			"bufferView":10,
			"componentType":5126,
			"count":32,
			"max":[
				2.4999914169311523,
				6.044114589691162,
				0.2292492538690567
			],
			"min":[
				-2.4999914169311523,
				0.032628513872623444,
				-3.0484289936794084e-07
			],
			"type":"VEC3"
		},
		{
			"bufferView":11,
			"componentType":5126,
			"count":32,
			"type":"VEC3"
		},
		{
			"bufferView":12,
			"componentType":5126,
			"count":32,
			"type":"VEC2"
		},
		{
			"bufferView":13,
			"componentType":5126,
			"count":32,
			"type":"VEC2"
		},
		{
			"bufferView":14,
			"componentType":5123,
			"count":48,
			"type":"SCALAR"
		}
	],
	"bufferViews":[
		{
			"buffer":0,
			"byteLength":18384,
			"byteOffset":0,
			"target":34962
		},
		{
			"buffer":0,
			"byteLength":18384,
			"byteOffset":18384,
			"target":34962
		},
		{
			"buffer":0,
			"byteLength":12256,
			"byteOffset":36768,
			"target":34962
		},
		{
			"buffer":0,
			"byteLength":12256,
			"byteOffset":49024,
			"target":34962
		},
		{
			"buffer":0,
			"byteLength":4020,
			"byteOffset":61280,
			"target":34963
		},
		{
			"buffer":0,
			"byteLength":384,
			"byteOffset":65300,
			"target":34962
		},
		{
			"buffer":0,
			"byteLength":384,
			"byteOffset":65684,
			"target":34962
		},
		{
			"buffer":0,
			"byteLength":256,
			"byteOffset":66068,
			"target":34962
		},
		{
			"buffer":0,
			"byteLength":256,
			"byteOffset":66324,
			"target":34962
		},
		{
			"buffer":0,
			"byteLength":96,
			"byteOffset":66580,
			"target":34963
		},
		{
			"buffer":0,
			"byteLength":384,
			"byteOffset":66676,
			"target":34962
		},
		{
			"buffer":0,
			"byteLength":384,
			"byteOffset":67060,
			"target":34962
		},
		{
			"buffer":0,
			"byteLength":256,
			"byteOffset":67444,
			"target":34962
		},
		{
			"buffer":0,
			"byteLength":256,
			"byteOffset":67700,
			"target":34962
		},
		{
			"buffer":0,
			"byteLength":96,
			"byteOffset":67956,
			"target":34963
		}
	],
	"samplers":[
		{
			"magFilter":9729,
			"minFilter":9987
		}
	],
	"buffers":[
		{
			"byteLength":68052,
			"uri":"wall_l_door.bin"
		}
	]
}
