{
	"asset":{
		"generator":"Khronos glTF Blender I/O v5.1.20",
		"version":"2.0"
	},
	"scene":0,
	"scenes":[
		{
			"name":"Scene",
			"nodes":[
				0
			]
		}
	],
	"nodes":[
		{
			"mesh":0,
			"name":"wall_l_arch"
		}
	],
	"materials":[
		{
			"doubleSided":true,
			"emissiveFactor":[
				1,
				1,
				1
			],
			"emissiveTexture":{
				"index":0
			},
			"name":"DarkFortress_Mat",
			"pbrMetallicRoughness":{
				"baseColorTexture":{
					"index":1
				},
				"metallicFactor":0,
				"roughnessFactor":0.8999999761581421
			}
		},
		{
			"doubleSided":true,
			"name":"DarkFortress_Brick",
			"pbrMetallicRoughness":{
				"baseColorTexture":{
					"index":2
				},
				"metallicFactor":0,
				"roughnessFactor":0.8999999761581421
			}
		}
	],
	"meshes":[
		{
			"name":"Mesh.027",
			"primitives":[
				{
					"attributes":{
						"POSITION":0,
						"NORMAL":1,
						"TEXCOORD_0":2
					},
					"indices":3,
					"material":0
				},
				{
					"attributes":{
						"POSITION":4,
						"NORMAL":5,
						"TEXCOORD_0":6
					},
					"indices":7,
					"material":1
				},
				{
					"attributes":{
						"POSITION":8,
						"NORMAL":9,
						"TEXCOORD_0":10
					},
					"indices":11,
					"material":1
				}
			]
		}
	],
	"textures":[
		{
			"sampler":0,
			"source":0
		},
		{
			"sampler":0,
			"source":1
		},
		{
			"sampler":0,
			"source":2
		}
	],
	"images":[
		{
			"mimeType":"image/png",
			"name":"PolygonDarkFortress_Emissive_01_A",
			"uri":"PolygonDarkFortress_Emissive_01_A.png"
		},
		{
			"mimeType":"image/png",
			"name":"PolygonDarkFortress_Texture_01_A",
			"uri":"PolygonDarkFortress_Texture_01_A.png"
		},
		{
			"mimeType":"image/png",
			"name":"Brick_Large_Texture_01",
			"uri":"Brick_Large_Texture_01.png"
		}
	],
	"accessors":[
		{
			"bufferView":0,
			"componentType":5126,
			"count":985,
			"max":[
				2.4265549182891846,
				5.936492443084717,
				0.20702633261680603
			],
			"min":[
				-2.4253010749816895,
				0,
				-0.20702633261680603
			],
			"type":"VEC3"
		},
		{
			"bufferView":1,
			"componentType":5126,
			"count":985,
			"type":"VEC3"
		},
		{
			"bufferView":2,
			"componentType":5126,
			"count":985,
			"type":"VEC2"
		},
		{
			"bufferView":3,
			"componentType":5123,
			"count":1446,
			"type":"SCALAR"
		},
		{
			"bufferView":4,
			"componentType":5126,
			"count":46,
			"max":[
				2.499992609024048,
				6.018194198608398,
				0.11393187195062637
			],
			"min":[
				-2.499992609024048,
				0.006707432214170694,
				-6.716635107295588e-05
			],
			"type":"VEC3"
		},
		{
			"bufferView":5,
			"componentType":5126,
			"count":46,
			"type":"VEC3"
		},
		{
			"bufferView":6,
			"componentType":5126,
			"count":46,
			"type":"VEC2"
		},
		{
			"bufferView":7,
			"componentType":5123,
			"count":66,
			"type":"SCALAR"
		},
		{
			"bufferView":8,
			"componentType":5126,
			"count":46,
			"max":[
				2.499992609024048,
				6.018194198608398,
				-6.671249866485596e-05
			],
			"min":[
				-2.499992609024048,
				0.006707414984703064,
				-0.11681605130434036
			],
			"type":"VEC3"
		},
		{
			"bufferView":9,
			"componentType":5126,
			"count":46,
			"type":"VEC3"
		},
		{
			"bufferView":10,
			"componentType":5126,
			"count":46,
			"type":"VEC2"
		},
		{
			"bufferView":11,
			"componentType":5123,
			"count":66,
			"type":"SCALAR"
		}
	],
	"bufferViews":[
		{
			"buffer":0,
			"byteLength":11820,
			"byteOffset":0,
			"target":34962
		},
		{
			"buffer":0,
			"byteLength":11820,
			"byteOffset":11820,
			"target":34962
		},
		{
			"buffer":0,
			"byteLength":7880,
			"byteOffset":23640,
			"target":34962
		},
		{
			"buffer":0,
			"byteLength":2892,
			"byteOffset":31520,
			"target":34963
		},
		{
			"buffer":0,
			"byteLength":552,
			"byteOffset":34412,
			"target":34962
		},
		{
			"buffer":0,
			"byteLength":552,
			"byteOffset":34964,
			"target":34962
		},
		{
			"buffer":0,
			"byteLength":368,
			"byteOffset":35516,
			"target":34962
		},
		{
			"buffer":0,
			"byteLength":132,
			"byteOffset":35884,
			"target":34963
		},
		{
			"buffer":0,
			"byteLength":552,
			"byteOffset":36016,
			"target":34962
		},
		{
			"buffer":0,
			"byteLength":552,
			"byteOffset":36568,
			"target":34962
		},
		{
			"buffer":0,
			"byteLength":368,
			"byteOffset":37120,
			"target":34962
		},
		{
			"buffer":0,
			"byteLength":132,
			"byteOffset":37488,
			"target":34963
		}
	],
	"samplers":[
		{
			"magFilter":9729,
			"minFilter":9987
		}
	],
	"buffers":[
		{
			"byteLength":37620,
			"uri":"wall_l_arch.bin"
		}
	]
}
