{
	"asset":{
		"generator":"Khronos glTF Blender I/O v5.1.20",
		"version":"2.0"
	},
	"scene":0,
	"scenes":[
		{
			"name":"Scene",
			"nodes":[
				0
			]
		}
	],
	"nodes":[
		{
			"mesh":0,
			"name":"wall_a"
		}
	],
	"materials":[
		{
			"doubleSided":true,
			"name":"DarkFortress_Brick",
			"pbrMetallicRoughness":{
				"baseColorTexture":{
					"index":0
				},
				"metallicFactor":0,
				"roughnessFactor":0.8999999761581421
			}
		}
	],
	"meshes":[
		{
			"name":"Mesh",
			"primitives":[
				{
					"attributes":{
						"POSITION":0,
						"NORMAL":1,
						"TEXCOORD_0":2
					},
					"indices":3,
					"material":0
				},
				{
					"attributes":{
						"POSITION":4,
						"NORMAL":5,
						"TEXCOORD_0":6
					},
					"indices":7,
					"material":0
				},
				{
					"attributes":{
						"POSITION":8,
						"NORMAL":9,
						"TEXCOORD_0":10
					},
					"indices":11,
					"material":0
				}
			]
		}
	],
	"textures":[
		{
			"sampler":0,
			"source":0
		}
	],
	"images":[
		{
			"mimeType":"image/png",
			"name":"Brick_Large_Texture_01",
			"uri":"Brick_Large_Texture_01.png"
		}
	],
	"accessors":[
		{
			"bufferView":0,
			"componentType":5126,
			"count":1004,
			"max":[
				1.2499957084655762,
				0.977974534034729,
				0.18041089177131653
			],
			"min":[
				-1.2499957084655762,
				0,
				-0.1328008472919464
			],
			"type":"VEC3"
		},
		{
			"bufferView":1,
			"componentType":5126,
			"count":1004,
			"type":"VEC3"
		},
		{
			"bufferView":2,
			"componentType":5126,
			"count":1004,
			"type":"VEC2"
		},
		{
			"bufferView":3,
			"componentType":5123,
			"count":1530,
			"type":"SCALAR"
		},
		{
			"bufferView":4,
			"componentType":5126,
			"count":40,
			"max":[
				1.2499957084655762,
				3.0115370750427246,
				-0.06791067123413086
			],
			"min":[
				-1.2499957084655762,
				0.005794369149953127,
				-0.18041089177131653
			],
			"type":"VEC3"
		},
		{
			"bufferView":5,
			"componentType":5126,
			"count":40,
			"type":"VEC3"
		},
		{
			"bufferView":6,
			"componentType":5126,
			"count":40,
			"type":"VEC2"
		},
		{
			"bufferView":7,
			"componentType":5123,
			"count":96,
			"type":"SCALAR"
		},
		{
			"bufferView":8,
			"componentType":5126,
			"count":54,
			"max":[
				1.2499957084655762,
				3.0115370750427246,
				0.0445893257856369
			],
			"min":[
				-1.2499957084655762,
				0.0057943775318562984,
				-0.06791089475154877
			],
			"type":"VEC3"
		},
		{
			"bufferView":9,
			"componentType":5126,
			"count":54,
			"type":"VEC3"
		},
		{
			"bufferView":10,
			"componentType":5126,
			"count":54,
			"type":"VEC2"
		},
		{
			"bufferView":11,
			"componentType":5123,
			"count":132,
			"type":"SCALAR"
		}
	],
	"bufferViews":[
		{
			"buffer":0,
			"byteLength":12048,
			"byteOffset":0,
			"target":34962
		},
		{
			"buffer":0,
			"byteLength":12048,
			"byteOffset":12048,
			"target":34962
		},
		{
			"buffer":0,
			"byteLength":8032,
			"byteOffset":24096,
			"target":34962
		},
		{
			"buffer":0,
			"byteLength":3060,
			"byteOffset":32128,
			"target":34963
		},
		{
			"buffer":0,
			"byteLength":480,
			"byteOffset":35188,
			"target":34962
		},
		{
			"buffer":0,
			"byteLength":480,
			"byteOffset":35668,
			"target":34962
		},
		{
			"buffer":0,
			"byteLength":320,
			"byteOffset":36148,
			"target":34962
		},
		{
			"buffer":0,
			"byteLength":192,
			"byteOffset":36468,
			"target":34963
		},
		{
			"buffer":0,
			"byteLength":648,
			"byteOffset":36660,
			"target":34962
		},
		{
			"buffer":0,
			"byteLength":648,
			"byteOffset":37308,
			"target":34962
		},
		{
			"buffer":0,
			"byteLength":432,
			"byteOffset":37956,
			"target":34962
		},
		{
			"buffer":0,
			"byteLength":264,
			"byteOffset":38388,
			"target":34963
		}
	],
	"samplers":[
		{
			"magFilter":9729,
			"minFilter":9987
		}
	],
	"buffers":[
		{
			"byteLength":38652,
			"uri":"wall_a.bin"
		}
	]
}
