{
	"asset":{
		"generator":"Khronos glTF Blender I/O v5.1.20",
		"version":"2.0"
	},
	"scene":0,
	"scenes":[
		{
			"name":"Scene",
			"nodes":[
				0
			]
		}
	],
	"nodes":[
		{
			"mesh":0,
			"name":"wall_l_window"
		}
	],
	"materials":[
		{
			"doubleSided":true,
			"name":"DarkFortress_Brick",
			"pbrMetallicRoughness":{
				"baseColorTexture":{
					"index":0
				},
				"metallicFactor":0,
				"roughnessFactor":0.8999999761581421
			}
		},
		{
			"doubleSided":true,
			"emissiveFactor":[
				1,
				1,
				1
			],
			"emissiveTexture":{
				"index":1
			},
			"name":"DarkFortress_Mat",
			"pbrMetallicRoughness":{
				"baseColorTexture":{
					"index":2
				},
				"metallicFactor":0,
				"roughnessFactor":0.8999999761581421
			}
		}
	],
	"meshes":[
		{
			"name":"Mesh.021",
			"primitives":[
				{
					"attributes":{
						"POSITION":0,
						"NORMAL":1,
						"TEXCOORD_0":2
					},
					"indices":3,
					"material":0
				},
				{
					"attributes":{
						"POSITION":4,
						"NORMAL":5,
						"TEXCOORD_0":6
					},
					"indices":7,
					"material":0
				},
				{
					"attributes":{
						"POSITION":8,
						"NORMAL":9,
						"TEXCOORD_0":10
					},
					"indices":11,
					"material":1
				}
			]
		}
	],
	"textures":[
		{
			"sampler":0,
			"source":0
		},
		{
			"sampler":0,
			"source":1
		},
		{
			"sampler":0,
			"source":2
		}
	],
	"images":[
		{
			"mimeType":"image/png",
			"name":"Brick_Large_Texture_01",
			"uri":"Brick_Large_Texture_01.png"
		},
		{
			"mimeType":"image/png",
			"name":"PolygonDarkFortress_Emissive_01_A",
			"uri":"PolygonDarkFortress_Emissive_01_A.png"
		},
		{
			"mimeType":"image/png",
			"name":"PolygonDarkFortress_Texture_01_A",
			"uri":"PolygonDarkFortress_Texture_01_A.png"
		}
	],
	"accessors":[
		{
			"bufferView":0,
			"componentType":5126,
			"count":27,
			"max":[
				2.4999914169311523,
				6.011485576629639,
				-0.004370823502540588
			],
			"min":[
				-2.4999914169311523,
				0,
				-0.22937126457691193
			],
			"type":"VEC3"
		},
		{
			"bufferView":1,
			"componentType":5126,
			"count":27,
			"type":"VEC3"
		},
		{
			"bufferView":2,
			"componentType":5126,
			"count":27,
			"type":"VEC2"
		},
		{
			"bufferView":3,
			"componentType":5123,
			"count":57,
			"type":"SCALAR"
		},
		{
			"bufferView":4,
			"componentType":5126,
			"count":27,
			"max":[
				2.4999914169311523,
				6.011485576629639,
				0.22062917053699493
			],
			"min":[
				-2.4999914169311523,
				1.6987026896231328e-08,
				-0.004371277522295713
			],
			"type":"VEC3"
		},
		{
			"bufferView":5,
			"componentType":5126,
			"count":27,
			"type":"VEC3"
		},
		{
			"bufferView":6,
			"componentType":5126,
			"count":27,
			"type":"VEC2"
		},
		{
			"bufferView":7,
			"componentType":5123,
			"count":57,
			"type":"SCALAR"
		},
		{
			"bufferView":8,
			"componentType":5126,
			"count":677,
			"max":[
				0.9051525592803955,
				5.38497257232666,
				0.3245444893836975
			],
			"min":[
				-0.9051355123519897,
				0.4332275390625,
				-0.3245444893836975
			],
			"type":"VEC3"
		},
		{
			"bufferView":9,
			"componentType":5126,
			"count":677,
			"type":"VEC3"
		},
		{
			"bufferView":10,
			"componentType":5126,
			"count":677,
			"type":"VEC2"
		},
		{
			"bufferView":11,
			"componentType":5123,
			"count":1098,
			"type":"SCALAR"
		}
	],
	"bufferViews":[
		{
			"buffer":0,
			"byteLength":324,
			"byteOffset":0,
			"target":34962
		},
		{
			"buffer":0,
			"byteLength":324,
			"byteOffset":324,
			"target":34962
		},
		{
			"buffer":0,
			"byteLength":216,
			"byteOffset":648,
			"target":34962
		},
		{
			"buffer":0,
			"byteLength":114,
			"byteOffset":864,
			"target":34963
		},
		{
			"buffer":0,
			"byteLength":324,
			"byteOffset":980,
			"target":34962
		},
		{
			"buffer":0,
			"byteLength":324,
			"byteOffset":1304,
			"target":34962
		},
		{
			"buffer":0,
			"byteLength":216,
			"byteOffset":1628,
			"target":34962
		},
		{
			"buffer":0,
			"byteLength":114,
			"byteOffset":1844,
			"target":34963
		},
		{
			"buffer":0,
			"byteLength":8124,
			"byteOffset":1960,
			"target":34962
		},
		{
			"buffer":0,
			"byteLength":8124,
			"byteOffset":10084,
			"target":34962
		},
		{
			"buffer":0,
			"byteLength":5416,
			"byteOffset":18208,
			"target":34962
		},
		{
			"buffer":0,
			"byteLength":2196,
			"byteOffset":23624,
			"target":34963
		}
	],
	"samplers":[
		{
			"magFilter":9729,
			"minFilter":9987
		}
	],
	"buffers":[
		{
			"byteLength":25820,
			"uri":"wall_l_window.bin"
		}
	]
}
