{
	"asset":{
		"generator":"Khronos glTF Blender I/O v5.1.20",
		"version":"2.0"
	},
	"scene":0,
	"scenes":[
		{
			"name":"Scene",
			"nodes":[
				0
			]
		}
	],
	"nodes":[
		{
			"mesh":0,
			"name":"wall_b"
		}
	],
	"materials":[
		{
			"doubleSided":true,
			"emissiveFactor":[
				1,
				1,
				1
			],
			"emissiveTexture":{
				"index":0
			},
			"name":"DarkFortress_Mat",
			"pbrMetallicRoughness":{
				"baseColorTexture":{
					"index":1
				},
				"metallicFactor":0,
				"roughnessFactor":0.8999999761581421
			}
		},
		{
			"doubleSided":true,
			"name":"DarkFortress_Brick",
			"pbrMetallicRoughness":{
				"baseColorTexture":{
					"index":2
				},
				"metallicFactor":0,
				"roughnessFactor":0.8999999761581421
			}
		}
	],
	"meshes":[
		{
			"name":"Mesh.001",
			"primitives":[
				{
					"attributes":{
						"POSITION":0,
						"NORMAL":1,
						"TEXCOORD_0":2,
						"TEXCOORD_1":3
					},
					"indices":4,
					"material":0
				},
				{
					"attributes":{
						"POSITION":5,
						"NORMAL":6,
						"TEXCOORD_0":7,
						"TEXCOORD_1":8
					},
					"indices":9,
					"material":1
				},
				{
					"attributes":{
						"POSITION":10,
						"NORMAL":11,
						"TEXCOORD_0":12,
						"TEXCOORD_1":13
					},
					"indices":14,
					"material":1
				}
			]
		}
	],
	"textures":[
		{
			"sampler":0,
			"source":0
		},
		{
			"sampler":0,
			"source":1
		},
		{
			"sampler":0,
			"source":2
		}
	],
	"images":[
		{
			"mimeType":"image/png",
			"name":"PolygonDarkFortress_Emissive_01_A",
			"uri":"PolygonDarkFortress_Emissive_01_A.png"
		},
		{
			"mimeType":"image/png",
			"name":"PolygonDarkFortress_Texture_01_A",
			"uri":"PolygonDarkFortress_Texture_01_A.png"
		},
		{
			"mimeType":"image/png",
			"name":"Brick_Large_Texture_01",
			"uri":"Brick_Large_Texture_01.png"
		}
	],
	"accessors":[
		{
			"bufferView":0,
			"componentType":5126,
			"count":1066,
			"max":[
				0.7881808280944824,
				2.846682071685791,
				0.1945183426141739
			],
			"min":[
				-0.7786910533905029,
				1.0484795570373535,
				-0.16622179746627808
			],
			"type":"VEC3"
		},
		{
			"bufferView":1,
			"componentType":5126,
			"count":1066,
			"type":"VEC3"
		},
		{
			"bufferView":2,
			"componentType":5126,
			"count":1066,
			"type":"VEC2"
		},
		{
			"bufferView":3,
			"componentType":5126,
			"count":1066,
			"type":"VEC2"
		},
		{
			"bufferView":4,
			"componentType":5123,
			"count":1644,
			"type":"SCALAR"
		},
		{
			"bufferView":5,
			"componentType":5126,
			"count":26,
			"max":[
				1.2499957084655762,
				3.0057427883148193,
				-0.08201812207698822
			],
			"min":[
				-1.2499957084655762,
				0,
				-0.1945183426141739
			],
			"type":"VEC3"
		},
		{
			"bufferView":6,
			"componentType":5126,
			"count":26,
			"type":"VEC3"
		},
		{
			"bufferView":7,
			"componentType":5126,
			"count":26,
			"type":"VEC2"
		},
		{
			"bufferView":8,
			"componentType":5126,
			"count":26,
			"type":"VEC2"
		},
		{
			"bufferView":9,
			"componentType":5123,
			"count":48,
			"type":"SCALAR"
		},
		{
			"bufferView":10,
			"componentType":5126,
			"count":39,
			"max":[
				1.2499957084655762,
				3.0057427883148193,
				0.03048187494277954
			],
			"min":[
				-1.2499957084655762,
				8.493513448115664e-09,
				-0.08201834559440613
			],
			"type":"VEC3"
		},
		{
			"bufferView":11,
			"componentType":5126,
			"count":39,
			"type":"VEC3"
		},
		{
			"bufferView":12,
			"componentType":5126,
			"count":39,
			"type":"VEC2"
		},
		{
			"bufferView":13,
			"componentType":5126,
			"count":39,
			"type":"VEC2"
		},
		{
			"bufferView":14,
			"componentType":5123,
			"count":96,
			"type":"SCALAR"
		}
	],
	"bufferViews":[
		{
			"buffer":0,
			"byteLength":12792,
			"byteOffset":0,
			"target":34962
		},
		{
			"buffer":0,
			"byteLength":12792,
			"byteOffset":12792,
			"target":34962
		},
		{
			"buffer":0,
			"byteLength":8528,
			"byteOffset":25584,
			"target":34962
		},
		{
			"buffer":0,
			"byteLength":8528,
			"byteOffset":34112,
			"target":34962
		},
		{
			"buffer":0,
			"byteLength":3288,
			"byteOffset":42640,
			"target":34963
		},
		{
			"buffer":0,
			"byteLength":312,
			"byteOffset":45928,
			"target":34962
		},
		{
			"buffer":0,
			"byteLength":312,
			"byteOffset":46240,
			"target":34962
		},
		{
			"buffer":0,
			"byteLength":208,
			"byteOffset":46552,
			"target":34962
		},
		{
			"buffer":0,
			"byteLength":208,
			"byteOffset":46760,
			"target":34962
		},
		{
			"buffer":0,
			"byteLength":96,
			"byteOffset":46968,
			"target":34963
		},
		{
			"buffer":0,
			"byteLength":468,
			"byteOffset":47064,
			"target":34962
		},
		{
			"buffer":0,
			"byteLength":468,
			"byteOffset":47532,
			"target":34962
		},
		{
			"buffer":0,
			"byteLength":312,
			"byteOffset":48000,
			"target":34962
		},
		{
			"buffer":0,
			"byteLength":312,
			"byteOffset":48312,
			"target":34962
		},
		{
			"buffer":0,
			"byteLength":192,
			"byteOffset":48624,
			"target":34963
		}
	],
	"samplers":[
		{
			"magFilter":9729,
			"minFilter":9987
		}
	],
	"buffers":[
		{
			"byteLength":48816,
			"uri":"wall_b.bin"
		}
	]
}
