{
	"asset":{
		"generator":"Khronos glTF Blender I/O v5.1.20",
		"version":"2.0"
	},
	"scene":0,
	"scenes":[
		{
			"name":"Scene",
			"nodes":[
				0
			]
		}
	],
	"nodes":[
		{
			"mesh":0,
			"name":"wall_door"
		}
	],
	"materials":[
		{
			"doubleSided":true,
			"emissiveFactor":[
				1,
				1,
				1
			],
			"emissiveTexture":{
				"index":0
			},
			"name":"DarkFortress_Mat",
			"pbrMetallicRoughness":{
				"baseColorTexture":{
					"index":1
				},
				"metallicFactor":0,
				"roughnessFactor":0.8999999761581421
			}
		},
		{
			"doubleSided":true,
			"name":"DarkFortress_Brick",
			"pbrMetallicRoughness":{
				"baseColorTexture":{
					"index":2
				},
				"metallicFactor":0,
				"roughnessFactor":0.8999999761581421
			}
		}
	],
	"meshes":[
		{
			"name":"Mesh.002",
			"primitives":[
				{
					"attributes":{
						"POSITION":0,
						"NORMAL":1,
						"TEXCOORD_0":2
					},
					"indices":3,
					"material":0
				},
				{
					"attributes":{
						"POSITION":4,
						"NORMAL":5,
						"TEXCOORD_0":6
					},
					"indices":7,
					"material":1
				},
				{
					"attributes":{
						"POSITION":8,
						"NORMAL":9,
						"TEXCOORD_0":10
					},
					"indices":11,
					"material":1
				}
			]
		}
	],
	"textures":[
		{
			"sampler":0,
			"source":0
		},
		{
			"sampler":0,
			"source":1
		},
		{
			"sampler":0,
			"source":2
		}
	],
	"images":[
		{
			"mimeType":"image/png",
			"name":"PolygonDarkFortress_Emissive_01_A",
			"uri":"PolygonDarkFortress_Emissive_01_A.png"
		},
		{
			"mimeType":"image/png",
			"name":"PolygonDarkFortress_Texture_01_A",
			"uri":"PolygonDarkFortress_Texture_01_A.png"
		},
		{
			"mimeType":"image/png",
			"name":"Brick_Large_Texture_01",
			"uri":"Brick_Large_Texture_01.png"
		}
	],
	"accessors":[
		{
			"bufferView":0,
			"componentType":5126,
			"count":1882,
			"max":[
				1.209753155708313,
				2.798151969909668,
				0.17584222555160522
			],
			"min":[
				-1.2096537351608276,
				0,
				-0.17584222555160522
			],
			"type":"VEC3"
		},
		{
			"bufferView":1,
			"componentType":5126,
			"count":1882,
			"type":"VEC3"
		},
		{
			"bufferView":2,
			"componentType":5126,
			"count":1882,
			"type":"VEC2"
		},
		{
			"bufferView":3,
			"componentType":5123,
			"count":2898,
			"type":"SCALAR"
		},
		{
			"bufferView":4,
			"componentType":5126,
			"count":38,
			"max":[
				1.249996304512024,
				3.0067358016967773,
				0.11642273515462875
			],
			"min":[
				-1.249996304512024,
				0.0009924783371388912,
				0.0017982240533456206
			],
			"type":"VEC3"
		},
		{
			"bufferView":5,
			"componentType":5126,
			"count":38,
			"type":"VEC3"
		},
		{
			"bufferView":6,
			"componentType":5126,
			"count":38,
			"type":"VEC2"
		},
		{
			"bufferView":7,
			"componentType":5123,
			"count":60,
			"type":"SCALAR"
		},
		{
			"bufferView":8,
			"componentType":5126,
			"count":38,
			"max":[
				1.249996304512024,
				3.0067358016967773,
				0.0017984509468078613
			],
			"min":[
				-1.249996304512024,
				0.0009924613405019045,
				-0.1128261461853981
			],
			"type":"VEC3"
		},
		{
			"bufferView":9,
			"componentType":5126,
			"count":38,
			"type":"VEC3"
		},
		{
			"bufferView":10,
			"componentType":5126,
			"count":38,
			"type":"VEC2"
		},
		{
			"bufferView":11,
			"componentType":5123,
			"count":60,
			"type":"SCALAR"
		}
	],
	"bufferViews":[
		{
			"buffer":0,
			"byteLength":22584,
			"byteOffset":0,
			"target":34962
		},
		{
			"buffer":0,
			"byteLength":22584,
			"byteOffset":22584,
			"target":34962
		},
		{
			"buffer":0,
			"byteLength":15056,
			"byteOffset":45168,
			"target":34962
		},
		{
			"buffer":0,
			"byteLength":5796,
			"byteOffset":60224,
			"target":34963
		},
		{
			"buffer":0,
			"byteLength":456,
			"byteOffset":66020,
			"target":34962
		},
		{
			"buffer":0,
			"byteLength":456,
			"byteOffset":66476,
			"target":34962
		},
		{
			"buffer":0,
			"byteLength":304,
			"byteOffset":66932,
			"target":34962
		},
		{
			"buffer":0,
			"byteLength":120,
			"byteOffset":67236,
			"target":34963
		},
		{
			"buffer":0,
			"byteLength":456,
			"byteOffset":67356,
			"target":34962
		},
		{
			"buffer":0,
			"byteLength":456,
			"byteOffset":67812,
			"target":34962
		},
		{
			"buffer":0,
			"byteLength":304,
			"byteOffset":68268,
			"target":34962
		},
		{
			"buffer":0,
			"byteLength":120,
			"byteOffset":68572,
			"target":34963
		}
	],
	"samplers":[
		{
			"magFilter":9729,
			"minFilter":9987
		}
	],
	"buffers":[
		{
			"byteLength":68692,
			"uri":"wall_door.bin"
		}
	]
}
