{
	"asset":{
		"generator":"Khronos glTF Blender I/O v5.1.20",
		"version":"2.0"
	},
	"scene":0,
	"scenes":[
		{
			"name":"Scene",
			"nodes":[
				0
			]
		}
	],
	"nodes":[
		{
			"mesh":0,
			"name":"wall_l_a"
		}
	],
	"materials":[
		{
			"doubleSided":true,
			"name":"DarkFortress_Brick",
			"pbrMetallicRoughness":{
				"baseColorTexture":{
					"index":0
				},
				"metallicFactor":0,
				"roughnessFactor":0.8999999761581421
			}
		}
	],
	"meshes":[
		{
			"name":"Mesh.019",
			"primitives":[
				{
					"attributes":{
						"POSITION":0,
						"NORMAL":1,
						"TEXCOORD_0":2
					},
					"indices":3,
					"material":0
				},
				{
					"attributes":{
						"POSITION":4,
						"NORMAL":5,
						"TEXCOORD_0":6
					},
					"indices":7,
					"material":0
				}
			]
		}
	],
	"textures":[
		{
			"sampler":0,
			"source":0
		}
	],
	"images":[
		{
			"mimeType":"image/png",
			"name":"Brick_Large_Texture_01",
			"uri":"Brick_Large_Texture_01.png"
		}
	],
	"accessors":[
		{
			"bufferView":0,
			"componentType":5126,
			"count":255,
			"max":[
				2.4999914169311523,
				6.011485576629639,
				0.22500021755695343
			],
			"min":[
				-2.4999914169311523,
				1.6987026896231328e-08,
				-0.02070557326078415
			],
			"type":"VEC3"
		},
		{
			"bufferView":1,
			"componentType":5126,
			"count":255,
			"type":"VEC3"
		},
		{
			"bufferView":2,
			"componentType":5126,
			"count":255,
			"type":"VEC2"
		},
		{
			"bufferView":3,
			"componentType":5123,
			"count":468,
			"type":"SCALAR"
		},
		{
			"bufferView":4,
			"componentType":5126,
			"count":47,
			"max":[
				2.4999914169311523,
				6.011485576629639,
				2.2351741790771484e-07
			],
			"min":[
				-2.4999914169311523,
				0,
				-0.22500021755695343
			],
			"type":"VEC3"
		},
		{
			"bufferView":5,
			"componentType":5126,
			"count":47,
			"type":"VEC3"
		},
		{
			"bufferView":6,
			"componentType":5126,
			"count":47,
			"type":"VEC2"
		},
		{
			"bufferView":7,
			"componentType":5123,
			"count":120,
			"type":"SCALAR"
		}
	],
	"bufferViews":[
		{
			"buffer":0,
			"byteLength":3060,
			"byteOffset":0,
			"target":34962
		},
		{
			"buffer":0,
			"byteLength":3060,
			"byteOffset":3060,
			"target":34962
		},
		{
			"buffer":0,
			"byteLength":2040,
			"byteOffset":6120,
			"target":34962
		},
		{
			"buffer":0,
			"byteLength":936,
			"byteOffset":8160,
			"target":34963
		},
		{
			"buffer":0,
			"byteLength":564,
			"byteOffset":9096,
			"target":34962
		},
		{
			"buffer":0,
			"byteLength":564,
			"byteOffset":9660,
			"target":34962
		},
		{
			"buffer":0,
			"byteLength":376,
			"byteOffset":10224,
			"target":34962
		},
		{
			"buffer":0,
			"byteLength":240,
			"byteOffset":10600,
			"target":34963
		}
	],
	"samplers":[
		{
			"magFilter":9729,
			"minFilter":9987
		}
	],
	"buffers":[
		{
			"byteLength":10840,
			"uri":"wall_l_a.bin"
		}
	]
}
