{
	"asset":{
		"generator":"Khronos glTF Blender I/O v5.1.20",
		"version":"2.0"
	},
	"scene":0,
	"scenes":[
		{
			"name":"Scene",
			"nodes":[
				0
			]
		}
	],
	"nodes":[
		{
			"mesh":0,
			"name":"wall_l_b"
		}
	],
	"materials":[
		{
			"doubleSided":true,
			"emissiveFactor":[
				1,
				1,
				1
			],
			"emissiveTexture":{
				"index":0
			},
			"name":"DarkFortress_Mat",
			"pbrMetallicRoughness":{
				"baseColorTexture":{
					"index":1
				},
				"metallicFactor":0,
				"roughnessFactor":0.8999999761581421
			}
		},
		{
			"doubleSided":true,
			"name":"DarkFortress_Brick",
			"pbrMetallicRoughness":{
				"baseColorTexture":{
					"index":2
				},
				"metallicFactor":0,
				"roughnessFactor":0.8999999761581421
			}
		}
	],
	"meshes":[
		{
			"name":"Mesh.020",
			"primitives":[
				{
					"attributes":{
						"POSITION":0,
						"NORMAL":1,
						"TEXCOORD_0":2
					},
					"indices":3,
					"material":0
				},
				{
					"attributes":{
						"POSITION":4,
						"NORMAL":5,
						"TEXCOORD_0":6
					},
					"indices":7,
					"material":1
				},
				{
					"attributes":{
						"POSITION":8,
						"NORMAL":9,
						"TEXCOORD_0":10
					},
					"indices":11,
					"material":1
				}
			]
		}
	],
	"textures":[
		{
			"sampler":0,
			"source":0
		},
		{
			"sampler":0,
			"source":1
		},
		{
			"sampler":0,
			"source":2
		}
	],
	"images":[
		{
			"mimeType":"image/png",
			"name":"PolygonDarkFortress_Emissive_01_A",
			"uri":"PolygonDarkFortress_Emissive_01_A.png"
		},
		{
			"mimeType":"image/png",
			"name":"PolygonDarkFortress_Texture_01_A",
			"uri":"PolygonDarkFortress_Texture_01_A.png"
		},
		{
			"mimeType":"image/png",
			"name":"Brick_Large_Texture_01",
			"uri":"Brick_Large_Texture_01.png"
		}
	],
	"accessors":[
		{
			"bufferView":0,
			"componentType":5126,
			"count":785,
			"max":[
				2.0795464515686035,
				5.018589496612549,
				0.30641305446624756
			],
			"min":[
				-2.0566227436065674,
				0.7421452403068542,
				-0.30641305446624756
			],
			"type":"VEC3"
		},
		{
			"bufferView":1,
			"componentType":5126,
			"count":785,
			"type":"VEC3"
		},
		{
			"bufferView":2,
			"componentType":5126,
			"count":785,
			"type":"VEC2"
		},
		{
			"bufferView":3,
			"componentType":5123,
			"count":1290,
			"type":"SCALAR"
		},
		{
			"bufferView":4,
			"componentType":5126,
			"count":40,
			"max":[
				2.4999914169311523,
				6.011485576629639,
				2.086162567138672e-07
			],
			"min":[
				-2.4999914169311523,
				0,
				-0.22500023245811462
			],
			"type":"VEC3"
		},
		{
			"bufferView":5,
			"componentType":5126,
			"count":40,
			"type":"VEC3"
		},
		{
			"bufferView":6,
			"componentType":5126,
			"count":40,
			"type":"VEC2"
		},
		{
			"bufferView":7,
			"componentType":5123,
			"count":102,
			"type":"SCALAR"
		},
		{
			"bufferView":8,
			"componentType":5126,
			"count":41,
			"max":[
				2.4999914169311523,
				6.011485576629639,
				0.22500020265579224
			],
			"min":[
				-2.4999914169311523,
				1.6987026896231328e-08,
				-2.452382545925502e-07
			],
			"type":"VEC3"
		},
		{
			"bufferView":9,
			"componentType":5126,
			"count":41,
			"type":"VEC3"
		},
		{
			"bufferView":10,
			"componentType":5126,
			"count":41,
			"type":"VEC2"
		},
		{
			"bufferView":11,
			"componentType":5123,
			"count":108,
			"type":"SCALAR"
		}
	],
	"bufferViews":[
		{
			"buffer":0,
			"byteLength":9420,
			"byteOffset":0,
			"target":34962
		},
		{
			"buffer":0,
			"byteLength":9420,
			"byteOffset":9420,
			"target":34962
		},
		{
			"buffer":0,
			"byteLength":6280,
			"byteOffset":18840,
			"target":34962
		},
		{
			"buffer":0,
			"byteLength":2580,
			"byteOffset":25120,
			"target":34963
		},
		{
			"buffer":0,
			"byteLength":480,
			"byteOffset":27700,
			"target":34962
		},
		{
			"buffer":0,
			"byteLength":480,
			"byteOffset":28180,
			"target":34962
		},
		{
			"buffer":0,
			"byteLength":320,
			"byteOffset":28660,
			"target":34962
		},
		{
			"buffer":0,
			"byteLength":204,
			"byteOffset":28980,
			"target":34963
		},
		{
			"buffer":0,
			"byteLength":492,
			"byteOffset":29184,
			"target":34962
		},
		{
			"buffer":0,
			"byteLength":492,
			"byteOffset":29676,
			"target":34962
		},
		{
			"buffer":0,
			"byteLength":328,
			"byteOffset":30168,
			"target":34962
		},
		{
			"buffer":0,
			"byteLength":216,
			"byteOffset":30496,
			"target":34963
		}
	],
	"samplers":[
		{
			"magFilter":9729,
			"minFilter":9987
		}
	],
	"buffers":[
		{
			"byteLength":30712,
			"uri":"wall_l_b.bin"
		}
	]
}
