{
	"asset":{
		"generator":"Khronos glTF Blender I/O v5.1.20",
		"version":"2.0"
	},
	"scene":0,
	"scenes":[
		{
			"name":"Scene",
			"nodes":[
				0
			]
		}
	],
	"nodes":[
		{
			"mesh":0,
			"name":"pit_ruin_arch"
		}
	],
	"materials":[
		{
			"doubleSided":true,
			"emissiveFactor":[
				1,
				1,
				1
			],
			"emissiveTexture":{
				"index":0
			},
			"name":"pit_mat",
			"pbrMetallicRoughness":{
				"baseColorTexture":{
					"index":1
				},
				"metallicFactor":0,
				"roughnessFactor":0.8999999761581421
			}
		}
	],
	"meshes":[
		{
			"name":"Mesh",
			"primitives":[
				{
					"attributes":{
						"POSITION":0,
						"NORMAL":1,
						"TEXCOORD_0":2,
						"TEXCOORD_1":3
					},
					"indices":4,
					"material":0
				}
			]
		}
	],
	"textures":[
		{
			"sampler":0,
			"source":0
		},
		{
			"sampler":0,
			"source":1
		}
	],
	"images":[
		{
			"mimeType":"image/png",
			"name":"Dungeons_2_Texture_Emission_01",
			"uri":"Dungeons_2_Texture_Emission_01.png"
		},
		{
			"mimeType":"image/png",
			"name":"Dungeons_2_Texture_01_A",
			"uri":"Dungeons_2_Texture_01_A.png"
		}
	],
	"accessors":[
		{
			"bufferView":0,
			"componentType":5126,
			"count":2920,
			"max":[
				4.044633865356445,
				4.021399021148682,
				0.7510156035423279
			],
			"min":[
				-4.044633865356445,
				0,
				-0.7510156035423279
			],
			"type":"VEC3"
		},
		{
			"bufferView":1,
			"componentType":5126,
			"count":2920,
			"type":"VEC3"
		},
		{
			"bufferView":2,
			"componentType":5126,
			"count":2920,
			"type":"VEC2"
		},
		{
			"bufferView":3,
			"componentType":5126,
			"count":2920,
			"type":"VEC2"
		},
		{
			"bufferView":4,
			"componentType":5123,
			"count":3534,
			"type":"SCALAR"
		}
	],
	"bufferViews":[
		{
			"buffer":0,
			"byteLength":35040,
			"byteOffset":0,
			"target":34962
		},
		{
			"buffer":0,
			"byteLength":35040,
			"byteOffset":35040,
			"target":34962
		},
		{
			"buffer":0,
			"byteLength":23360,
			"byteOffset":70080,
			"target":34962
		},
		{
			"buffer":0,
			"byteLength":23360,
			"byteOffset":93440,
			"target":34962
		},
		{
			"buffer":0,
			"byteLength":7068,
			"byteOffset":116800,
			"target":34963
		}
	],
	"samplers":[
		{
			"magFilter":9729,
			"minFilter":9987
		}
	],
	"buffers":[
		{
			"byteLength":123868,
			"uri":"pit_ruin_arch.bin"
		}
	]
}
