{
	"asset":{
		"generator":"Khronos glTF Blender I/O v5.1.20",
		"version":"2.0"
	},
	"scene":0,
	"scenes":[
		{
			"name":"Scene",
			"nodes":[
				0
			]
		}
	],
	"nodes":[
		{
			"mesh":0,
			"name":"pit_obelisk_b"
		}
	],
	"materials":[
		{
			"doubleSided":true,
			"emissiveFactor":[
				1,
				1,
				1
			],
			"emissiveTexture":{
				"index":0
			},
			"name":"pit_mat",
			"pbrMetallicRoughness":{
				"baseColorTexture":{
					"index":1
				},
				"metallicFactor":0,
				"roughnessFactor":0.8999999761581421
			}
		}
	],
	"meshes":[
		{
			"name":"Mesh",
			"primitives":[
				{
					"attributes":{
						"POSITION":0,
						"NORMAL":1,
						"TEXCOORD_0":2,
						"TEXCOORD_1":3
					},
					"indices":4,
					"material":0
				}
			]
		}
	],
	"textures":[
		{
			"sampler":0,
			"source":0
		},
		{
			"sampler":0,
			"source":1
		}
	],
	"images":[
		{
			"mimeType":"image/png",
			"name":"Dungeons_2_Texture_Emission_01",
			"uri":"Dungeons_2_Texture_Emission_01.png"
		},
		{
			"mimeType":"image/png",
			"name":"Dungeons_2_Texture_01_A",
			"uri":"Dungeons_2_Texture_01_A.png"
		}
	],
	"accessors":[
		{
			"bufferView":0,
			"componentType":5126,
			"count":483,
			"max":[
				2.1076526641845703,
				17.111438751220703,
				4.169710159301758
			],
			"min":[
				-2.1076526641845703,
				0,
				-4.169710159301758
			],
			"type":"VEC3"
		},
		{
			"bufferView":1,
			"componentType":5126,
			"count":483,
			"type":"VEC3"
		},
		{
			"bufferView":2,
			"componentType":5126,
			"count":483,
			"type":"VEC2"
		},
		{
			"bufferView":3,
			"componentType":5126,
			"count":483,
			"type":"VEC2"
		},
		{
			"bufferView":4,
			"componentType":5123,
			"count":570,
			"type":"SCALAR"
		}
	],
	"bufferViews":[
		{
			"buffer":0,
			"byteLength":5796,
			"byteOffset":0,
			"target":34962
		},
		{
			"buffer":0,
			"byteLength":5796,
			"byteOffset":5796,
			"target":34962
		},
		{
			"buffer":0,
			"byteLength":3864,
			"byteOffset":11592,
			"target":34962
		},
		{
			"buffer":0,
			"byteLength":3864,
			"byteOffset":15456,
			"target":34962
		},
		{
			"buffer":0,
			"byteLength":1140,
			"byteOffset":19320,
			"target":34963
		}
	],
	"samplers":[
		{
			"magFilter":9729,
			"minFilter":9987
		}
	],
	"buffers":[
		{
			"byteLength":20460,
			"uri":"pit_obelisk_b.bin"
		}
	]
}
