{
	"asset":{
		"generator":"Khronos glTF Blender I/O v5.1.20",
		"version":"2.0"
	},
	"scene":0,
	"scenes":[
		{
			"name":"Scene",
			"nodes":[
				0
			]
		}
	],
	"nodes":[
		{
			"mesh":0,
			"name":"pit_hell_ground"
		}
	],
	"materials":[
		{
			"doubleSided":true,
			"emissiveFactor":[
				1,
				1,
				1
			],
			"emissiveTexture":{
				"index":0
			},
			"name":"pit_mat",
			"pbrMetallicRoughness":{
				"baseColorTexture":{
					"index":1
				},
				"metallicFactor":0,
				"roughnessFactor":0.8999999761581421
			}
		}
	],
	"meshes":[
		{
			"name":"Mesh",
			"primitives":[
				{
					"attributes":{
						"POSITION":0,
						"NORMAL":1,
						"TEXCOORD_0":2,
						"TEXCOORD_1":3
					},
					"indices":4,
					"material":0
				}
			]
		}
	],
	"textures":[
		{
			"sampler":0,
			"source":0
		},
		{
			"sampler":0,
			"source":1
		}
	],
	"images":[
		{
			"mimeType":"image/png",
			"name":"Dungeons_2_Texture_Emission_01",
			"uri":"Dungeons_2_Texture_Emission_01.png"
		},
		{
			"mimeType":"image/png",
			"name":"Dungeons_2_Texture_01_A",
			"uri":"Dungeons_2_Texture_01_A.png"
		}
	],
	"accessors":[
		{
			"bufferView":0,
			"componentType":5126,
			"count":4680,
			"max":[
				13.975679397583008,
				3.6712846755981445,
				11.123760223388672
			],
			"min":[
				-13.975679397583008,
				0,
				-11.123760223388672
			],
			"type":"VEC3"
		},
		{
			"bufferView":1,
			"componentType":5126,
			"count":4680,
			"type":"VEC3"
		},
		{
			"bufferView":2,
			"componentType":5126,
			"count":4680,
			"type":"VEC2"
		},
		{
			"bufferView":3,
			"componentType":5126,
			"count":4680,
			"type":"VEC2"
		},
		{
			"bufferView":4,
			"componentType":5123,
			"count":4860,
			"type":"SCALAR"
		}
	],
	"bufferViews":[
		{
			"buffer":0,
			"byteLength":56160,
			"byteOffset":0,
			"target":34962
		},
		{
			"buffer":0,
			"byteLength":56160,
			"byteOffset":56160,
			"target":34962
		},
		{
			"buffer":0,
			"byteLength":37440,
			"byteOffset":112320,
			"target":34962
		},
		{
			"buffer":0,
			"byteLength":37440,
			"byteOffset":149760,
			"target":34962
		},
		{
			"buffer":0,
			"byteLength":9720,
			"byteOffset":187200,
			"target":34963
		}
	],
	"samplers":[
		{
			"magFilter":9729,
			"minFilter":9987
		}
	],
	"buffers":[
		{
			"byteLength":196920,
			"uri":"pit_hell_ground.bin"
		}
	]
}
