{
	"asset":{
		"generator":"Khronos glTF Blender I/O v5.1.20",
		"version":"2.0"
	},
	"scene":0,
	"scenes":[
		{
			"name":"Scene",
			"nodes":[
				0
			]
		}
	],
	"nodes":[
		{
			"mesh":0,
			"name":"pit_rubble_rocks"
		}
	],
	"materials":[
		{
			"doubleSided":true,
			"emissiveFactor":[
				1,
				1,
				1
			],
			"emissiveTexture":{
				"index":0
			},
			"name":"pit_mat",
			"pbrMetallicRoughness":{
				"baseColorTexture":{
					"index":1
				},
				"metallicFactor":0,
				"roughnessFactor":0.8999999761581421
			}
		}
	],
	"meshes":[
		{
			"name":"Mesh",
			"primitives":[
				{
					"attributes":{
						"POSITION":0,
						"NORMAL":1,
						"TEXCOORD_0":2,
						"TEXCOORD_1":3
					},
					"indices":4,
					"material":0
				}
			]
		}
	],
	"textures":[
		{
			"sampler":0,
			"source":0
		},
		{
			"sampler":0,
			"source":1
		}
	],
	"images":[
		{
			"mimeType":"image/png",
			"name":"Dungeons_2_Texture_Emission_01",
			"uri":"Dungeons_2_Texture_Emission_01.png"
		},
		{
			"mimeType":"image/png",
			"name":"Dungeons_2_Texture_01_A",
			"uri":"Dungeons_2_Texture_01_A.png"
		}
	],
	"accessors":[
		{
			"bufferView":0,
			"componentType":5126,
			"count":666,
			"max":[
				1.2455432415008545,
				0.281137615442276,
				1.0466716289520264
			],
			"min":[
				-1.2455432415008545,
				0,
				-1.0466716289520264
			],
			"type":"VEC3"
		},
		{
			"bufferView":1,
			"componentType":5126,
			"count":666,
			"type":"VEC3"
		},
		{
			"bufferView":2,
			"componentType":5126,
			"count":666,
			"type":"VEC2"
		},
		{
			"bufferView":3,
			"componentType":5126,
			"count":666,
			"type":"VEC2"
		},
		{
			"bufferView":4,
			"componentType":5123,
			"count":696,
			"type":"SCALAR"
		}
	],
	"bufferViews":[
		{
			"buffer":0,
			"byteLength":7992,
			"byteOffset":0,
			"target":34962
		},
		{
			"buffer":0,
			"byteLength":7992,
			"byteOffset":7992,
			"target":34962
		},
		{
			"buffer":0,
			"byteLength":5328,
			"byteOffset":15984,
			"target":34962
		},
		{
			"buffer":0,
			"byteLength":5328,
			"byteOffset":21312,
			"target":34962
		},
		{
			"buffer":0,
			"byteLength":1392,
			"byteOffset":26640,
			"target":34963
		}
	],
	"samplers":[
		{
			"magFilter":9729,
			"minFilter":9987
		}
	],
	"buffers":[
		{
			"byteLength":28032,
			"uri":"pit_rubble_rocks.bin"
		}
	]
}
