{
	"asset":{
		"generator":"Khronos glTF Blender I/O v5.1.20",
		"version":"2.0"
	},
	"scene":0,
	"scenes":[
		{
			"name":"Scene",
			"nodes":[
				0
			]
		}
	],
	"nodes":[
		{
			"mesh":0,
			"name":"pit_statue_broken"
		}
	],
	"materials":[
		{
			"doubleSided":true,
			"emissiveFactor":[
				1,
				1,
				1
			],
			"emissiveTexture":{
				"index":0
			},
			"name":"pit_mat",
			"pbrMetallicRoughness":{
				"baseColorTexture":{
					"index":1
				},
				"metallicFactor":0,
				"roughnessFactor":0.8999999761581421
			}
		}
	],
	"meshes":[
		{
			"name":"Mesh",
			"primitives":[
				{
					"attributes":{
						"POSITION":0,
						"NORMAL":1,
						"TEXCOORD_0":2,
						"TEXCOORD_1":3
					},
					"indices":4,
					"material":0
				}
			]
		}
	],
	"textures":[
		{
			"sampler":0,
			"source":0
		},
		{
			"sampler":0,
			"source":1
		}
	],
	"images":[
		{
			"mimeType":"image/png",
			"name":"Dungeons_2_Texture_Emission_01",
			"uri":"Dungeons_2_Texture_Emission_01.png"
		},
		{
			"mimeType":"image/png",
			"name":"Dungeons_2_Texture_01_A",
			"uri":"Dungeons_2_Texture_01_A.png"
		}
	],
	"accessors":[
		{
			"bufferView":0,
			"componentType":5126,
			"count":5945,
			"max":[
				0.6913067102432251,
				1.6338746547698975,
				0.6141765117645264
			],
			"min":[
				-0.6913067102432251,
				0,
				-0.6141765117645264
			],
			"type":"VEC3"
		},
		{
			"bufferView":1,
			"componentType":5126,
			"count":5945,
			"type":"VEC3"
		},
		{
			"bufferView":2,
			"componentType":5126,
			"count":5945,
			"type":"VEC2"
		},
		{
			"bufferView":3,
			"componentType":5126,
			"count":5945,
			"type":"VEC2"
		},
		{
			"bufferView":4,
			"componentType":5123,
			"count":8700,
			"type":"SCALAR"
		}
	],
	"bufferViews":[
		{
			"buffer":0,
			"byteLength":71340,
			"byteOffset":0,
			"target":34962
		},
		{
			"buffer":0,
			"byteLength":71340,
			"byteOffset":71340,
			"target":34962
		},
		{
			"buffer":0,
			"byteLength":47560,
			"byteOffset":142680,
			"target":34962
		},
		{
			"buffer":0,
			"byteLength":47560,
			"byteOffset":190240,
			"target":34962
		},
		{
			"buffer":0,
			"byteLength":17400,
			"byteOffset":237800,
			"target":34963
		}
	],
	"samplers":[
		{
			"magFilter":9729,
			"minFilter":9987
		}
	],
	"buffers":[
		{
			"byteLength":255200,
			"uri":"pit_statue_broken.bin"
		}
	]
}
