{
	"asset":{
		"generator":"Khronos glTF Blender I/O v5.1.20",
		"version":"2.0"
	},
	"scene":0,
	"scenes":[
		{
			"name":"Scene",
			"nodes":[
				0
			]
		}
	],
	"nodes":[
		{
			"mesh":0,
			"name":"pit_chains"
		}
	],
	"materials":[
		{
			"doubleSided":true,
			"emissiveFactor":[
				1,
				1,
				1
			],
			"emissiveTexture":{
				"index":0
			},
			"name":"pit_mat",
			"pbrMetallicRoughness":{
				"baseColorTexture":{
					"index":1
				},
				"metallicFactor":0,
				"roughnessFactor":0.8999999761581421
			}
		}
	],
	"meshes":[
		{
			"name":"Mesh",
			"primitives":[
				{
					"attributes":{
						"POSITION":0,
						"NORMAL":1,
						"TEXCOORD_0":2,
						"TEXCOORD_1":3
					},
					"indices":4,
					"material":0
				}
			]
		}
	],
	"textures":[
		{
			"sampler":0,
			"source":0
		},
		{
			"sampler":0,
			"source":1
		}
	],
	"images":[
		{
			"mimeType":"image/png",
			"name":"Dungeons_2_Texture_Emission_01",
			"uri":"Dungeons_2_Texture_Emission_01.png"
		},
		{
			"mimeType":"image/png",
			"name":"Dungeons_2_Texture_01_A",
			"uri":"Dungeons_2_Texture_01_A.png"
		}
	],
	"accessors":[
		{
			"bufferView":0,
			"componentType":5126,
			"count":4116,
			"max":[
				1.7772557735443115,
				0,
				1.7582519054412842
			],
			"min":[
				-1.7772557735443115,
				-53.804443359375,
				-1.7582519054412842
			],
			"type":"VEC3"
		},
		{
			"bufferView":1,
			"componentType":5126,
			"count":4116,
			"type":"VEC3"
		},
		{
			"bufferView":2,
			"componentType":5126,
			"count":4116,
			"type":"VEC2"
		},
		{
			"bufferView":3,
			"componentType":5126,
			"count":4116,
			"type":"VEC2"
		},
		{
			"bufferView":4,
			"componentType":5123,
			"count":6228,
			"type":"SCALAR"
		}
	],
	"bufferViews":[
		{
			"buffer":0,
			"byteLength":49392,
			"byteOffset":0,
			"target":34962
		},
		{
			"buffer":0,
			"byteLength":49392,
			"byteOffset":49392,
			"target":34962
		},
		{
			"buffer":0,
			"byteLength":32928,
			"byteOffset":98784,
			"target":34962
		},
		{
			"buffer":0,
			"byteLength":32928,
			"byteOffset":131712,
			"target":34962
		},
		{
			"buffer":0,
			"byteLength":12456,
			"byteOffset":164640,
			"target":34963
		}
	],
	"samplers":[
		{
			"magFilter":9729,
			"minFilter":9987
		}
	],
	"buffers":[
		{
			"byteLength":177096,
			"uri":"pit_chains.bin"
		}
	]
}
