{"asset":{"generator":"Khronos glTF Blender I/O v5.1.20","version":"2.0"},"scene":0,"scenes":[{"name":"Scene","nodes":[0]}],"nodes":[{"mesh":0,"name":"cliff_05"}],"materials":[{"name":"alpine_cliff_05","pbrMetallicRoughness":{"baseColorTexture":{"index":0},"metallicFactor":0,"roughnessFactor":0.949999988079071}}],"meshes":[{"name":"Mesh","primitives":[{"attributes":{"POSITION":0,"NORMAL":1,"TEXCOORD_0":2},"indices":3,"material":0}]}],"textures":[{"sampler":0,"source":0}],"images":[{"mimeType":"image/png","name":"alpine_cliff_05","uri":"alpine_cliff_05.png"}],"accessors":[{"bufferView":0,"componentType":5126,"count":6036,"max":[7.540799140930176,8.493139266967773,5.169896125793457],"min":[-7.540799140930176,0,-5.169896125793457],"type":"VEC3"},{"bufferView":1,"componentType":5126,"count":6036,"type":"VEC3"},{"bufferView":2,"componentType":5126,"count":6036,"type":"VEC2"},{"bufferView":3,"componentType":5123,"count":6036,"type":"SCALAR"}],"bufferViews":[{"buffer":0,"byteLength":72432,"byteOffset":0,"target":34962},{"buffer":0,"byteLength":72432,"byteOffset":72432,"target":34962},{"buffer":0,"byteLength":48288,"byteOffset":144864,"target":34962},{"buffer":0,"byteLength":12072,"byteOffset":193152,"target":34963}],"samplers":[{"magFilter":9729,"minFilter":9987}],"buffers":[{"byteLength":205224,"uri":"cliff_05.bin"}]}