{"asset":{"generator":"Khronos glTF Blender I/O v5.1.20","version":"2.0"},"scene":0,"scenes":[{"name":"Scene","nodes":[0]}],"nodes":[{"mesh":0,"name":"cliff_02"}],"materials":[{"name":"alpine_cliff_02","pbrMetallicRoughness":{"baseColorTexture":{"index":0},"metallicFactor":0,"roughnessFactor":0.949999988079071}}],"meshes":[{"name":"Mesh","primitives":[{"attributes":{"POSITION":0,"NORMAL":1,"TEXCOORD_0":2},"indices":3,"material":0}]}],"textures":[{"sampler":0,"source":0}],"images":[{"mimeType":"image/png","name":"alpine_cliff_02","uri":"alpine_cliff_02.png"}],"accessors":[{"bufferView":0,"componentType":5126,"count":7223,"max":[12.245798110961914,10.358020782470703,6.0291337966918945],"min":[-12.245798110961914,0,-6.0291337966918945],"type":"VEC3"},{"bufferView":1,"componentType":5126,"count":7223,"type":"VEC3"},{"bufferView":2,"componentType":5126,"count":7223,"type":"VEC2"},{"bufferView":3,"componentType":5123,"count":7227,"type":"SCALAR"}],"bufferViews":[{"buffer":0,"byteLength":86676,"byteOffset":0,"target":34962},{"buffer":0,"byteLength":86676,"byteOffset":86676,"target":34962},{"buffer":0,"byteLength":57784,"byteOffset":173352,"target":34962},{"buffer":0,"byteLength":14454,"byteOffset":231136,"target":34963}],"samplers":[{"magFilter":9729,"minFilter":9987}],"buffers":[{"byteLength":245592,"uri":"cliff_02.bin"}]}