{"asset":{"generator":"Khronos glTF Blender I/O v5.1.20","version":"2.0"},"scene":0,"scenes":[{"name":"Scene","nodes":[0]}],"nodes":[{"mesh":0,"name":"cliff_01"}],"materials":[{"name":"alpine_cliff_01","pbrMetallicRoughness":{"baseColorTexture":{"index":0},"metallicFactor":0,"roughnessFactor":0.949999988079071}}],"meshes":[{"name":"Mesh","primitives":[{"attributes":{"POSITION":0,"NORMAL":1,"TEXCOORD_0":2},"indices":3,"material":0}]}],"textures":[{"sampler":0,"source":0}],"images":[{"mimeType":"image/png","name":"alpine_cliff_01","uri":"alpine_cliff_01.png"}],"accessors":[{"bufferView":0,"componentType":5126,"count":6379,"max":[11.137138366699219,10.226669311523438,4.570830345153809],"min":[-11.137138366699219,0,-4.570830345153809],"type":"VEC3"},{"bufferView":1,"componentType":5126,"count":6379,"type":"VEC3"},{"bufferView":2,"componentType":5126,"count":6379,"type":"VEC2"},{"bufferView":3,"componentType":5123,"count":7452,"type":"SCALAR"}],"bufferViews":[{"buffer":0,"byteLength":76548,"byteOffset":0,"target":34962},{"buffer":0,"byteLength":76548,"byteOffset":76548,"target":34962},{"buffer":0,"byteLength":51032,"byteOffset":153096,"target":34962},{"buffer":0,"byteLength":14904,"byteOffset":204128,"target":34963}],"samplers":[{"magFilter":9729,"minFilter":9987}],"buffers":[{"byteLength":219032,"uri":"cliff_01.bin"}]}