{"asset":{"generator":"Khronos glTF Blender I/O v5.1.20","version":"2.0"},"scene":0,"scenes":[{"name":"Scene","nodes":[0]}],"nodes":[{"mesh":0,"name":"cliff_07"}],"materials":[{"name":"alpine_cliff_07","pbrMetallicRoughness":{"baseColorTexture":{"index":0},"metallicFactor":0,"roughnessFactor":0.949999988079071}}],"meshes":[{"name":"Mesh","primitives":[{"attributes":{"POSITION":0,"NORMAL":1,"TEXCOORD_0":2},"indices":3,"material":0}]}],"textures":[{"sampler":0,"source":0}],"images":[{"mimeType":"image/png","name":"alpine_cliff_07","uri":"alpine_cliff_07.png"}],"accessors":[{"bufferView":0,"componentType":5126,"count":5124,"max":[14.388066291809082,10.217606544494629,6.928686141967773],"min":[-14.388066291809082,0,-6.928686141967773],"type":"VEC3"},{"bufferView":1,"componentType":5126,"count":5124,"type":"VEC3"},{"bufferView":2,"componentType":5126,"count":5124,"type":"VEC2"},{"bufferView":3,"componentType":5123,"count":5130,"type":"SCALAR"}],"bufferViews":[{"buffer":0,"byteLength":61488,"byteOffset":0,"target":34962},{"buffer":0,"byteLength":61488,"byteOffset":61488,"target":34962},{"buffer":0,"byteLength":40992,"byteOffset":122976,"target":34962},{"buffer":0,"byteLength":10260,"byteOffset":163968,"target":34963}],"samplers":[{"magFilter":9729,"minFilter":9987}],"buffers":[{"byteLength":174228,"uri":"cliff_07.bin"}]}