{"asset":{"generator":"Khronos glTF Blender I/O v5.1.20","version":"2.0"},"scene":0,"scenes":[{"name":"Scene","nodes":[0]}],"nodes":[{"mesh":0,"name":"mountain_02"}],"materials":[{"name":"alpine_mountain_02","pbrMetallicRoughness":{"baseColorTexture":{"index":0},"metallicFactor":0,"roughnessFactor":0.949999988079071}}],"meshes":[{"name":"Mesh","primitives":[{"attributes":{"POSITION":0,"NORMAL":1,"TEXCOORD_0":2},"indices":3,"material":0}]}],"textures":[{"sampler":0,"source":0}],"images":[{"mimeType":"image/png","name":"alpine_mountain_02","uri":"alpine_mountain_02.png"}],"accessors":[{"bufferView":0,"componentType":5126,"count":15022,"max":[10.004629135131836,4.7619781494140625,10.572431564331055],"min":[-10.004629135131836,0,-10.572431564331055],"type":"VEC3"},{"bufferView":1,"componentType":5126,"count":15022,"type":"VEC3"},{"bufferView":2,"componentType":5126,"count":15022,"type":"VEC2"},{"bufferView":3,"componentType":5123,"count":15612,"type":"SCALAR"}],"bufferViews":[{"buffer":0,"byteLength":180264,"byteOffset":0,"target":34962},{"buffer":0,"byteLength":180264,"byteOffset":180264,"target":34962},{"buffer":0,"byteLength":120176,"byteOffset":360528,"target":34962},{"buffer":0,"byteLength":31224,"byteOffset":480704,"target":34963}],"samplers":[{"magFilter":9729,"minFilter":9987}],"buffers":[{"byteLength":511928,"uri":"mountain_02.bin"}]}