{"asset":{"generator":"Khronos glTF Blender I/O v5.1.20","version":"2.0"},"scene":0,"scenes":[{"name":"Scene","nodes":[0]}],"nodes":[{"mesh":0,"name":"mound_03"}],"materials":[{"name":"alpine_mound_03","pbrMetallicRoughness":{"baseColorTexture":{"index":0},"metallicFactor":0,"roughnessFactor":0.949999988079071}}],"meshes":[{"name":"Mesh","primitives":[{"attributes":{"POSITION":0,"NORMAL":1,"TEXCOORD_0":2},"indices":3,"material":0}]}],"textures":[{"sampler":0,"source":0}],"images":[{"mimeType":"image/png","name":"alpine_mound_03","uri":"alpine_mound_03.png"}],"accessors":[{"bufferView":0,"componentType":5126,"count":590,"max":[0.6889052391052246,0.6149888634681702,0.6446976661682129],"min":[-0.6889052391052246,0,-0.6446976661682129],"type":"VEC3"},{"bufferView":1,"componentType":5126,"count":590,"type":"VEC3"},{"bufferView":2,"componentType":5126,"count":590,"type":"VEC2"},{"bufferView":3,"componentType":5123,"count":636,"type":"SCALAR"}],"bufferViews":[{"buffer":0,"byteLength":7080,"byteOffset":0,"target":34962},{"buffer":0,"byteLength":7080,"byteOffset":7080,"target":34962},{"buffer":0,"byteLength":4720,"byteOffset":14160,"target":34962},{"buffer":0,"byteLength":1272,"byteOffset":18880,"target":34963}],"samplers":[{"magFilter":9729,"minFilter":9987}],"buffers":[{"byteLength":20152,"uri":"mound_03.bin"}]}