{"asset":{"generator":"Khronos glTF Blender I/O v5.1.20","version":"2.0"},"scene":0,"scenes":[{"name":"Scene","nodes":[0]}],"nodes":[{"mesh":0,"name":"mountain_01"}],"materials":[{"name":"alpine_mountain_01","pbrMetallicRoughness":{"baseColorTexture":{"index":0},"metallicFactor":0,"roughnessFactor":0.949999988079071}}],"meshes":[{"name":"Mesh","primitives":[{"attributes":{"POSITION":0,"NORMAL":1,"TEXCOORD_0":2},"indices":3,"material":0}]}],"textures":[{"sampler":0,"source":0}],"images":[{"mimeType":"image/png","name":"alpine_mountain_01","uri":"alpine_mountain_01.png"}],"accessors":[{"bufferView":0,"componentType":5126,"count":31126,"max":[11.902070999145508,5.626627445220947,12.18392562866211],"min":[-11.902070999145508,0,-12.18392562866211],"type":"VEC3"},{"bufferView":1,"componentType":5126,"count":31126,"type":"VEC3"},{"bufferView":2,"componentType":5126,"count":31126,"type":"VEC2"},{"bufferView":3,"componentType":5123,"count":32313,"type":"SCALAR"}],"bufferViews":[{"buffer":0,"byteLength":373512,"byteOffset":0,"target":34962},{"buffer":0,"byteLength":373512,"byteOffset":373512,"target":34962},{"buffer":0,"byteLength":249008,"byteOffset":747024,"target":34962},{"buffer":0,"byteLength":64626,"byteOffset":996032,"target":34963}],"samplers":[{"magFilter":9729,"minFilter":9987}],"buffers":[{"byteLength":1060660,"uri":"mountain_01.bin"}]}