{"asset":{"generator":"Khronos glTF Blender I/O v5.1.20","version":"2.0"},"scene":0,"scenes":[{"name":"Scene","nodes":[0]}],"nodes":[{"mesh":0,"name":"mound_01"}],"materials":[{"name":"alpine_mound_01","pbrMetallicRoughness":{"baseColorTexture":{"index":0},"metallicFactor":0,"roughnessFactor":0.949999988079071}}],"meshes":[{"name":"Mesh","primitives":[{"attributes":{"POSITION":0,"NORMAL":1,"TEXCOORD_0":2},"indices":3,"material":0}]}],"textures":[{"sampler":0,"source":0}],"images":[{"mimeType":"image/png","name":"alpine_mound_01","uri":"alpine_mound_01.png"}],"accessors":[{"bufferView":0,"componentType":5126,"count":680,"max":[0.8880976438522339,0.8463129997253418,0.4989769458770752],"min":[-0.8880976438522339,0,-0.4989769458770752],"type":"VEC3"},{"bufferView":1,"componentType":5126,"count":680,"type":"VEC3"},{"bufferView":2,"componentType":5126,"count":680,"type":"VEC2"},{"bufferView":3,"componentType":5123,"count":750,"type":"SCALAR"}],"bufferViews":[{"buffer":0,"byteLength":8160,"byteOffset":0,"target":34962},{"buffer":0,"byteLength":8160,"byteOffset":8160,"target":34962},{"buffer":0,"byteLength":5440,"byteOffset":16320,"target":34962},{"buffer":0,"byteLength":1500,"byteOffset":21760,"target":34963}],"samplers":[{"magFilter":9729,"minFilter":9987}],"buffers":[{"byteLength":23260,"uri":"mound_01.bin"}]}