{"asset":{"generator":"Khronos glTF Blender I/O v5.1.20","version":"2.0"},"scene":0,"scenes":[{"name":"Scene","nodes":[0]}],"nodes":[{"mesh":0,"name":"mountain_03"}],"materials":[{"name":"alpine_mountain_03","pbrMetallicRoughness":{"baseColorTexture":{"index":0},"metallicFactor":0,"roughnessFactor":0.949999988079071}}],"meshes":[{"name":"Mesh","primitives":[{"attributes":{"POSITION":0,"NORMAL":1,"TEXCOORD_0":2},"indices":3,"material":0}]}],"textures":[{"sampler":0,"source":0}],"images":[{"mimeType":"image/png","name":"alpine_mountain_03","uri":"alpine_mountain_03.png"}],"accessors":[{"bufferView":0,"componentType":5126,"count":6903,"max":[7.768553256988525,4.244502544403076,8.287467956542969],"min":[-7.768553256988525,0,-8.287467956542969],"type":"VEC3"},{"bufferView":1,"componentType":5126,"count":6903,"type":"VEC3"},{"bufferView":2,"componentType":5126,"count":6903,"type":"VEC2"},{"bufferView":3,"componentType":5123,"count":7143,"type":"SCALAR"}],"bufferViews":[{"buffer":0,"byteLength":82836,"byteOffset":0,"target":34962},{"buffer":0,"byteLength":82836,"byteOffset":82836,"target":34962},{"buffer":0,"byteLength":55224,"byteOffset":165672,"target":34962},{"buffer":0,"byteLength":14286,"byteOffset":220896,"target":34963}],"samplers":[{"magFilter":9729,"minFilter":9987}],"buffers":[{"byteLength":235184,"uri":"mountain_03.bin"}]}