{"asset":{"generator":"Khronos glTF Blender I/O v5.1.20","version":"2.0"},"scene":0,"scenes":[{"name":"Scene","nodes":[0]}],"nodes":[{"mesh":0,"name":"mountain_04"}],"materials":[{"name":"alpine_mountain_04","pbrMetallicRoughness":{"baseColorTexture":{"index":0},"metallicFactor":0,"roughnessFactor":0.949999988079071}}],"meshes":[{"name":"Mesh","primitives":[{"attributes":{"POSITION":0,"NORMAL":1,"TEXCOORD_0":2},"indices":3,"material":0}]}],"textures":[{"sampler":0,"source":0}],"images":[{"mimeType":"image/png","name":"alpine_mountain_04","uri":"alpine_mountain_04.png"}],"accessors":[{"bufferView":0,"componentType":5126,"count":6755,"max":[3.737077474594116,4.3549652099609375,4.21267557144165],"min":[-3.7370779514312744,-3.561951302799571e-07,-4.21267557144165],"type":"VEC3"},{"bufferView":1,"componentType":5126,"count":6755,"type":"VEC3"},{"bufferView":2,"componentType":5126,"count":6755,"type":"VEC2"},{"bufferView":3,"componentType":5123,"count":6933,"type":"SCALAR"}],"bufferViews":[{"buffer":0,"byteLength":81060,"byteOffset":0,"target":34962},{"buffer":0,"byteLength":81060,"byteOffset":81060,"target":34962},{"buffer":0,"byteLength":54040,"byteOffset":162120,"target":34962},{"buffer":0,"byteLength":13866,"byteOffset":216160,"target":34963}],"samplers":[{"magFilter":9729,"minFilter":9987}],"buffers":[{"byteLength":230028,"uri":"mountain_04.bin"}]}