{"asset":{"generator":"Khronos glTF Blender I/O v5.1.20","version":"2.0"},"scene":0,"scenes":[{"name":"Scene","nodes":[0]}],"nodes":[{"mesh":0,"name":"pine_02"}],"materials":[{"alphaMode":"MASK","doubleSided":true,"name":"alpine_leaf_pine_cluster_01_vibrant","pbrMetallicRoughness":{"baseColorTexture":{"index":0},"metallicFactor":0,"roughnessFactor":0.949999988079071},"alphaCutoff":0.45},{"name":"alpine_atlas","pbrMetallicRoughness":{"baseColorTexture":{"index":1},"metallicFactor":0,"roughnessFactor":0.949999988079071}}],"meshes":[{"name":"Mesh.001","primitives":[{"attributes":{"POSITION":0,"NORMAL":1,"TEXCOORD_0":2,"COLOR_0":3,"COLOR_1":4},"indices":5,"material":0},{"attributes":{"POSITION":6,"NORMAL":7,"TEXCOORD_0":8,"COLOR_0":9,"COLOR_1":10},"indices":11,"material":1}]}],"textures":[{"sampler":0,"source":0},{"sampler":0,"source":1}],"images":[{"mimeType":"image/png","name":"alpine_leaf_pine_cluster_01_vibrant","uri":"alpine_leaf_pine_cluster_01_vibrant.png"},{"mimeType":"image/png","name":"alpine_atlas","uri":"alpine_atlas.png"}],"accessors":[{"bufferView":0,"componentType":5126,"count":1235,"max":[2.215554714202881,11.249161720275879,2.791253089904785],"min":[-2.215554714202881,4.09108829498291,-2.791253089904785],"type":"VEC3"},{"bufferView":1,"componentType":5126,"count":1235,"type":"VEC3"},{"bufferView":2,"componentType":5126,"count":1235,"type":"VEC2"},{"bufferView":3,"componentType":5121,"count":1235,"normalized":true,"type":"VEC4"},{"bufferView":4,"componentType":5123,"count":1235,"normalized":true,"type":"VEC4"},{"bufferView":5,"componentType":5123,"count":1956,"type":"SCALAR"},{"bufferView":6,"componentType":5126,"count":4120,"max":[2.0081238746643066,11.017807006835938,2.426959991455078],"min":[-2.0990171432495117,0,-2.5180587768554688],"type":"VEC3"},{"bufferView":7,"componentType":5126,"count":4120,"type":"VEC3"},{"bufferView":8,"componentType":5126,"count":4120,"type":"VEC2"},{"bufferView":9,"componentType":5121,"count":4120,"normalized":true,"type":"VEC4"},{"bufferView":10,"componentType":5123,"count":4120,"normalized":true,"type":"VEC4"},{"bufferView":11,"componentType":5123,"count":5346,"type":"SCALAR"}],"bufferViews":[{"buffer":0,"byteLength":14820,"byteOffset":0,"target":34962},{"buffer":0,"byteLength":14820,"byteOffset":14820,"target":34962},{"buffer":0,"byteLength":9880,"byteOffset":29640,"target":34962},{"buffer":0,"byteLength":4940,"byteOffset":39520,"target":34962},{"buffer":0,"byteLength":9880,"byteOffset":44460,"target":34962},{"buffer":0,"byteLength":3912,"byteOffset":54340,"target":34963},{"buffer":0,"byteLength":49440,"byteOffset":58252,"target":34962},{"buffer":0,"byteLength":49440,"byteOffset":107692,"target":34962},{"buffer":0,"byteLength":32960,"byteOffset":157132,"target":34962},{"buffer":0,"byteLength":16480,"byteOffset":190092,"target":34962},{"buffer":0,"byteLength":32960,"byteOffset":206572,"target":34962},{"buffer":0,"byteLength":10692,"byteOffset":239532,"target":34963}],"samplers":[{"magFilter":9729,"minFilter":9987}],"buffers":[{"byteLength":250224,"uri":"pine_02.bin"}]}