{"asset":{"generator":"Khronos glTF Blender I/O v5.1.20","version":"2.0"},"scene":0,"scenes":[{"name":"Scene","nodes":[0]}],"nodes":[{"mesh":0,"name":"pine_dead"}],"materials":[{"name":"alpine_atlas","pbrMetallicRoughness":{"baseColorTexture":{"index":0},"metallicFactor":0,"roughnessFactor":0.949999988079071}}],"meshes":[{"name":"Mesh.001","primitives":[{"attributes":{"POSITION":0,"NORMAL":1,"TEXCOORD_0":2,"COLOR_0":3,"COLOR_1":4},"indices":5,"material":0}]}],"textures":[{"sampler":0,"source":0}],"images":[{"mimeType":"image/png","name":"alpine_atlas","uri":"alpine_atlas.png"}],"accessors":[{"bufferView":0,"componentType":5126,"count":2285,"max":[2.7151732444763184,16.324562072753906,2.213499069213867],"min":[-2.7151732444763184,0,-2.213499069213867],"type":"VEC3"},{"bufferView":1,"componentType":5126,"count":2285,"type":"VEC3"},{"bufferView":2,"componentType":5126,"count":2285,"type":"VEC2"},{"bufferView":3,"componentType":5121,"count":2285,"normalized":true,"type":"VEC4"},{"bufferView":4,"componentType":5123,"count":2285,"normalized":true,"type":"VEC4"},{"bufferView":5,"componentType":5123,"count":3195,"type":"SCALAR"}],"bufferViews":[{"buffer":0,"byteLength":27420,"byteOffset":0,"target":34962},{"buffer":0,"byteLength":27420,"byteOffset":27420,"target":34962},{"buffer":0,"byteLength":18280,"byteOffset":54840,"target":34962},{"buffer":0,"byteLength":9140,"byteOffset":73120,"target":34962},{"buffer":0,"byteLength":18280,"byteOffset":82260,"target":34962},{"buffer":0,"byteLength":6390,"byteOffset":100540,"target":34963}],"samplers":[{"magFilter":9729,"minFilter":9987}],"buffers":[{"byteLength":106932,"uri":"pine_dead.bin"}]}