{"asset":{"generator":"Khronos glTF Blender I/O v5.1.20","version":"2.0"},"scene":0,"scenes":[{"name":"Scene","nodes":[0]}],"nodes":[{"mesh":0,"name":"pine_01"}],"materials":[{"alphaMode":"MASK","doubleSided":true,"name":"alpine_leaf_pine_cluster_01_vibrant","pbrMetallicRoughness":{"baseColorTexture":{"index":0},"metallicFactor":0,"roughnessFactor":0.949999988079071},"alphaCutoff":0.45},{"name":"alpine_atlas","pbrMetallicRoughness":{"baseColorTexture":{"index":1},"metallicFactor":0,"roughnessFactor":0.949999988079071}}],"meshes":[{"name":"Mesh.001","primitives":[{"attributes":{"POSITION":0,"NORMAL":1,"TEXCOORD_0":2,"COLOR_0":3,"COLOR_1":4},"indices":5,"material":0},{"attributes":{"POSITION":6,"NORMAL":7,"TEXCOORD_0":8,"COLOR_0":9,"COLOR_1":10},"indices":11,"material":1}]}],"textures":[{"sampler":0,"source":0},{"sampler":0,"source":1}],"images":[{"mimeType":"image/png","name":"alpine_leaf_pine_cluster_01_vibrant","uri":"alpine_leaf_pine_cluster_01_vibrant.png"},{"mimeType":"image/png","name":"alpine_atlas","uri":"alpine_atlas.png"}],"accessors":[{"bufferView":0,"componentType":5126,"count":706,"max":[3.080434799194336,16.684709548950195,2.4431657791137695],"min":[-3.080434799194336,8.324464797973633,-2.4431657791137695],"type":"VEC3"},{"bufferView":1,"componentType":5126,"count":706,"type":"VEC3"},{"bufferView":2,"componentType":5126,"count":706,"type":"VEC2"},{"bufferView":3,"componentType":5121,"count":706,"normalized":true,"type":"VEC4"},{"bufferView":4,"componentType":5123,"count":706,"normalized":true,"type":"VEC4"},{"bufferView":5,"componentType":5123,"count":1122,"type":"SCALAR"},{"bufferView":6,"componentType":5126,"count":2489,"max":[2.7901153564453125,16.324562072753906,2.4368929862976074],"min":[-2.640231132507324,0,-1.9901050329208374],"type":"VEC3"},{"bufferView":7,"componentType":5126,"count":2489,"type":"VEC3"},{"bufferView":8,"componentType":5126,"count":2489,"type":"VEC2"},{"bufferView":9,"componentType":5121,"count":2489,"normalized":true,"type":"VEC4"},{"bufferView":10,"componentType":5123,"count":2489,"normalized":true,"type":"VEC4"},{"bufferView":11,"componentType":5123,"count":3195,"type":"SCALAR"}],"bufferViews":[{"buffer":0,"byteLength":8472,"byteOffset":0,"target":34962},{"buffer":0,"byteLength":8472,"byteOffset":8472,"target":34962},{"buffer":0,"byteLength":5648,"byteOffset":16944,"target":34962},{"buffer":0,"byteLength":2824,"byteOffset":22592,"target":34962},{"buffer":0,"byteLength":5648,"byteOffset":25416,"target":34962},{"buffer":0,"byteLength":2244,"byteOffset":31064,"target":34963},{"buffer":0,"byteLength":29868,"byteOffset":33308,"target":34962},{"buffer":0,"byteLength":29868,"byteOffset":63176,"target":34962},{"buffer":0,"byteLength":19912,"byteOffset":93044,"target":34962},{"buffer":0,"byteLength":9956,"byteOffset":112956,"target":34962},{"buffer":0,"byteLength":19912,"byteOffset":122912,"target":34962},{"buffer":0,"byteLength":6390,"byteOffset":142824,"target":34963}],"samplers":[{"magFilter":9729,"minFilter":9987}],"buffers":[{"byteLength":149216,"uri":"pine_01.bin"}]}