{"asset":{"generator":"Khronos glTF Blender I/O v5.1.20","version":"2.0"},"scene":0,"scenes":[{"name":"Scene","nodes":[0]}],"nodes":[{"mesh":0,"name":"rock_05"}],"materials":[{"name":"alpine_atlas","pbrMetallicRoughness":{"baseColorTexture":{"index":0},"metallicFactor":0,"roughnessFactor":0.949999988079071}}],"meshes":[{"name":"Mesh","primitives":[{"attributes":{"POSITION":0,"NORMAL":1,"TEXCOORD_0":2},"indices":3,"material":0}]}],"textures":[{"sampler":0,"source":0}],"images":[{"mimeType":"image/png","name":"alpine_atlas","uri":"alpine_atlas.png"}],"accessors":[{"bufferView":0,"componentType":5126,"count":1728,"max":[1.7902830839157104,1.4747283458709717,1.1970467567443848],"min":[-1.7902830839157104,0,-1.1970467567443848],"type":"VEC3"},{"bufferView":1,"componentType":5126,"count":1728,"type":"VEC3"},{"bufferView":2,"componentType":5126,"count":1728,"type":"VEC2"},{"bufferView":3,"componentType":5123,"count":1728,"type":"SCALAR"}],"bufferViews":[{"buffer":0,"byteLength":20736,"byteOffset":0,"target":34962},{"buffer":0,"byteLength":20736,"byteOffset":20736,"target":34962},{"buffer":0,"byteLength":13824,"byteOffset":41472,"target":34962},{"buffer":0,"byteLength":3456,"byteOffset":55296,"target":34963}],"samplers":[{"magFilter":9729,"minFilter":9987}],"buffers":[{"byteLength":58752,"uri":"rock_05.bin"}]}