{"asset":{"generator":"Khronos glTF Blender I/O v5.1.20","version":"2.0"},"scene":0,"scenes":[{"name":"Scene","nodes":[0]}],"nodes":[{"mesh":0,"name":"rock_rough_01"}],"materials":[{"name":"alpine_atlas","pbrMetallicRoughness":{"baseColorTexture":{"index":0},"metallicFactor":0,"roughnessFactor":0.949999988079071}}],"meshes":[{"name":"Mesh","primitives":[{"attributes":{"POSITION":0,"NORMAL":1,"TEXCOORD_0":2},"indices":3,"material":0}]}],"textures":[{"sampler":0,"source":0}],"images":[{"mimeType":"image/png","name":"alpine_atlas","uri":"alpine_atlas.png"}],"accessors":[{"bufferView":0,"componentType":5126,"count":6745,"max":[4.28922176361084,3.1394667625427246,4.114121437072754],"min":[-4.28922176361084,0,-4.114121437072754],"type":"VEC3"},{"bufferView":1,"componentType":5126,"count":6745,"type":"VEC3"},{"bufferView":2,"componentType":5126,"count":6745,"type":"VEC2"},{"bufferView":3,"componentType":5123,"count":6990,"type":"SCALAR"}],"bufferViews":[{"buffer":0,"byteLength":80940,"byteOffset":0,"target":34962},{"buffer":0,"byteLength":80940,"byteOffset":80940,"target":34962},{"buffer":0,"byteLength":53960,"byteOffset":161880,"target":34962},{"buffer":0,"byteLength":13980,"byteOffset":215840,"target":34963}],"samplers":[{"magFilter":9729,"minFilter":9987}],"buffers":[{"byteLength":229820,"uri":"rock_rough_01.bin"}]}