{"asset":{"generator":"Khronos glTF Blender I/O v5.1.20","version":"2.0"},"scene":0,"scenes":[{"name":"Scene","nodes":[0]}],"nodes":[{"mesh":0,"name":"rock_rough_02"}],"materials":[{"name":"alpine_atlas","pbrMetallicRoughness":{"baseColorTexture":{"index":0},"metallicFactor":0,"roughnessFactor":0.949999988079071}}],"meshes":[{"name":"Mesh","primitives":[{"attributes":{"POSITION":0,"NORMAL":1,"TEXCOORD_0":2},"indices":3,"material":0}]}],"textures":[{"sampler":0,"source":0}],"images":[{"mimeType":"image/png","name":"alpine_atlas","uri":"alpine_atlas.png"}],"accessors":[{"bufferView":0,"componentType":5126,"count":1261,"max":[3.0936479568481445,1.9564646482467651,1.6139721870422363],"min":[-3.0936479568481445,0,-1.6139721870422363],"type":"VEC3"},{"bufferView":1,"componentType":5126,"count":1261,"type":"VEC3"},{"bufferView":2,"componentType":5126,"count":1261,"type":"VEC2"},{"bufferView":3,"componentType":5123,"count":1440,"type":"SCALAR"}],"bufferViews":[{"buffer":0,"byteLength":15132,"byteOffset":0,"target":34962},{"buffer":0,"byteLength":15132,"byteOffset":15132,"target":34962},{"buffer":0,"byteLength":10088,"byteOffset":30264,"target":34962},{"buffer":0,"byteLength":2880,"byteOffset":40352,"target":34963}],"samplers":[{"magFilter":9729,"minFilter":9987}],"buffers":[{"byteLength":43232,"uri":"rock_rough_02.bin"}]}