{"asset":{"generator":"Khronos glTF Blender I/O v5.1.20","version":"2.0"},"scene":0,"scenes":[{"name":"Scene","nodes":[0]}],"nodes":[{"mesh":0,"name":"rock_01"}],"materials":[{"name":"alpine_atlas","pbrMetallicRoughness":{"baseColorTexture":{"index":0},"metallicFactor":0,"roughnessFactor":0.949999988079071}}],"meshes":[{"name":"Mesh","primitives":[{"attributes":{"POSITION":0,"NORMAL":1,"TEXCOORD_0":2},"indices":3,"material":0}]}],"textures":[{"sampler":0,"source":0}],"images":[{"mimeType":"image/png","name":"alpine_atlas","uri":"alpine_atlas.png"}],"accessors":[{"bufferView":0,"componentType":5126,"count":2358,"max":[3.1034011840820312,2.3293659687042236,1.415226936340332],"min":[-3.1034011840820312,0,-1.415226936340332],"type":"VEC3"},{"bufferView":1,"componentType":5126,"count":2358,"type":"VEC3"},{"bufferView":2,"componentType":5126,"count":2358,"type":"VEC2"},{"bufferView":3,"componentType":5123,"count":2358,"type":"SCALAR"}],"bufferViews":[{"buffer":0,"byteLength":28296,"byteOffset":0,"target":34962},{"buffer":0,"byteLength":28296,"byteOffset":28296,"target":34962},{"buffer":0,"byteLength":18864,"byteOffset":56592,"target":34962},{"buffer":0,"byteLength":4716,"byteOffset":75456,"target":34963}],"samplers":[{"magFilter":9729,"minFilter":9987}],"buffers":[{"byteLength":80172,"uri":"rock_01.bin"}]}