{"asset":{"generator":"Khronos glTF Blender I/O v5.1.20","version":"2.0"},"scene":0,"scenes":[{"name":"Scene","nodes":[0]}],"nodes":[{"mesh":0,"name":"trees_02"}],"materials":[{"alphaMode":"MASK","doubleSided":true,"name":"alpine_card_Card","pbrMetallicRoughness":{"baseColorTexture":{"index":0},"metallicFactor":0,"roughnessFactor":0.949999988079071},"alphaCutoff":0.45},{"alphaMode":"MASK","doubleSided":true,"name":"alpine_card_other","pbrMetallicRoughness":{"baseColorTexture":{"index":1},"metallicFactor":0,"roughnessFactor":0.949999988079071},"alphaCutoff":0.45}],"meshes":[{"name":"Mesh","primitives":[{"attributes":{"POSITION":0,"NORMAL":1,"TEXCOORD_0":2,"COLOR_0":3,"COLOR_1":4},"indices":5,"material":0},{"attributes":{"POSITION":6,"NORMAL":7,"TEXCOORD_0":8,"COLOR_0":9,"COLOR_1":10},"indices":11,"material":1}]}],"textures":[{"sampler":0,"source":0},{"sampler":0,"source":1}],"images":[{"mimeType":"image/png","name":"alpine_card_pine04","uri":"alpine_card_pine04.png"},{"mimeType":"image/png","name":"alpine_card_treepine02","uri":"alpine_card_treepine02.png"}],"accessors":[{"bufferView":0,"componentType":5126,"count":16,"max":[9.47835922241211,12.849081039428711,1.8112173080444336],"min":[-6.897691249847412,0,-0.18533062934875488],"type":"VEC3"},{"bufferView":1,"componentType":5126,"count":16,"type":"VEC3"},{"bufferView":2,"componentType":5126,"count":16,"type":"VEC2"},{"bufferView":3,"componentType":5121,"count":16,"normalized":true,"type":"VEC4"},{"bufferView":4,"componentType":5123,"count":16,"normalized":true,"type":"VEC4"},{"bufferView":5,"componentType":5123,"count":24,"type":"SCALAR"},{"bufferView":6,"componentType":5126,"count":24,"max":[6.378067493438721,15.972982406616211,1.4881211519241333],"min":[-9.47835922241211,0.07695648074150085,-1.8112173080444336],"type":"VEC3"},{"bufferView":7,"componentType":5126,"count":24,"type":"VEC3"},{"bufferView":8,"componentType":5126,"count":24,"type":"VEC2"},{"bufferView":9,"componentType":5121,"count":24,"normalized":true,"type":"VEC4"},{"bufferView":10,"componentType":5123,"count":24,"normalized":true,"type":"VEC4"},{"bufferView":11,"componentType":5123,"count":36,"type":"SCALAR"}],"bufferViews":[{"buffer":0,"byteLength":192,"byteOffset":0,"target":34962},{"buffer":0,"byteLength":192,"byteOffset":192,"target":34962},{"buffer":0,"byteLength":128,"byteOffset":384,"target":34962},{"buffer":0,"byteLength":64,"byteOffset":512,"target":34962},{"buffer":0,"byteLength":128,"byteOffset":576,"target":34962},{"buffer":0,"byteLength":48,"byteOffset":704,"target":34963},{"buffer":0,"byteLength":288,"byteOffset":752,"target":34962},{"buffer":0,"byteLength":288,"byteOffset":1040,"target":34962},{"buffer":0,"byteLength":192,"byteOffset":1328,"target":34962},{"buffer":0,"byteLength":96,"byteOffset":1520,"target":34962},{"buffer":0,"byteLength":192,"byteOffset":1616,"target":34962},{"buffer":0,"byteLength":72,"byteOffset":1808,"target":34963}],"samplers":[{"magFilter":9729,"minFilter":9987}],"buffers":[{"byteLength":1880,"uri":"trees_02.bin"}]}