{"asset":{"generator":"Khronos glTF Blender I/O v5.1.20","version":"2.0"},"scene":0,"scenes":[{"name":"Scene","nodes":[0]}],"nodes":[{"mesh":0,"name":"trees_01"}],"materials":[{"alphaMode":"MASK","doubleSided":true,"name":"alpine_card_Card","pbrMetallicRoughness":{"baseColorTexture":{"index":0},"metallicFactor":0,"roughnessFactor":0.949999988079071},"alphaCutoff":0.45},{"alphaMode":"MASK","doubleSided":true,"name":"alpine_card_other","pbrMetallicRoughness":{"baseColorTexture":{"index":1},"metallicFactor":0,"roughnessFactor":0.949999988079071},"alphaCutoff":0.45}],"meshes":[{"name":"Mesh","primitives":[{"attributes":{"POSITION":0,"NORMAL":1,"TEXCOORD_0":2,"COLOR_0":3,"COLOR_1":4},"indices":5,"material":0},{"attributes":{"POSITION":6,"NORMAL":7,"TEXCOORD_0":8,"COLOR_0":9,"COLOR_1":10},"indices":5,"material":1}]}],"textures":[{"sampler":0,"source":0},{"sampler":0,"source":1}],"images":[{"mimeType":"image/png","name":"alpine_card_pine04","uri":"alpine_card_pine04.png"},{"mimeType":"image/png","name":"alpine_card_treepine02","uri":"alpine_card_treepine02.png"}],"accessors":[{"bufferView":0,"componentType":5126,"count":32,"max":[8.459640502929688,13.883116722106934,4.185152530670166],"min":[-13.707176208496094,0.022482335567474365,-0.4713468551635742],"type":"VEC3"},{"bufferView":1,"componentType":5126,"count":32,"type":"VEC3"},{"bufferView":2,"componentType":5126,"count":32,"type":"VEC2"},{"bufferView":3,"componentType":5121,"count":32,"normalized":true,"type":"VEC4"},{"bufferView":4,"componentType":5123,"count":32,"normalized":true,"type":"VEC4"},{"bufferView":5,"componentType":5123,"count":48,"type":"SCALAR"},{"bufferView":6,"componentType":5126,"count":32,"max":[13.707176208496094,16.019878387451172,4.226607322692871],"min":[-9.99578857421875,0,-4.226607322692871],"type":"VEC3"},{"bufferView":7,"componentType":5126,"count":32,"type":"VEC3"},{"bufferView":8,"componentType":5126,"count":32,"type":"VEC2"},{"bufferView":9,"componentType":5121,"count":32,"normalized":true,"type":"VEC4"},{"bufferView":10,"componentType":5123,"count":32,"normalized":true,"type":"VEC4"}],"bufferViews":[{"buffer":0,"byteLength":384,"byteOffset":0,"target":34962},{"buffer":0,"byteLength":384,"byteOffset":384,"target":34962},{"buffer":0,"byteLength":256,"byteOffset":768,"target":34962},{"buffer":0,"byteLength":128,"byteOffset":1024,"target":34962},{"buffer":0,"byteLength":256,"byteOffset":1152,"target":34962},{"buffer":0,"byteLength":96,"byteOffset":1408,"target":34963},{"buffer":0,"byteLength":384,"byteOffset":1504,"target":34962},{"buffer":0,"byteLength":384,"byteOffset":1888,"target":34962},{"buffer":0,"byteLength":256,"byteOffset":2272,"target":34962},{"buffer":0,"byteLength":128,"byteOffset":2528,"target":34962},{"buffer":0,"byteLength":256,"byteOffset":2656,"target":34962}],"samplers":[{"magFilter":9729,"minFilter":9987}],"buffers":[{"byteLength":2912,"uri":"trees_01.bin"}]}