{
	"asset":{
		"generator":"Khronos glTF Blender I/O v5.1.20",
		"version":"2.0"
	},
	"scene":0,
	"scenes":[
		{
			"name":"Scene",
			"nodes":[
				0
			]
		}
	],
	"nodes":[
		{
			"mesh":0,
			"name":"vik_crate"
		}
	],
	"materials":[
		{
			"doubleSided":true,
			"name":"vik_mat",
			"pbrMetallicRoughness":{
				"baseColorTexture":{
					"index":0
				},
				"metallicFactor":0,
				"roughnessFactor":0.8999999761581421
			}
		}
	],
	"meshes":[
		{
			"name":"Mesh",
			"primitives":[
				{
					"attributes":{
						"POSITION":0,
						"NORMAL":1,
						"TEXCOORD_0":2,
						"TEXCOORD_1":3
					},
					"indices":4,
					"material":0
				}
			]
		}
	],
	"textures":[
		{
			"sampler":0,
			"source":0
		}
	],
	"images":[
		{
			"mimeType":"image/png",
			"name":"Texture_01",
			"uri":"Texture_01.png"
		}
	],
	"accessors":[
		{
			"bufferView":0,
			"componentType":5126,
			"count":942,
			"max":[
				0.6631412506103516,
				1.0344425439834595,
				0.6716480255126953
			],
			"min":[
				-0.6631412506103516,
				0,
				-0.6716480255126953
			],
			"type":"VEC3"
		},
		{
			"bufferView":1,
			"componentType":5126,
			"count":942,
			"type":"VEC3"
		},
		{
			"bufferView":2,
			"componentType":5126,
			"count":942,
			"type":"VEC2"
		},
		{
			"bufferView":3,
			"componentType":5126,
			"count":942,
			"type":"VEC2"
		},
		{
			"bufferView":4,
			"componentType":5123,
			"count":1512,
			"type":"SCALAR"
		}
	],
	"bufferViews":[
		{
			"buffer":0,
			"byteLength":11304,
			"byteOffset":0,
			"target":34962
		},
		{
			"buffer":0,
			"byteLength":11304,
			"byteOffset":11304,
			"target":34962
		},
		{
			"buffer":0,
			"byteLength":7536,
			"byteOffset":22608,
			"target":34962
		},
		{
			"buffer":0,
			"byteLength":7536,
			"byteOffset":30144,
			"target":34962
		},
		{
			"buffer":0,
			"byteLength":3024,
			"byteOffset":37680,
			"target":34963
		}
	],
	"samplers":[
		{
			"magFilter":9729,
			"minFilter":9987
		}
	],
	"buffers":[
		{
			"byteLength":40704,
			"uri":"vik_crate.bin"
		}
	]
}
