{
	"asset":{
		"generator":"Khronos glTF Blender I/O v5.1.20",
		"version":"2.0"
	},
	"scene":0,
	"scenes":[
		{
			"name":"Scene",
			"nodes":[
				0
			]
		}
	],
	"nodes":[
		{
			"mesh":0,
			"name":"vik_fur_roll"
		}
	],
	"materials":[
		{
			"doubleSided":true,
			"name":"vik_mat",
			"pbrMetallicRoughness":{
				"baseColorTexture":{
					"index":0
				},
				"metallicFactor":0,
				"roughnessFactor":0.8999999761581421
			}
		}
	],
	"meshes":[
		{
			"name":"Mesh",
			"primitives":[
				{
					"attributes":{
						"POSITION":0,
						"NORMAL":1,
						"TEXCOORD_0":2,
						"TEXCOORD_1":3
					},
					"indices":4,
					"material":0
				}
			]
		}
	],
	"textures":[
		{
			"sampler":0,
			"source":0
		}
	],
	"images":[
		{
			"mimeType":"image/png",
			"name":"Texture_01",
			"uri":"Texture_01.png"
		}
	],
	"accessors":[
		{
			"bufferView":0,
			"componentType":5126,
			"count":1054,
			"max":[
				0.620636522769928,
				0.675167441368103,
				0.3210626244544983
			],
			"min":[
				-0.6206364035606384,
				-9.936055613262579e-14,
				-0.3210615813732147
			],
			"type":"VEC3"
		},
		{
			"bufferView":1,
			"componentType":5126,
			"count":1054,
			"type":"VEC3"
		},
		{
			"bufferView":2,
			"componentType":5126,
			"count":1054,
			"type":"VEC2"
		},
		{
			"bufferView":3,
			"componentType":5126,
			"count":1054,
			"type":"VEC2"
		},
		{
			"bufferView":4,
			"componentType":5123,
			"count":1200,
			"type":"SCALAR"
		}
	],
	"bufferViews":[
		{
			"buffer":0,
			"byteLength":12648,
			"byteOffset":0,
			"target":34962
		},
		{
			"buffer":0,
			"byteLength":12648,
			"byteOffset":12648,
			"target":34962
		},
		{
			"buffer":0,
			"byteLength":8432,
			"byteOffset":25296,
			"target":34962
		},
		{
			"buffer":0,
			"byteLength":8432,
			"byteOffset":33728,
			"target":34962
		},
		{
			"buffer":0,
			"byteLength":2400,
			"byteOffset":42160,
			"target":34963
		}
	],
	"samplers":[
		{
			"magFilter":9729,
			"minFilter":9987
		}
	],
	"buffers":[
		{
			"byteLength":44560,
			"uri":"vik_fur_roll.bin"
		}
	]
}
