{
	"asset":{
		"generator":"Khronos glTF Blender I/O v5.1.20",
		"version":"2.0"
	},
	"scene":0,
	"scenes":[
		{
			"name":"Scene",
			"nodes":[
				0
			]
		}
	],
	"nodes":[
		{
			"mesh":0,
			"name":"vik_wagon"
		}
	],
	"materials":[
		{
			"doubleSided":true,
			"name":"vik_mat",
			"pbrMetallicRoughness":{
				"baseColorTexture":{
					"index":0
				},
				"metallicFactor":0,
				"roughnessFactor":0.8999999761581421
			}
		}
	],
	"meshes":[
		{
			"name":"Mesh",
			"primitives":[
				{
					"attributes":{
						"POSITION":0,
						"NORMAL":1,
						"TEXCOORD_0":2,
						"TEXCOORD_1":3
					},
					"indices":4,
					"material":0
				}
			]
		}
	],
	"textures":[
		{
			"sampler":0,
			"source":0
		}
	],
	"images":[
		{
			"mimeType":"image/png",
			"name":"Texture_01",
			"uri":"Texture_01.png"
		}
	],
	"accessors":[
		{
			"bufferView":0,
			"componentType":5126,
			"count":3825,
			"max":[
				0.7672273516654968,
				1.1048163175582886,
				1.5126091241836548
			],
			"min":[
				-0.7672273516654968,
				0,
				-1.5126091241836548
			],
			"type":"VEC3"
		},
		{
			"bufferView":1,
			"componentType":5126,
			"count":3825,
			"type":"VEC3"
		},
		{
			"bufferView":2,
			"componentType":5126,
			"count":3825,
			"type":"VEC2"
		},
		{
			"bufferView":3,
			"componentType":5126,
			"count":3825,
			"type":"VEC2"
		},
		{
			"bufferView":4,
			"componentType":5123,
			"count":6372,
			"type":"SCALAR"
		}
	],
	"bufferViews":[
		{
			"buffer":0,
			"byteLength":45900,
			"byteOffset":0,
			"target":34962
		},
		{
			"buffer":0,
			"byteLength":45900,
			"byteOffset":45900,
			"target":34962
		},
		{
			"buffer":0,
			"byteLength":30600,
			"byteOffset":91800,
			"target":34962
		},
		{
			"buffer":0,
			"byteLength":30600,
			"byteOffset":122400,
			"target":34962
		},
		{
			"buffer":0,
			"byteLength":12744,
			"byteOffset":153000,
			"target":34963
		}
	],
	"samplers":[
		{
			"magFilter":9729,
			"minFilter":9987
		}
	],
	"buffers":[
		{
			"byteLength":165744,
			"uri":"vik_wagon.bin"
		}
	]
}
