{
	"asset":{
		"generator":"Khronos glTF Blender I/O v5.1.20",
		"version":"2.0"
	},
	"scene":0,
	"scenes":[
		{
			"name":"Scene",
			"nodes":[
				0
			]
		}
	],
	"nodes":[
		{
			"mesh":0,
			"name":"vik_torch"
		}
	],
	"materials":[
		{
			"doubleSided":true,
			"name":"vik_mat",
			"pbrMetallicRoughness":{
				"baseColorTexture":{
					"index":0
				},
				"metallicFactor":0,
				"roughnessFactor":0.8999999761581421
			}
		}
	],
	"meshes":[
		{
			"name":"Mesh",
			"primitives":[
				{
					"attributes":{
						"POSITION":0,
						"NORMAL":1,
						"TEXCOORD_0":2,
						"TEXCOORD_1":3
					},
					"indices":4,
					"material":0
				}
			]
		}
	],
	"textures":[
		{
			"sampler":0,
			"source":0
		}
	],
	"images":[
		{
			"mimeType":"image/png",
			"name":"Texture_01",
			"uri":"Texture_01.png"
		}
	],
	"accessors":[
		{
			"bufferView":0,
			"componentType":5126,
			"count":599,
			"max":[
				0.05535297468304634,
				1.344419002532959,
				0.05938369035720825
			],
			"min":[
				-0.05535297468304634,
				0,
				-0.05938369035720825
			],
			"type":"VEC3"
		},
		{
			"bufferView":1,
			"componentType":5126,
			"count":599,
			"type":"VEC3"
		},
		{
			"bufferView":2,
			"componentType":5126,
			"count":599,
			"type":"VEC2"
		},
		{
			"bufferView":3,
			"componentType":5126,
			"count":599,
			"type":"VEC2"
		},
		{
			"bufferView":4,
			"componentType":5123,
			"count":660,
			"type":"SCALAR"
		}
	],
	"bufferViews":[
		{
			"buffer":0,
			"byteLength":7188,
			"byteOffset":0,
			"target":34962
		},
		{
			"buffer":0,
			"byteLength":7188,
			"byteOffset":7188,
			"target":34962
		},
		{
			"buffer":0,
			"byteLength":4792,
			"byteOffset":14376,
			"target":34962
		},
		{
			"buffer":0,
			"byteLength":4792,
			"byteOffset":19168,
			"target":34962
		},
		{
			"buffer":0,
			"byteLength":1320,
			"byteOffset":23960,
			"target":34963
		}
	],
	"samplers":[
		{
			"magFilter":9729,
			"minFilter":9987
		}
	],
	"buffers":[
		{
			"byteLength":25280,
			"uri":"vik_torch.bin"
		}
	]
}
