{
	"asset":{
		"generator":"Khronos glTF Blender I/O v5.1.20",
		"version":"2.0"
	},
	"scene":0,
	"scenes":[
		{
			"name":"Scene",
			"nodes":[
				0
			]
		}
	],
	"nodes":[
		{
			"mesh":0,
			"name":"vik_boat_head"
		}
	],
	"materials":[
		{
			"doubleSided":true,
			"name":"vik_mat",
			"pbrMetallicRoughness":{
				"baseColorTexture":{
					"index":0
				},
				"metallicFactor":0,
				"roughnessFactor":0.8999999761581421
			}
		}
	],
	"meshes":[
		{
			"name":"Mesh",
			"primitives":[
				{
					"attributes":{
						"POSITION":0,
						"NORMAL":1,
						"TEXCOORD_0":2,
						"TEXCOORD_1":3
					},
					"indices":4,
					"material":0
				}
			]
		}
	],
	"textures":[
		{
			"sampler":0,
			"source":0
		}
	],
	"images":[
		{
			"mimeType":"image/png",
			"name":"Texture_01",
			"uri":"Texture_01.png"
		}
	],
	"accessors":[
		{
			"bufferView":0,
			"componentType":5126,
			"count":1380,
			"max":[
				0.20615386962890625,
				2.05515718460083,
				0.6332540512084961
			],
			"min":[
				-0.20615386962890625,
				0,
				-0.6332545280456543
			],
			"type":"VEC3"
		},
		{
			"bufferView":1,
			"componentType":5126,
			"count":1380,
			"type":"VEC3"
		},
		{
			"bufferView":2,
			"componentType":5126,
			"count":1380,
			"type":"VEC2"
		},
		{
			"bufferView":3,
			"componentType":5126,
			"count":1380,
			"type":"VEC2"
		},
		{
			"bufferView":4,
			"componentType":5123,
			"count":1932,
			"type":"SCALAR"
		}
	],
	"bufferViews":[
		{
			"buffer":0,
			"byteLength":16560,
			"byteOffset":0,
			"target":34962
		},
		{
			"buffer":0,
			"byteLength":16560,
			"byteOffset":16560,
			"target":34962
		},
		{
			"buffer":0,
			"byteLength":11040,
			"byteOffset":33120,
			"target":34962
		},
		{
			"buffer":0,
			"byteLength":11040,
			"byteOffset":44160,
			"target":34962
		},
		{
			"buffer":0,
			"byteLength":3864,
			"byteOffset":55200,
			"target":34963
		}
	],
	"samplers":[
		{
			"magFilter":9729,
			"minFilter":9987
		}
	],
	"buffers":[
		{
			"byteLength":59064,
			"uri":"vik_boat_head.bin"
		}
	]
}
