{
	"asset":{
		"generator":"Khronos glTF Blender I/O v5.1.20",
		"version":"2.0"
	},
	"scene":0,
	"scenes":[
		{
			"name":"Scene",
			"nodes":[
				0
			]
		}
	],
	"nodes":[
		{
			"mesh":0,
			"name":"vik_glacier_a"
		}
	],
	"materials":[
		{
			"doubleSided":true,
			"name":"vik_mat",
			"pbrMetallicRoughness":{
				"baseColorTexture":{
					"index":0
				},
				"metallicFactor":0,
				"roughnessFactor":0.8999999761581421
			}
		}
	],
	"meshes":[
		{
			"name":"Mesh",
			"primitives":[
				{
					"attributes":{
						"POSITION":0,
						"NORMAL":1,
						"TEXCOORD_0":2,
						"TEXCOORD_1":3
					},
					"indices":4,
					"material":0
				}
			]
		}
	],
	"textures":[
		{
			"sampler":0,
			"source":0
		}
	],
	"images":[
		{
			"mimeType":"image/png",
			"name":"Texture_01",
			"uri":"Texture_01.png"
		}
	],
	"accessors":[
		{
			"bufferView":0,
			"componentType":5126,
			"count":2388,
			"max":[
				4.790892124176025,
				4.402101039886475,
				3.3056907653808594
			],
			"min":[
				-4.790892124176025,
				2.0060845429270557e-07,
				-3.3056907653808594
			],
			"type":"VEC3"
		},
		{
			"bufferView":1,
			"componentType":5126,
			"count":2388,
			"type":"VEC3"
		},
		{
			"bufferView":2,
			"componentType":5126,
			"count":2388,
			"type":"VEC2"
		},
		{
			"bufferView":3,
			"componentType":5126,
			"count":2388,
			"type":"VEC2"
		},
		{
			"bufferView":4,
			"componentType":5123,
			"count":2454,
			"type":"SCALAR"
		}
	],
	"bufferViews":[
		{
			"buffer":0,
			"byteLength":28656,
			"byteOffset":0,
			"target":34962
		},
		{
			"buffer":0,
			"byteLength":28656,
			"byteOffset":28656,
			"target":34962
		},
		{
			"buffer":0,
			"byteLength":19104,
			"byteOffset":57312,
			"target":34962
		},
		{
			"buffer":0,
			"byteLength":19104,
			"byteOffset":76416,
			"target":34962
		},
		{
			"buffer":0,
			"byteLength":4908,
			"byteOffset":95520,
			"target":34963
		}
	],
	"samplers":[
		{
			"magFilter":9729,
			"minFilter":9987
		}
	],
	"buffers":[
		{
			"byteLength":100428,
			"uri":"vik_glacier_a.bin"
		}
	]
}
