{
	"asset":{
		"generator":"Khronos glTF Blender I/O v5.1.20",
		"version":"2.0"
	},
	"scene":0,
	"scenes":[
		{
			"name":"Scene",
			"nodes":[
				0
			]
		}
	],
	"nodes":[
		{
			"mesh":0,
			"name":"vik_anvil"
		}
	],
	"materials":[
		{
			"doubleSided":true,
			"name":"vik_mat",
			"pbrMetallicRoughness":{
				"baseColorTexture":{
					"index":0
				},
				"metallicFactor":0,
				"roughnessFactor":0.8999999761581421
			}
		}
	],
	"meshes":[
		{
			"name":"Mesh",
			"primitives":[
				{
					"attributes":{
						"POSITION":0,
						"NORMAL":1,
						"TEXCOORD_0":2,
						"TEXCOORD_1":3
					},
					"indices":4,
					"material":0
				}
			]
		}
	],
	"textures":[
		{
			"sampler":0,
			"source":0
		}
	],
	"images":[
		{
			"mimeType":"image/png",
			"name":"Texture_01",
			"uri":"Texture_01.png"
		}
	],
	"accessors":[
		{
			"bufferView":0,
			"componentType":5126,
			"count":327,
			"max":[
				0.35921263694763184,
				0.7246531844139099,
				0.34423160552978516
			],
			"min":[
				-0.35921263694763184,
				0,
				-0.34423160552978516
			],
			"type":"VEC3"
		},
		{
			"bufferView":1,
			"componentType":5126,
			"count":327,
			"type":"VEC3"
		},
		{
			"bufferView":2,
			"componentType":5126,
			"count":327,
			"type":"VEC2"
		},
		{
			"bufferView":3,
			"componentType":5126,
			"count":327,
			"type":"VEC2"
		},
		{
			"bufferView":4,
			"componentType":5123,
			"count":408,
			"type":"SCALAR"
		}
	],
	"bufferViews":[
		{
			"buffer":0,
			"byteLength":3924,
			"byteOffset":0,
			"target":34962
		},
		{
			"buffer":0,
			"byteLength":3924,
			"byteOffset":3924,
			"target":34962
		},
		{
			"buffer":0,
			"byteLength":2616,
			"byteOffset":7848,
			"target":34962
		},
		{
			"buffer":0,
			"byteLength":2616,
			"byteOffset":10464,
			"target":34962
		},
		{
			"buffer":0,
			"byteLength":816,
			"byteOffset":13080,
			"target":34963
		}
	],
	"samplers":[
		{
			"magFilter":9729,
			"minFilter":9987
		}
	],
	"buffers":[
		{
			"byteLength":13896,
			"uri":"vik_anvil.bin"
		}
	]
}
