{
	"asset":{
		"generator":"Khronos glTF Blender I/O v5.1.20",
		"version":"2.0"
	},
	"scene":0,
	"scenes":[
		{
			"name":"Scene",
			"nodes":[
				0
			]
		}
	],
	"nodes":[
		{
			"mesh":0,
			"name":"vik_logs"
		}
	],
	"materials":[
		{
			"doubleSided":true,
			"name":"vik_mat",
			"pbrMetallicRoughness":{
				"baseColorTexture":{
					"index":0
				},
				"metallicFactor":0,
				"roughnessFactor":0.8999999761581421
			}
		}
	],
	"meshes":[
		{
			"name":"Mesh",
			"primitives":[
				{
					"attributes":{
						"POSITION":0,
						"NORMAL":1,
						"TEXCOORD_0":2,
						"TEXCOORD_1":3
					},
					"indices":4,
					"material":0
				}
			]
		}
	],
	"textures":[
		{
			"sampler":0,
			"source":0
		}
	],
	"images":[
		{
			"mimeType":"image/png",
			"name":"Texture_01",
			"uri":"Texture_01.png"
		}
	],
	"accessors":[
		{
			"bufferView":0,
			"componentType":5126,
			"count":2944,
			"max":[
				0.5663003921508789,
				1.0094789266586304,
				0.8384919166564941
			],
			"min":[
				-0.5663003921508789,
				0,
				-0.8384919166564941
			],
			"type":"VEC3"
		},
		{
			"bufferView":1,
			"componentType":5126,
			"count":2944,
			"type":"VEC3"
		},
		{
			"bufferView":2,
			"componentType":5126,
			"count":2944,
			"type":"VEC2"
		},
		{
			"bufferView":3,
			"componentType":5126,
			"count":2944,
			"type":"VEC2"
		},
		{
			"bufferView":4,
			"componentType":5123,
			"count":3552,
			"type":"SCALAR"
		}
	],
	"bufferViews":[
		{
			"buffer":0,
			"byteLength":35328,
			"byteOffset":0,
			"target":34962
		},
		{
			"buffer":0,
			"byteLength":35328,
			"byteOffset":35328,
			"target":34962
		},
		{
			"buffer":0,
			"byteLength":23552,
			"byteOffset":70656,
			"target":34962
		},
		{
			"buffer":0,
			"byteLength":23552,
			"byteOffset":94208,
			"target":34962
		},
		{
			"buffer":0,
			"byteLength":7104,
			"byteOffset":117760,
			"target":34963
		}
	],
	"samplers":[
		{
			"magFilter":9729,
			"minFilter":9987
		}
	],
	"buffers":[
		{
			"byteLength":124864,
			"uri":"vik_logs.bin"
		}
	]
}
