{
	"asset":{
		"generator":"Khronos glTF Blender I/O v5.1.20",
		"version":"2.0"
	},
	"scene":0,
	"scenes":[
		{
			"name":"Scene",
			"nodes":[
				0
			]
		}
	],
	"nodes":[
		{
			"mesh":0,
			"name":"vik_flag"
		}
	],
	"materials":[
		{
			"doubleSided":true,
			"name":"vik_mat",
			"pbrMetallicRoughness":{
				"baseColorTexture":{
					"index":0
				},
				"metallicFactor":0,
				"roughnessFactor":0.8999999761581421
			}
		}
	],
	"meshes":[
		{
			"name":"Mesh",
			"primitives":[
				{
					"attributes":{
						"POSITION":0,
						"NORMAL":1,
						"TEXCOORD_0":2,
						"TEXCOORD_1":3
					},
					"indices":4,
					"material":0
				}
			]
		}
	],
	"textures":[
		{
			"sampler":0,
			"source":0
		}
	],
	"images":[
		{
			"mimeType":"image/png",
			"name":"Texture_01",
			"uri":"Texture_01.png"
		}
	],
	"accessors":[
		{
			"bufferView":0,
			"componentType":5126,
			"count":1712,
			"max":[
				0.3569037914276123,
				4.887443542480469,
				0.7416662573814392
			],
			"min":[
				-0.3569037914276123,
				0,
				-0.7416662573814392
			],
			"type":"VEC3"
		},
		{
			"bufferView":1,
			"componentType":5126,
			"count":1712,
			"type":"VEC3"
		},
		{
			"bufferView":2,
			"componentType":5126,
			"count":1712,
			"type":"VEC2"
		},
		{
			"bufferView":3,
			"componentType":5126,
			"count":1712,
			"type":"VEC2"
		},
		{
			"bufferView":4,
			"componentType":5123,
			"count":2364,
			"type":"SCALAR"
		}
	],
	"bufferViews":[
		{
			"buffer":0,
			"byteLength":20544,
			"byteOffset":0,
			"target":34962
		},
		{
			"buffer":0,
			"byteLength":20544,
			"byteOffset":20544,
			"target":34962
		},
		{
			"buffer":0,
			"byteLength":13696,
			"byteOffset":41088,
			"target":34962
		},
		{
			"buffer":0,
			"byteLength":13696,
			"byteOffset":54784,
			"target":34962
		},
		{
			"buffer":0,
			"byteLength":4728,
			"byteOffset":68480,
			"target":34963
		}
	],
	"samplers":[
		{
			"magFilter":9729,
			"minFilter":9987
		}
	],
	"buffers":[
		{
			"byteLength":73208,
			"uri":"vik_flag.bin"
		}
	]
}
