{
	"asset":{
		"generator":"Khronos glTF Blender I/O v5.1.20",
		"version":"2.0"
	},
	"scene":0,
	"scenes":[
		{
			"name":"Scene",
			"nodes":[
				0
			]
		}
	],
	"nodes":[
		{
			"mesh":0,
			"name":"vik_fire_ring"
		}
	],
	"materials":[
		{
			"doubleSided":true,
			"name":"vik_mat",
			"pbrMetallicRoughness":{
				"baseColorTexture":{
					"index":0
				},
				"metallicFactor":0,
				"roughnessFactor":0.8999999761581421
			}
		}
	],
	"meshes":[
		{
			"name":"Mesh",
			"primitives":[
				{
					"attributes":{
						"POSITION":0,
						"NORMAL":1,
						"TEXCOORD_0":2,
						"TEXCOORD_1":3
					},
					"indices":4,
					"material":0
				}
			]
		}
	],
	"textures":[
		{
			"sampler":0,
			"source":0
		}
	],
	"images":[
		{
			"mimeType":"image/png",
			"name":"Texture_01",
			"uri":"Texture_01.png"
		}
	],
	"accessors":[
		{
			"bufferView":0,
			"componentType":5126,
			"count":1166,
			"max":[
				1.299260139465332,
				1.0464729070663452,
				1.2876968383789062
			],
			"min":[
				-1.299260139465332,
				0,
				-1.2876968383789062
			],
			"type":"VEC3"
		},
		{
			"bufferView":1,
			"componentType":5126,
			"count":1166,
			"type":"VEC3"
		},
		{
			"bufferView":2,
			"componentType":5126,
			"count":1166,
			"type":"VEC2"
		},
		{
			"bufferView":3,
			"componentType":5126,
			"count":1166,
			"type":"VEC2"
		},
		{
			"bufferView":4,
			"componentType":5123,
			"count":1368,
			"type":"SCALAR"
		}
	],
	"bufferViews":[
		{
			"buffer":0,
			"byteLength":13992,
			"byteOffset":0,
			"target":34962
		},
		{
			"buffer":0,
			"byteLength":13992,
			"byteOffset":13992,
			"target":34962
		},
		{
			"buffer":0,
			"byteLength":9328,
			"byteOffset":27984,
			"target":34962
		},
		{
			"buffer":0,
			"byteLength":9328,
			"byteOffset":37312,
			"target":34962
		},
		{
			"buffer":0,
			"byteLength":2736,
			"byteOffset":46640,
			"target":34963
		}
	],
	"samplers":[
		{
			"magFilter":9729,
			"minFilter":9987
		}
	],
	"buffers":[
		{
			"byteLength":49376,
			"uri":"vik_fire_ring.bin"
		}
	]
}
