{
	"asset":{
		"generator":"Khronos glTF Blender I/O v5.1.20",
		"version":"2.0"
	},
	"scene":0,
	"scenes":[
		{
			"name":"Scene",
			"nodes":[
				0
			]
		}
	],
	"nodes":[
		{
			"mesh":0,
			"name":"vik_tower"
		}
	],
	"materials":[
		{
			"doubleSided":true,
			"name":"vik_mat",
			"pbrMetallicRoughness":{
				"baseColorTexture":{
					"index":0
				},
				"metallicFactor":0,
				"roughnessFactor":0.8999999761581421
			}
		}
	],
	"meshes":[
		{
			"name":"Mesh",
			"primitives":[
				{
					"attributes":{
						"POSITION":0,
						"NORMAL":1,
						"TEXCOORD_0":2,
						"TEXCOORD_1":3
					},
					"indices":4,
					"material":0
				}
			]
		}
	],
	"textures":[
		{
			"sampler":0,
			"source":0
		}
	],
	"images":[
		{
			"mimeType":"image/png",
			"name":"Texture_01",
			"uri":"Texture_01.png"
		}
	],
	"accessors":[
		{
			"bufferView":0,
			"componentType":5126,
			"count":13699,
			"max":[
				1.807172179222107,
				8.016767501831055,
				1.8025749921798706
			],
			"min":[
				-1.807173252105713,
				-1.3609049176466215e-07,
				-1.8025732040405273
			],
			"type":"VEC3"
		},
		{
			"bufferView":1,
			"componentType":5126,
			"count":13699,
			"type":"VEC3"
		},
		{
			"bufferView":2,
			"componentType":5126,
			"count":13699,
			"type":"VEC2"
		},
		{
			"bufferView":3,
			"componentType":5126,
			"count":13699,
			"type":"VEC2"
		},
		{
			"bufferView":4,
			"componentType":5123,
			"count":20712,
			"type":"SCALAR"
		}
	],
	"bufferViews":[
		{
			"buffer":0,
			"byteLength":164388,
			"byteOffset":0,
			"target":34962
		},
		{
			"buffer":0,
			"byteLength":164388,
			"byteOffset":164388,
			"target":34962
		},
		{
			"buffer":0,
			"byteLength":109592,
			"byteOffset":328776,
			"target":34962
		},
		{
			"buffer":0,
			"byteLength":109592,
			"byteOffset":438368,
			"target":34962
		},
		{
			"buffer":0,
			"byteLength":41424,
			"byteOffset":547960,
			"target":34963
		}
	],
	"samplers":[
		{
			"magFilter":9729,
			"minFilter":9987
		}
	],
	"buffers":[
		{
			"byteLength":589384,
			"uri":"vik_tower.bin"
		}
	]
}
