{
	"asset":{
		"generator":"Khronos glTF Blender I/O v5.1.20",
		"version":"2.0"
	},
	"scene":0,
	"scenes":[
		{
			"name":"Scene",
			"nodes":[
				0
			]
		}
	],
	"nodes":[
		{
			"mesh":0,
			"name":"vik_barrel"
		}
	],
	"materials":[
		{
			"doubleSided":true,
			"name":"vik_mat",
			"pbrMetallicRoughness":{
				"baseColorTexture":{
					"index":0
				},
				"metallicFactor":0,
				"roughnessFactor":0.8999999761581421
			}
		}
	],
	"meshes":[
		{
			"name":"Mesh",
			"primitives":[
				{
					"attributes":{
						"POSITION":0,
						"NORMAL":1,
						"TEXCOORD_0":2,
						"TEXCOORD_1":3
					},
					"indices":4,
					"material":0
				}
			]
		}
	],
	"textures":[
		{
			"sampler":0,
			"source":0
		}
	],
	"images":[
		{
			"mimeType":"image/png",
			"name":"Texture_01",
			"uri":"Texture_01.png"
		}
	],
	"accessors":[
		{
			"bufferView":0,
			"componentType":5126,
			"count":1241,
			"max":[
				0.42126262187957764,
				0.5001726150512695,
				0.4212663769721985
			],
			"min":[
				-0.42126262187957764,
				0,
				-0.4212663769721985
			],
			"type":"VEC3"
		},
		{
			"bufferView":1,
			"componentType":5126,
			"count":1241,
			"type":"VEC3"
		},
		{
			"bufferView":2,
			"componentType":5126,
			"count":1241,
			"type":"VEC2"
		},
		{
			"bufferView":3,
			"componentType":5126,
			"count":1241,
			"type":"VEC2"
		},
		{
			"bufferView":4,
			"componentType":5123,
			"count":1926,
			"type":"SCALAR"
		}
	],
	"bufferViews":[
		{
			"buffer":0,
			"byteLength":14892,
			"byteOffset":0,
			"target":34962
		},
		{
			"buffer":0,
			"byteLength":14892,
			"byteOffset":14892,
			"target":34962
		},
		{
			"buffer":0,
			"byteLength":9928,
			"byteOffset":29784,
			"target":34962
		},
		{
			"buffer":0,
			"byteLength":9928,
			"byteOffset":39712,
			"target":34962
		},
		{
			"buffer":0,
			"byteLength":3852,
			"byteOffset":49640,
			"target":34963
		}
	],
	"samplers":[
		{
			"magFilter":9729,
			"minFilter":9987
		}
	],
	"buffers":[
		{
			"byteLength":53492,
			"uri":"vik_barrel.bin"
		}
	]
}
