{
	"asset":{
		"generator":"Khronos glTF Blender I/O v5.1.20",
		"version":"2.0"
	},
	"scene":0,
	"scenes":[
		{
			"name":"Scene",
			"nodes":[
				0
			]
		}
	],
	"nodes":[
		{
			"mesh":0,
			"name":"vik_glacier_c"
		}
	],
	"materials":[
		{
			"doubleSided":true,
			"name":"vik_mat",
			"pbrMetallicRoughness":{
				"baseColorTexture":{
					"index":0
				},
				"metallicFactor":0,
				"roughnessFactor":0.8999999761581421
			}
		}
	],
	"meshes":[
		{
			"name":"Mesh",
			"primitives":[
				{
					"attributes":{
						"POSITION":0,
						"NORMAL":1,
						"TEXCOORD_0":2,
						"TEXCOORD_1":3
					},
					"indices":4,
					"material":0
				}
			]
		}
	],
	"textures":[
		{
			"sampler":0,
			"source":0
		}
	],
	"images":[
		{
			"mimeType":"image/png",
			"name":"Texture_01",
			"uri":"Texture_01.png"
		}
	],
	"accessors":[
		{
			"bufferView":0,
			"componentType":5126,
			"count":678,
			"max":[
				1.6570358276367188,
				6.386738300323486,
				1.964179277420044
			],
			"min":[
				-1.6570358276367188,
				0,
				-1.964179277420044
			],
			"type":"VEC3"
		},
		{
			"bufferView":1,
			"componentType":5126,
			"count":678,
			"type":"VEC3"
		},
		{
			"bufferView":2,
			"componentType":5126,
			"count":678,
			"type":"VEC2"
		},
		{
			"bufferView":3,
			"componentType":5126,
			"count":678,
			"type":"VEC2"
		},
		{
			"bufferView":4,
			"componentType":5123,
			"count":690,
			"type":"SCALAR"
		}
	],
	"bufferViews":[
		{
			"buffer":0,
			"byteLength":8136,
			"byteOffset":0,
			"target":34962
		},
		{
			"buffer":0,
			"byteLength":8136,
			"byteOffset":8136,
			"target":34962
		},
		{
			"buffer":0,
			"byteLength":5424,
			"byteOffset":16272,
			"target":34962
		},
		{
			"buffer":0,
			"byteLength":5424,
			"byteOffset":21696,
			"target":34962
		},
		{
			"buffer":0,
			"byteLength":1380,
			"byteOffset":27120,
			"target":34963
		}
	],
	"samplers":[
		{
			"magFilter":9729,
			"minFilter":9987
		}
	],
	"buffers":[
		{
			"byteLength":28500,
			"uri":"vik_glacier_c.bin"
		}
	]
}
