{
	"asset":{
		"generator":"Khronos glTF Blender I/O v5.1.20",
		"version":"2.0"
	},
	"scene":0,
	"scenes":[
		{
			"name":"Scene",
			"nodes":[
				0
			]
		}
	],
	"nodes":[
		{
			"mesh":0,
			"name":"vik_archway"
		}
	],
	"materials":[
		{
			"doubleSided":true,
			"name":"vik_mat",
			"pbrMetallicRoughness":{
				"baseColorTexture":{
					"index":0
				},
				"metallicFactor":0,
				"roughnessFactor":0.8999999761581421
			}
		}
	],
	"meshes":[
		{
			"name":"Mesh",
			"primitives":[
				{
					"attributes":{
						"POSITION":0,
						"NORMAL":1,
						"TEXCOORD_0":2,
						"TEXCOORD_1":3
					},
					"indices":4,
					"material":0
				}
			]
		}
	],
	"textures":[
		{
			"sampler":0,
			"source":0
		}
	],
	"images":[
		{
			"mimeType":"image/png",
			"name":"Texture_01",
			"uri":"Texture_01.png"
		}
	],
	"accessors":[
		{
			"bufferView":0,
			"componentType":5126,
			"count":1086,
			"max":[
				1.6985998153686523,
				2.951927661895752,
				0.18169867992401123
			],
			"min":[
				-1.6985998153686523,
				0,
				-0.18169867992401123
			],
			"type":"VEC3"
		},
		{
			"bufferView":1,
			"componentType":5126,
			"count":1086,
			"type":"VEC3"
		},
		{
			"bufferView":2,
			"componentType":5126,
			"count":1086,
			"type":"VEC2"
		},
		{
			"bufferView":3,
			"componentType":5126,
			"count":1086,
			"type":"VEC2"
		},
		{
			"bufferView":4,
			"componentType":5123,
			"count":1560,
			"type":"SCALAR"
		}
	],
	"bufferViews":[
		{
			"buffer":0,
			"byteLength":13032,
			"byteOffset":0,
			"target":34962
		},
		{
			"buffer":0,
			"byteLength":13032,
			"byteOffset":13032,
			"target":34962
		},
		{
			"buffer":0,
			"byteLength":8688,
			"byteOffset":26064,
			"target":34962
		},
		{
			"buffer":0,
			"byteLength":8688,
			"byteOffset":34752,
			"target":34962
		},
		{
			"buffer":0,
			"byteLength":3120,
			"byteOffset":43440,
			"target":34963
		}
	],
	"samplers":[
		{
			"magFilter":9729,
			"minFilter":9987
		}
	],
	"buffers":[
		{
			"byteLength":46560,
			"uri":"vik_archway.bin"
		}
	]
}
