{
	"asset":{
		"generator":"Khronos glTF Blender I/O v5.1.20",
		"version":"2.0"
	},
	"scene":0,
	"scenes":[
		{
			"name":"Scene",
			"nodes":[
				0
			]
		}
	],
	"nodes":[
		{
			"mesh":0,
			"name":"vik_spikes"
		}
	],
	"materials":[
		{
			"doubleSided":true,
			"name":"vik_mat",
			"pbrMetallicRoughness":{
				"baseColorTexture":{
					"index":0
				},
				"metallicFactor":0,
				"roughnessFactor":0.8999999761581421
			}
		}
	],
	"meshes":[
		{
			"name":"Mesh",
			"primitives":[
				{
					"attributes":{
						"POSITION":0,
						"NORMAL":1,
						"TEXCOORD_0":2,
						"TEXCOORD_1":3
					},
					"indices":4,
					"material":0
				}
			]
		}
	],
	"textures":[
		{
			"sampler":0,
			"source":0
		}
	],
	"images":[
		{
			"mimeType":"image/png",
			"name":"Texture_01",
			"uri":"Texture_01.png"
		}
	],
	"accessors":[
		{
			"bufferView":0,
			"componentType":5126,
			"count":153,
			"max":[
				0.07002682238817215,
				2.384638786315918,
				0.08250100165605545
			],
			"min":[
				-0.07002682238817215,
				0,
				-0.08250100165605545
			],
			"type":"VEC3"
		},
		{
			"bufferView":1,
			"componentType":5126,
			"count":153,
			"type":"VEC3"
		},
		{
			"bufferView":2,
			"componentType":5126,
			"count":153,
			"type":"VEC2"
		},
		{
			"bufferView":3,
			"componentType":5126,
			"count":153,
			"type":"VEC2"
		},
		{
			"bufferView":4,
			"componentType":5123,
			"count":210,
			"type":"SCALAR"
		}
	],
	"bufferViews":[
		{
			"buffer":0,
			"byteLength":1836,
			"byteOffset":0,
			"target":34962
		},
		{
			"buffer":0,
			"byteLength":1836,
			"byteOffset":1836,
			"target":34962
		},
		{
			"buffer":0,
			"byteLength":1224,
			"byteOffset":3672,
			"target":34962
		},
		{
			"buffer":0,
			"byteLength":1224,
			"byteOffset":4896,
			"target":34962
		},
		{
			"buffer":0,
			"byteLength":420,
			"byteOffset":6120,
			"target":34963
		}
	],
	"samplers":[
		{
			"magFilter":9729,
			"minFilter":9987
		}
	],
	"buffers":[
		{
			"byteLength":6540,
			"uri":"vik_spikes.bin"
		}
	]
}
