{
	"asset":{
		"generator":"Khronos glTF Blender I/O v5.1.20",
		"version":"2.0"
	},
	"scene":0,
	"scenes":[
		{
			"name":"Scene",
			"nodes":[
				0
			]
		}
	],
	"nodes":[
		{
			"mesh":0,
			"name":"vik_bench"
		}
	],
	"materials":[
		{
			"doubleSided":true,
			"name":"vik_mat",
			"pbrMetallicRoughness":{
				"baseColorTexture":{
					"index":0
				},
				"metallicFactor":0,
				"roughnessFactor":0.8999999761581421
			}
		}
	],
	"meshes":[
		{
			"name":"Mesh",
			"primitives":[
				{
					"attributes":{
						"POSITION":0,
						"NORMAL":1,
						"TEXCOORD_0":2,
						"TEXCOORD_1":3
					},
					"indices":4,
					"material":0
				}
			]
		}
	],
	"textures":[
		{
			"sampler":0,
			"source":0
		}
	],
	"images":[
		{
			"mimeType":"image/png",
			"name":"Texture_01",
			"uri":"Texture_01.png"
		}
	],
	"accessors":[
		{
			"bufferView":0,
			"componentType":5126,
			"count":628,
			"max":[
				1.1882853507995605,
				0.4146610498428345,
				0.26460739970207214
			],
			"min":[
				-1.1882848739624023,
				-1.763356038964048e-08,
				-0.2646074593067169
			],
			"type":"VEC3"
		},
		{
			"bufferView":1,
			"componentType":5126,
			"count":628,
			"type":"VEC3"
		},
		{
			"bufferView":2,
			"componentType":5126,
			"count":628,
			"type":"VEC2"
		},
		{
			"bufferView":3,
			"componentType":5126,
			"count":628,
			"type":"VEC2"
		},
		{
			"bufferView":4,
			"componentType":5123,
			"count":1008,
			"type":"SCALAR"
		}
	],
	"bufferViews":[
		{
			"buffer":0,
			"byteLength":7536,
			"byteOffset":0,
			"target":34962
		},
		{
			"buffer":0,
			"byteLength":7536,
			"byteOffset":7536,
			"target":34962
		},
		{
			"buffer":0,
			"byteLength":5024,
			"byteOffset":15072,
			"target":34962
		},
		{
			"buffer":0,
			"byteLength":5024,
			"byteOffset":20096,
			"target":34962
		},
		{
			"buffer":0,
			"byteLength":2016,
			"byteOffset":25120,
			"target":34963
		}
	],
	"samplers":[
		{
			"magFilter":9729,
			"minFilter":9987
		}
	],
	"buffers":[
		{
			"byteLength":27136,
			"uri":"vik_bench.bin"
		}
	]
}
