{
	"asset":{
		"generator":"Khronos glTF Blender I/O v5.1.20",
		"version":"2.0"
	},
	"scene":0,
	"scenes":[
		{
			"name":"Scene",
			"nodes":[
				0
			]
		}
	],
	"nodes":[
		{
			"mesh":0,
			"name":"vik_cow_skull"
		}
	],
	"materials":[
		{
			"doubleSided":true,
			"name":"vik_mat",
			"pbrMetallicRoughness":{
				"baseColorTexture":{
					"index":0
				},
				"metallicFactor":0,
				"roughnessFactor":0.8999999761581421
			}
		}
	],
	"meshes":[
		{
			"name":"Mesh",
			"primitives":[
				{
					"attributes":{
						"POSITION":0,
						"NORMAL":1,
						"TEXCOORD_0":2,
						"TEXCOORD_1":3
					},
					"indices":4,
					"material":0
				}
			]
		}
	],
	"textures":[
		{
			"sampler":0,
			"source":0
		}
	],
	"images":[
		{
			"mimeType":"image/png",
			"name":"Texture_01",
			"uri":"Texture_01.png"
		}
	],
	"accessors":[
		{
			"bufferView":0,
			"componentType":5126,
			"count":1028,
			"max":[
				0.5748263597488403,
				0.41901901364326477,
				0.41784095764160156
			],
			"min":[
				-0.5748263597488403,
				0,
				-0.41784095764160156
			],
			"type":"VEC3"
		},
		{
			"bufferView":1,
			"componentType":5126,
			"count":1028,
			"type":"VEC3"
		},
		{
			"bufferView":2,
			"componentType":5126,
			"count":1028,
			"type":"VEC2"
		},
		{
			"bufferView":3,
			"componentType":5126,
			"count":1028,
			"type":"VEC2"
		},
		{
			"bufferView":4,
			"componentType":5123,
			"count":1104,
			"type":"SCALAR"
		}
	],
	"bufferViews":[
		{
			"buffer":0,
			"byteLength":12336,
			"byteOffset":0,
			"target":34962
		},
		{
			"buffer":0,
			"byteLength":12336,
			"byteOffset":12336,
			"target":34962
		},
		{
			"buffer":0,
			"byteLength":8224,
			"byteOffset":24672,
			"target":34962
		},
		{
			"buffer":0,
			"byteLength":8224,
			"byteOffset":32896,
			"target":34962
		},
		{
			"buffer":0,
			"byteLength":2208,
			"byteOffset":41120,
			"target":34963
		}
	],
	"samplers":[
		{
			"magFilter":9729,
			"minFilter":9987
		}
	],
	"buffers":[
		{
			"byteLength":43328,
			"uri":"vik_cow_skull.bin"
		}
	]
}
