{
	"asset":{
		"generator":"Khronos glTF Blender I/O v5.1.20",
		"version":"2.0"
	},
	"scene":0,
	"scenes":[
		{
			"name":"Scene",
			"nodes":[
				0
			]
		}
	],
	"nodes":[
		{
			"mesh":0,
			"name":"vik_rack"
		}
	],
	"materials":[
		{
			"doubleSided":true,
			"name":"vik_mat",
			"pbrMetallicRoughness":{
				"baseColorTexture":{
					"index":0
				},
				"metallicFactor":0,
				"roughnessFactor":0.8999999761581421
			}
		}
	],
	"meshes":[
		{
			"name":"Mesh",
			"primitives":[
				{
					"attributes":{
						"POSITION":0,
						"NORMAL":1,
						"TEXCOORD_0":2,
						"TEXCOORD_1":3
					},
					"indices":4,
					"material":0
				}
			]
		}
	],
	"textures":[
		{
			"sampler":0,
			"source":0
		}
	],
	"images":[
		{
			"mimeType":"image/png",
			"name":"Texture_01",
			"uri":"Texture_01.png"
		}
	],
	"accessors":[
		{
			"bufferView":0,
			"componentType":5126,
			"count":1837,
			"max":[
				0.7831001281738281,
				0.8345838189125061,
				0.1591932624578476
			],
			"min":[
				-0.7831001281738281,
				0,
				-0.1591932624578476
			],
			"type":"VEC3"
		},
		{
			"bufferView":1,
			"componentType":5126,
			"count":1837,
			"type":"VEC3"
		},
		{
			"bufferView":2,
			"componentType":5126,
			"count":1837,
			"type":"VEC2"
		},
		{
			"bufferView":3,
			"componentType":5126,
			"count":1837,
			"type":"VEC2"
		},
		{
			"bufferView":4,
			"componentType":5123,
			"count":2352,
			"type":"SCALAR"
		}
	],
	"bufferViews":[
		{
			"buffer":0,
			"byteLength":22044,
			"byteOffset":0,
			"target":34962
		},
		{
			"buffer":0,
			"byteLength":22044,
			"byteOffset":22044,
			"target":34962
		},
		{
			"buffer":0,
			"byteLength":14696,
			"byteOffset":44088,
			"target":34962
		},
		{
			"buffer":0,
			"byteLength":14696,
			"byteOffset":58784,
			"target":34962
		},
		{
			"buffer":0,
			"byteLength":4704,
			"byteOffset":73480,
			"target":34963
		}
	],
	"samplers":[
		{
			"magFilter":9729,
			"minFilter":9987
		}
	],
	"buffers":[
		{
			"byteLength":78184,
			"uri":"vik_rack.bin"
		}
	]
}
