{
	"asset":{
		"generator":"Khronos glTF Blender I/O v5.1.20",
		"version":"2.0"
	},
	"scene":0,
	"scenes":[
		{
			"name":"Scene",
			"nodes":[
				0
			]
		}
	],
	"nodes":[
		{
			"mesh":0,
			"name":"vik_flag_b"
		}
	],
	"materials":[
		{
			"doubleSided":true,
			"name":"vik_mat",
			"pbrMetallicRoughness":{
				"baseColorTexture":{
					"index":0
				},
				"metallicFactor":0,
				"roughnessFactor":0.8999999761581421
			}
		}
	],
	"meshes":[
		{
			"name":"Mesh",
			"primitives":[
				{
					"attributes":{
						"POSITION":0,
						"NORMAL":1,
						"TEXCOORD_0":2,
						"TEXCOORD_1":3
					},
					"indices":4,
					"material":0
				}
			]
		}
	],
	"textures":[
		{
			"sampler":0,
			"source":0
		}
	],
	"images":[
		{
			"mimeType":"image/png",
			"name":"Texture_01",
			"uri":"Texture_01.png"
		}
	],
	"accessors":[
		{
			"bufferView":0,
			"componentType":5126,
			"count":1898,
			"max":[
				0.35669660568237305,
				4.898257732391357,
				0.7415604591369629
			],
			"min":[
				-0.35669660568237305,
				0,
				-0.7415604591369629
			],
			"type":"VEC3"
		},
		{
			"bufferView":1,
			"componentType":5126,
			"count":1898,
			"type":"VEC3"
		},
		{
			"bufferView":2,
			"componentType":5126,
			"count":1898,
			"type":"VEC2"
		},
		{
			"bufferView":3,
			"componentType":5126,
			"count":1898,
			"type":"VEC2"
		},
		{
			"bufferView":4,
			"componentType":5123,
			"count":2580,
			"type":"SCALAR"
		}
	],
	"bufferViews":[
		{
			"buffer":0,
			"byteLength":22776,
			"byteOffset":0,
			"target":34962
		},
		{
			"buffer":0,
			"byteLength":22776,
			"byteOffset":22776,
			"target":34962
		},
		{
			"buffer":0,
			"byteLength":15184,
			"byteOffset":45552,
			"target":34962
		},
		{
			"buffer":0,
			"byteLength":15184,
			"byteOffset":60736,
			"target":34962
		},
		{
			"buffer":0,
			"byteLength":5160,
			"byteOffset":75920,
			"target":34963
		}
	],
	"samplers":[
		{
			"magFilter":9729,
			"minFilter":9987
		}
	],
	"buffers":[
		{
			"byteLength":81080,
			"uri":"vik_flag_b.bin"
		}
	]
}
