{
	"asset":{
		"generator":"Khronos glTF Blender I/O v5.1.20",
		"version":"2.0"
	},
	"scene":0,
	"scenes":[
		{
			"name":"Scene",
			"nodes":[
				0
			]
		}
	],
	"nodes":[
		{
			"mesh":0,
			"name":"vik_skull_pole"
		}
	],
	"materials":[
		{
			"doubleSided":true,
			"name":"vik_mat",
			"pbrMetallicRoughness":{
				"baseColorTexture":{
					"index":0
				},
				"metallicFactor":0,
				"roughnessFactor":0.8999999761581421
			}
		}
	],
	"meshes":[
		{
			"name":"Mesh",
			"primitives":[
				{
					"attributes":{
						"POSITION":0,
						"NORMAL":1,
						"TEXCOORD_0":2,
						"TEXCOORD_1":3,
						"COLOR_0":4,
						"COLOR_1":5
					},
					"indices":6,
					"material":0
				}
			]
		}
	],
	"textures":[
		{
			"sampler":0,
			"source":0
		}
	],
	"images":[
		{
			"mimeType":"image/png",
			"name":"Texture_01",
			"uri":"Texture_01.png"
		}
	],
	"accessors":[
		{
			"bufferView":0,
			"componentType":5126,
			"count":574,
			"max":[
				0.11788368225097656,
				1.5006529092788696,
				0.1316509246826172
			],
			"min":[
				-0.11788368225097656,
				0,
				-0.1316509246826172
			],
			"type":"VEC3"
		},
		{
			"bufferView":1,
			"componentType":5126,
			"count":574,
			"type":"VEC3"
		},
		{
			"bufferView":2,
			"componentType":5126,
			"count":574,
			"type":"VEC2"
		},
		{
			"bufferView":3,
			"componentType":5126,
			"count":574,
			"type":"VEC2"
		},
		{
			"bufferView":4,
			"componentType":5121,
			"count":574,
			"normalized":true,
			"type":"VEC4"
		},
		{
			"bufferView":5,
			"componentType":5123,
			"count":574,
			"normalized":true,
			"type":"VEC4"
		},
		{
			"bufferView":6,
			"componentType":5123,
			"count":672,
			"type":"SCALAR"
		}
	],
	"bufferViews":[
		{
			"buffer":0,
			"byteLength":6888,
			"byteOffset":0,
			"target":34962
		},
		{
			"buffer":0,
			"byteLength":6888,
			"byteOffset":6888,
			"target":34962
		},
		{
			"buffer":0,
			"byteLength":4592,
			"byteOffset":13776,
			"target":34962
		},
		{
			"buffer":0,
			"byteLength":4592,
			"byteOffset":18368,
			"target":34962
		},
		{
			"buffer":0,
			"byteLength":2296,
			"byteOffset":22960,
			"target":34962
		},
		{
			"buffer":0,
			"byteLength":4592,
			"byteOffset":25256,
			"target":34962
		},
		{
			"buffer":0,
			"byteLength":1344,
			"byteOffset":29848,
			"target":34963
		}
	],
	"samplers":[
		{
			"magFilter":9729,
			"minFilter":9987
		}
	],
	"buffers":[
		{
			"byteLength":31192,
			"uri":"vik_skull_pole.bin"
		}
	]
}
