{
	"asset":{
		"generator":"Khronos glTF Blender I/O v5.1.20",
		"version":"2.0"
	},
	"scene":0,
	"scenes":[
		{
			"name":"Scene",
			"nodes":[
				0
			]
		}
	],
	"nodes":[
		{
			"mesh":0,
			"name":"vik_statue"
		}
	],
	"materials":[
		{
			"doubleSided":true,
			"name":"vik_mat",
			"pbrMetallicRoughness":{
				"baseColorTexture":{
					"index":0
				},
				"metallicFactor":0,
				"roughnessFactor":0.8999999761581421
			}
		}
	],
	"meshes":[
		{
			"name":"Mesh",
			"primitives":[
				{
					"attributes":{
						"POSITION":0,
						"NORMAL":1,
						"TEXCOORD_0":2,
						"TEXCOORD_1":3
					},
					"indices":4,
					"material":0
				}
			]
		}
	],
	"textures":[
		{
			"sampler":0,
			"source":0
		}
	],
	"images":[
		{
			"mimeType":"image/png",
			"name":"Texture_01",
			"uri":"Texture_01.png"
		}
	],
	"accessors":[
		{
			"bufferView":0,
			"componentType":5126,
			"count":10419,
			"max":[
				0.9992247819900513,
				4.5368452072143555,
				0.8059309720993042
			],
			"min":[
				-0.9992247819900513,
				0,
				-0.8059309720993042
			],
			"type":"VEC3"
		},
		{
			"bufferView":1,
			"componentType":5126,
			"count":10419,
			"type":"VEC3"
		},
		{
			"bufferView":2,
			"componentType":5126,
			"count":10419,
			"type":"VEC2"
		},
		{
			"bufferView":3,
			"componentType":5126,
			"count":10419,
			"type":"VEC2"
		},
		{
			"bufferView":4,
			"componentType":5123,
			"count":12627,
			"type":"SCALAR"
		}
	],
	"bufferViews":[
		{
			"buffer":0,
			"byteLength":125028,
			"byteOffset":0,
			"target":34962
		},
		{
			"buffer":0,
			"byteLength":125028,
			"byteOffset":125028,
			"target":34962
		},
		{
			"buffer":0,
			"byteLength":83352,
			"byteOffset":250056,
			"target":34962
		},
		{
			"buffer":0,
			"byteLength":83352,
			"byteOffset":333408,
			"target":34962
		},
		{
			"buffer":0,
			"byteLength":25254,
			"byteOffset":416760,
			"target":34963
		}
	],
	"samplers":[
		{
			"magFilter":9729,
			"minFilter":9987
		}
	],
	"buffers":[
		{
			"byteLength":442016,
			"uri":"vik_statue.bin"
		}
	]
}
