{
	"asset":{
		"generator":"Khronos glTF Blender I/O v5.1.20",
		"version":"2.0"
	},
	"scene":0,
	"scenes":[
		{
			"name":"Scene",
			"nodes":[
				0
			]
		}
	],
	"nodes":[
		{
			"mesh":0,
			"name":"vik_spikes_b"
		}
	],
	"materials":[
		{
			"doubleSided":true,
			"name":"vik_mat",
			"pbrMetallicRoughness":{
				"baseColorTexture":{
					"index":0
				},
				"metallicFactor":0,
				"roughnessFactor":0.8999999761581421
			}
		}
	],
	"meshes":[
		{
			"name":"Mesh",
			"primitives":[
				{
					"attributes":{
						"POSITION":0,
						"NORMAL":1,
						"TEXCOORD_0":2,
						"TEXCOORD_1":3
					},
					"indices":4,
					"material":0
				}
			]
		}
	],
	"textures":[
		{
			"sampler":0,
			"source":0
		}
	],
	"images":[
		{
			"mimeType":"image/png",
			"name":"Texture_01",
			"uri":"Texture_01.png"
		}
	],
	"accessors":[
		{
			"bufferView":0,
			"componentType":5126,
			"count":3785,
			"max":[
				1.7259387969970703,
				1.7162065505981445,
				1.220113754272461
			],
			"min":[
				-1.7259387969970703,
				0,
				-1.220113754272461
			],
			"type":"VEC3"
		},
		{
			"bufferView":1,
			"componentType":5126,
			"count":3785,
			"type":"VEC3"
		},
		{
			"bufferView":2,
			"componentType":5126,
			"count":3785,
			"type":"VEC2"
		},
		{
			"bufferView":3,
			"componentType":5126,
			"count":3785,
			"type":"VEC2"
		},
		{
			"bufferView":4,
			"componentType":5123,
			"count":4536,
			"type":"SCALAR"
		}
	],
	"bufferViews":[
		{
			"buffer":0,
			"byteLength":45420,
			"byteOffset":0,
			"target":34962
		},
		{
			"buffer":0,
			"byteLength":45420,
			"byteOffset":45420,
			"target":34962
		},
		{
			"buffer":0,
			"byteLength":30280,
			"byteOffset":90840,
			"target":34962
		},
		{
			"buffer":0,
			"byteLength":30280,
			"byteOffset":121120,
			"target":34962
		},
		{
			"buffer":0,
			"byteLength":9072,
			"byteOffset":151400,
			"target":34963
		}
	],
	"samplers":[
		{
			"magFilter":9729,
			"minFilter":9987
		}
	],
	"buffers":[
		{
			"byteLength":160472,
			"uri":"vik_spikes_b.bin"
		}
	]
}
