{
	"asset":{
		"generator":"Khronos glTF Blender I/O v5.1.20",
		"version":"2.0"
	},
	"scene":0,
	"scenes":[
		{
			"name":"Scene",
			"nodes":[
				0
			]
		}
	],
	"nodes":[
		{
			"mesh":0,
			"name":"vik_fence"
		}
	],
	"materials":[
		{
			"doubleSided":true,
			"name":"vik_mat",
			"pbrMetallicRoughness":{
				"baseColorTexture":{
					"index":0
				},
				"metallicFactor":0,
				"roughnessFactor":0.8999999761581421
			}
		}
	],
	"meshes":[
		{
			"name":"Mesh",
			"primitives":[
				{
					"attributes":{
						"POSITION":0,
						"NORMAL":1,
						"TEXCOORD_0":2,
						"TEXCOORD_1":3
					},
					"indices":4,
					"material":0
				}
			]
		}
	],
	"textures":[
		{
			"sampler":0,
			"source":0
		}
	],
	"images":[
		{
			"mimeType":"image/png",
			"name":"Texture_01",
			"uri":"Texture_01.png"
		}
	],
	"accessors":[
		{
			"bufferView":0,
			"componentType":5126,
			"count":1444,
			"max":[
				0.9787492752075195,
				1.723596453666687,
				0.11738969385623932
			],
			"min":[
				-0.9787492752075195,
				0,
				-0.11738969385623932
			],
			"type":"VEC3"
		},
		{
			"bufferView":1,
			"componentType":5126,
			"count":1444,
			"type":"VEC3"
		},
		{
			"bufferView":2,
			"componentType":5126,
			"count":1444,
			"type":"VEC2"
		},
		{
			"bufferView":3,
			"componentType":5126,
			"count":1444,
			"type":"VEC2"
		},
		{
			"bufferView":4,
			"componentType":5123,
			"count":2418,
			"type":"SCALAR"
		}
	],
	"bufferViews":[
		{
			"buffer":0,
			"byteLength":17328,
			"byteOffset":0,
			"target":34962
		},
		{
			"buffer":0,
			"byteLength":17328,
			"byteOffset":17328,
			"target":34962
		},
		{
			"buffer":0,
			"byteLength":11552,
			"byteOffset":34656,
			"target":34962
		},
		{
			"buffer":0,
			"byteLength":11552,
			"byteOffset":46208,
			"target":34962
		},
		{
			"buffer":0,
			"byteLength":4836,
			"byteOffset":57760,
			"target":34963
		}
	],
	"samplers":[
		{
			"magFilter":9729,
			"minFilter":9987
		}
	],
	"buffers":[
		{
			"byteLength":62596,
			"uri":"vik_fence.bin"
		}
	]
}
