{
	"asset":{
		"generator":"Khronos glTF Blender I/O v5.1.20",
		"version":"2.0"
	},
	"scene":0,
	"scenes":[
		{
			"name":"Scene",
			"nodes":[
				0
			]
		}
	],
	"nodes":[
		{
			"mesh":0,
			"name":"vik_totem"
		}
	],
	"materials":[
		{
			"doubleSided":true,
			"name":"vik_mat",
			"pbrMetallicRoughness":{
				"baseColorTexture":{
					"index":0
				},
				"metallicFactor":0,
				"roughnessFactor":0.8999999761581421
			}
		}
	],
	"meshes":[
		{
			"name":"Mesh",
			"primitives":[
				{
					"attributes":{
						"POSITION":0,
						"NORMAL":1,
						"TEXCOORD_0":2,
						"TEXCOORD_1":3
					},
					"indices":4,
					"material":0
				}
			]
		}
	],
	"textures":[
		{
			"sampler":0,
			"source":0
		}
	],
	"images":[
		{
			"mimeType":"image/png",
			"name":"Texture_01",
			"uri":"Texture_01.png"
		}
	],
	"accessors":[
		{
			"bufferView":0,
			"componentType":5126,
			"count":459,
			"max":[
				1.8133231401443481,
				4.833016872406006,
				0.700014591217041
			],
			"min":[
				-1.8133231401443481,
				0,
				-0.700014591217041
			],
			"type":"VEC3"
		},
		{
			"bufferView":1,
			"componentType":5126,
			"count":459,
			"type":"VEC3"
		},
		{
			"bufferView":2,
			"componentType":5126,
			"count":459,
			"type":"VEC2"
		},
		{
			"bufferView":3,
			"componentType":5126,
			"count":459,
			"type":"VEC2"
		},
		{
			"bufferView":4,
			"componentType":5123,
			"count":552,
			"type":"SCALAR"
		}
	],
	"bufferViews":[
		{
			"buffer":0,
			"byteLength":5508,
			"byteOffset":0,
			"target":34962
		},
		{
			"buffer":0,
			"byteLength":5508,
			"byteOffset":5508,
			"target":34962
		},
		{
			"buffer":0,
			"byteLength":3672,
			"byteOffset":11016,
			"target":34962
		},
		{
			"buffer":0,
			"byteLength":3672,
			"byteOffset":14688,
			"target":34962
		},
		{
			"buffer":0,
			"byteLength":1104,
			"byteOffset":18360,
			"target":34963
		}
	],
	"samplers":[
		{
			"magFilter":9729,
			"minFilter":9987
		}
	],
	"buffers":[
		{
			"byteLength":19464,
			"uri":"vik_totem.bin"
		}
	]
}
