{
	"asset":{
		"generator":"Khronos glTF Blender I/O v5.1.20",
		"version":"2.0"
	},
	"scene":0,
	"scenes":[
		{
			"name":"Scene",
			"nodes":[
				0
			]
		}
	],
	"nodes":[
		{
			"mesh":0,
			"name":"vik_gate"
		}
	],
	"materials":[
		{
			"doubleSided":true,
			"name":"vik_mat",
			"pbrMetallicRoughness":{
				"baseColorTexture":{
					"index":0
				},
				"metallicFactor":0,
				"roughnessFactor":0.8999999761581421
			}
		}
	],
	"meshes":[
		{
			"name":"Mesh",
			"primitives":[
				{
					"attributes":{
						"POSITION":0,
						"NORMAL":1,
						"TEXCOORD_0":2,
						"TEXCOORD_1":3
					},
					"indices":4,
					"material":0
				}
			]
		}
	],
	"textures":[
		{
			"sampler":0,
			"source":0
		}
	],
	"images":[
		{
			"mimeType":"image/png",
			"name":"Texture_01",
			"uri":"Texture_01.png"
		}
	],
	"accessors":[
		{
			"bufferView":0,
			"componentType":5126,
			"count":1762,
			"max":[
				2.717761278152466,
				6.1211771965026855,
				0.39705508947372437
			],
			"min":[
				-2.717761278152466,
				0,
				-0.39705508947372437
			],
			"type":"VEC3"
		},
		{
			"bufferView":1,
			"componentType":5126,
			"count":1762,
			"type":"VEC3"
		},
		{
			"bufferView":2,
			"componentType":5126,
			"count":1762,
			"type":"VEC2"
		},
		{
			"bufferView":3,
			"componentType":5126,
			"count":1762,
			"type":"VEC2"
		},
		{
			"bufferView":4,
			"componentType":5123,
			"count":2628,
			"type":"SCALAR"
		}
	],
	"bufferViews":[
		{
			"buffer":0,
			"byteLength":21144,
			"byteOffset":0,
			"target":34962
		},
		{
			"buffer":0,
			"byteLength":21144,
			"byteOffset":21144,
			"target":34962
		},
		{
			"buffer":0,
			"byteLength":14096,
			"byteOffset":42288,
			"target":34962
		},
		{
			"buffer":0,
			"byteLength":14096,
			"byteOffset":56384,
			"target":34962
		},
		{
			"buffer":0,
			"byteLength":5256,
			"byteOffset":70480,
			"target":34963
		}
	],
	"samplers":[
		{
			"magFilter":9729,
			"minFilter":9987
		}
	],
	"buffers":[
		{
			"byteLength":75736,
			"uri":"vik_gate.bin"
		}
	]
}
