{
	"asset":{
		"generator":"Khronos glTF Blender I/O v5.1.20",
		"version":"2.0"
	},
	"scene":0,
	"scenes":[
		{
			"name":"Scene",
			"nodes":[
				0
			]
		}
	],
	"nodes":[
		{
			"mesh":0,
			"name":"vik_boat"
		}
	],
	"materials":[
		{
			"doubleSided":true,
			"name":"vik_mat",
			"pbrMetallicRoughness":{
				"baseColorTexture":{
					"index":0
				},
				"metallicFactor":0,
				"roughnessFactor":0.8999999761581421
			}
		}
	],
	"meshes":[
		{
			"name":"Mesh",
			"primitives":[
				{
					"attributes":{
						"POSITION":0,
						"NORMAL":1,
						"TEXCOORD_0":2,
						"TEXCOORD_1":3
					},
					"indices":4,
					"material":0
				}
			]
		}
	],
	"textures":[
		{
			"sampler":0,
			"source":0
		}
	],
	"images":[
		{
			"mimeType":"image/png",
			"name":"Texture_01",
			"uri":"Texture_01.png"
		}
	],
	"accessors":[
		{
			"bufferView":0,
			"componentType":5126,
			"count":5870,
			"max":[
				0.9903106689453125,
				1.8701977729797363,
				3.6082241535186768
			],
			"min":[
				-0.9903106689453125,
				0,
				-3.6082241535186768
			],
			"type":"VEC3"
		},
		{
			"bufferView":1,
			"componentType":5126,
			"count":5870,
			"type":"VEC3"
		},
		{
			"bufferView":2,
			"componentType":5126,
			"count":5870,
			"type":"VEC2"
		},
		{
			"bufferView":3,
			"componentType":5126,
			"count":5870,
			"type":"VEC2"
		},
		{
			"bufferView":4,
			"componentType":5123,
			"count":6816,
			"type":"SCALAR"
		}
	],
	"bufferViews":[
		{
			"buffer":0,
			"byteLength":70440,
			"byteOffset":0,
			"target":34962
		},
		{
			"buffer":0,
			"byteLength":70440,
			"byteOffset":70440,
			"target":34962
		},
		{
			"buffer":0,
			"byteLength":46960,
			"byteOffset":140880,
			"target":34962
		},
		{
			"buffer":0,
			"byteLength":46960,
			"byteOffset":187840,
			"target":34962
		},
		{
			"buffer":0,
			"byteLength":13632,
			"byteOffset":234800,
			"target":34963
		}
	],
	"samplers":[
		{
			"magFilter":9729,
			"minFilter":9987
		}
	],
	"buffers":[
		{
			"byteLength":248432,
			"uri":"vik_boat.bin"
		}
	]
}
