{
	"asset":{
		"generator":"Khronos glTF Blender I/O v5.1.20",
		"version":"2.0"
	},
	"scene":0,
	"scenes":[
		{
			"name":"Scene",
			"nodes":[
				0
			]
		}
	],
	"nodes":[
		{
			"mesh":0,
			"name":"vik_table"
		}
	],
	"materials":[
		{
			"doubleSided":true,
			"name":"vik_mat",
			"pbrMetallicRoughness":{
				"baseColorTexture":{
					"index":0
				},
				"metallicFactor":0,
				"roughnessFactor":0.8999999761581421
			}
		}
	],
	"meshes":[
		{
			"name":"Mesh",
			"primitives":[
				{
					"attributes":{
						"POSITION":0,
						"NORMAL":1,
						"TEXCOORD_0":2,
						"TEXCOORD_1":3
					},
					"indices":4,
					"material":0
				}
			]
		}
	],
	"textures":[
		{
			"sampler":0,
			"source":0
		}
	],
	"images":[
		{
			"mimeType":"image/png",
			"name":"Texture_01",
			"uri":"Texture_01.png"
		}
	],
	"accessors":[
		{
			"bufferView":0,
			"componentType":5126,
			"count":1169,
			"max":[
				0.5663213729858398,
				1.068176507949829,
				1.4288005828857422
			],
			"min":[
				-0.5663213729858398,
				0,
				-1.4288005828857422
			],
			"type":"VEC3"
		},
		{
			"bufferView":1,
			"componentType":5126,
			"count":1169,
			"type":"VEC3"
		},
		{
			"bufferView":2,
			"componentType":5126,
			"count":1169,
			"type":"VEC2"
		},
		{
			"bufferView":3,
			"componentType":5126,
			"count":1169,
			"type":"VEC2"
		},
		{
			"bufferView":4,
			"componentType":5123,
			"count":1674,
			"type":"SCALAR"
		}
	],
	"bufferViews":[
		{
			"buffer":0,
			"byteLength":14028,
			"byteOffset":0,
			"target":34962
		},
		{
			"buffer":0,
			"byteLength":14028,
			"byteOffset":14028,
			"target":34962
		},
		{
			"buffer":0,
			"byteLength":9352,
			"byteOffset":28056,
			"target":34962
		},
		{
			"buffer":0,
			"byteLength":9352,
			"byteOffset":37408,
			"target":34962
		},
		{
			"buffer":0,
			"byteLength":3348,
			"byteOffset":46760,
			"target":34963
		}
	],
	"samplers":[
		{
			"magFilter":9729,
			"minFilter":9987
		}
	],
	"buffers":[
		{
			"byteLength":50108,
			"uri":"vik_table.bin"
		}
	]
}
