{
	"asset":{
		"generator":"Khronos glTF Blender I/O v5.1.20",
		"version":"2.0"
	},
	"scene":0,
	"scenes":[
		{
			"name":"Scene",
			"nodes":[
				0
			]
		}
	],
	"nodes":[
		{
			"mesh":0,
			"name":"vik_dock"
		}
	],
	"materials":[
		{
			"doubleSided":true,
			"name":"vik_mat",
			"pbrMetallicRoughness":{
				"baseColorTexture":{
					"index":0
				},
				"metallicFactor":0,
				"roughnessFactor":0.8999999761581421
			}
		}
	],
	"meshes":[
		{
			"name":"Mesh",
			"primitives":[
				{
					"attributes":{
						"POSITION":0,
						"NORMAL":1,
						"TEXCOORD_0":2,
						"TEXCOORD_1":3
					},
					"indices":4,
					"material":0
				}
			]
		}
	],
	"textures":[
		{
			"sampler":0,
			"source":0
		}
	],
	"images":[
		{
			"mimeType":"image/png",
			"name":"Texture_01",
			"uri":"Texture_01.png"
		}
	],
	"accessors":[
		{
			"bufferView":0,
			"componentType":5126,
			"count":5318,
			"max":[
				2.039031982421875,
				4.492722988128662,
				2.5099430084228516
			],
			"min":[
				-2.039031982421875,
				0,
				-2.5099430084228516
			],
			"type":"VEC3"
		},
		{
			"bufferView":1,
			"componentType":5126,
			"count":5318,
			"type":"VEC3"
		},
		{
			"bufferView":2,
			"componentType":5126,
			"count":5318,
			"type":"VEC2"
		},
		{
			"bufferView":3,
			"componentType":5126,
			"count":5318,
			"type":"VEC2"
		},
		{
			"bufferView":4,
			"componentType":5123,
			"count":7284,
			"type":"SCALAR"
		}
	],
	"bufferViews":[
		{
			"buffer":0,
			"byteLength":63816,
			"byteOffset":0,
			"target":34962
		},
		{
			"buffer":0,
			"byteLength":63816,
			"byteOffset":63816,
			"target":34962
		},
		{
			"buffer":0,
			"byteLength":42544,
			"byteOffset":127632,
			"target":34962
		},
		{
			"buffer":0,
			"byteLength":42544,
			"byteOffset":170176,
			"target":34962
		},
		{
			"buffer":0,
			"byteLength":14568,
			"byteOffset":212720,
			"target":34963
		}
	],
	"samplers":[
		{
			"magFilter":9729,
			"minFilter":9987
		}
	],
	"buffers":[
		{
			"byteLength":227288,
			"uri":"vik_dock.bin"
		}
	]
}
