{
	"asset":{
		"generator":"Khronos glTF Blender I/O v5.1.20",
		"version":"2.0"
	},
	"scene":0,
	"scenes":[
		{
			"name":"Scene",
			"nodes":[
				0
			]
		}
	],
	"nodes":[
		{
			"mesh":0,
			"name":"vik_glacier_b"
		}
	],
	"materials":[
		{
			"doubleSided":true,
			"name":"vik_mat",
			"pbrMetallicRoughness":{
				"baseColorTexture":{
					"index":0
				},
				"metallicFactor":0,
				"roughnessFactor":0.8999999761581421
			}
		}
	],
	"meshes":[
		{
			"name":"Mesh",
			"primitives":[
				{
					"attributes":{
						"POSITION":0,
						"NORMAL":1,
						"TEXCOORD_0":2,
						"TEXCOORD_1":3
					},
					"indices":4,
					"material":0
				}
			]
		}
	],
	"textures":[
		{
			"sampler":0,
			"source":0
		}
	],
	"images":[
		{
			"mimeType":"image/png",
			"name":"Texture_01",
			"uri":"Texture_01.png"
		}
	],
	"accessors":[
		{
			"bufferView":0,
			"componentType":5126,
			"count":4166,
			"max":[
				4.656240463256836,
				3.0380427837371826,
				4.647819519042969
			],
			"min":[
				-4.656242370605469,
				1.0698403940523349e-07,
				-4.647819519042969
			],
			"type":"VEC3"
		},
		{
			"bufferView":1,
			"componentType":5126,
			"count":4166,
			"type":"VEC3"
		},
		{
			"bufferView":2,
			"componentType":5126,
			"count":4166,
			"type":"VEC2"
		},
		{
			"bufferView":3,
			"componentType":5126,
			"count":4166,
			"type":"VEC2"
		},
		{
			"bufferView":4,
			"componentType":5123,
			"count":4266,
			"type":"SCALAR"
		}
	],
	"bufferViews":[
		{
			"buffer":0,
			"byteLength":49992,
			"byteOffset":0,
			"target":34962
		},
		{
			"buffer":0,
			"byteLength":49992,
			"byteOffset":49992,
			"target":34962
		},
		{
			"buffer":0,
			"byteLength":33328,
			"byteOffset":99984,
			"target":34962
		},
		{
			"buffer":0,
			"byteLength":33328,
			"byteOffset":133312,
			"target":34962
		},
		{
			"buffer":0,
			"byteLength":8532,
			"byteOffset":166640,
			"target":34963
		}
	],
	"samplers":[
		{
			"magFilter":9729,
			"minFilter":9987
		}
	],
	"buffers":[
		{
			"byteLength":175172,
			"uri":"vik_glacier_b.bin"
		}
	]
}
