{
	"asset":{
		"generator":"Khronos glTF Blender I/O v5.1.20",
		"version":"2.0"
	},
	"scene":0,
	"scenes":[
		{
			"name":"Scene",
			"nodes":[
				0
			]
		}
	],
	"nodes":[
		{
			"mesh":0,
			"name":"pass_woodpile_b"
		}
	],
	"materials":[
		{
			"doubleSided":true,
			"name":"pass_mat",
			"pbrMetallicRoughness":{
				"baseColorTexture":{
					"index":0
				},
				"metallicFactor":0,
				"roughnessFactor":0.8999999761581421
			}
		}
	],
	"meshes":[
		{
			"name":"Mesh",
			"primitives":[
				{
					"attributes":{
						"POSITION":0,
						"NORMAL":1,
						"TEXCOORD_0":2
					},
					"indices":3,
					"material":0
				}
			]
		}
	],
	"textures":[
		{
			"sampler":0,
			"source":0
		}
	],
	"images":[
		{
			"mimeType":"image/png",
			"name":"PolygonNatureBiomesS2_Alpine_Texture_01",
			"uri":"PolygonNatureBiomesS2_Alpine_Texture_01.png"
		}
	],
	"accessors":[
		{
			"bufferView":0,
			"componentType":5126,
			"count":2544,
			"max":[
				0.764197587966919,
				0.49630260467529297,
				0.3411322236061096
			],
			"min":[
				-0.764197587966919,
				0,
				-0.3411322236061096
			],
			"type":"VEC3"
		},
		{
			"bufferView":1,
			"componentType":5126,
			"count":2544,
			"type":"VEC3"
		},
		{
			"bufferView":2,
			"componentType":5126,
			"count":2544,
			"type":"VEC2"
		},
		{
			"bufferView":3,
			"componentType":5123,
			"count":4248,
			"type":"SCALAR"
		}
	],
	"bufferViews":[
		{
			"buffer":0,
			"byteLength":30528,
			"byteOffset":0,
			"target":34962
		},
		{
			"buffer":0,
			"byteLength":30528,
			"byteOffset":30528,
			"target":34962
		},
		{
			"buffer":0,
			"byteLength":20352,
			"byteOffset":61056,
			"target":34962
		},
		{
			"buffer":0,
			"byteLength":8496,
			"byteOffset":81408,
			"target":34963
		}
	],
	"samplers":[
		{
			"magFilter":9729,
			"minFilter":9987
		}
	],
	"buffers":[
		{
			"byteLength":89904,
			"uri":"pass_woodpile_b.bin"
		}
	]
}
