{
	"asset":{
		"generator":"Khronos glTF Blender I/O v5.1.20",
		"version":"2.0"
	},
	"scene":0,
	"scenes":[
		{
			"name":"Scene",
			"nodes":[
				0
			]
		}
	],
	"nodes":[
		{
			"mesh":0,
			"name":"pass_bench"
		}
	],
	"materials":[
		{
			"doubleSided":true,
			"name":"pass_mat",
			"pbrMetallicRoughness":{
				"baseColorTexture":{
					"index":0
				},
				"metallicFactor":0,
				"roughnessFactor":0.8999999761581421
			}
		}
	],
	"meshes":[
		{
			"name":"Mesh",
			"primitives":[
				{
					"attributes":{
						"POSITION":0,
						"NORMAL":1,
						"TEXCOORD_0":2
					},
					"indices":3,
					"material":0
				}
			]
		}
	],
	"textures":[
		{
			"sampler":0,
			"source":0
		}
	],
	"images":[
		{
			"mimeType":"image/png",
			"name":"PolygonNatureBiomesS2_Alpine_Texture_01",
			"uri":"PolygonNatureBiomesS2_Alpine_Texture_01.png"
		}
	],
	"accessors":[
		{
			"bufferView":0,
			"componentType":5126,
			"count":1971,
			"max":[
				0.8995321393013,
				1.0211000442504883,
				0.29338958859443665
			],
			"min":[
				-0.8995321393013,
				-5.888576293244796e-09,
				-0.2933896780014038
			],
			"type":"VEC3"
		},
		{
			"bufferView":1,
			"componentType":5126,
			"count":1971,
			"type":"VEC3"
		},
		{
			"bufferView":2,
			"componentType":5126,
			"count":1971,
			"type":"VEC2"
		},
		{
			"bufferView":3,
			"componentType":5123,
			"count":3078,
			"type":"SCALAR"
		}
	],
	"bufferViews":[
		{
			"buffer":0,
			"byteLength":23652,
			"byteOffset":0,
			"target":34962
		},
		{
			"buffer":0,
			"byteLength":23652,
			"byteOffset":23652,
			"target":34962
		},
		{
			"buffer":0,
			"byteLength":15768,
			"byteOffset":47304,
			"target":34962
		},
		{
			"buffer":0,
			"byteLength":6156,
			"byteOffset":63072,
			"target":34963
		}
	],
	"samplers":[
		{
			"magFilter":9729,
			"minFilter":9987
		}
	],
	"buffers":[
		{
			"byteLength":69228,
			"uri":"pass_bench.bin"
		}
	]
}
