{
	"asset":{
		"generator":"Khronos glTF Blender I/O v5.1.20",
		"version":"2.0"
	},
	"scene":0,
	"scenes":[
		{
			"name":"Scene",
			"nodes":[
				0
			]
		}
	],
	"nodes":[
		{
			"mesh":0,
			"name":"pass_woodpile"
		}
	],
	"materials":[
		{
			"doubleSided":true,
			"name":"pass_mat",
			"pbrMetallicRoughness":{
				"baseColorTexture":{
					"index":0
				},
				"metallicFactor":0,
				"roughnessFactor":0.8999999761581421
			}
		}
	],
	"meshes":[
		{
			"name":"Mesh",
			"primitives":[
				{
					"attributes":{
						"POSITION":0,
						"NORMAL":1,
						"TEXCOORD_0":2
					},
					"indices":3,
					"material":0
				}
			]
		}
	],
	"textures":[
		{
			"sampler":0,
			"source":0
		}
	],
	"images":[
		{
			"mimeType":"image/png",
			"name":"PolygonNatureBiomesS2_Alpine_Texture_01",
			"uri":"PolygonNatureBiomesS2_Alpine_Texture_01.png"
		}
	],
	"accessors":[
		{
			"bufferView":0,
			"componentType":5126,
			"count":2608,
			"max":[
				0.7047573924064636,
				0.6136975884437561,
				0.34123745560646057
			],
			"min":[
				-0.7047573924064636,
				-1.9577443666207728e-08,
				-0.34123748540878296
			],
			"type":"VEC3"
		},
		{
			"bufferView":1,
			"componentType":5126,
			"count":2608,
			"type":"VEC3"
		},
		{
			"bufferView":2,
			"componentType":5126,
			"count":2608,
			"type":"VEC2"
		},
		{
			"bufferView":3,
			"componentType":5123,
			"count":4404,
			"type":"SCALAR"
		}
	],
	"bufferViews":[
		{
			"buffer":0,
			"byteLength":31296,
			"byteOffset":0,
			"target":34962
		},
		{
			"buffer":0,
			"byteLength":31296,
			"byteOffset":31296,
			"target":34962
		},
		{
			"buffer":0,
			"byteLength":20864,
			"byteOffset":62592,
			"target":34962
		},
		{
			"buffer":0,
			"byteLength":8808,
			"byteOffset":83456,
			"target":34963
		}
	],
	"samplers":[
		{
			"magFilter":9729,
			"minFilter":9987
		}
	],
	"buffers":[
		{
			"byteLength":92264,
			"uri":"pass_woodpile.bin"
		}
	]
}
