{
	"asset":{
		"generator":"Khronos glTF Blender I/O v5.1.20",
		"version":"2.0"
	},
	"scene":0,
	"scenes":[
		{
			"name":"Scene",
			"nodes":[
				0
			]
		}
	],
	"nodes":[
		{
			"mesh":0,
			"name":"pass_campfire"
		}
	],
	"materials":[
		{
			"doubleSided":true,
			"name":"pass_mat",
			"pbrMetallicRoughness":{
				"baseColorTexture":{
					"index":0
				},
				"metallicFactor":0,
				"roughnessFactor":0.8999999761581421
			}
		}
	],
	"meshes":[
		{
			"name":"Mesh",
			"primitives":[
				{
					"attributes":{
						"POSITION":0,
						"NORMAL":1,
						"TEXCOORD_0":2
					},
					"indices":3,
					"material":0
				}
			]
		}
	],
	"textures":[
		{
			"sampler":0,
			"source":0
		}
	],
	"images":[
		{
			"mimeType":"image/png",
			"name":"PolygonNatureBiomesS2_Alpine_Texture_01",
			"uri":"PolygonNatureBiomesS2_Alpine_Texture_01.png"
		}
	],
	"accessors":[
		{
			"bufferView":0,
			"componentType":5126,
			"count":2301,
			"max":[
				0.44999930262565613,
				0.35693925619125366,
				0.48571309447288513
			],
			"min":[
				-0.44999930262565613,
				0,
				-0.48571309447288513
			],
			"type":"VEC3"
		},
		{
			"bufferView":1,
			"componentType":5126,
			"count":2301,
			"type":"VEC3"
		},
		{
			"bufferView":2,
			"componentType":5126,
			"count":2301,
			"type":"VEC2"
		},
		{
			"bufferView":3,
			"componentType":5123,
			"count":3336,
			"type":"SCALAR"
		}
	],
	"bufferViews":[
		{
			"buffer":0,
			"byteLength":27612,
			"byteOffset":0,
			"target":34962
		},
		{
			"buffer":0,
			"byteLength":27612,
			"byteOffset":27612,
			"target":34962
		},
		{
			"buffer":0,
			"byteLength":18408,
			"byteOffset":55224,
			"target":34962
		},
		{
			"buffer":0,
			"byteLength":6672,
			"byteOffset":73632,
			"target":34963
		}
	],
	"samplers":[
		{
			"magFilter":9729,
			"minFilter":9987
		}
	],
	"buffers":[
		{
			"byteLength":80304,
			"uri":"pass_campfire.bin"
		}
	]
}
