{
	"asset":{
		"generator":"Khronos glTF Blender I/O v5.1.20",
		"version":"2.0"
	},
	"scene":0,
	"scenes":[
		{
			"name":"Scene",
			"nodes":[
				0
			]
		}
	],
	"nodes":[
		{
			"mesh":0,
			"name":"pass_hut"
		}
	],
	"materials":[
		{
			"doubleSided":true,
			"name":"pass_mat",
			"pbrMetallicRoughness":{
				"baseColorTexture":{
					"index":0
				},
				"metallicFactor":0,
				"roughnessFactor":0.8999999761581421
			}
		}
	],
	"meshes":[
		{
			"name":"Mesh",
			"primitives":[
				{
					"attributes":{
						"POSITION":0,
						"NORMAL":1,
						"TEXCOORD_0":2
					},
					"indices":3,
					"material":0
				}
			]
		}
	],
	"textures":[
		{
			"sampler":0,
			"source":0
		}
	],
	"images":[
		{
			"mimeType":"image/png",
			"name":"PolygonNatureBiomesS2_Alpine_Texture_01",
			"uri":"PolygonNatureBiomesS2_Alpine_Texture_01.png"
		}
	],
	"accessors":[
		{
			"bufferView":0,
			"componentType":5126,
			"count":8415,
			"max":[
				1.66878080368042,
				3.4107038974761963,
				1.795113444328308
			],
			"min":[
				-1.66878080368042,
				-1.2814190597509878e-07,
				-1.795113444328308
			],
			"type":"VEC3"
		},
		{
			"bufferView":1,
			"componentType":5126,
			"count":8415,
			"type":"VEC3"
		},
		{
			"bufferView":2,
			"componentType":5126,
			"count":8415,
			"type":"VEC2"
		},
		{
			"bufferView":3,
			"componentType":5123,
			"count":13497,
			"type":"SCALAR"
		}
	],
	"bufferViews":[
		{
			"buffer":0,
			"byteLength":100980,
			"byteOffset":0,
			"target":34962
		},
		{
			"buffer":0,
			"byteLength":100980,
			"byteOffset":100980,
			"target":34962
		},
		{
			"buffer":0,
			"byteLength":67320,
			"byteOffset":201960,
			"target":34962
		},
		{
			"buffer":0,
			"byteLength":26994,
			"byteOffset":269280,
			"target":34963
		}
	],
	"samplers":[
		{
			"magFilter":9729,
			"minFilter":9987
		}
	],
	"buffers":[
		{
			"byteLength":296276,
			"uri":"pass_hut.bin"
		}
	]
}
