{
	"asset":{
		"generator":"Khronos glTF Blender I/O v5.1.20",
		"version":"2.0"
	},
	"scene":0,
	"scenes":[
		{
			"name":"Scene",
			"nodes":[
				0
			]
		}
	],
	"nodes":[
		{
			"mesh":0,
			"name":"pass_fishrack"
		}
	],
	"materials":[
		{
			"doubleSided":true,
			"name":"pass_mat",
			"pbrMetallicRoughness":{
				"baseColorTexture":{
					"index":0
				},
				"metallicFactor":0,
				"roughnessFactor":0.8999999761581421
			}
		}
	],
	"meshes":[
		{
			"name":"Mesh",
			"primitives":[
				{
					"attributes":{
						"POSITION":0,
						"NORMAL":1,
						"TEXCOORD_0":2,
						"TEXCOORD_1":3
					},
					"indices":4,
					"material":0
				}
			]
		}
	],
	"textures":[
		{
			"sampler":0,
			"source":0
		}
	],
	"images":[
		{
			"mimeType":"image/png",
			"name":"PolygonNatureBiomesS2_Alpine_Texture_01",
			"uri":"PolygonNatureBiomesS2_Alpine_Texture_01.png"
		}
	],
	"accessors":[
		{
			"bufferView":0,
			"componentType":5126,
			"count":8220,
			"max":[
				1.7043683528900146,
				2.0833723545074463,
				0.8280004858970642
			],
			"min":[
				-1.7043683528900146,
				0,
				-0.8280004858970642
			],
			"type":"VEC3"
		},
		{
			"bufferView":1,
			"componentType":5126,
			"count":8220,
			"type":"VEC3"
		},
		{
			"bufferView":2,
			"componentType":5126,
			"count":8220,
			"type":"VEC2"
		},
		{
			"bufferView":3,
			"componentType":5126,
			"count":8220,
			"type":"VEC2"
		},
		{
			"bufferView":4,
			"componentType":5123,
			"count":12096,
			"type":"SCALAR"
		}
	],
	"bufferViews":[
		{
			"buffer":0,
			"byteLength":98640,
			"byteOffset":0,
			"target":34962
		},
		{
			"buffer":0,
			"byteLength":98640,
			"byteOffset":98640,
			"target":34962
		},
		{
			"buffer":0,
			"byteLength":65760,
			"byteOffset":197280,
			"target":34962
		},
		{
			"buffer":0,
			"byteLength":65760,
			"byteOffset":263040,
			"target":34962
		},
		{
			"buffer":0,
			"byteLength":24192,
			"byteOffset":328800,
			"target":34963
		}
	],
	"samplers":[
		{
			"magFilter":9729,
			"minFilter":9987
		}
	],
	"buffers":[
		{
			"byteLength":352992,
			"uri":"pass_fishrack.bin"
		}
	]
}
