{
	"asset":{
		"generator":"Khronos glTF Blender I/O v5.1.20",
		"version":"2.0"
	},
	"scene":0,
	"scenes":[
		{
			"name":"Scene",
			"nodes":[
				0
			]
		}
	],
	"nodes":[
		{
			"mesh":0,
			"name":"pass_lookout"
		}
	],
	"materials":[
		{
			"doubleSided":true,
			"name":"pass_mat",
			"pbrMetallicRoughness":{
				"baseColorTexture":{
					"index":0
				},
				"metallicFactor":0,
				"roughnessFactor":0.8999999761581421
			}
		}
	],
	"meshes":[
		{
			"name":"Mesh",
			"primitives":[
				{
					"attributes":{
						"POSITION":0,
						"NORMAL":1,
						"TEXCOORD_0":2
					},
					"indices":3,
					"material":0
				}
			]
		}
	],
	"textures":[
		{
			"sampler":0,
			"source":0
		}
	],
	"images":[
		{
			"mimeType":"image/png",
			"name":"PolygonNatureBiomesS2_Alpine_Texture_01",
			"uri":"PolygonNatureBiomesS2_Alpine_Texture_01.png"
		}
	],
	"accessors":[
		{
			"bufferView":0,
			"componentType":5126,
			"count":16406,
			"max":[
				1.621340274810791,
				5.797861576080322,
				2.7333481311798096
			],
			"min":[
				-1.6213406324386597,
				-1.1696395318949726e-07,
				-2.733349084854126
			],
			"type":"VEC3"
		},
		{
			"bufferView":1,
			"componentType":5126,
			"count":16406,
			"type":"VEC3"
		},
		{
			"bufferView":2,
			"componentType":5126,
			"count":16406,
			"type":"VEC2"
		},
		{
			"bufferView":3,
			"componentType":5123,
			"count":24909,
			"type":"SCALAR"
		}
	],
	"bufferViews":[
		{
			"buffer":0,
			"byteLength":196872,
			"byteOffset":0,
			"target":34962
		},
		{
			"buffer":0,
			"byteLength":196872,
			"byteOffset":196872,
			"target":34962
		},
		{
			"buffer":0,
			"byteLength":131248,
			"byteOffset":393744,
			"target":34962
		},
		{
			"buffer":0,
			"byteLength":49818,
			"byteOffset":524992,
			"target":34963
		}
	],
	"samplers":[
		{
			"magFilter":9729,
			"minFilter":9987
		}
	],
	"buffers":[
		{
			"byteLength":574812,
			"uri":"pass_lookout.bin"
		}
	]
}
