{
	"asset":{
		"generator":"Khronos glTF Blender I/O v5.1.20",
		"version":"2.0"
	},
	"scene":0,
	"scenes":[
		{
			"name":"Scene",
			"nodes":[
				0
			]
		}
	],
	"nodes":[
		{
			"mesh":0,
			"name":"crypt_tree_c"
		}
	],
	"materials":[
		{
			"doubleSided":true,
			"emissiveFactor":[
				1,
				1,
				1
			],
			"emissiveTexture":{
				"index":0
			},
			"name":"crypt_mat",
			"pbrMetallicRoughness":{
				"baseColorTexture":{
					"index":1
				},
				"metallicFactor":0,
				"roughnessFactor":0.8999999761581421
			}
		}
	],
	"meshes":[
		{
			"name":"Mesh",
			"primitives":[
				{
					"attributes":{
						"POSITION":0,
						"NORMAL":1,
						"TEXCOORD_0":2,
						"TEXCOORD_1":3
					},
					"indices":4,
					"material":0
				}
			]
		}
	],
	"textures":[
		{
			"sampler":0,
			"source":0
		},
		{
			"sampler":0,
			"source":1
		}
	],
	"images":[
		{
			"mimeType":"image/png",
			"name":"PolygonDarkFantasy_01_A_Emissive",
			"uri":"PolygonDarkFantasy_01_A_Emissive.png"
		},
		{
			"mimeType":"image/png",
			"name":"PolygonDarkFantasy_01_A",
			"uri":"PolygonDarkFantasy_01_A.png"
		}
	],
	"accessors":[
		{
			"bufferView":0,
			"componentType":5126,
			"count":2247,
			"max":[
				4.3129682540893555,
				7.48799991607666,
				2.4474916458129883
			],
			"min":[
				-4.312967777252197,
				0,
				-2.4474916458129883
			],
			"type":"VEC3"
		},
		{
			"bufferView":1,
			"componentType":5126,
			"count":2247,
			"type":"VEC3"
		},
		{
			"bufferView":2,
			"componentType":5126,
			"count":2247,
			"type":"VEC2"
		},
		{
			"bufferView":3,
			"componentType":5126,
			"count":2247,
			"type":"VEC2"
		},
		{
			"bufferView":4,
			"componentType":5123,
			"count":3195,
			"type":"SCALAR"
		}
	],
	"bufferViews":[
		{
			"buffer":0,
			"byteLength":26964,
			"byteOffset":0,
			"target":34962
		},
		{
			"buffer":0,
			"byteLength":26964,
			"byteOffset":26964,
			"target":34962
		},
		{
			"buffer":0,
			"byteLength":17976,
			"byteOffset":53928,
			"target":34962
		},
		{
			"buffer":0,
			"byteLength":17976,
			"byteOffset":71904,
			"target":34962
		},
		{
			"buffer":0,
			"byteLength":6390,
			"byteOffset":89880,
			"target":34963
		}
	],
	"samplers":[
		{
			"magFilter":9729,
			"minFilter":9987
		}
	],
	"buffers":[
		{
			"byteLength":96272,
			"uri":"crypt_tree_c.bin"
		}
	]
}
