{"asset":{"generator":"Khronos glTF Blender I/O v5.1.20","version":"2.0"},"scene":0,"scenes":[{"name":"Scene","nodes":[0]}],"nodes":[{"mesh":0,"name":"crypt_moss_a"}],"materials":[{"alphaMode":"BLEND","doubleSided":true,"name":"crypt_sheet_moss","pbrMetallicRoughness":{"baseColorTexture":{"index":0},"metallicFactor":0,"roughnessFactor":0.949999988079071}}],"meshes":[{"name":"Mesh","primitives":[{"attributes":{"POSITION":0,"NORMAL":1,"TEXCOORD_0":2},"indices":3,"material":0}]}],"textures":[{"sampler":0,"source":0}],"images":[{"mimeType":"image/png","name":"crypt_sheet_moss","uri":"crypt_sheet_moss.png"}],"accessors":[{"bufferView":0,"componentType":5126,"count":5,"max":[0.9491667747497559,8.381903171539307e-08,0.8880854249000549],"min":[-0.9491667747497559,0,-0.8880854249000549],"type":"VEC3"},{"bufferView":1,"componentType":5126,"count":5,"type":"VEC3"},{"bufferView":2,"componentType":5126,"count":5,"type":"VEC2"},{"bufferView":3,"componentType":5123,"count":9,"type":"SCALAR"}],"bufferViews":[{"buffer":0,"byteLength":60,"byteOffset":0,"target":34962},{"buffer":0,"byteLength":60,"byteOffset":60,"target":34962},{"buffer":0,"byteLength":40,"byteOffset":120,"target":34962},{"buffer":0,"byteLength":18,"byteOffset":160,"target":34963}],"samplers":[{"magFilter":9729,"minFilter":9987}],"buffers":[{"byteLength":180,"uri":"crypt_moss_a.bin"}]}