{"asset":{"generator":"Khronos glTF Blender I/O v5.1.20","version":"2.0"},"scene":0,"scenes":[{"name":"Scene","nodes":[0,1,2,3,4,5,6,7,8,9,10,11,12,13,14]}],"nodes":[{"mesh":0,"name":"crypt_nave_bay"},{"mesh":1,"name":"SM_Bld_Pillar_05_0_collider"},{"mesh":2,"name":"SM_Bld_Pillar_05_1_collider"},{"mesh":3,"name":"SM_Prop_Tomb_02_2_collider"},{"mesh":4,"name":"SM_Prop_Tomb_02_3_collider"},{"mesh":5,"name":"SM_Prop_Tomb_02_4_collider"},{"mesh":6,"name":"SM_Bld_Pillar_05_5_collider"},{"mesh":7,"name":"SM_Bld_Pillar_05_6_collider"},{"mesh":8,"name":"SM_Prop_Tomb_02_7_collider"},{"mesh":9,"name":"SM_Bld_Pillar_05_8_collider"},{"mesh":10,"name":"SM_Bld_Pillar_05_9_collider"},{"mesh":11,"name":"SM_Bld_Pillar_05_10_collider"},{"mesh":12,"name":"SM_Prop_Tomb_02_11_collider"},{"mesh":13,"name":"SM_Bld_Pillar_05_12_collider"},{"mesh":14,"name":"SM_Prop_Tomb_02_13_collider"}],"materials":[{"doubleSided":true,"emissiveFactor":[1,1,1],"emissiveTexture":{"index":0},"name":"crypt_mat","pbrMetallicRoughness":{"baseColorTexture":{"index":1},"metallicFactor":0,"roughnessFactor":0.8999999761581421}},{"alphaMode":"MASK","doubleSided":true,"name":"crypt_sheet_vines","pbrMetallicRoughness":{"baseColorFactor":[0.23999999463558197,0.3199999928474426,0.15000000596046448,1],"baseColorTexture":{"index":2},"metallicFactor":0,"roughnessFactor":0.949999988079071},"alphaCutoff":0.45}],"meshes":[{"name":"Mesh","primitives":[{"attributes":{"POSITION":0,"NORMAL":1,"TEXCOORD_0":2,"TEXCOORD_1":3,"COLOR_0":4,"COLOR_1":5},"indices":6,"material":0},{"attributes":{"POSITION":7,"NORMAL":8,"TEXCOORD_0":9,"TEXCOORD_1":10,"COLOR_0":11,"COLOR_1":12},"indices":13,"material":1}]},{"name":"SM_Bld_Pillar_05_0_collider","primitives":[{"attributes":{"POSITION":14,"NORMAL":15,"TEXCOORD_0":16},"indices":17}]},{"name":"SM_Bld_Pillar_05_1_collider","primitives":[{"attributes":{"POSITION":18,"NORMAL":19,"TEXCOORD_0":20},"indices":17}]},{"name":"SM_Prop_Tomb_02_2_collider","primitives":[{"attributes":{"POSITION":21,"NORMAL":22,"TEXCOORD_0":23},"indices":17}]},{"name":"SM_Prop_Tomb_02_3_collider","primitives":[{"attributes":{"POSITION":24,"NORMAL":25,"TEXCOORD_0":26},"indices":17}]},{"name":"SM_Prop_Tomb_02_4_collider","primitives":[{"attributes":{"POSITION":27,"NORMAL":28,"TEXCOORD_0":29},"indices":17}]},{"name":"SM_Bld_Pillar_05_5_collider","primitives":[{"attributes":{"POSITION":30,"NORMAL":31,"TEXCOORD_0":32},"indices":17}]},{"name":"SM_Bld_Pillar_05_6_collider","primitives":[{"attributes":{"POSITION":33,"NORMAL":34,"TEXCOORD_0":35},"indices":17}]},{"name":"SM_Prop_Tomb_02_7_collider","primitives":[{"attributes":{"POSITION":36,"NORMAL":37,"TEXCOORD_0":38},"indices":17}]},{"name":"SM_Bld_Pillar_05_8_collider","primitives":[{"attributes":{"POSITION":39,"NORMAL":40,"TEXCOORD_0":41},"indices":17}]},{"name":"SM_Bld_Pillar_05_9_collider","primitives":[{"attributes":{"POSITION":42,"NORMAL":43,"TEXCOORD_0":44},"indices":17}]},{"name":"SM_Bld_Pillar_05_10_collider","primitives":[{"attributes":{"POSITION":45,"NORMAL":46,"TEXCOORD_0":47},"indices":17}]},{"name":"SM_Prop_Tomb_02_11_collider","primitives":[{"attributes":{"POSITION":48,"NORMAL":49,"TEXCOORD_0":50},"indices":17}]},{"name":"SM_Bld_Pillar_05_12_collider","primitives":[{"attributes":{"POSITION":51,"NORMAL":52,"TEXCOORD_0":53},"indices":17}]},{"name":"SM_Prop_Tomb_02_13_collider","primitives":[{"attributes":{"POSITION":54,"NORMAL":55,"TEXCOORD_0":56},"indices":17}]}],"textures":[{"sampler":0,"source":0},{"sampler":0,"source":1},{"sampler":0,"source":2}],"images":[{"mimeType":"image/png","name":"PolygonDarkFantasy_01_A_Emissive","uri":"PolygonDarkFantasy_01_A_Emissive.png"},{"mimeType":"image/png","name":"PolygonDarkFantasy_01_A","uri":"PolygonDarkFantasy_01_A.png"},{"mimeType":"image/png","name":"Vines_01","uri":"Vines_01.png"}],"accessors":[{"bufferView":0,"componentType":5126,"count":100384,"max":[5.377150535583496,6.222334861755371,5.838947772979736],"min":[-5.377150535583496,0,-5.838947772979736],"type":"VEC3"},{"bufferView":1,"componentType":5126,"count":100384,"type":"VEC3"},{"bufferView":2,"componentType":5126,"count":100384,"type":"VEC2"},{"bufferView":3,"componentType":5126,"count":100384,"type":"VEC2"},{"bufferView":4,"componentType":5121,"count":100384,"normalized":true,"type":"VEC4"},{"bufferView":5,"componentType":5123,"count":100384,"normalized":true,"type":"VEC4"},{"bufferView":6,"componentType":5125,"count":160905,"type":"SCALAR"},{"bufferView":7,"componentType":5126,"count":681,"max":[3.380375623703003,5.415505409240723,5.53422737121582],"min":[-4.472887992858887,0.07646825164556503,1.6113919019699097],"type":"VEC3"},{"bufferView":8,"componentType":5126,"count":681,"type":"VEC3"},{"bufferView":9,"componentType":5126,"count":681,"type":"VEC2"},{"bufferView":10,"componentType":5126,"count":681,"type":"VEC2"},{"bufferView":11,"componentType":5121,"count":681,"normalized":true,"type":"VEC4"},{"bufferView":12,"componentType":5123,"count":681,"normalized":true,"type":"VEC4"},{"bufferView":13,"componentType":5123,"count":2619,"type":"SCALAR"},{"bufferView":14,"componentType":5126,"count":24,"max":[1.204751968383789,6.088335037231445,0.3579963445663452],"min":[0.2848176956176758,0.08833496272563934,-0.5619378089904785],"type":"VEC3"},{"bufferView":15,"componentType":5126,"count":24,"type":"VEC3"},{"bufferView":16,"componentType":5126,"count":24,"type":"VEC2"},{"bufferView":17,"componentType":5123,"count":36,"type":"SCALAR"},{"bufferView":18,"componentType":5126,"count":24,"max":[1.204751968383789,6.088335037231445,0.3579963445663452],"min":[0.2848176956176758,0.08833496272563934,-0.5619378089904785],"type":"VEC3"},{"bufferView":19,"componentType":5126,"count":24,"type":"VEC3"},{"bufferView":20,"componentType":5126,"count":24,"type":"VEC2"},{"bufferView":21,"componentType":5126,"count":24,"max":[1.3618855476379395,1.254806399345398,1.1057125329971313],"min":[0.0983266830444336,0.09641198813915253,-1.3108183145523071],"type":"VEC3"},{"bufferView":22,"componentType":5126,"count":24,"type":"VEC3"},{"bufferView":23,"componentType":5126,"count":24,"type":"VEC2"},{"bufferView":24,"componentType":5126,"count":24,"max":[1.350923776626587,1.254806399345398,1.098846435546875],"min":[0.10168832540512085,0.09641198813915253,-1.3027868270874023],"type":"VEC3"},{"bufferView":25,"componentType":5126,"count":24,"type":"VEC3"},{"bufferView":26,"componentType":5126,"count":24,"type":"VEC2"},{"bufferView":27,"componentType":5126,"count":24,"max":[1.350923776626587,1.254806399345398,1.098846435546875],"min":[0.10168832540512085,0.09641198813915253,-1.3027868270874023],"type":"VEC3"},{"bufferView":28,"componentType":5126,"count":24,"type":"VEC3"},{"bufferView":29,"componentType":5126,"count":24,"type":"VEC2"},{"bufferView":30,"componentType":5126,"count":24,"max":[1.204751968383789,6.088335037231445,0.3579963445663452],"min":[0.2848176956176758,0.08833496272563934,-0.5619378089904785],"type":"VEC3"},{"bufferView":31,"componentType":5126,"count":24,"type":"VEC3"},{"bufferView":32,"componentType":5126,"count":24,"type":"VEC2"},{"bufferView":33,"componentType":5126,"count":24,"max":[1.204751968383789,6.088335037231445,0.3579963445663452],"min":[0.2848176956176758,0.08833496272563934,-0.5619378089904785],"type":"VEC3"},{"bufferView":34,"componentType":5126,"count":24,"type":"VEC3"},{"bufferView":35,"componentType":5126,"count":24,"type":"VEC2"},{"bufferView":36,"componentType":5126,"count":24,"max":[1.350923776626587,1.254806399345398,1.098846435546875],"min":[0.10168832540512085,0.09641198813915253,-1.3027868270874023],"type":"VEC3"},{"bufferView":37,"componentType":5126,"count":24,"type":"VEC3"},{"bufferView":38,"componentType":5126,"count":24,"type":"VEC2"},{"bufferView":39,"componentType":5126,"count":24,"max":[1.204751968383789,6.088335037231445,0.3579963445663452],"min":[0.2848176956176758,0.08833496272563934,-0.5619378089904785],"type":"VEC3"},{"bufferView":40,"componentType":5126,"count":24,"type":"VEC3"},{"bufferView":41,"componentType":5126,"count":24,"type":"VEC2"},{"bufferView":42,"componentType":5126,"count":24,"max":[1.204751968383789,6.088335037231445,0.3579963445663452],"min":[0.2848176956176758,0.08833496272563934,-0.5619378089904785],"type":"VEC3"},{"bufferView":43,"componentType":5126,"count":24,"type":"VEC3"},{"bufferView":44,"componentType":5126,"count":24,"type":"VEC2"},{"bufferView":45,"componentType":5126,"count":24,"max":[1.204751968383789,6.088335037231445,0.3579963445663452],"min":[0.2848176956176758,0.08833496272563934,-0.5619378089904785],"type":"VEC3"},{"bufferView":46,"componentType":5126,"count":24,"type":"VEC3"},{"bufferView":47,"componentType":5126,"count":24,"type":"VEC2"},{"bufferView":48,"componentType":5126,"count":24,"max":[1.4863308668136597,1.254806399345398,1.1543464660644531],"min":[-0.0013306140899658203,0.09641198813915253,-1.359499216079712],"type":"VEC3"},{"bufferView":49,"componentType":5126,"count":24,"type":"VEC3"},{"bufferView":50,"componentType":5126,"count":24,"type":"VEC2"},{"bufferView":51,"componentType":5126,"count":24,"max":[1.204751968383789,6.088335037231445,0.3579963445663452],"min":[0.2848176956176758,0.08833496272563934,-0.5619378089904785],"type":"VEC3"},{"bufferView":52,"componentType":5126,"count":24,"type":"VEC3"},{"bufferView":53,"componentType":5126,"count":24,"type":"VEC2"},{"bufferView":54,"componentType":5126,"count":24,"max":[1.350923776626587,1.254806399345398,1.098846435546875],"min":[0.10168832540512085,0.09641198813915253,-1.3027868270874023],"type":"VEC3"},{"bufferView":55,"componentType":5126,"count":24,"type":"VEC3"},{"bufferView":56,"componentType":5126,"count":24,"type":"VEC2"}],"bufferViews":[{"buffer":0,"byteLength":1204608,"byteOffset":0,"target":34962},{"buffer":0,"byteLength":1204608,"byteOffset":1204608,"target":34962},{"buffer":0,"byteLength":803072,"byteOffset":2409216,"target":34962},{"buffer":0,"byteLength":803072,"byteOffset":3212288,"target":34962},{"buffer":0,"byteLength":401536,"byteOffset":4015360,"target":34962},{"buffer":0,"byteLength":803072,"byteOffset":4416896,"target":34962},{"buffer":0,"byteLength":643620,"byteOffset":5219968,"target":34963},{"buffer":0,"byteLength":8172,"byteOffset":5863588,"target":34962},{"buffer":0,"byteLength":8172,"byteOffset":5871760,"target":34962},{"buffer":0,"byteLength":5448,"byteOffset":5879932,"target":34962},{"buffer":0,"byteLength":5448,"byteOffset":5885380,"target":34962},{"buffer":0,"byteLength":2724,"byteOffset":5890828,"target":34962},{"buffer":0,"byteLength":5448,"byteOffset":5893552,"target":34962},{"buffer":0,"byteLength":5238,"byteOffset":5899000,"target":34963},{"buffer":0,"byteLength":288,"byteOffset":5904240,"target":34962},{"buffer":0,"byteLength":288,"byteOffset":5904528,"target":34962},{"buffer":0,"byteLength":192,"byteOffset":5904816,"target":34962},{"buffer":0,"byteLength":72,"byteOffset":5905008,"target":34963},{"buffer":0,"byteLength":288,"byteOffset":5905080,"target":34962},{"buffer":0,"byteLength":288,"byteOffset":5905368,"target":34962},{"buffer":0,"byteLength":192,"byteOffset":5905656,"target":34962},{"buffer":0,"byteLength":288,"byteOffset":5905848,"target":34962},{"buffer":0,"byteLength":288,"byteOffset":5906136,"target":34962},{"buffer":0,"byteLength":192,"byteOffset":5906424,"target":34962},{"buffer":0,"byteLength":288,"byteOffset":5906616,"target":34962},{"buffer":0,"byteLength":288,"byteOffset":5906904,"target":34962},{"buffer":0,"byteLength":192,"byteOffset":5907192,"target":34962},{"buffer":0,"byteLength":288,"byteOffset":5907384,"target":34962},{"buffer":0,"byteLength":288,"byteOffset":5907672,"target":34962},{"buffer":0,"byteLength":192,"byteOffset":5907960,"target":34962},{"buffer":0,"byteLength":288,"byteOffset":5908152,"target":34962},{"buffer":0,"byteLength":288,"byteOffset":5908440,"target":34962},{"buffer":0,"byteLength":192,"byteOffset":5908728,"target":34962},{"buffer":0,"byteLength":288,"byteOffset":5908920,"target":34962},{"buffer":0,"byteLength":288,"byteOffset":5909208,"target":34962},{"buffer":0,"byteLength":192,"byteOffset":5909496,"target":34962},{"buffer":0,"byteLength":288,"byteOffset":5909688,"target":34962},{"buffer":0,"byteLength":288,"byteOffset":5909976,"target":34962},{"buffer":0,"byteLength":192,"byteOffset":5910264,"target":34962},{"buffer":0,"byteLength":288,"byteOffset":5910456,"target":34962},{"buffer":0,"byteLength":288,"byteOffset":5910744,"target":34962},{"buffer":0,"byteLength":192,"byteOffset":5911032,"target":34962},{"buffer":0,"byteLength":288,"byteOffset":5911224,"target":34962},{"buffer":0,"byteLength":288,"byteOffset":5911512,"target":34962},{"buffer":0,"byteLength":192,"byteOffset":5911800,"target":34962},{"buffer":0,"byteLength":288,"byteOffset":5911992,"target":34962},{"buffer":0,"byteLength":288,"byteOffset":5912280,"target":34962},{"buffer":0,"byteLength":192,"byteOffset":5912568,"target":34962},{"buffer":0,"byteLength":288,"byteOffset":5912760,"target":34962},{"buffer":0,"byteLength":288,"byteOffset":5913048,"target":34962},{"buffer":0,"byteLength":192,"byteOffset":5913336,"target":34962},{"buffer":0,"byteLength":288,"byteOffset":5913528,"target":34962},{"buffer":0,"byteLength":288,"byteOffset":5913816,"target":34962},{"buffer":0,"byteLength":192,"byteOffset":5914104,"target":34962},{"buffer":0,"byteLength":288,"byteOffset":5914296,"target":34962},{"buffer":0,"byteLength":288,"byteOffset":5914584,"target":34962},{"buffer":0,"byteLength":192,"byteOffset":5914872,"target":34962}],"samplers":[{"magFilter":9729,"minFilter":9987}],"buffers":[{"byteLength":5915064,"uri":"crypt_nave_bay.bin"}]}