{
	"asset":{
		"generator":"Khronos glTF Blender I/O v5.1.20",
		"version":"2.0"
	},
	"scene":0,
	"scenes":[
		{
			"name":"Scene",
			"nodes":[
				0
			]
		}
	],
	"nodes":[
		{
			"mesh":0,
			"name":"crypt_portal"
		}
	],
	"materials":[
		{
			"doubleSided":true,
			"emissiveFactor":[
				1,
				1,
				1
			],
			"emissiveTexture":{
				"index":0
			},
			"name":"crypt_mat",
			"pbrMetallicRoughness":{
				"baseColorTexture":{
					"index":1
				},
				"metallicFactor":0,
				"roughnessFactor":0.8999999761581421
			}
		},
		{
			"doubleSided":true,
			"name":"crypt_tiling_mat",
			"pbrMetallicRoughness":{
				"baseColorTexture":{
					"index":2
				},
				"metallicFactor":0,
				"roughnessFactor":0.8999999761581421
			}
		}
	],
	"meshes":[
		{
			"name":"Mesh",
			"primitives":[
				{
					"attributes":{
						"POSITION":0,
						"NORMAL":1,
						"TEXCOORD_0":2
					},
					"indices":3,
					"material":0
				},
				{
					"attributes":{
						"POSITION":4,
						"NORMAL":5,
						"TEXCOORD_0":6
					},
					"indices":7,
					"material":1
				},
				{
					"attributes":{
						"POSITION":8,
						"NORMAL":9,
						"TEXCOORD_0":10
					},
					"indices":11,
					"material":1
				}
			]
		}
	],
	"textures":[
		{
			"sampler":0,
			"source":0
		},
		{
			"sampler":0,
			"source":1
		},
		{
			"sampler":0,
			"source":2
		}
	],
	"images":[
		{
			"mimeType":"image/png",
			"name":"PolygonDarkFantasy_01_A_Emissive",
			"uri":"PolygonDarkFantasy_01_A_Emissive.png"
		},
		{
			"mimeType":"image/png",
			"name":"PolygonDarkFantasy_01_A",
			"uri":"PolygonDarkFantasy_01_A.png"
		},
		{
			"mimeType":"image/png",
			"name":"Brick_Large_01",
			"uri":"Brick_Large_01.png"
		}
	],
	"accessors":[
		{
			"bufferView":0,
			"componentType":5126,
			"count":10938,
			"max":[
				1.332027554512024,
				6.210534572601318,
				0.5551501512527466
			],
			"min":[
				-1.332027554512024,
				0,
				-0.5551501512527466
			],
			"type":"VEC3"
		},
		{
			"bufferView":1,
			"componentType":5126,
			"count":10938,
			"type":"VEC3"
		},
		{
			"bufferView":2,
			"componentType":5126,
			"count":10938,
			"type":"VEC2"
		},
		{
			"bufferView":3,
			"componentType":5123,
			"count":18759,
			"type":"SCALAR"
		},
		{
			"bufferView":4,
			"componentType":5126,
			"count":38,
			"max":[
				1.2499958276748657,
				6.005740642547607,
				0
			],
			"min":[
				-1.2499955892562866,
				1.8600704265736567e-07,
				-0.11250045150518417
			],
			"type":"VEC3"
		},
		{
			"bufferView":5,
			"componentType":5126,
			"count":38,
			"type":"VEC3"
		},
		{
			"bufferView":6,
			"componentType":5126,
			"count":38,
			"type":"VEC2"
		},
		{
			"bufferView":7,
			"componentType":5123,
			"count":66,
			"type":"SCALAR"
		},
		{
			"bufferView":8,
			"componentType":5126,
			"count":38,
			"max":[
				1.2499958276748657,
				6.005740642547607,
				0.11249999701976776
			],
			"min":[
				-1.2499955892562866,
				1.9450055788183818e-07,
				-4.5342082444221887e-07
			],
			"type":"VEC3"
		},
		{
			"bufferView":9,
			"componentType":5126,
			"count":38,
			"type":"VEC3"
		},
		{
			"bufferView":10,
			"componentType":5126,
			"count":38,
			"type":"VEC2"
		},
		{
			"bufferView":11,
			"componentType":5123,
			"count":66,
			"type":"SCALAR"
		}
	],
	"bufferViews":[
		{
			"buffer":0,
			"byteLength":131256,
			"byteOffset":0,
			"target":34962
		},
		{
			"buffer":0,
			"byteLength":131256,
			"byteOffset":131256,
			"target":34962
		},
		{
			"buffer":0,
			"byteLength":87504,
			"byteOffset":262512,
			"target":34962
		},
		{
			"buffer":0,
			"byteLength":37518,
			"byteOffset":350016,
			"target":34963
		},
		{
			"buffer":0,
			"byteLength":456,
			"byteOffset":387536,
			"target":34962
		},
		{
			"buffer":0,
			"byteLength":456,
			"byteOffset":387992,
			"target":34962
		},
		{
			"buffer":0,
			"byteLength":304,
			"byteOffset":388448,
			"target":34962
		},
		{
			"buffer":0,
			"byteLength":132,
			"byteOffset":388752,
			"target":34963
		},
		{
			"buffer":0,
			"byteLength":456,
			"byteOffset":388884,
			"target":34962
		},
		{
			"buffer":0,
			"byteLength":456,
			"byteOffset":389340,
			"target":34962
		},
		{
			"buffer":0,
			"byteLength":304,
			"byteOffset":389796,
			"target":34962
		},
		{
			"buffer":0,
			"byteLength":132,
			"byteOffset":390100,
			"target":34963
		}
	],
	"samplers":[
		{
			"magFilter":9729,
			"minFilter":9987
		}
	],
	"buffers":[
		{
			"byteLength":390232,
			"uri":"crypt_portal.bin"
		}
	]
}
