{"asset":{"generator":"Khronos glTF Blender I/O v5.1.20","version":"2.0"},"scene":0,"scenes":[{"name":"Scene","nodes":[0]}],"nodes":[{"mesh":0,"name":"crypt_graves_a"}],"materials":[{"doubleSided":true,"emissiveFactor":[1,1,1],"emissiveTexture":{"index":0},"name":"crypt_mat","pbrMetallicRoughness":{"baseColorTexture":{"index":1},"metallicFactor":0,"roughnessFactor":0.8999999761581421}}],"meshes":[{"name":"Mesh","primitives":[{"attributes":{"POSITION":0,"NORMAL":1,"TEXCOORD_0":2,"TEXCOORD_1":3,"COLOR_0":4,"COLOR_1":5},"indices":6,"material":0}]}],"textures":[{"sampler":0,"source":0},{"sampler":0,"source":1}],"images":[{"mimeType":"image/png","name":"PolygonDarkFantasy_01_A_Emissive","uri":"PolygonDarkFantasy_01_A_Emissive.png"},{"mimeType":"image/png","name":"PolygonDarkFantasy_01_A","uri":"PolygonDarkFantasy_01_A.png"}],"accessors":[{"bufferView":0,"componentType":5126,"count":60787,"max":[7.372066974639893,4.296041488647461,8.228616714477539],"min":[-7.372066974639893,-1.25,-8.228616714477539],"type":"VEC3"},{"bufferView":1,"componentType":5126,"count":60787,"type":"VEC3"},{"bufferView":2,"componentType":5126,"count":60787,"type":"VEC2"},{"bufferView":3,"componentType":5126,"count":60787,"type":"VEC2"},{"bufferView":4,"componentType":5121,"count":60787,"normalized":true,"type":"VEC4"},{"bufferView":5,"componentType":5123,"count":60787,"normalized":true,"type":"VEC4"},{"bufferView":6,"componentType":5123,"count":79389,"type":"SCALAR"}],"bufferViews":[{"buffer":0,"byteLength":729444,"byteOffset":0,"target":34962},{"buffer":0,"byteLength":729444,"byteOffset":729444,"target":34962},{"buffer":0,"byteLength":486296,"byteOffset":1458888,"target":34962},{"buffer":0,"byteLength":486296,"byteOffset":1945184,"target":34962},{"buffer":0,"byteLength":243148,"byteOffset":2431480,"target":34962},{"buffer":0,"byteLength":486296,"byteOffset":2674628,"target":34962},{"buffer":0,"byteLength":158778,"byteOffset":3160924,"target":34963}],"samplers":[{"magFilter":9729,"minFilter":9987}],"buffers":[{"byteLength":3319704,"uri":"crypt_graves_a.bin"}]}