{
	"asset":{
		"generator":"Khronos glTF Blender I/O v5.1.20",
		"version":"2.0"
	},
	"scene":0,
	"scenes":[
		{
			"name":"Scene",
			"nodes":[
				0
			]
		}
	],
	"nodes":[
		{
			"mesh":0,
			"name":"crypt_rubble_b"
		}
	],
	"materials":[
		{
			"doubleSided":true,
			"emissiveFactor":[
				1,
				1,
				1
			],
			"emissiveTexture":{
				"index":0
			},
			"name":"crypt_mat",
			"pbrMetallicRoughness":{
				"baseColorTexture":{
					"index":1
				},
				"metallicFactor":0,
				"roughnessFactor":0.8999999761581421
			}
		}
	],
	"meshes":[
		{
			"name":"Mesh",
			"primitives":[
				{
					"attributes":{
						"POSITION":0,
						"NORMAL":1,
						"TEXCOORD_0":2,
						"TEXCOORD_1":3
					},
					"indices":4,
					"material":0
				}
			]
		}
	],
	"textures":[
		{
			"sampler":0,
			"source":0
		},
		{
			"sampler":0,
			"source":1
		}
	],
	"images":[
		{
			"mimeType":"image/png",
			"name":"PolygonDarkFantasy_01_A_Emissive",
			"uri":"PolygonDarkFantasy_01_A_Emissive.png"
		},
		{
			"mimeType":"image/png",
			"name":"PolygonDarkFantasy_01_A",
			"uri":"PolygonDarkFantasy_01_A.png"
		}
	],
	"accessors":[
		{
			"bufferView":0,
			"componentType":5126,
			"count":871,
			"max":[
				1.1126766204833984,
				0.5379082560539246,
				1.0977966785430908
			],
			"min":[
				-1.1126766204833984,
				0,
				-1.0977966785430908
			],
			"type":"VEC3"
		},
		{
			"bufferView":1,
			"componentType":5126,
			"count":871,
			"type":"VEC3"
		},
		{
			"bufferView":2,
			"componentType":5126,
			"count":871,
			"type":"VEC2"
		},
		{
			"bufferView":3,
			"componentType":5126,
			"count":871,
			"type":"VEC2"
		},
		{
			"bufferView":4,
			"componentType":5123,
			"count":1065,
			"type":"SCALAR"
		}
	],
	"bufferViews":[
		{
			"buffer":0,
			"byteLength":10452,
			"byteOffset":0,
			"target":34962
		},
		{
			"buffer":0,
			"byteLength":10452,
			"byteOffset":10452,
			"target":34962
		},
		{
			"buffer":0,
			"byteLength":6968,
			"byteOffset":20904,
			"target":34962
		},
		{
			"buffer":0,
			"byteLength":6968,
			"byteOffset":27872,
			"target":34962
		},
		{
			"buffer":0,
			"byteLength":2130,
			"byteOffset":34840,
			"target":34963
		}
	],
	"samplers":[
		{
			"magFilter":9729,
			"minFilter":9987
		}
	],
	"buffers":[
		{
			"byteLength":36972,
			"uri":"crypt_rubble_b.bin"
		}
	]
}
