{
	"asset":{
		"generator":"Khronos glTF Blender I/O v5.1.20",
		"version":"2.0"
	},
	"scene":0,
	"scenes":[
		{
			"name":"Scene",
			"nodes":[
				0
			]
		}
	],
	"nodes":[
		{
			"mesh":0,
			"name":"crypt_tabernacle"
		}
	],
	"materials":[
		{
			"doubleSided":true,
			"emissiveFactor":[
				1,
				1,
				1
			],
			"emissiveTexture":{
				"index":0
			},
			"name":"crypt_mat",
			"pbrMetallicRoughness":{
				"baseColorTexture":{
					"index":1
				},
				"metallicFactor":0,
				"roughnessFactor":0.8999999761581421
			}
		}
	],
	"meshes":[
		{
			"name":"Mesh",
			"primitives":[
				{
					"attributes":{
						"POSITION":0,
						"NORMAL":1,
						"TEXCOORD_0":2
					},
					"indices":3,
					"material":0
				}
			]
		}
	],
	"textures":[
		{
			"sampler":0,
			"source":0
		},
		{
			"sampler":0,
			"source":1
		}
	],
	"images":[
		{
			"mimeType":"image/png",
			"name":"PolygonDarkFantasy_01_A_Emissive",
			"uri":"PolygonDarkFantasy_01_A_Emissive.png"
		},
		{
			"mimeType":"image/png",
			"name":"PolygonDarkFantasy_01_A",
			"uri":"PolygonDarkFantasy_01_A.png"
		}
	],
	"accessors":[
		{
			"bufferView":0,
			"componentType":5126,
			"count":12409,
			"max":[
				1.822790503501892,
				1.4403222799301147,
				0.6149224042892456
			],
			"min":[
				-1.822790503501892,
				-3.979056373282219e-08,
				-0.6149225234985352
			],
			"type":"VEC3"
		},
		{
			"bufferView":1,
			"componentType":5126,
			"count":12409,
			"type":"VEC3"
		},
		{
			"bufferView":2,
			"componentType":5126,
			"count":12409,
			"type":"VEC2"
		},
		{
			"bufferView":3,
			"componentType":5123,
			"count":17823,
			"type":"SCALAR"
		}
	],
	"bufferViews":[
		{
			"buffer":0,
			"byteLength":148908,
			"byteOffset":0,
			"target":34962
		},
		{
			"buffer":0,
			"byteLength":148908,
			"byteOffset":148908,
			"target":34962
		},
		{
			"buffer":0,
			"byteLength":99272,
			"byteOffset":297816,
			"target":34962
		},
		{
			"buffer":0,
			"byteLength":35646,
			"byteOffset":397088,
			"target":34963
		}
	],
	"samplers":[
		{
			"magFilter":9729,
			"minFilter":9987
		}
	],
	"buffers":[
		{
			"byteLength":432736,
			"uri":"crypt_tabernacle.bin"
		}
	]
}
