{
	"asset":{
		"generator":"Khronos glTF Blender I/O v5.1.20",
		"version":"2.0"
	},
	"scene":0,
	"scenes":[
		{
			"name":"Scene",
			"nodes":[
				0
			]
		}
	],
	"nodes":[
		{
			"mesh":0,
			"name":"crypt_buttress"
		}
	],
	"materials":[
		{
			"doubleSided":true,
			"emissiveFactor":[
				1,
				1,
				1
			],
			"emissiveTexture":{
				"index":0
			},
			"name":"crypt_mat",
			"pbrMetallicRoughness":{
				"baseColorTexture":{
					"index":1
				},
				"metallicFactor":0,
				"roughnessFactor":0.8999999761581421
			}
		},
		{
			"doubleSided":true,
			"name":"crypt_tiling_mat",
			"pbrMetallicRoughness":{
				"baseColorTexture":{
					"index":2
				},
				"metallicFactor":0,
				"roughnessFactor":0.8999999761581421
			}
		}
	],
	"meshes":[
		{
			"name":"Mesh",
			"primitives":[
				{
					"attributes":{
						"POSITION":0,
						"NORMAL":1,
						"TEXCOORD_0":2
					},
					"indices":3,
					"material":0
				},
				{
					"attributes":{
						"POSITION":4,
						"NORMAL":5,
						"TEXCOORD_0":6
					},
					"indices":7,
					"material":1
				},
				{
					"attributes":{
						"POSITION":8,
						"NORMAL":9,
						"TEXCOORD_0":10
					},
					"indices":11,
					"material":1
				}
			]
		}
	],
	"textures":[
		{
			"sampler":0,
			"source":0
		},
		{
			"sampler":0,
			"source":1
		},
		{
			"sampler":0,
			"source":2
		}
	],
	"images":[
		{
			"mimeType":"image/png",
			"name":"PolygonDarkFantasy_01_A_Emissive",
			"uri":"PolygonDarkFantasy_01_A_Emissive.png"
		},
		{
			"mimeType":"image/png",
			"name":"PolygonDarkFantasy_01_A",
			"uri":"PolygonDarkFantasy_01_A.png"
		},
		{
			"mimeType":"image/png",
			"name":"Brick_Large_01",
			"uri":"Brick_Large_01.png"
		}
	],
	"accessors":[
		{
			"bufferView":0,
			"componentType":5126,
			"count":587,
			"max":[
				0.5967864990234375,
				7.59417724609375,
				0.764523446559906
			],
			"min":[
				-0.5967864990234375,
				0,
				-0.7645233869552612
			],
			"type":"VEC3"
		},
		{
			"bufferView":1,
			"componentType":5126,
			"count":587,
			"type":"VEC3"
		},
		{
			"bufferView":2,
			"componentType":5126,
			"count":587,
			"type":"VEC2"
		},
		{
			"bufferView":3,
			"componentType":5123,
			"count":924,
			"type":"SCALAR"
		},
		{
			"bufferView":4,
			"componentType":5126,
			"count":64,
			"max":[
				0.48399657011032104,
				5.091034889221191,
				0.6200056672096252
			],
			"min":[
				-0.4839880168437958,
				1.4175305366516113,
				-0.6200577616691589
			],
			"type":"VEC3"
		},
		{
			"bufferView":5,
			"componentType":5126,
			"count":64,
			"type":"VEC3"
		},
		{
			"bufferView":6,
			"componentType":5126,
			"count":64,
			"type":"VEC2"
		},
		{
			"bufferView":7,
			"componentType":5123,
			"count":96,
			"type":"SCALAR"
		},
		{
			"bufferView":8,
			"componentType":5126,
			"count":16,
			"max":[
				0.3971313536167145,
				1.2100696563720703,
				0.508612334728241
			],
			"min":[
				-0.3971313536167145,
				0.5364770293235779,
				-0.474132776260376
			],
			"type":"VEC3"
		},
		{
			"bufferView":9,
			"componentType":5126,
			"count":16,
			"type":"VEC3"
		},
		{
			"bufferView":10,
			"componentType":5126,
			"count":16,
			"type":"VEC2"
		},
		{
			"bufferView":11,
			"componentType":5123,
			"count":24,
			"type":"SCALAR"
		}
	],
	"bufferViews":[
		{
			"buffer":0,
			"byteLength":7044,
			"byteOffset":0,
			"target":34962
		},
		{
			"buffer":0,
			"byteLength":7044,
			"byteOffset":7044,
			"target":34962
		},
		{
			"buffer":0,
			"byteLength":4696,
			"byteOffset":14088,
			"target":34962
		},
		{
			"buffer":0,
			"byteLength":1848,
			"byteOffset":18784,
			"target":34963
		},
		{
			"buffer":0,
			"byteLength":768,
			"byteOffset":20632,
			"target":34962
		},
		{
			"buffer":0,
			"byteLength":768,
			"byteOffset":21400,
			"target":34962
		},
		{
			"buffer":0,
			"byteLength":512,
			"byteOffset":22168,
			"target":34962
		},
		{
			"buffer":0,
			"byteLength":192,
			"byteOffset":22680,
			"target":34963
		},
		{
			"buffer":0,
			"byteLength":192,
			"byteOffset":22872,
			"target":34962
		},
		{
			"buffer":0,
			"byteLength":192,
			"byteOffset":23064,
			"target":34962
		},
		{
			"buffer":0,
			"byteLength":128,
			"byteOffset":23256,
			"target":34962
		},
		{
			"buffer":0,
			"byteLength":48,
			"byteOffset":23384,
			"target":34963
		}
	],
	"samplers":[
		{
			"magFilter":9729,
			"minFilter":9987
		}
	],
	"buffers":[
		{
			"byteLength":23432,
			"uri":"crypt_buttress.bin"
		}
	]
}
