{"asset":{"generator":"Khronos glTF Blender I/O v5.1.20","version":"2.0"},"scene":0,"scenes":[{"name":"Scene","nodes":[0]}],"nodes":[{"mesh":0,"name":"crypt_grunge_a"}],"materials":[{"alphaMode":"BLEND","doubleSided":true,"name":"crypt_sheet_grunge","pbrMetallicRoughness":{"baseColorFactor":[0.07999999821186066,0.07999999821186066,0.07999999821186066,0.699999988079071],"baseColorTexture":{"index":0},"metallicFactor":0,"roughnessFactor":0.949999988079071}}],"meshes":[{"name":"Mesh","primitives":[{"attributes":{"POSITION":0,"NORMAL":1,"TEXCOORD_0":2},"indices":3,"material":0}]}],"textures":[{"sampler":0,"source":0}],"images":[{"mimeType":"image/png","name":"Grunge_01","uri":"Grunge_01.png"}],"accessors":[{"bufferView":0,"componentType":5126,"count":10,"max":[1.1047338247299194,1.685693860054016e-07,1.114640712738037],"min":[-1.1047338247299194,0,-1.114640712738037],"type":"VEC3"},{"bufferView":1,"componentType":5126,"count":10,"type":"VEC3"},{"bufferView":2,"componentType":5126,"count":10,"type":"VEC2"},{"bufferView":3,"componentType":5123,"count":24,"type":"SCALAR"}],"bufferViews":[{"buffer":0,"byteLength":120,"byteOffset":0,"target":34962},{"buffer":0,"byteLength":120,"byteOffset":120,"target":34962},{"buffer":0,"byteLength":80,"byteOffset":240,"target":34962},{"buffer":0,"byteLength":48,"byteOffset":320,"target":34963}],"samplers":[{"magFilter":9729,"minFilter":9987}],"buffers":[{"byteLength":368,"uri":"crypt_grunge_a.bin"}]}