{
	"asset":{
		"generator":"Khronos glTF Blender I/O v5.1.20",
		"version":"2.0"
	},
	"scene":0,
	"scenes":[
		{
			"name":"Scene",
			"nodes":[
				0
			]
		}
	],
	"nodes":[
		{
			"mesh":0,
			"name":"crypt_sconce"
		}
	],
	"materials":[
		{
			"doubleSided":true,
			"emissiveFactor":[
				1,
				1,
				1
			],
			"emissiveTexture":{
				"index":0
			},
			"name":"crypt_mat",
			"pbrMetallicRoughness":{
				"baseColorTexture":{
					"index":1
				},
				"metallicFactor":0,
				"roughnessFactor":0.8999999761581421
			}
		}
	],
	"meshes":[
		{
			"name":"Mesh",
			"primitives":[
				{
					"attributes":{
						"POSITION":0,
						"NORMAL":1,
						"TEXCOORD_0":2,
						"TEXCOORD_1":3
					},
					"indices":4,
					"material":0
				}
			]
		}
	],
	"textures":[
		{
			"sampler":0,
			"source":0
		},
		{
			"sampler":0,
			"source":1
		}
	],
	"images":[
		{
			"mimeType":"image/png",
			"name":"PolygonDarkFantasy_01_A_Emissive",
			"uri":"PolygonDarkFantasy_01_A_Emissive.png"
		},
		{
			"mimeType":"image/png",
			"name":"PolygonDarkFantasy_01_A",
			"uri":"PolygonDarkFantasy_01_A.png"
		}
	],
	"accessors":[
		{
			"bufferView":0,
			"componentType":5126,
			"count":2095,
			"max":[
				0.45553022623062134,
				1.4390473365783691,
				0.1688840538263321
			],
			"min":[
				-0.45553022623062134,
				0,
				-0.1688840389251709
			],
			"type":"VEC3"
		},
		{
			"bufferView":1,
			"componentType":5126,
			"count":2095,
			"type":"VEC3"
		},
		{
			"bufferView":2,
			"componentType":5126,
			"count":2095,
			"type":"VEC2"
		},
		{
			"bufferView":3,
			"componentType":5126,
			"count":2095,
			"type":"VEC2"
		},
		{
			"bufferView":4,
			"componentType":5123,
			"count":3126,
			"type":"SCALAR"
		}
	],
	"bufferViews":[
		{
			"buffer":0,
			"byteLength":25140,
			"byteOffset":0,
			"target":34962
		},
		{
			"buffer":0,
			"byteLength":25140,
			"byteOffset":25140,
			"target":34962
		},
		{
			"buffer":0,
			"byteLength":16760,
			"byteOffset":50280,
			"target":34962
		},
		{
			"buffer":0,
			"byteLength":16760,
			"byteOffset":67040,
			"target":34962
		},
		{
			"buffer":0,
			"byteLength":6252,
			"byteOffset":83800,
			"target":34963
		}
	],
	"samplers":[
		{
			"magFilter":9729,
			"minFilter":9987
		}
	],
	"buffers":[
		{
			"byteLength":90052,
			"uri":"crypt_sconce.bin"
		}
	]
}
