{"asset":{"generator":"Khronos glTF Blender I/O v5.1.20","version":"2.0"},"scene":0,"scenes":[{"name":"Scene","nodes":[0]}],"nodes":[{"mesh":0,"name":"crypt_graves_b"}],"materials":[{"doubleSided":true,"emissiveFactor":[1,1,1],"emissiveTexture":{"index":0},"name":"crypt_mat","pbrMetallicRoughness":{"baseColorTexture":{"index":1},"metallicFactor":0,"roughnessFactor":0.8999999761581421}}],"meshes":[{"name":"Mesh","primitives":[{"attributes":{"POSITION":0,"NORMAL":1,"TEXCOORD_0":2,"TEXCOORD_1":3,"COLOR_0":4,"COLOR_1":5},"indices":6,"material":0}]}],"textures":[{"sampler":0,"source":0},{"sampler":0,"source":1}],"images":[{"mimeType":"image/png","name":"PolygonDarkFantasy_01_A_Emissive","uri":"PolygonDarkFantasy_01_A_Emissive.png"},{"mimeType":"image/png","name":"PolygonDarkFantasy_01_A","uri":"PolygonDarkFantasy_01_A.png"}],"accessors":[{"bufferView":0,"componentType":5126,"count":51318,"max":[7.943604469299316,1.8201203346252441,8.14876937866211],"min":[-7.943604469299316,-1.25,-8.14876937866211],"type":"VEC3"},{"bufferView":1,"componentType":5126,"count":51318,"type":"VEC3"},{"bufferView":2,"componentType":5126,"count":51318,"type":"VEC2"},{"bufferView":3,"componentType":5126,"count":51318,"type":"VEC2"},{"bufferView":4,"componentType":5121,"count":51318,"normalized":true,"type":"VEC4"},{"bufferView":5,"componentType":5123,"count":51318,"normalized":true,"type":"VEC4"},{"bufferView":6,"componentType":5123,"count":66672,"type":"SCALAR"}],"bufferViews":[{"buffer":0,"byteLength":615816,"byteOffset":0,"target":34962},{"buffer":0,"byteLength":615816,"byteOffset":615816,"target":34962},{"buffer":0,"byteLength":410544,"byteOffset":1231632,"target":34962},{"buffer":0,"byteLength":410544,"byteOffset":1642176,"target":34962},{"buffer":0,"byteLength":205272,"byteOffset":2052720,"target":34962},{"buffer":0,"byteLength":410544,"byteOffset":2257992,"target":34962},{"buffer":0,"byteLength":133344,"byteOffset":2668536,"target":34963}],"samplers":[{"magFilter":9729,"minFilter":9987}],"buffers":[{"byteLength":2801880,"uri":"crypt_graves_b.bin"}]}