{
	"asset":{
		"generator":"Khronos glTF Blender I/O v5.1.20",
		"version":"2.0"
	},
	"scene":0,
	"scenes":[
		{
			"name":"Scene",
			"nodes":[
				0
			]
		}
	],
	"nodes":[
		{
			"mesh":0,
			"name":"crypt_wall_ruin"
		}
	],
	"materials":[
		{
			"doubleSided":true,
			"emissiveFactor":[
				1,
				1,
				1
			],
			"emissiveTexture":{
				"index":0
			},
			"name":"crypt_mat",
			"pbrMetallicRoughness":{
				"baseColorTexture":{
					"index":1
				},
				"metallicFactor":0,
				"roughnessFactor":0.8999999761581421
			}
		},
		{
			"doubleSided":true,
			"name":"crypt_tiling_mat",
			"pbrMetallicRoughness":{
				"baseColorTexture":{
					"index":2
				},
				"metallicFactor":0,
				"roughnessFactor":0.8999999761581421
			}
		}
	],
	"meshes":[
		{
			"name":"Mesh",
			"primitives":[
				{
					"attributes":{
						"POSITION":0,
						"NORMAL":1,
						"TEXCOORD_0":2
					},
					"indices":3,
					"material":0
				},
				{
					"attributes":{
						"POSITION":4,
						"NORMAL":5,
						"TEXCOORD_0":6
					},
					"indices":7,
					"material":1
				},
				{
					"attributes":{
						"POSITION":8,
						"NORMAL":9,
						"TEXCOORD_0":10
					},
					"indices":11,
					"material":1
				}
			]
		}
	],
	"textures":[
		{
			"sampler":0,
			"source":0
		},
		{
			"sampler":0,
			"source":1
		},
		{
			"sampler":0,
			"source":2
		}
	],
	"images":[
		{
			"mimeType":"image/png",
			"name":"PolygonDarkFantasy_01_A_Emissive",
			"uri":"PolygonDarkFantasy_01_A_Emissive.png"
		},
		{
			"mimeType":"image/png",
			"name":"PolygonDarkFantasy_01_A",
			"uri":"PolygonDarkFantasy_01_A.png"
		},
		{
			"mimeType":"image/png",
			"name":"Brick_Large_01",
			"uri":"Brick_Large_01.png"
		}
	],
	"accessors":[
		{
			"bufferView":0,
			"componentType":5126,
			"count":478,
			"max":[
				1.2880913019180298,
				3.005742311477661,
				0.3025549650192261
			],
			"min":[
				-1.2371140718460083,
				0,
				-0.3025549650192261
			],
			"type":"VEC3"
		},
		{
			"bufferView":1,
			"componentType":5126,
			"count":478,
			"type":"VEC3"
		},
		{
			"bufferView":2,
			"componentType":5126,
			"count":478,
			"type":"VEC2"
		},
		{
			"bufferView":3,
			"componentType":5123,
			"count":840,
			"type":"SCALAR"
		},
		{
			"bufferView":4,
			"componentType":5126,
			"count":31,
			"max":[
				1.1527513265609741,
				3.005742311477661,
				0.07920165359973907
			],
			"min":[
				-1.2880913019180298,
				8.493513448115664e-09,
				-0.03329857066273689
			],
			"type":"VEC3"
		},
		{
			"bufferView":5,
			"componentType":5126,
			"count":31,
			"type":"VEC3"
		},
		{
			"bufferView":6,
			"componentType":5126,
			"count":31,
			"type":"VEC2"
		},
		{
			"bufferView":7,
			"componentType":5123,
			"count":69,
			"type":"SCALAR"
		},
		{
			"bufferView":8,
			"componentType":5126,
			"count":31,
			"max":[
				1.17508065700531,
				3.005742311477661,
				-0.033298343420028687
			],
			"min":[
				-1.2880913019180298,
				0,
				-0.14579856395721436
			],
			"type":"VEC3"
		},
		{
			"bufferView":9,
			"componentType":5126,
			"count":31,
			"type":"VEC3"
		},
		{
			"bufferView":10,
			"componentType":5126,
			"count":31,
			"type":"VEC2"
		},
		{
			"bufferView":11,
			"componentType":5123,
			"count":69,
			"type":"SCALAR"
		}
	],
	"bufferViews":[
		{
			"buffer":0,
			"byteLength":5736,
			"byteOffset":0,
			"target":34962
		},
		{
			"buffer":0,
			"byteLength":5736,
			"byteOffset":5736,
			"target":34962
		},
		{
			"buffer":0,
			"byteLength":3824,
			"byteOffset":11472,
			"target":34962
		},
		{
			"buffer":0,
			"byteLength":1680,
			"byteOffset":15296,
			"target":34963
		},
		{
			"buffer":0,
			"byteLength":372,
			"byteOffset":16976,
			"target":34962
		},
		{
			"buffer":0,
			"byteLength":372,
			"byteOffset":17348,
			"target":34962
		},
		{
			"buffer":0,
			"byteLength":248,
			"byteOffset":17720,
			"target":34962
		},
		{
			"buffer":0,
			"byteLength":138,
			"byteOffset":17968,
			"target":34963
		},
		{
			"buffer":0,
			"byteLength":372,
			"byteOffset":18108,
			"target":34962
		},
		{
			"buffer":0,
			"byteLength":372,
			"byteOffset":18480,
			"target":34962
		},
		{
			"buffer":0,
			"byteLength":248,
			"byteOffset":18852,
			"target":34962
		},
		{
			"buffer":0,
			"byteLength":138,
			"byteOffset":19100,
			"target":34963
		}
	],
	"samplers":[
		{
			"magFilter":9729,
			"minFilter":9987
		}
	],
	"buffers":[
		{
			"byteLength":19240,
			"uri":"crypt_wall_ruin.bin"
		}
	]
}
