{"asset":{"generator":"Khronos glTF Blender I/O v5.1.20","version":"2.0"},"scene":0,"scenes":[{"name":"Scene","nodes":[0]}],"nodes":[{"mesh":0,"name":"crypt_grunge_w"}],"materials":[{"alphaMode":"BLEND","doubleSided":true,"name":"crypt_sheet_grunge","pbrMetallicRoughness":{"baseColorFactor":[0.07999999821186066,0.07999999821186066,0.07999999821186066,0.699999988079071],"baseColorTexture":{"index":0},"metallicFactor":0,"roughnessFactor":0.949999988079071}}],"meshes":[{"name":"Mesh","primitives":[{"attributes":{"POSITION":0,"NORMAL":1,"TEXCOORD_0":2},"indices":3,"material":0}]}],"textures":[{"sampler":0,"source":0}],"images":[{"mimeType":"image/png","name":"Grunge_01","uri":"Grunge_01.png"}],"accessors":[{"bufferView":0,"componentType":5126,"count":15,"max":[0.9736374020576477,3.0717151165008545,4.889443516731262e-08],"min":[-0.9736374020576477,0,-4.842877388000488e-08],"type":"VEC3"},{"bufferView":1,"componentType":5126,"count":15,"type":"VEC3"},{"bufferView":2,"componentType":5126,"count":15,"type":"VEC2"},{"bufferView":3,"componentType":5123,"count":45,"type":"SCALAR"}],"bufferViews":[{"buffer":0,"byteLength":180,"byteOffset":0,"target":34962},{"buffer":0,"byteLength":180,"byteOffset":180,"target":34962},{"buffer":0,"byteLength":120,"byteOffset":360,"target":34962},{"buffer":0,"byteLength":90,"byteOffset":480,"target":34963}],"samplers":[{"magFilter":9729,"minFilter":9987}],"buffers":[{"byteLength":572,"uri":"crypt_grunge_w.bin"}]}