{
	"asset":{
		"generator":"Khronos glTF Blender I/O v5.1.20",
		"version":"2.0"
	},
	"scene":0,
	"scenes":[
		{
			"name":"Scene",
			"nodes":[
				0
			]
		}
	],
	"nodes":[
		{
			"mesh":0,
			"name":"crypt_pillar_b"
		}
	],
	"materials":[
		{
			"doubleSided":true,
			"emissiveFactor":[
				1,
				1,
				1
			],
			"emissiveTexture":{
				"index":0
			},
			"name":"crypt_mat",
			"pbrMetallicRoughness":{
				"baseColorTexture":{
					"index":1
				},
				"metallicFactor":0,
				"roughnessFactor":0.8999999761581421
			}
		}
	],
	"meshes":[
		{
			"name":"Mesh",
			"primitives":[
				{
					"attributes":{
						"POSITION":0,
						"NORMAL":1,
						"TEXCOORD_0":2
					},
					"indices":3,
					"material":0
				}
			]
		}
	],
	"textures":[
		{
			"sampler":0,
			"source":0
		},
		{
			"sampler":0,
			"source":1
		}
	],
	"images":[
		{
			"mimeType":"image/png",
			"name":"PolygonDarkFantasy_01_A_Emissive",
			"uri":"PolygonDarkFantasy_01_A_Emissive.png"
		},
		{
			"mimeType":"image/png",
			"name":"PolygonDarkFantasy_01_A",
			"uri":"PolygonDarkFantasy_01_A.png"
		}
	],
	"accessors":[
		{
			"bufferView":0,
			"componentType":5126,
			"count":4023,
			"max":[
				0.5411378145217896,
				6,
				0.5411372184753418
			],
			"min":[
				-0.5411378145217896,
				-3.3925957154679054e-08,
				-0.5411382913589478
			],
			"type":"VEC3"
		},
		{
			"bufferView":1,
			"componentType":5126,
			"count":4023,
			"type":"VEC3"
		},
		{
			"bufferView":2,
			"componentType":5126,
			"count":4023,
			"type":"VEC2"
		},
		{
			"bufferView":3,
			"componentType":5123,
			"count":6162,
			"type":"SCALAR"
		}
	],
	"bufferViews":[
		{
			"buffer":0,
			"byteLength":48276,
			"byteOffset":0,
			"target":34962
		},
		{
			"buffer":0,
			"byteLength":48276,
			"byteOffset":48276,
			"target":34962
		},
		{
			"buffer":0,
			"byteLength":32184,
			"byteOffset":96552,
			"target":34962
		},
		{
			"buffer":0,
			"byteLength":12324,
			"byteOffset":128736,
			"target":34963
		}
	],
	"samplers":[
		{
			"magFilter":9729,
			"minFilter":9987
		}
	],
	"buffers":[
		{
			"byteLength":141060,
			"uri":"crypt_pillar_b.bin"
		}
	]
}
