{
	"asset":{
		"generator":"Khronos glTF Blender I/O v5.1.20",
		"version":"2.0"
	},
	"scene":0,
	"scenes":[
		{
			"name":"Scene",
			"nodes":[
				0
			]
		}
	],
	"nodes":[
		{
			"mesh":0,
			"name":"crypt_candelabra"
		}
	],
	"materials":[
		{
			"doubleSided":true,
			"emissiveFactor":[
				1,
				1,
				1
			],
			"emissiveTexture":{
				"index":0
			},
			"name":"crypt_mat",
			"pbrMetallicRoughness":{
				"baseColorTexture":{
					"index":1
				},
				"metallicFactor":0,
				"roughnessFactor":0.8999999761581421
			}
		}
	],
	"meshes":[
		{
			"name":"Mesh",
			"primitives":[
				{
					"attributes":{
						"POSITION":0,
						"NORMAL":1,
						"TEXCOORD_0":2,
						"TEXCOORD_1":3,
						"TEXCOORD_2":4
					},
					"indices":5,
					"material":0
				}
			]
		}
	],
	"textures":[
		{
			"sampler":0,
			"source":0
		},
		{
			"sampler":0,
			"source":1
		}
	],
	"images":[
		{
			"mimeType":"image/png",
			"name":"PolygonDarkFantasy_01_A_Emissive",
			"uri":"PolygonDarkFantasy_01_A_Emissive.png"
		},
		{
			"mimeType":"image/png",
			"name":"PolygonDarkFantasy_01_A",
			"uri":"PolygonDarkFantasy_01_A.png"
		}
	],
	"accessors":[
		{
			"bufferView":0,
			"componentType":5126,
			"count":3523,
			"max":[
				0.3467037081718445,
				1.7602415084838867,
				0.34806522727012634
			],
			"min":[
				-0.3467037081718445,
				-1.5993041557749166e-08,
				-0.34806540608406067
			],
			"type":"VEC3"
		},
		{
			"bufferView":1,
			"componentType":5126,
			"count":3523,
			"type":"VEC3"
		},
		{
			"bufferView":2,
			"componentType":5126,
			"count":3523,
			"type":"VEC2"
		},
		{
			"bufferView":3,
			"componentType":5126,
			"count":3523,
			"type":"VEC2"
		},
		{
			"bufferView":4,
			"componentType":5126,
			"count":3523,
			"type":"VEC2"
		},
		{
			"bufferView":5,
			"componentType":5123,
			"count":5232,
			"type":"SCALAR"
		}
	],
	"bufferViews":[
		{
			"buffer":0,
			"byteLength":42276,
			"byteOffset":0,
			"target":34962
		},
		{
			"buffer":0,
			"byteLength":42276,
			"byteOffset":42276,
			"target":34962
		},
		{
			"buffer":0,
			"byteLength":28184,
			"byteOffset":84552,
			"target":34962
		},
		{
			"buffer":0,
			"byteLength":28184,
			"byteOffset":112736,
			"target":34962
		},
		{
			"buffer":0,
			"byteLength":28184,
			"byteOffset":140920,
			"target":34962
		},
		{
			"buffer":0,
			"byteLength":10464,
			"byteOffset":169104,
			"target":34963
		}
	],
	"samplers":[
		{
			"magFilter":9729,
			"minFilter":9987
		}
	],
	"buffers":[
		{
			"byteLength":179568,
			"uri":"crypt_candelabra.bin"
		}
	]
}
