{
	"asset":{
		"generator":"Khronos glTF Blender I/O v5.1.20",
		"version":"2.0"
	},
	"scene":0,
	"scenes":[
		{
			"name":"Scene",
			"nodes":[
				0
			]
		}
	],
	"nodes":[
		{
			"mesh":0,
			"name":"crypt_chest"
		}
	],
	"materials":[
		{
			"doubleSided":true,
			"emissiveFactor":[
				1,
				1,
				1
			],
			"emissiveTexture":{
				"index":0
			},
			"name":"crypt_mat",
			"pbrMetallicRoughness":{
				"baseColorTexture":{
					"index":1
				},
				"metallicFactor":0,
				"roughnessFactor":0.8999999761581421
			}
		}
	],
	"meshes":[
		{
			"name":"Mesh",
			"primitives":[
				{
					"attributes":{
						"POSITION":0,
						"NORMAL":1,
						"TEXCOORD_0":2,
						"TEXCOORD_1":3
					},
					"indices":4,
					"material":0
				}
			]
		}
	],
	"textures":[
		{
			"sampler":0,
			"source":0
		},
		{
			"sampler":0,
			"source":1
		}
	],
	"images":[
		{
			"mimeType":"image/png",
			"name":"PolygonDarkFantasy_01_A_Emissive",
			"uri":"PolygonDarkFantasy_01_A_Emissive.png"
		},
		{
			"mimeType":"image/png",
			"name":"PolygonDarkFantasy_01_A",
			"uri":"PolygonDarkFantasy_01_A.png"
		}
	],
	"accessors":[
		{
			"bufferView":0,
			"componentType":5126,
			"count":4658,
			"max":[
				0.39612823724746704,
				0.5634656548500061,
				0.22130757570266724
			],
			"min":[
				-0.39612823724746704,
				-1.4946442306040808e-08,
				-0.2213076800107956
			],
			"type":"VEC3"
		},
		{
			"bufferView":1,
			"componentType":5126,
			"count":4658,
			"type":"VEC3"
		},
		{
			"bufferView":2,
			"componentType":5126,
			"count":4658,
			"type":"VEC2"
		},
		{
			"bufferView":3,
			"componentType":5126,
			"count":4658,
			"type":"VEC2"
		},
		{
			"bufferView":4,
			"componentType":5123,
			"count":7485,
			"type":"SCALAR"
		}
	],
	"bufferViews":[
		{
			"buffer":0,
			"byteLength":55896,
			"byteOffset":0,
			"target":34962
		},
		{
			"buffer":0,
			"byteLength":55896,
			"byteOffset":55896,
			"target":34962
		},
		{
			"buffer":0,
			"byteLength":37264,
			"byteOffset":111792,
			"target":34962
		},
		{
			"buffer":0,
			"byteLength":37264,
			"byteOffset":149056,
			"target":34962
		},
		{
			"buffer":0,
			"byteLength":14970,
			"byteOffset":186320,
			"target":34963
		}
	],
	"samplers":[
		{
			"magFilter":9729,
			"minFilter":9987
		}
	],
	"buffers":[
		{
			"byteLength":201292,
			"uri":"crypt_chest.bin"
		}
	]
}
