{
	"asset":{
		"generator":"Khronos glTF Blender I/O v5.1.20",
		"version":"2.0"
	},
	"scene":0,
	"scenes":[
		{
			"name":"Scene",
			"nodes":[
				0
			]
		}
	],
	"nodes":[
		{
			"mesh":0,
			"name":"crypt_graves_c"
		}
	],
	"materials":[
		{
			"doubleSided":true,
			"emissiveFactor":[
				1,
				1,
				1
			],
			"emissiveTexture":{
				"index":0
			},
			"name":"crypt_mat",
			"pbrMetallicRoughness":{
				"baseColorTexture":{
					"index":1
				},
				"metallicFactor":0,
				"roughnessFactor":0.8999999761581421
			}
		}
	],
	"meshes":[
		{
			"name":"Mesh",
			"primitives":[
				{
					"attributes":{
						"POSITION":0,
						"NORMAL":1,
						"TEXCOORD_0":2,
						"TEXCOORD_1":3,
						"COLOR_0":4,
						"COLOR_1":5
					},
					"indices":6,
					"material":0
				}
			]
		}
	],
	"textures":[
		{
			"sampler":0,
			"source":0
		},
		{
			"sampler":0,
			"source":1
		}
	],
	"images":[
		{
			"mimeType":"image/png",
			"name":"PolygonDarkFantasy_01_A_Emissive",
			"uri":"PolygonDarkFantasy_01_A_Emissive.png"
		},
		{
			"mimeType":"image/png",
			"name":"PolygonDarkFantasy_01_A",
			"uri":"PolygonDarkFantasy_01_A.png"
		}
	],
	"accessors":[
		{
			"bufferView":0,
			"componentType":5126,
			"count":40069,
			"max":[
				11.287296295166016,
				4.615418434143066,
				8.552752494812012
			],
			"min":[
				-11.287296295166016,
				0,
				-8.552752494812012
			],
			"type":"VEC3"
		},
		{
			"bufferView":1,
			"componentType":5126,
			"count":40069,
			"type":"VEC3"
		},
		{
			"bufferView":2,
			"componentType":5126,
			"count":40069,
			"type":"VEC2"
		},
		{
			"bufferView":3,
			"componentType":5126,
			"count":40069,
			"type":"VEC2"
		},
		{
			"bufferView":4,
			"componentType":5121,
			"count":40069,
			"normalized":true,
			"type":"VEC4"
		},
		{
			"bufferView":5,
			"componentType":5123,
			"count":40069,
			"normalized":true,
			"type":"VEC4"
		},
		{
			"bufferView":6,
			"componentType":5123,
			"count":53706,
			"type":"SCALAR"
		}
	],
	"bufferViews":[
		{
			"buffer":0,
			"byteLength":480828,
			"byteOffset":0,
			"target":34962
		},
		{
			"buffer":0,
			"byteLength":480828,
			"byteOffset":480828,
			"target":34962
		},
		{
			"buffer":0,
			"byteLength":320552,
			"byteOffset":961656,
			"target":34962
		},
		{
			"buffer":0,
			"byteLength":320552,
			"byteOffset":1282208,
			"target":34962
		},
		{
			"buffer":0,
			"byteLength":160276,
			"byteOffset":1602760,
			"target":34962
		},
		{
			"buffer":0,
			"byteLength":320552,
			"byteOffset":1763036,
			"target":34962
		},
		{
			"buffer":0,
			"byteLength":107412,
			"byteOffset":2083588,
			"target":34963
		}
	],
	"samplers":[
		{
			"magFilter":9729,
			"minFilter":9987
		}
	],
	"buffers":[
		{
			"byteLength":2191000,
			"uri":"crypt_graves_c.bin"
		}
	]
}
