{
	"asset":{
		"generator":"Khronos glTF Blender I/O v5.1.20",
		"version":"2.0"
	},
	"scene":0,
	"scenes":[
		{
			"name":"Scene",
			"nodes":[
				0,
				1,
				2,
				3
			]
		}
	],
	"nodes":[
		{
			"mesh":0,
			"name":"crypt_cellar"
		},
		{
			"mesh":1,
			"name":"SM_Prop_Barrel_01_0_collider"
		},
		{
			"mesh":2,
			"name":"SM_Prop_Barrel_Open_01_1_collider"
		},
		{
			"mesh":3,
			"name":"SM_Prop_Barrel_01_2_collider"
		}
	],
	"materials":[
		{
			"doubleSided":true,
			"emissiveFactor":[
				1,
				1,
				1
			],
			"emissiveTexture":{
				"index":0
			},
			"name":"crypt_mat",
			"pbrMetallicRoughness":{
				"baseColorTexture":{
					"index":1
				},
				"metallicFactor":0,
				"roughnessFactor":0.8999999761581421
			}
		}
	],
	"meshes":[
		{
			"name":"Mesh",
			"primitives":[
				{
					"attributes":{
						"POSITION":0,
						"NORMAL":1,
						"TEXCOORD_0":2,
						"TEXCOORD_1":3,
						"COLOR_0":4,
						"COLOR_1":5
					},
					"indices":6,
					"material":0
				}
			]
		},
		{
			"name":"SM_Prop_Barrel_01_0_collider",
			"primitives":[
				{
					"attributes":{
						"POSITION":7,
						"NORMAL":8,
						"TEXCOORD_0":9
					},
					"indices":10
				}
			]
		},
		{
			"name":"SM_Prop_Barrel_Open_01_1_collider",
			"primitives":[
				{
					"attributes":{
						"POSITION":11,
						"NORMAL":12,
						"TEXCOORD_0":13
					},
					"indices":10
				}
			]
		},
		{
			"name":"SM_Prop_Barrel_01_2_collider",
			"primitives":[
				{
					"attributes":{
						"POSITION":14,
						"NORMAL":15,
						"TEXCOORD_0":16
					},
					"indices":10
				}
			]
		}
	],
	"textures":[
		{
			"sampler":0,
			"source":0
		},
		{
			"sampler":0,
			"source":1
		}
	],
	"images":[
		{
			"mimeType":"image/png",
			"name":"PolygonDarkFantasy_01_A_Emissive",
			"uri":"PolygonDarkFantasy_01_A_Emissive.png"
		},
		{
			"mimeType":"image/png",
			"name":"PolygonDarkFantasy_01_A",
			"uri":"PolygonDarkFantasy_01_A.png"
		}
	],
	"accessors":[
		{
			"bufferView":0,
			"componentType":5126,
			"count":30880,
			"max":[
				2.4831042289733887,
				1.8321713209152222,
				4.899423599243164
			],
			"min":[
				-2.4831042289733887,
				0,
				-4.899423599243164
			],
			"type":"VEC3"
		},
		{
			"bufferView":1,
			"componentType":5126,
			"count":30880,
			"type":"VEC3"
		},
		{
			"bufferView":2,
			"componentType":5126,
			"count":30880,
			"type":"VEC2"
		},
		{
			"bufferView":3,
			"componentType":5126,
			"count":30880,
			"type":"VEC2"
		},
		{
			"bufferView":4,
			"componentType":5121,
			"count":30880,
			"normalized":true,
			"type":"VEC4"
		},
		{
			"bufferView":5,
			"componentType":5123,
			"count":30880,
			"normalized":true,
			"type":"VEC4"
		},
		{
			"bufferView":6,
			"componentType":5123,
			"count":44871,
			"type":"SCALAR"
		},
		{
			"bufferView":7,
			"componentType":5126,
			"count":24,
			"max":[
				0.46217167377471924,
				1.3168213367462158,
				0.7753283381462097
			],
			"min":[
				-0.27393174171447754,
				0.09888111054897308,
				0.060243964195251465
			],
			"type":"VEC3"
		},
		{
			"bufferView":8,
			"componentType":5126,
			"count":24,
			"type":"VEC3"
		},
		{
			"bufferView":9,
			"componentType":5126,
			"count":24,
			"type":"VEC2"
		},
		{
			"bufferView":10,
			"componentType":5123,
			"count":36,
			"type":"SCALAR"
		},
		{
			"bufferView":11,
			"componentType":5126,
			"count":24,
			"max":[
				0.40604913234710693,
				1.0486856698989868,
				0.7208409905433655
			],
			"min":[
				-0.2177671194076538,
				0.09716980159282684,
				0.11483746767044067
			],
			"type":"VEC3"
		},
		{
			"bufferView":12,
			"componentType":5126,
			"count":24,
			"type":"VEC3"
		},
		{
			"bufferView":13,
			"componentType":5126,
			"count":24,
			"type":"VEC2"
		},
		{
			"bufferView":14,
			"componentType":5126,
			"count":24,
			"max":[
				0.46217167377471924,
				1.2210584878921509,
				0.7753283381462097
			],
			"min":[
				-0.27393174171447754,
				0.09826992452144623,
				0.060243964195251465
			],
			"type":"VEC3"
		},
		{
			"bufferView":15,
			"componentType":5126,
			"count":24,
			"type":"VEC3"
		},
		{
			"bufferView":16,
			"componentType":5126,
			"count":24,
			"type":"VEC2"
		}
	],
	"bufferViews":[
		{
			"buffer":0,
			"byteLength":370560,
			"byteOffset":0,
			"target":34962
		},
		{
			"buffer":0,
			"byteLength":370560,
			"byteOffset":370560,
			"target":34962
		},
		{
			"buffer":0,
			"byteLength":247040,
			"byteOffset":741120,
			"target":34962
		},
		{
			"buffer":0,
			"byteLength":247040,
			"byteOffset":988160,
			"target":34962
		},
		{
			"buffer":0,
			"byteLength":123520,
			"byteOffset":1235200,
			"target":34962
		},
		{
			"buffer":0,
			"byteLength":247040,
			"byteOffset":1358720,
			"target":34962
		},
		{
			"buffer":0,
			"byteLength":89742,
			"byteOffset":1605760,
			"target":34963
		},
		{
			"buffer":0,
			"byteLength":288,
			"byteOffset":1695504,
			"target":34962
		},
		{
			"buffer":0,
			"byteLength":288,
			"byteOffset":1695792,
			"target":34962
		},
		{
			"buffer":0,
			"byteLength":192,
			"byteOffset":1696080,
			"target":34962
		},
		{
			"buffer":0,
			"byteLength":72,
			"byteOffset":1696272,
			"target":34963
		},
		{
			"buffer":0,
			"byteLength":288,
			"byteOffset":1696344,
			"target":34962
		},
		{
			"buffer":0,
			"byteLength":288,
			"byteOffset":1696632,
			"target":34962
		},
		{
			"buffer":0,
			"byteLength":192,
			"byteOffset":1696920,
			"target":34962
		},
		{
			"buffer":0,
			"byteLength":288,
			"byteOffset":1697112,
			"target":34962
		},
		{
			"buffer":0,
			"byteLength":288,
			"byteOffset":1697400,
			"target":34962
		},
		{
			"buffer":0,
			"byteLength":192,
			"byteOffset":1697688,
			"target":34962
		}
	],
	"samplers":[
		{
			"magFilter":9729,
			"minFilter":9987
		}
	],
	"buffers":[
		{
			"byteLength":1697880,
			"uri":"crypt_cellar.bin"
		}
	]
}
