{
	"asset":{
		"generator":"Khronos glTF Blender I/O v5.1.20",
		"version":"2.0"
	},
	"scene":0,
	"scenes":[
		{
			"name":"Scene",
			"nodes":[
				0
			]
		}
	],
	"nodes":[
		{
			"mesh":0,
			"name":"crypt_lectern"
		}
	],
	"materials":[
		{
			"doubleSided":true,
			"emissiveFactor":[
				1,
				1,
				1
			],
			"emissiveTexture":{
				"index":0
			},
			"name":"crypt_mat",
			"pbrMetallicRoughness":{
				"baseColorTexture":{
					"index":1
				},
				"metallicFactor":0,
				"roughnessFactor":0.8999999761581421
			}
		}
	],
	"meshes":[
		{
			"name":"Mesh.001",
			"primitives":[
				{
					"attributes":{
						"POSITION":0,
						"NORMAL":1,
						"TEXCOORD_0":2,
						"TEXCOORD_1":3
					},
					"indices":4,
					"material":0
				}
			]
		}
	],
	"textures":[
		{
			"sampler":0,
			"source":0
		},
		{
			"sampler":0,
			"source":1
		}
	],
	"images":[
		{
			"mimeType":"image/png",
			"name":"PolygonDarkFantasy_01_A_Emissive",
			"uri":"PolygonDarkFantasy_01_A_Emissive.png"
		},
		{
			"mimeType":"image/png",
			"name":"PolygonDarkFantasy_01_A",
			"uri":"PolygonDarkFantasy_01_A.png"
		}
	],
	"accessors":[
		{
			"bufferView":0,
			"componentType":5126,
			"count":1794,
			"max":[
				0.39418041706085205,
				1.521938443183899,
				0.3876979649066925
			],
			"min":[
				-0.39418041706085205,
				-2.927038167399587e-08,
				-0.3876979649066925
			],
			"type":"VEC3"
		},
		{
			"bufferView":1,
			"componentType":5126,
			"count":1794,
			"type":"VEC3"
		},
		{
			"bufferView":2,
			"componentType":5126,
			"count":1794,
			"type":"VEC2"
		},
		{
			"bufferView":3,
			"componentType":5126,
			"count":1794,
			"type":"VEC2"
		},
		{
			"bufferView":4,
			"componentType":5123,
			"count":2922,
			"type":"SCALAR"
		}
	],
	"bufferViews":[
		{
			"buffer":0,
			"byteLength":21528,
			"byteOffset":0,
			"target":34962
		},
		{
			"buffer":0,
			"byteLength":21528,
			"byteOffset":21528,
			"target":34962
		},
		{
			"buffer":0,
			"byteLength":14352,
			"byteOffset":43056,
			"target":34962
		},
		{
			"buffer":0,
			"byteLength":14352,
			"byteOffset":57408,
			"target":34962
		},
		{
			"buffer":0,
			"byteLength":5844,
			"byteOffset":71760,
			"target":34963
		}
	],
	"samplers":[
		{
			"magFilter":9729,
			"minFilter":9987
		}
	],
	"buffers":[
		{
			"byteLength":77604,
			"uri":"crypt_lectern.bin"
		}
	]
}
