{
	"asset":{
		"generator":"Khronos glTF Blender I/O v5.1.20",
		"version":"2.0"
	},
	"scene":0,
	"scenes":[
		{
			"name":"Scene",
			"nodes":[
				0
			]
		}
	],
	"nodes":[
		{
			"mesh":0,
			"name":"crypt_ritual_circle"
		}
	],
	"materials":[
		{
			"doubleSided":true,
			"name":"crypt_tiling_mat",
			"pbrMetallicRoughness":{
				"baseColorTexture":{
					"index":0
				},
				"metallicFactor":0,
				"roughnessFactor":0.8999999761581421
			}
		}
	],
	"meshes":[
		{
			"name":"Mesh",
			"primitives":[
				{
					"attributes":{
						"POSITION":0,
						"NORMAL":1,
						"TEXCOORD_0":2
					},
					"indices":3,
					"material":0
				}
			]
		}
	],
	"textures":[
		{
			"sampler":0,
			"source":0
		}
	],
	"images":[
		{
			"mimeType":"image/png",
			"name":"Brick_Large_01",
			"uri":"Brick_Large_01.png"
		}
	],
	"accessors":[
		{
			"bufferView":0,
			"componentType":5126,
			"count":10556,
			"max":[
				3.032471179962158,
				1.0849339962005615,
				3.033931255340576
			],
			"min":[
				-3.032471179962158,
				0,
				-3.033931255340576
			],
			"type":"VEC3"
		},
		{
			"bufferView":1,
			"componentType":5126,
			"count":10556,
			"type":"VEC3"
		},
		{
			"bufferView":2,
			"componentType":5126,
			"count":10556,
			"type":"VEC2"
		},
		{
			"bufferView":3,
			"componentType":5123,
			"count":14817,
			"type":"SCALAR"
		}
	],
	"bufferViews":[
		{
			"buffer":0,
			"byteLength":126672,
			"byteOffset":0,
			"target":34962
		},
		{
			"buffer":0,
			"byteLength":126672,
			"byteOffset":126672,
			"target":34962
		},
		{
			"buffer":0,
			"byteLength":84448,
			"byteOffset":253344,
			"target":34962
		},
		{
			"buffer":0,
			"byteLength":29634,
			"byteOffset":337792,
			"target":34963
		}
	],
	"samplers":[
		{
			"magFilter":9729,
			"minFilter":9987
		}
	],
	"buffers":[
		{
			"byteLength":367428,
			"uri":"crypt_ritual_circle.bin"
		}
	]
}
