{
	"asset":{
		"generator":"Khronos glTF Blender I/O v5.1.20",
		"version":"2.0"
	},
	"scene":0,
	"scenes":[
		{
			"name":"Scene",
			"nodes":[
				0
			]
		}
	],
	"nodes":[
		{
			"mesh":0,
			"name":"crypt_body_pile"
		}
	],
	"materials":[
		{
			"doubleSided":true,
			"emissiveFactor":[
				1,
				1,
				1
			],
			"emissiveTexture":{
				"index":0
			},
			"name":"crypt_mat",
			"pbrMetallicRoughness":{
				"baseColorTexture":{
					"index":1
				},
				"metallicFactor":0,
				"roughnessFactor":0.8999999761581421
			}
		}
	],
	"meshes":[
		{
			"name":"Mesh",
			"primitives":[
				{
					"attributes":{
						"POSITION":0,
						"NORMAL":1,
						"TEXCOORD_0":2,
						"TEXCOORD_1":3,
						"COLOR_0":4,
						"COLOR_1":5
					},
					"indices":6,
					"material":0
				}
			]
		}
	],
	"textures":[
		{
			"sampler":0,
			"source":0
		},
		{
			"sampler":0,
			"source":1
		}
	],
	"images":[
		{
			"mimeType":"image/png",
			"name":"PolygonDarkFantasy_01_A_Emissive",
			"uri":"PolygonDarkFantasy_01_A_Emissive.png"
		},
		{
			"mimeType":"image/png",
			"name":"PolygonDarkFantasy_01_A",
			"uri":"PolygonDarkFantasy_01_A.png"
		}
	],
	"accessors":[
		{
			"bufferView":0,
			"componentType":5126,
			"count":12745,
			"max":[
				1.1727217435836792,
				0.9511041045188904,
				1.302708387374878
			],
			"min":[
				-1.1727217435836792,
				0,
				-1.302708387374878
			],
			"type":"VEC3"
		},
		{
			"bufferView":1,
			"componentType":5126,
			"count":12745,
			"type":"VEC3"
		},
		{
			"bufferView":2,
			"componentType":5126,
			"count":12745,
			"type":"VEC2"
		},
		{
			"bufferView":3,
			"componentType":5126,
			"count":12745,
			"type":"VEC2"
		},
		{
			"bufferView":4,
			"componentType":5121,
			"count":12745,
			"normalized":true,
			"type":"VEC4"
		},
		{
			"bufferView":5,
			"componentType":5123,
			"count":12745,
			"normalized":true,
			"type":"VEC4"
		},
		{
			"bufferView":6,
			"componentType":5123,
			"count":17097,
			"type":"SCALAR"
		}
	],
	"bufferViews":[
		{
			"buffer":0,
			"byteLength":152940,
			"byteOffset":0,
			"target":34962
		},
		{
			"buffer":0,
			"byteLength":152940,
			"byteOffset":152940,
			"target":34962
		},
		{
			"buffer":0,
			"byteLength":101960,
			"byteOffset":305880,
			"target":34962
		},
		{
			"buffer":0,
			"byteLength":101960,
			"byteOffset":407840,
			"target":34962
		},
		{
			"buffer":0,
			"byteLength":50980,
			"byteOffset":509800,
			"target":34962
		},
		{
			"buffer":0,
			"byteLength":101960,
			"byteOffset":560780,
			"target":34962
		},
		{
			"buffer":0,
			"byteLength":34194,
			"byteOffset":662740,
			"target":34963
		}
	],
	"samplers":[
		{
			"magFilter":9729,
			"minFilter":9987
		}
	],
	"buffers":[
		{
			"byteLength":696936,
			"uri":"crypt_body_pile.bin"
		}
	]
}
