{
	"asset":{
		"generator":"Khronos glTF Blender I/O v5.1.20",
		"version":"2.0"
	},
	"scene":0,
	"scenes":[
		{
			"name":"Scene",
			"nodes":[
				0,
				1,
				2,
				3,
				4
			]
		}
	],
	"nodes":[
		{
			"mesh":0,
			"name":"crypt_study"
		},
		{
			"mesh":1,
			"name":"SM_Prop_Bookshelf_Double_01_0_collider"
		},
		{
			"mesh":2,
			"name":"SM_Prop_Altar_Table_01_1_collider"
		},
		{
			"mesh":3,
			"name":"SM_Prop_Desk_Reading_01_2_collider"
		},
		{
			"mesh":4,
			"name":"SM_Prop_Candelabra_01_3_collider"
		}
	],
	"materials":[
		{
			"doubleSided":true,
			"emissiveFactor":[
				1,
				1,
				1
			],
			"emissiveTexture":{
				"index":0
			},
			"name":"crypt_mat",
			"pbrMetallicRoughness":{
				"baseColorTexture":{
					"index":1
				},
				"metallicFactor":0,
				"roughnessFactor":0.8999999761581421
			}
		}
	],
	"meshes":[
		{
			"name":"Mesh",
			"primitives":[
				{
					"attributes":{
						"POSITION":0,
						"NORMAL":1,
						"TEXCOORD_0":2,
						"TEXCOORD_1":3,
						"TEXCOORD_2":4,
						"TEXCOORD_3":5,
						"COLOR_0":6,
						"COLOR_1":7
					},
					"indices":8,
					"material":0
				}
			]
		},
		{
			"name":"SM_Prop_Bookshelf_Double_01_0_collider",
			"primitives":[
				{
					"attributes":{
						"POSITION":9,
						"NORMAL":10,
						"TEXCOORD_0":11
					},
					"indices":12
				}
			]
		},
		{
			"name":"SM_Prop_Altar_Table_01_1_collider",
			"primitives":[
				{
					"attributes":{
						"POSITION":13,
						"NORMAL":14,
						"TEXCOORD_0":15
					},
					"indices":12
				}
			]
		},
		{
			"name":"SM_Prop_Desk_Reading_01_2_collider",
			"primitives":[
				{
					"attributes":{
						"POSITION":16,
						"NORMAL":17,
						"TEXCOORD_0":18
					},
					"indices":12
				}
			]
		},
		{
			"name":"SM_Prop_Candelabra_01_3_collider",
			"primitives":[
				{
					"attributes":{
						"POSITION":19,
						"NORMAL":20,
						"TEXCOORD_0":21
					},
					"indices":12
				}
			]
		}
	],
	"textures":[
		{
			"sampler":0,
			"source":0
		},
		{
			"sampler":0,
			"source":1
		}
	],
	"images":[
		{
			"mimeType":"image/png",
			"name":"PolygonDarkFantasy_01_A_Emissive",
			"uri":"PolygonDarkFantasy_01_A_Emissive.png"
		},
		{
			"mimeType":"image/png",
			"name":"PolygonDarkFantasy_01_A",
			"uri":"PolygonDarkFantasy_01_A.png"
		}
	],
	"accessors":[
		{
			"bufferView":0,
			"componentType":5126,
			"count":64667,
			"max":[
				1.8992137908935547,
				2.97170352935791,
				4.868066787719727
			],
			"min":[
				-1.8992137908935547,
				0,
				-4.868066787719727
			],
			"type":"VEC3"
		},
		{
			"bufferView":1,
			"componentType":5126,
			"count":64667,
			"type":"VEC3"
		},
		{
			"bufferView":2,
			"componentType":5126,
			"count":64667,
			"type":"VEC2"
		},
		{
			"bufferView":3,
			"componentType":5126,
			"count":64667,
			"type":"VEC2"
		},
		{
			"bufferView":4,
			"componentType":5126,
			"count":64667,
			"type":"VEC2"
		},
		{
			"bufferView":5,
			"componentType":5126,
			"count":64667,
			"type":"VEC2"
		},
		{
			"bufferView":6,
			"componentType":5121,
			"count":64667,
			"normalized":true,
			"type":"VEC4"
		},
		{
			"bufferView":7,
			"componentType":5123,
			"count":64667,
			"normalized":true,
			"type":"VEC4"
		},
		{
			"bufferView":8,
			"componentType":5123,
			"count":95553,
			"type":"SCALAR"
		},
		{
			"bufferView":9,
			"componentType":5126,
			"count":24,
			"max":[
				0.34697771072387695,
				2.9507036209106445,
				-0.22352558374404907
			],
			"min":[
				-0.1356307864189148,
				0.38482511043548584,
				-2.1098031997680664
			],
			"type":"VEC3"
		},
		{
			"bufferView":10,
			"componentType":5126,
			"count":24,
			"type":"VEC3"
		},
		{
			"bufferView":11,
			"componentType":5126,
			"count":24,
			"type":"VEC2"
		},
		{
			"bufferView":12,
			"componentType":5123,
			"count":36,
			"type":"SCALAR"
		},
		{
			"bufferView":13,
			"componentType":5126,
			"count":24,
			"max":[
				0.46475064754486084,
				1.2470437288284302,
				0.8818925619125366
			],
			"min":[
				-0.8211781978607178,
				0.38482511043548584,
				-0.9960712194442749
			],
			"type":"VEC3"
		},
		{
			"bufferView":14,
			"componentType":5126,
			"count":24,
			"type":"VEC3"
		},
		{
			"bufferView":15,
			"componentType":5126,
			"count":24,
			"type":"VEC2"
		},
		{
			"bufferView":16,
			"componentType":5126,
			"count":24,
			"max":[
				0.20596769452095032,
				1.6043047904968262,
				0.18523277342319489
			],
			"min":[
				-0.5784494876861572,
				0.36919593811035156,
				-0.3089098334312439
			],
			"type":"VEC3"
		},
		{
			"bufferView":17,
			"componentType":5126,
			"count":24,
			"type":"VEC3"
		},
		{
			"bufferView":18,
			"componentType":5126,
			"count":24,
			"type":"VEC2"
		},
		{
			"bufferView":19,
			"componentType":5126,
			"count":24,
			"max":[
				0.1160387396812439,
				2.145066738128662,
				0.23870229721069336
			],
			"min":[
				-0.47256195545196533,
				0.38482511043548584,
				-0.35222405195236206
			],
			"type":"VEC3"
		},
		{
			"bufferView":20,
			"componentType":5126,
			"count":24,
			"type":"VEC3"
		},
		{
			"bufferView":21,
			"componentType":5126,
			"count":24,
			"type":"VEC2"
		}
	],
	"bufferViews":[
		{
			"buffer":0,
			"byteLength":776004,
			"byteOffset":0,
			"target":34962
		},
		{
			"buffer":0,
			"byteLength":776004,
			"byteOffset":776004,
			"target":34962
		},
		{
			"buffer":0,
			"byteLength":517336,
			"byteOffset":1552008,
			"target":34962
		},
		{
			"buffer":0,
			"byteLength":517336,
			"byteOffset":2069344,
			"target":34962
		},
		{
			"buffer":0,
			"byteLength":517336,
			"byteOffset":2586680,
			"target":34962
		},
		{
			"buffer":0,
			"byteLength":517336,
			"byteOffset":3104016,
			"target":34962
		},
		{
			"buffer":0,
			"byteLength":258668,
			"byteOffset":3621352,
			"target":34962
		},
		{
			"buffer":0,
			"byteLength":517336,
			"byteOffset":3880020,
			"target":34962
		},
		{
			"buffer":0,
			"byteLength":191106,
			"byteOffset":4397356,
			"target":34963
		},
		{
			"buffer":0,
			"byteLength":288,
			"byteOffset":4588464,
			"target":34962
		},
		{
			"buffer":0,
			"byteLength":288,
			"byteOffset":4588752,
			"target":34962
		},
		{
			"buffer":0,
			"byteLength":192,
			"byteOffset":4589040,
			"target":34962
		},
		{
			"buffer":0,
			"byteLength":72,
			"byteOffset":4589232,
			"target":34963
		},
		{
			"buffer":0,
			"byteLength":288,
			"byteOffset":4589304,
			"target":34962
		},
		{
			"buffer":0,
			"byteLength":288,
			"byteOffset":4589592,
			"target":34962
		},
		{
			"buffer":0,
			"byteLength":192,
			"byteOffset":4589880,
			"target":34962
		},
		{
			"buffer":0,
			"byteLength":288,
			"byteOffset":4590072,
			"target":34962
		},
		{
			"buffer":0,
			"byteLength":288,
			"byteOffset":4590360,
			"target":34962
		},
		{
			"buffer":0,
			"byteLength":192,
			"byteOffset":4590648,
			"target":34962
		},
		{
			"buffer":0,
			"byteLength":288,
			"byteOffset":4590840,
			"target":34962
		},
		{
			"buffer":0,
			"byteLength":288,
			"byteOffset":4591128,
			"target":34962
		},
		{
			"buffer":0,
			"byteLength":192,
			"byteOffset":4591416,
			"target":34962
		}
	],
	"samplers":[
		{
			"magFilter":9729,
			"minFilter":9987
		}
	],
	"buffers":[
		{
			"byteLength":4591608,
			"uri":"crypt_study.bin"
		}
	]
}
