{"asset":{"generator":"Khronos glTF Blender I/O v5.1.20","version":"2.0"},"scene":0,"scenes":[{"name":"Scene","nodes":[0,1,2,3,4,5,6,7]}],"nodes":[{"mesh":0,"name":"crypt_nave_end"},{"mesh":1,"name":"SM_Prop_Barrel_Open_01_0_collider"},{"mesh":2,"name":"SM_Prop_Barrel_01_1_collider"},{"mesh":3,"name":"SM_Prop_Barrel_01_2_collider"},{"mesh":4,"name":"SM_Prop_Barrel_Open_01_3_collider"},{"mesh":5,"name":"SM_Bld_Pillar_05_4_collider"},{"mesh":6,"name":"SM_Prop_Barrel_Open_01_5_collider"},{"mesh":7,"name":"SM_Bld_Pillar_05_6_collider"}],"materials":[{"alphaMode":"MASK","doubleSided":true,"name":"crypt_sheet_vines","pbrMetallicRoughness":{"baseColorFactor":[0.23999999463558197,0.3199999928474426,0.15000000596046448,1],"baseColorTexture":{"index":0},"metallicFactor":0,"roughnessFactor":0.949999988079071},"alphaCutoff":0.45},{"doubleSided":true,"emissiveFactor":[1,1,1],"emissiveTexture":{"index":1},"name":"crypt_mat","pbrMetallicRoughness":{"baseColorTexture":{"index":2},"metallicFactor":0,"roughnessFactor":0.8999999761581421}},{"doubleSided":true,"name":"crypt_tiling_mat","pbrMetallicRoughness":{"baseColorTexture":{"index":3},"metallicFactor":0,"roughnessFactor":0.8999999761581421}}],"meshes":[{"name":"Mesh","primitives":[{"attributes":{"POSITION":0,"NORMAL":1,"TEXCOORD_0":2,"TEXCOORD_1":3,"COLOR_0":4,"COLOR_1":5},"indices":6,"material":0},{"attributes":{"POSITION":7,"NORMAL":8,"TEXCOORD_0":9,"TEXCOORD_1":10,"COLOR_0":11,"COLOR_1":12},"indices":13,"material":1},{"attributes":{"POSITION":14,"NORMAL":15,"TEXCOORD_0":16,"TEXCOORD_1":17,"COLOR_0":18,"COLOR_1":19},"indices":20,"material":2}]},{"name":"SM_Prop_Barrel_Open_01_0_collider","primitives":[{"attributes":{"POSITION":21,"NORMAL":22,"TEXCOORD_0":23},"indices":24}]},{"name":"SM_Prop_Barrel_01_1_collider","primitives":[{"attributes":{"POSITION":25,"NORMAL":26,"TEXCOORD_0":27},"indices":24}]},{"name":"SM_Prop_Barrel_01_2_collider","primitives":[{"attributes":{"POSITION":28,"NORMAL":29,"TEXCOORD_0":30},"indices":24}]},{"name":"SM_Prop_Barrel_Open_01_3_collider","primitives":[{"attributes":{"POSITION":31,"NORMAL":32,"TEXCOORD_0":33},"indices":24}]},{"name":"SM_Bld_Pillar_05_4_collider","primitives":[{"attributes":{"POSITION":34,"NORMAL":35,"TEXCOORD_0":36},"indices":24}]},{"name":"SM_Prop_Barrel_Open_01_5_collider","primitives":[{"attributes":{"POSITION":37,"NORMAL":38,"TEXCOORD_0":39},"indices":24}]},{"name":"SM_Bld_Pillar_05_6_collider","primitives":[{"attributes":{"POSITION":40,"NORMAL":41,"TEXCOORD_0":42},"indices":24}]}],"textures":[{"sampler":0,"source":0},{"sampler":0,"source":1},{"sampler":0,"source":2},{"sampler":0,"source":3}],"images":[{"mimeType":"image/png","name":"Vines_01","uri":"Vines_01.png"},{"mimeType":"image/png","name":"PolygonDarkFantasy_01_A_Emissive","uri":"PolygonDarkFantasy_01_A_Emissive.png"},{"mimeType":"image/png","name":"PolygonDarkFantasy_01_A","uri":"PolygonDarkFantasy_01_A.png"},{"mimeType":"image/png","name":"Brick_Large_01","uri":"Brick_Large_01.png"}],"accessors":[{"bufferView":0,"componentType":5126,"count":204,"max":[3.182408332824707,3.9593162536621094,1.9288992881774902],"min":[-0.5936869382858276,0,-4.706810474395752],"type":"VEC3"},{"bufferView":1,"componentType":5126,"count":204,"type":"VEC3"},{"bufferView":2,"componentType":5126,"count":204,"type":"VEC2"},{"bufferView":3,"componentType":5126,"count":204,"type":"VEC2"},{"bufferView":4,"componentType":5121,"count":204,"normalized":true,"type":"VEC4"},{"bufferView":5,"componentType":5123,"count":204,"normalized":true,"type":"VEC4"},{"bufferView":6,"componentType":5123,"count":714,"type":"SCALAR"},{"bufferView":7,"componentType":5126,"count":45923,"max":[3.138423442840576,6.270902633666992,5.532211780548096],"min":[-3.182408332824707,0.06656777858734131,-5.532211780548096],"type":"VEC3"},{"bufferView":8,"componentType":5126,"count":45923,"type":"VEC3"},{"bufferView":9,"componentType":5126,"count":45923,"type":"VEC2"},{"bufferView":10,"componentType":5126,"count":45923,"type":"VEC2"},{"bufferView":11,"componentType":5121,"count":45923,"normalized":true,"type":"VEC4"},{"bufferView":12,"componentType":5123,"count":45923,"normalized":true,"type":"VEC4"},{"bufferView":13,"componentType":5123,"count":68745,"type":"SCALAR"},{"bufferView":14,"componentType":5126,"count":276,"max":[1.0228508710861206,4.026645660400391,5.163328647613525],"min":[-1.6021393537521362,1.0209027528762817,-4.936671733856201],"type":"VEC3"},{"bufferView":15,"componentType":5126,"count":276,"type":"VEC3"},{"bufferView":16,"componentType":5126,"count":276,"type":"VEC2"},{"bufferView":17,"componentType":5126,"count":276,"type":"VEC2"},{"bufferView":18,"componentType":5121,"count":276,"normalized":true,"type":"VEC4"},{"bufferView":19,"componentType":5123,"count":276,"normalized":true,"type":"VEC4"},{"bufferView":20,"componentType":5123,"count":624,"type":"SCALAR"},{"bufferView":21,"componentType":5126,"count":24,"max":[0.25865113735198975,1.1695303916931152,0.3085344433784485],"min":[-0.365165114402771,0.21801453828811646,-0.2974690794944763],"type":"VEC3"},{"bufferView":22,"componentType":5126,"count":24,"type":"VEC3"},{"bufferView":23,"componentType":5126,"count":24,"type":"VEC2"},{"bufferView":24,"componentType":5123,"count":36,"type":"SCALAR"},{"bufferView":25,"componentType":5126,"count":24,"max":[0.28671255707740784,1.2557168006896973,0.33577826619148254],"min":[-0.39324745535850525,0.21856462955474854,-0.3247658312320709],"type":"VEC3"},{"bufferView":26,"componentType":5126,"count":24,"type":"VEC3"},{"bufferView":27,"componentType":5126,"count":24,"type":"VEC2"},{"bufferView":28,"componentType":5126,"count":24,"max":[0.3241274356842041,1.3706321716308594,0.3721029758453369],"min":[-0.4306905269622803,0.21929800510406494,-0.3611615300178528],"type":"VEC3"},{"bufferView":29,"componentType":5126,"count":24,"type":"VEC3"},{"bufferView":30,"componentType":5126,"count":24,"type":"VEC2"},{"bufferView":31,"componentType":5126,"count":24,"max":[0.2609664797782898,1.1695303916931152,0.31268829107284546],"min":[-0.36739498376846313,0.21801453828811646,-0.3028212785720825],"type":"VEC3"},{"bufferView":32,"componentType":5126,"count":24,"type":"VEC3"},{"bufferView":33,"componentType":5126,"count":24,"type":"VEC2"},{"bufferView":34,"componentType":5126,"count":24,"max":[0.40682780742645264,6.211902618408203,0.4657949209213257],"min":[-0.5131064653396606,0.21190273761749268,-0.45413923263549805],"type":"VEC3"},{"bufferView":35,"componentType":5126,"count":24,"type":"VEC3"},{"bufferView":36,"componentType":5126,"count":24,"type":"VEC2"},{"bufferView":37,"componentType":5126,"count":24,"max":[0.2557491064071655,1.1695303916931152,0.3169846534729004],"min":[-0.3613693118095398,0.21801453828811646,-0.3056730628013611],"type":"VEC3"},{"bufferView":38,"componentType":5126,"count":24,"type":"VEC3"},{"bufferView":39,"componentType":5126,"count":24,"type":"VEC2"},{"bufferView":40,"componentType":5126,"count":24,"max":[0.40682780742645264,6.211902618408203,0.4657949209213257],"min":[-0.5131064653396606,0.21190273761749268,-0.45413923263549805],"type":"VEC3"},{"bufferView":41,"componentType":5126,"count":24,"type":"VEC3"},{"bufferView":42,"componentType":5126,"count":24,"type":"VEC2"}],"bufferViews":[{"buffer":0,"byteLength":2448,"byteOffset":0,"target":34962},{"buffer":0,"byteLength":2448,"byteOffset":2448,"target":34962},{"buffer":0,"byteLength":1632,"byteOffset":4896,"target":34962},{"buffer":0,"byteLength":1632,"byteOffset":6528,"target":34962},{"buffer":0,"byteLength":816,"byteOffset":8160,"target":34962},{"buffer":0,"byteLength":1632,"byteOffset":8976,"target":34962},{"buffer":0,"byteLength":1428,"byteOffset":10608,"target":34963},{"buffer":0,"byteLength":551076,"byteOffset":12036,"target":34962},{"buffer":0,"byteLength":551076,"byteOffset":563112,"target":34962},{"buffer":0,"byteLength":367384,"byteOffset":1114188,"target":34962},{"buffer":0,"byteLength":367384,"byteOffset":1481572,"target":34962},{"buffer":0,"byteLength":183692,"byteOffset":1848956,"target":34962},{"buffer":0,"byteLength":367384,"byteOffset":2032648,"target":34962},{"buffer":0,"byteLength":137490,"byteOffset":2400032,"target":34963},{"buffer":0,"byteLength":3312,"byteOffset":2537524,"target":34962},{"buffer":0,"byteLength":3312,"byteOffset":2540836,"target":34962},{"buffer":0,"byteLength":2208,"byteOffset":2544148,"target":34962},{"buffer":0,"byteLength":2208,"byteOffset":2546356,"target":34962},{"buffer":0,"byteLength":1104,"byteOffset":2548564,"target":34962},{"buffer":0,"byteLength":2208,"byteOffset":2549668,"target":34962},{"buffer":0,"byteLength":1248,"byteOffset":2551876,"target":34963},{"buffer":0,"byteLength":288,"byteOffset":2553124,"target":34962},{"buffer":0,"byteLength":288,"byteOffset":2553412,"target":34962},{"buffer":0,"byteLength":192,"byteOffset":2553700,"target":34962},{"buffer":0,"byteLength":72,"byteOffset":2553892,"target":34963},{"buffer":0,"byteLength":288,"byteOffset":2553964,"target":34962},{"buffer":0,"byteLength":288,"byteOffset":2554252,"target":34962},{"buffer":0,"byteLength":192,"byteOffset":2554540,"target":34962},{"buffer":0,"byteLength":288,"byteOffset":2554732,"target":34962},{"buffer":0,"byteLength":288,"byteOffset":2555020,"target":34962},{"buffer":0,"byteLength":192,"byteOffset":2555308,"target":34962},{"buffer":0,"byteLength":288,"byteOffset":2555500,"target":34962},{"buffer":0,"byteLength":288,"byteOffset":2555788,"target":34962},{"buffer":0,"byteLength":192,"byteOffset":2556076,"target":34962},{"buffer":0,"byteLength":288,"byteOffset":2556268,"target":34962},{"buffer":0,"byteLength":288,"byteOffset":2556556,"target":34962},{"buffer":0,"byteLength":192,"byteOffset":2556844,"target":34962},{"buffer":0,"byteLength":288,"byteOffset":2557036,"target":34962},{"buffer":0,"byteLength":288,"byteOffset":2557324,"target":34962},{"buffer":0,"byteLength":192,"byteOffset":2557612,"target":34962},{"buffer":0,"byteLength":288,"byteOffset":2557804,"target":34962},{"buffer":0,"byteLength":288,"byteOffset":2558092,"target":34962},{"buffer":0,"byteLength":192,"byteOffset":2558380,"target":34962}],"samplers":[{"magFilter":9729,"minFilter":9987}],"buffers":[{"byteLength":2558572,"uri":"crypt_nave_end.bin"}]}