{"asset":{"generator":"Khronos glTF Blender I/O v5.1.20","version":"2.0"},"scene":0,"scenes":[{"name":"Scene","nodes":[0,1,2,3,4,5,6,7,8,9,10,11]}],"nodes":[{"mesh":0,"name":"crypt_altar_end"},{"mesh":1,"name":"SM_Prop_Chest_01_0_collider"},{"mesh":2,"name":"SM_Prop_Statue_People_Damaged_02_1_collider"},{"mesh":3,"name":"SM_Prop_Tomb_01_2_collider"},{"mesh":4,"name":"SM_Prop_Statue_People_Damaged_01_3_collider"},{"mesh":5,"name":"SM_Prop_Candle_Rack_01_4_collider"},{"mesh":6,"name":"SM_Prop_Statue_People_03_5_collider"},{"mesh":7,"name":"SM_Prop_Candle_Rack_01_6_collider"},{"mesh":8,"name":"SM_Bld_Pillar_05_7_collider"},{"mesh":9,"name":"SM_Prop_Statue_01_8_collider"},{"mesh":10,"name":"SM_Prop_Candle_Rack_01_9_collider"},{"mesh":11,"name":"SM_Bld_Pillar_05_10_collider"}],"materials":[{"doubleSided":true,"emissiveFactor":[1,1,1],"emissiveTexture":{"index":0},"name":"crypt_mat","pbrMetallicRoughness":{"baseColorTexture":{"index":1},"metallicFactor":0,"roughnessFactor":0.8999999761581421}},{"alphaMode":"MASK","doubleSided":true,"name":"crypt_sheet_vines","pbrMetallicRoughness":{"baseColorFactor":[0.23999999463558197,0.3199999928474426,0.15000000596046448,1],"baseColorTexture":{"index":2},"metallicFactor":0,"roughnessFactor":0.949999988079071},"alphaCutoff":0.45}],"meshes":[{"name":"Mesh","primitives":[{"attributes":{"POSITION":0,"NORMAL":1,"TEXCOORD_0":2,"TEXCOORD_1":3,"TEXCOORD_2":4,"COLOR_0":5,"COLOR_1":6,"COLOR_2":7},"indices":8,"material":0},{"attributes":{"POSITION":9,"NORMAL":10,"TEXCOORD_0":11,"TEXCOORD_1":12,"TEXCOORD_2":13,"COLOR_0":14,"COLOR_1":15,"COLOR_2":16},"indices":17,"material":1}]},{"name":"SM_Prop_Chest_01_0_collider","primitives":[{"attributes":{"POSITION":18,"NORMAL":19,"TEXCOORD_0":20},"indices":21}]},{"name":"SM_Prop_Statue_People_Damaged_02_1_collider","primitives":[{"attributes":{"POSITION":22,"NORMAL":23,"TEXCOORD_0":24},"indices":21}]},{"name":"SM_Prop_Tomb_01_2_collider","primitives":[{"attributes":{"POSITION":25,"NORMAL":26,"TEXCOORD_0":27},"indices":21}]},{"name":"SM_Prop_Statue_People_Damaged_01_3_collider","primitives":[{"attributes":{"POSITION":28,"NORMAL":29,"TEXCOORD_0":30},"indices":21}]},{"name":"SM_Prop_Candle_Rack_01_4_collider","primitives":[{"attributes":{"POSITION":31,"NORMAL":32,"TEXCOORD_0":33},"indices":21}]},{"name":"SM_Prop_Statue_People_03_5_collider","primitives":[{"attributes":{"POSITION":34,"NORMAL":35,"TEXCOORD_0":36},"indices":21}]},{"name":"SM_Prop_Candle_Rack_01_6_collider","primitives":[{"attributes":{"POSITION":37,"NORMAL":38,"TEXCOORD_0":39},"indices":21}]},{"name":"SM_Bld_Pillar_05_7_collider","primitives":[{"attributes":{"POSITION":40,"NORMAL":41,"TEXCOORD_0":42},"indices":21}]},{"name":"SM_Prop_Statue_01_8_collider","primitives":[{"attributes":{"POSITION":43,"NORMAL":44,"TEXCOORD_0":45},"indices":21}]},{"name":"SM_Prop_Candle_Rack_01_9_collider","primitives":[{"attributes":{"POSITION":46,"NORMAL":47,"TEXCOORD_0":48},"indices":21}]},{"name":"SM_Bld_Pillar_05_10_collider","primitives":[{"attributes":{"POSITION":49,"NORMAL":50,"TEXCOORD_0":51},"indices":21}]}],"textures":[{"sampler":0,"source":0},{"sampler":0,"source":1},{"sampler":0,"source":2}],"images":[{"mimeType":"image/png","name":"PolygonDarkFantasy_01_A_Emissive","uri":"PolygonDarkFantasy_01_A_Emissive.png"},{"mimeType":"image/png","name":"PolygonDarkFantasy_01_A","uri":"PolygonDarkFantasy_01_A.png"},{"mimeType":"image/png","name":"Vines_01","uri":"Vines_01.png"}],"accessors":[{"bufferView":0,"componentType":5126,"count":77829,"max":[3.417914867401123,7.808290481567383,5.04351806640625],"min":[-3.417914867401123,0,-5.04351806640625],"type":"VEC3"},{"bufferView":1,"componentType":5126,"count":77829,"type":"VEC3"},{"bufferView":2,"componentType":5126,"count":77829,"type":"VEC2"},{"bufferView":3,"componentType":5126,"count":77829,"type":"VEC2"},{"bufferView":4,"componentType":5126,"count":77829,"type":"VEC2"},{"bufferView":5,"componentType":5121,"count":77829,"normalized":true,"type":"VEC4"},{"bufferView":6,"componentType":5123,"count":77829,"normalized":true,"type":"VEC4"},{"bufferView":7,"componentType":5123,"count":77829,"normalized":true,"type":"VEC4"},{"bufferView":8,"componentType":5125,"count":106050,"type":"SCALAR"},{"bufferView":9,"componentType":5126,"count":817,"max":[-0.28770607709884644,7.490171432495117,3.545431137084961],"min":[-1.486242413520813,0.06626878678798676,-3.1748106479644775],"type":"VEC3"},{"bufferView":10,"componentType":5126,"count":817,"type":"VEC3"},{"bufferView":11,"componentType":5126,"count":817,"type":"VEC2"},{"bufferView":12,"componentType":5126,"count":817,"type":"VEC2"},{"bufferView":13,"componentType":5126,"count":817,"type":"VEC2"},{"bufferView":14,"componentType":5121,"count":817,"normalized":true,"type":"VEC4"},{"bufferView":15,"componentType":5123,"count":817,"normalized":true,"type":"VEC4"},{"bufferView":16,"componentType":5123,"count":817,"normalized":true,"type":"VEC4"},{"bufferView":17,"componentType":5123,"count":3243,"type":"SCALAR"},{"bufferView":18,"componentType":5126,"count":24,"max":[0.4767865240573883,1.1285568475723267,0.783808708190918],"min":[-0.25985804200172424,0.02529110014438629,-0.5347437858581543],"type":"VEC3"},{"bufferView":19,"componentType":5126,"count":24,"type":"VEC3"},{"bufferView":20,"componentType":5126,"count":24,"type":"VEC2"},{"bufferView":21,"componentType":5123,"count":36,"type":"SCALAR"},{"bufferView":22,"componentType":5126,"count":24,"max":[0.6761523485183716,0.7851332426071167,0.7177724838256836],"min":[-0.4282114505767822,-0.1721503585577011,-0.1269758939743042],"type":"VEC3"},{"bufferView":23,"componentType":5126,"count":24,"type":"VEC3"},{"bufferView":24,"componentType":5126,"count":24,"type":"VEC2"},{"bufferView":25,"componentType":5126,"count":24,"max":[0.8045443296432495,2.1360459327697754,1.4688067436218262],"min":[-0.5787777900695801,0.01209200918674469,-1.1997053623199463],"type":"VEC3"},{"bufferView":26,"componentType":5126,"count":24,"type":"VEC3"},{"bufferView":27,"componentType":5126,"count":24,"type":"VEC2"},{"bufferView":28,"componentType":5126,"count":24,"max":[0.7019420862197876,1.8308607339859009,0.4677504897117615],"min":[-0.5951710939407349,-0.1620994657278061,-0.5537983775138855],"type":"VEC3"},{"bufferView":29,"componentType":5126,"count":24,"type":"VEC3"},{"bufferView":30,"componentType":5126,"count":24,"type":"VEC2"},{"bufferView":31,"componentType":5126,"count":24,"max":[1.0530120134353638,1.2668899297714233,0.5939372777938843],"min":[-0.8498867750167847,0.025296226143836975,-0.33641624450683594],"type":"VEC3"},{"bufferView":32,"componentType":5126,"count":24,"type":"VEC3"},{"bufferView":33,"componentType":5126,"count":24,"type":"VEC2"},{"bufferView":34,"componentType":5126,"count":24,"max":[0.6814290285110474,2.908928155899048,0.6358650326728821],"min":[-0.44640052318573,-0.1620994657278061,-0.3688681721687317],"type":"VEC3"},{"bufferView":35,"componentType":5126,"count":24,"type":"VEC3"},{"bufferView":36,"componentType":5126,"count":24,"type":"VEC2"},{"bufferView":37,"componentType":5126,"count":24,"max":[1.029297947883606,1.2668899297714233,0.47208666801452637],"min":[-0.7992492914199829,0.025296226143836975,-0.23236268758773804],"type":"VEC3"},{"bufferView":38,"componentType":5126,"count":24,"type":"VEC3"},{"bufferView":39,"componentType":5126,"count":24,"type":"VEC2"},{"bufferView":40,"componentType":5126,"count":24,"max":[0.5684314966201782,7.75329065322876,0.5844990015029907],"min":[-0.35150277614593506,0.02529110014438629,-0.335435152053833],"type":"VEC3"},{"bufferView":41,"componentType":5126,"count":24,"type":"VEC3"},{"bufferView":42,"componentType":5126,"count":24,"type":"VEC2"},{"bufferView":43,"componentType":5126,"count":24,"max":[0.9070010781288147,3.5486152172088623,1.451603651046753],"min":[-0.6020016074180603,-0.683975100517273,-1.1764042377471924],"type":"VEC3"},{"bufferView":44,"componentType":5126,"count":24,"type":"VEC3"},{"bufferView":45,"componentType":5126,"count":24,"type":"VEC2"},{"bufferView":46,"componentType":5126,"count":24,"max":[1.029297947883606,1.2668899297714233,0.47208666801452637],"min":[-0.7992492914199829,0.025296226143836975,-0.23236268758773804],"type":"VEC3"},{"bufferView":47,"componentType":5126,"count":24,"type":"VEC3"},{"bufferView":48,"componentType":5126,"count":24,"type":"VEC2"},{"bufferView":49,"componentType":5126,"count":24,"max":[0.5684314966201782,7.75329065322876,0.5844990015029907],"min":[-0.35150277614593506,0.02529110014438629,-0.335435152053833],"type":"VEC3"},{"bufferView":50,"componentType":5126,"count":24,"type":"VEC3"},{"bufferView":51,"componentType":5126,"count":24,"type":"VEC2"}],"bufferViews":[{"buffer":0,"byteLength":933948,"byteOffset":0,"target":34962},{"buffer":0,"byteLength":933948,"byteOffset":933948,"target":34962},{"buffer":0,"byteLength":622632,"byteOffset":1867896,"target":34962},{"buffer":0,"byteLength":622632,"byteOffset":2490528,"target":34962},{"buffer":0,"byteLength":622632,"byteOffset":3113160,"target":34962},{"buffer":0,"byteLength":311316,"byteOffset":3735792,"target":34962},{"buffer":0,"byteLength":622632,"byteOffset":4047108,"target":34962},{"buffer":0,"byteLength":622632,"byteOffset":4669740,"target":34962},{"buffer":0,"byteLength":424200,"byteOffset":5292372,"target":34963},{"buffer":0,"byteLength":9804,"byteOffset":5716572,"target":34962},{"buffer":0,"byteLength":9804,"byteOffset":5726376,"target":34962},{"buffer":0,"byteLength":6536,"byteOffset":5736180,"target":34962},{"buffer":0,"byteLength":6536,"byteOffset":5742716,"target":34962},{"buffer":0,"byteLength":6536,"byteOffset":5749252,"target":34962},{"buffer":0,"byteLength":3268,"byteOffset":5755788,"target":34962},{"buffer":0,"byteLength":6536,"byteOffset":5759056,"target":34962},{"buffer":0,"byteLength":6536,"byteOffset":5765592,"target":34962},{"buffer":0,"byteLength":6486,"byteOffset":5772128,"target":34963},{"buffer":0,"byteLength":288,"byteOffset":5778616,"target":34962},{"buffer":0,"byteLength":288,"byteOffset":5778904,"target":34962},{"buffer":0,"byteLength":192,"byteOffset":5779192,"target":34962},{"buffer":0,"byteLength":72,"byteOffset":5779384,"target":34963},{"buffer":0,"byteLength":288,"byteOffset":5779456,"target":34962},{"buffer":0,"byteLength":288,"byteOffset":5779744,"target":34962},{"buffer":0,"byteLength":192,"byteOffset":5780032,"target":34962},{"buffer":0,"byteLength":288,"byteOffset":5780224,"target":34962},{"buffer":0,"byteLength":288,"byteOffset":5780512,"target":34962},{"buffer":0,"byteLength":192,"byteOffset":5780800,"target":34962},{"buffer":0,"byteLength":288,"byteOffset":5780992,"target":34962},{"buffer":0,"byteLength":288,"byteOffset":5781280,"target":34962},{"buffer":0,"byteLength":192,"byteOffset":5781568,"target":34962},{"buffer":0,"byteLength":288,"byteOffset":5781760,"target":34962},{"buffer":0,"byteLength":288,"byteOffset":5782048,"target":34962},{"buffer":0,"byteLength":192,"byteOffset":5782336,"target":34962},{"buffer":0,"byteLength":288,"byteOffset":5782528,"target":34962},{"buffer":0,"byteLength":288,"byteOffset":5782816,"target":34962},{"buffer":0,"byteLength":192,"byteOffset":5783104,"target":34962},{"buffer":0,"byteLength":288,"byteOffset":5783296,"target":34962},{"buffer":0,"byteLength":288,"byteOffset":5783584,"target":34962},{"buffer":0,"byteLength":192,"byteOffset":5783872,"target":34962},{"buffer":0,"byteLength":288,"byteOffset":5784064,"target":34962},{"buffer":0,"byteLength":288,"byteOffset":5784352,"target":34962},{"buffer":0,"byteLength":192,"byteOffset":5784640,"target":34962},{"buffer":0,"byteLength":288,"byteOffset":5784832,"target":34962},{"buffer":0,"byteLength":288,"byteOffset":5785120,"target":34962},{"buffer":0,"byteLength":192,"byteOffset":5785408,"target":34962},{"buffer":0,"byteLength":288,"byteOffset":5785600,"target":34962},{"buffer":0,"byteLength":288,"byteOffset":5785888,"target":34962},{"buffer":0,"byteLength":192,"byteOffset":5786176,"target":34962},{"buffer":0,"byteLength":288,"byteOffset":5786368,"target":34962},{"buffer":0,"byteLength":288,"byteOffset":5786656,"target":34962},{"buffer":0,"byteLength":192,"byteOffset":5786944,"target":34962}],"samplers":[{"magFilter":9729,"minFilter":9987}],"buffers":[{"byteLength":5787136,"uri":"crypt_altar_end.bin"}]}