{
	"asset":{
		"generator":"Khronos glTF Blender I/O v5.1.20",
		"version":"2.0"
	},
	"scene":0,
	"scenes":[
		{
			"name":"Scene",
			"nodes":[
				0
			]
		}
	],
	"nodes":[
		{
			"mesh":0,
			"name":"crypt_crate"
		}
	],
	"materials":[
		{
			"doubleSided":true,
			"emissiveFactor":[
				1,
				1,
				1
			],
			"emissiveTexture":{
				"index":0
			},
			"name":"crypt_mat",
			"pbrMetallicRoughness":{
				"baseColorTexture":{
					"index":1
				},
				"metallicFactor":0,
				"roughnessFactor":0.8999999761581421
			}
		}
	],
	"meshes":[
		{
			"name":"Mesh",
			"primitives":[
				{
					"attributes":{
						"POSITION":0,
						"NORMAL":1,
						"TEXCOORD_0":2
					},
					"indices":3,
					"material":0
				}
			]
		}
	],
	"textures":[
		{
			"sampler":0,
			"source":0
		},
		{
			"sampler":0,
			"source":1
		}
	],
	"images":[
		{
			"mimeType":"image/png",
			"name":"PolygonDarkFantasy_01_A_Emissive",
			"uri":"PolygonDarkFantasy_01_A_Emissive.png"
		},
		{
			"mimeType":"image/png",
			"name":"PolygonDarkFantasy_01_A",
			"uri":"PolygonDarkFantasy_01_A.png"
		}
	],
	"accessors":[
		{
			"bufferView":0,
			"componentType":5126,
			"count":988,
			"max":[
				0.5566062927246094,
				0.39850857853889465,
				0.34036123752593994
			],
			"min":[
				-0.5566062927246094,
				-1.9554239116814642e-08,
				-0.34036126732826233
			],
			"type":"VEC3"
		},
		{
			"bufferView":1,
			"componentType":5126,
			"count":988,
			"type":"VEC3"
		},
		{
			"bufferView":2,
			"componentType":5126,
			"count":988,
			"type":"VEC2"
		},
		{
			"bufferView":3,
			"componentType":5123,
			"count":1530,
			"type":"SCALAR"
		}
	],
	"bufferViews":[
		{
			"buffer":0,
			"byteLength":11856,
			"byteOffset":0,
			"target":34962
		},
		{
			"buffer":0,
			"byteLength":11856,
			"byteOffset":11856,
			"target":34962
		},
		{
			"buffer":0,
			"byteLength":7904,
			"byteOffset":23712,
			"target":34962
		},
		{
			"buffer":0,
			"byteLength":3060,
			"byteOffset":31616,
			"target":34963
		}
	],
	"samplers":[
		{
			"magFilter":9729,
			"minFilter":9987
		}
	],
	"buffers":[
		{
			"byteLength":34676,
			"uri":"crypt_crate.bin"
		}
	]
}
