{"asset":{"generator":"Khronos glTF Blender I/O v5.1.20","version":"2.0"},"scene":0,"scenes":[{"name":"Scene","nodes":[0]}],"nodes":[{"mesh":0,"name":"crypt_moss_c"}],"materials":[{"alphaMode":"BLEND","doubleSided":true,"name":"crypt_sheet_moss","pbrMetallicRoughness":{"baseColorTexture":{"index":0},"metallicFactor":0,"roughnessFactor":0.949999988079071}}],"meshes":[{"name":"Mesh","primitives":[{"attributes":{"POSITION":0,"NORMAL":1,"TEXCOORD_0":2},"indices":3,"material":0}]}],"textures":[{"sampler":0,"source":0}],"images":[{"mimeType":"image/png","name":"crypt_sheet_moss","uri":"crypt_sheet_moss.png"}],"accessors":[{"bufferView":0,"componentType":5126,"count":4,"max":[0.6197370886802673,0.8897889256477356,2.7939677238464355e-09],"min":[-0.6197370886802673,0,-2.3283064365386963e-09],"type":"VEC3"},{"bufferView":1,"componentType":5126,"count":4,"type":"VEC3"},{"bufferView":2,"componentType":5126,"count":4,"type":"VEC2"},{"bufferView":3,"componentType":5123,"count":6,"type":"SCALAR"}],"bufferViews":[{"buffer":0,"byteLength":48,"byteOffset":0,"target":34962},{"buffer":0,"byteLength":48,"byteOffset":48,"target":34962},{"buffer":0,"byteLength":32,"byteOffset":96,"target":34962},{"buffer":0,"byteLength":12,"byteOffset":128,"target":34963}],"samplers":[{"magFilter":9729,"minFilter":9987}],"buffers":[{"byteLength":140,"uri":"crypt_moss_c.bin"}]}