{
	"asset":{
		"generator":"Khronos glTF Blender I/O v5.1.20",
		"version":"2.0"
	},
	"scene":0,
	"scenes":[
		{
			"name":"Scene",
			"nodes":[
				0
			]
		}
	],
	"nodes":[
		{
			"mesh":0,
			"name":"crypt_fern"
		}
	],
	"materials":[
		{
			"doubleSided":true,
			"emissiveFactor":[
				1,
				1,
				1
			],
			"emissiveTexture":{
				"index":0
			},
			"name":"crypt_mat",
			"pbrMetallicRoughness":{
				"baseColorTexture":{
					"index":1
				},
				"metallicFactor":0,
				"roughnessFactor":0.8999999761581421
			}
		}
	],
	"meshes":[
		{
			"name":"Mesh",
			"primitives":[
				{
					"attributes":{
						"POSITION":0,
						"NORMAL":1,
						"TEXCOORD_0":2,
						"COLOR_0":3,
						"COLOR_1":4
					},
					"indices":5,
					"material":0
				}
			]
		}
	],
	"textures":[
		{
			"sampler":0,
			"source":0
		},
		{
			"sampler":0,
			"source":1
		}
	],
	"images":[
		{
			"mimeType":"image/png",
			"name":"PolygonDarkFantasy_01_A_Emissive",
			"uri":"PolygonDarkFantasy_01_A_Emissive.png"
		},
		{
			"mimeType":"image/png",
			"name":"PolygonDarkFantasy_01_A",
			"uri":"PolygonDarkFantasy_01_A.png"
		}
	],
	"accessors":[
		{
			"bufferView":0,
			"componentType":5126,
			"count":986,
			"max":[
				0.706167995929718,
				0.8590083122253418,
				0.6457222104072571
			],
			"min":[
				-0.706167995929718,
				0,
				-0.6457222104072571
			],
			"type":"VEC3"
		},
		{
			"bufferView":1,
			"componentType":5126,
			"count":986,
			"type":"VEC3"
		},
		{
			"bufferView":2,
			"componentType":5126,
			"count":986,
			"type":"VEC2"
		},
		{
			"bufferView":3,
			"componentType":5121,
			"count":986,
			"normalized":true,
			"type":"VEC4"
		},
		{
			"bufferView":4,
			"componentType":5123,
			"count":986,
			"normalized":true,
			"type":"VEC4"
		},
		{
			"bufferView":5,
			"componentType":5123,
			"count":1344,
			"type":"SCALAR"
		}
	],
	"bufferViews":[
		{
			"buffer":0,
			"byteLength":11832,
			"byteOffset":0,
			"target":34962
		},
		{
			"buffer":0,
			"byteLength":11832,
			"byteOffset":11832,
			"target":34962
		},
		{
			"buffer":0,
			"byteLength":7888,
			"byteOffset":23664,
			"target":34962
		},
		{
			"buffer":0,
			"byteLength":3944,
			"byteOffset":31552,
			"target":34962
		},
		{
			"buffer":0,
			"byteLength":7888,
			"byteOffset":35496,
			"target":34962
		},
		{
			"buffer":0,
			"byteLength":2688,
			"byteOffset":43384,
			"target":34963
		}
	],
	"samplers":[
		{
			"magFilter":9729,
			"minFilter":9987
		}
	],
	"buffers":[
		{
			"byteLength":46072,
			"uri":"crypt_fern.bin"
		}
	]
}
