{
	"asset":{
		"generator":"Khronos glTF Blender I/O v5.1.20",
		"version":"2.0"
	},
	"scene":0,
	"scenes":[
		{
			"name":"Scene",
			"nodes":[
				0
			]
		}
	],
	"nodes":[
		{
			"mesh":0,
			"name":"crypt_head"
		}
	],
	"materials":[
		{
			"doubleSided":true,
			"emissiveFactor":[
				1,
				1,
				1
			],
			"emissiveTexture":{
				"index":0
			},
			"name":"crypt_mat",
			"pbrMetallicRoughness":{
				"baseColorTexture":{
					"index":1
				},
				"metallicFactor":0,
				"roughnessFactor":0.8999999761581421
			}
		}
	],
	"meshes":[
		{
			"name":"Mesh",
			"primitives":[
				{
					"attributes":{
						"POSITION":0,
						"NORMAL":1,
						"TEXCOORD_0":2,
						"TEXCOORD_1":3,
						"TEXCOORD_2":4
					},
					"indices":5,
					"material":0
				}
			]
		}
	],
	"textures":[
		{
			"sampler":0,
			"source":0
		},
		{
			"sampler":0,
			"source":1
		}
	],
	"images":[
		{
			"mimeType":"image/png",
			"name":"PolygonDarkFantasy_01_A_Emissive",
			"uri":"PolygonDarkFantasy_01_A_Emissive.png"
		},
		{
			"mimeType":"image/png",
			"name":"PolygonDarkFantasy_01_A",
			"uri":"PolygonDarkFantasy_01_A.png"
		}
	],
	"accessors":[
		{
			"bufferView":0,
			"componentType":5126,
			"count":3931,
			"max":[
				0.5161840915679932,
				1.4059116840362549,
				0.5226524472236633
			],
			"min":[
				-0.5161840915679932,
				0,
				-0.5226524472236633
			],
			"type":"VEC3"
		},
		{
			"bufferView":1,
			"componentType":5126,
			"count":3931,
			"type":"VEC3"
		},
		{
			"bufferView":2,
			"componentType":5126,
			"count":3931,
			"type":"VEC2"
		},
		{
			"bufferView":3,
			"componentType":5126,
			"count":3931,
			"type":"VEC2"
		},
		{
			"bufferView":4,
			"componentType":5126,
			"count":3931,
			"type":"VEC2"
		},
		{
			"bufferView":5,
			"componentType":5123,
			"count":5307,
			"type":"SCALAR"
		}
	],
	"bufferViews":[
		{
			"buffer":0,
			"byteLength":47172,
			"byteOffset":0,
			"target":34962
		},
		{
			"buffer":0,
			"byteLength":47172,
			"byteOffset":47172,
			"target":34962
		},
		{
			"buffer":0,
			"byteLength":31448,
			"byteOffset":94344,
			"target":34962
		},
		{
			"buffer":0,
			"byteLength":31448,
			"byteOffset":125792,
			"target":34962
		},
		{
			"buffer":0,
			"byteLength":31448,
			"byteOffset":157240,
			"target":34962
		},
		{
			"buffer":0,
			"byteLength":10614,
			"byteOffset":188688,
			"target":34963
		}
	],
	"samplers":[
		{
			"magFilter":9729,
			"minFilter":9987
		}
	],
	"buffers":[
		{
			"byteLength":199304,
			"uri":"crypt_head.bin"
		}
	]
}
