{
	"asset":{
		"generator":"Khronos glTF Blender I/O v5.1.20",
		"version":"2.0"
	},
	"scene":0,
	"scenes":[
		{
			"name":"Scene",
			"nodes":[
				0
			]
		}
	],
	"nodes":[
		{
			"mesh":0,
			"name":"crypt_desk"
		}
	],
	"materials":[
		{
			"doubleSided":true,
			"emissiveFactor":[
				1,
				1,
				1
			],
			"emissiveTexture":{
				"index":0
			},
			"name":"crypt_mat",
			"pbrMetallicRoughness":{
				"baseColorTexture":{
					"index":1
				},
				"metallicFactor":0,
				"roughnessFactor":0.8999999761581421
			}
		}
	],
	"meshes":[
		{
			"name":"Mesh",
			"primitives":[
				{
					"attributes":{
						"POSITION":0,
						"NORMAL":1,
						"TEXCOORD_0":2,
						"TEXCOORD_1":3
					},
					"indices":4,
					"material":0
				}
			]
		}
	],
	"textures":[
		{
			"sampler":0,
			"source":0
		},
		{
			"sampler":0,
			"source":1
		}
	],
	"images":[
		{
			"mimeType":"image/png",
			"name":"PolygonDarkFantasy_01_A_Emissive",
			"uri":"PolygonDarkFantasy_01_A_Emissive.png"
		},
		{
			"mimeType":"image/png",
			"name":"PolygonDarkFantasy_01_A",
			"uri":"PolygonDarkFantasy_01_A.png"
		}
	],
	"accessors":[
		{
			"bufferView":0,
			"componentType":5126,
			"count":1217,
			"max":[
				0.4614218473434448,
				1.2351088523864746,
				0.2906721234321594
			],
			"min":[
				-0.4614218473434448,
				0,
				-0.2906721234321594
			],
			"type":"VEC3"
		},
		{
			"bufferView":1,
			"componentType":5126,
			"count":1217,
			"type":"VEC3"
		},
		{
			"bufferView":2,
			"componentType":5126,
			"count":1217,
			"type":"VEC2"
		},
		{
			"bufferView":3,
			"componentType":5126,
			"count":1217,
			"type":"VEC2"
		},
		{
			"bufferView":4,
			"componentType":5123,
			"count":1803,
			"type":"SCALAR"
		}
	],
	"bufferViews":[
		{
			"buffer":0,
			"byteLength":14604,
			"byteOffset":0,
			"target":34962
		},
		{
			"buffer":0,
			"byteLength":14604,
			"byteOffset":14604,
			"target":34962
		},
		{
			"buffer":0,
			"byteLength":9736,
			"byteOffset":29208,
			"target":34962
		},
		{
			"buffer":0,
			"byteLength":9736,
			"byteOffset":38944,
			"target":34962
		},
		{
			"buffer":0,
			"byteLength":3606,
			"byteOffset":48680,
			"target":34963
		}
	],
	"samplers":[
		{
			"magFilter":9729,
			"minFilter":9987
		}
	],
	"buffers":[
		{
			"byteLength":52288,
			"uri":"crypt_desk.bin"
		}
	]
}
