{
	"asset":{
		"generator":"Khronos glTF Blender I/O v5.1.20",
		"version":"2.0"
	},
	"scene":0,
	"scenes":[
		{
			"name":"Scene",
			"nodes":[
				0
			]
		}
	],
	"nodes":[
		{
			"mesh":0,
			"name":"crypt_candle"
		}
	],
	"materials":[
		{
			"doubleSided":true,
			"emissiveFactor":[
				1,
				1,
				1
			],
			"emissiveTexture":{
				"index":0
			},
			"name":"crypt_mat",
			"pbrMetallicRoughness":{
				"baseColorTexture":{
					"index":1
				},
				"metallicFactor":0,
				"roughnessFactor":0.8999999761581421
			}
		}
	],
	"meshes":[
		{
			"name":"Mesh",
			"primitives":[
				{
					"attributes":{
						"POSITION":0,
						"NORMAL":1,
						"TEXCOORD_0":2,
						"TEXCOORD_1":3
					},
					"indices":4,
					"material":0
				}
			]
		}
	],
	"textures":[
		{
			"sampler":0,
			"source":0
		},
		{
			"sampler":0,
			"source":1
		}
	],
	"images":[
		{
			"mimeType":"image/png",
			"name":"PolygonDarkFantasy_01_A_Emissive",
			"uri":"PolygonDarkFantasy_01_A_Emissive.png"
		},
		{
			"mimeType":"image/png",
			"name":"PolygonDarkFantasy_01_A",
			"uri":"PolygonDarkFantasy_01_A.png"
		}
	],
	"accessors":[
		{
			"bufferView":0,
			"componentType":5126,
			"count":868,
			"max":[
				0.15397164225578308,
				0.3938458263874054,
				0.13497425615787506
			],
			"min":[
				-0.1539716273546219,
				1.0190272625720809e-08,
				-0.13497425615787506
			],
			"type":"VEC3"
		},
		{
			"bufferView":1,
			"componentType":5126,
			"count":868,
			"type":"VEC3"
		},
		{
			"bufferView":2,
			"componentType":5126,
			"count":868,
			"type":"VEC2"
		},
		{
			"bufferView":3,
			"componentType":5126,
			"count":868,
			"type":"VEC2"
		},
		{
			"bufferView":4,
			"componentType":5123,
			"count":1290,
			"type":"SCALAR"
		}
	],
	"bufferViews":[
		{
			"buffer":0,
			"byteLength":10416,
			"byteOffset":0,
			"target":34962
		},
		{
			"buffer":0,
			"byteLength":10416,
			"byteOffset":10416,
			"target":34962
		},
		{
			"buffer":0,
			"byteLength":6944,
			"byteOffset":20832,
			"target":34962
		},
		{
			"buffer":0,
			"byteLength":6944,
			"byteOffset":27776,
			"target":34962
		},
		{
			"buffer":0,
			"byteLength":2580,
			"byteOffset":34720,
			"target":34963
		}
	],
	"samplers":[
		{
			"magFilter":9729,
			"minFilter":9987
		}
	],
	"buffers":[
		{
			"byteLength":37300,
			"uri":"crypt_candle.bin"
		}
	]
}
