{
	"asset":{
		"generator":"Khronos glTF Blender I/O v5.1.20",
		"version":"2.0"
	},
	"scene":0,
	"scenes":[
		{
			"name":"Scene",
			"nodes":[
				0
			]
		}
	],
	"nodes":[
		{
			"mesh":0,
			"name":"crypt_candelabra_s"
		}
	],
	"materials":[
		{
			"doubleSided":true,
			"emissiveFactor":[
				1,
				1,
				1
			],
			"emissiveTexture":{
				"index":0
			},
			"name":"crypt_mat",
			"pbrMetallicRoughness":{
				"baseColorTexture":{
					"index":1
				},
				"metallicFactor":0,
				"roughnessFactor":0.8999999761581421
			}
		}
	],
	"meshes":[
		{
			"name":"Mesh",
			"primitives":[
				{
					"attributes":{
						"POSITION":0,
						"NORMAL":1,
						"TEXCOORD_0":2,
						"TEXCOORD_1":3,
						"TEXCOORD_2":4
					},
					"indices":5,
					"material":0
				}
			]
		}
	],
	"textures":[
		{
			"sampler":0,
			"source":0
		},
		{
			"sampler":0,
			"source":1
		}
	],
	"images":[
		{
			"mimeType":"image/png",
			"name":"PolygonDarkFantasy_01_A_Emissive",
			"uri":"PolygonDarkFantasy_01_A_Emissive.png"
		},
		{
			"mimeType":"image/png",
			"name":"PolygonDarkFantasy_01_A",
			"uri":"PolygonDarkFantasy_01_A.png"
		}
	],
	"accessors":[
		{
			"bufferView":0,
			"componentType":5126,
			"count":3226,
			"max":[
				0.2611527442932129,
				0.8378967642784119,
				0.2625623941421509
			],
			"min":[
				-0.2611527442932129,
				0,
				-0.2625623941421509
			],
			"type":"VEC3"
		},
		{
			"bufferView":1,
			"componentType":5126,
			"count":3226,
			"type":"VEC3"
		},
		{
			"bufferView":2,
			"componentType":5126,
			"count":3226,
			"type":"VEC2"
		},
		{
			"bufferView":3,
			"componentType":5126,
			"count":3226,
			"type":"VEC2"
		},
		{
			"bufferView":4,
			"componentType":5126,
			"count":3226,
			"type":"VEC2"
		},
		{
			"bufferView":5,
			"componentType":5123,
			"count":4770,
			"type":"SCALAR"
		}
	],
	"bufferViews":[
		{
			"buffer":0,
			"byteLength":38712,
			"byteOffset":0,
			"target":34962
		},
		{
			"buffer":0,
			"byteLength":38712,
			"byteOffset":38712,
			"target":34962
		},
		{
			"buffer":0,
			"byteLength":25808,
			"byteOffset":77424,
			"target":34962
		},
		{
			"buffer":0,
			"byteLength":25808,
			"byteOffset":103232,
			"target":34962
		},
		{
			"buffer":0,
			"byteLength":25808,
			"byteOffset":129040,
			"target":34962
		},
		{
			"buffer":0,
			"byteLength":9540,
			"byteOffset":154848,
			"target":34963
		}
	],
	"samplers":[
		{
			"magFilter":9729,
			"minFilter":9987
		}
	],
	"buffers":[
		{
			"byteLength":164388,
			"uri":"crypt_candelabra_s.bin"
		}
	]
}
