{
	"asset":{
		"generator":"Khronos glTF Blender I/O v5.1.20",
		"version":"2.0"
	},
	"scene":0,
	"scenes":[
		{
			"name":"Scene",
			"nodes":[
				0
			]
		}
	],
	"nodes":[
		{
			"mesh":0,
			"name":"crypt_goblet"
		}
	],
	"materials":[
		{
			"doubleSided":true,
			"emissiveFactor":[
				1,
				1,
				1
			],
			"emissiveTexture":{
				"index":0
			},
			"name":"crypt_mat",
			"pbrMetallicRoughness":{
				"baseColorTexture":{
					"index":1
				},
				"metallicFactor":0,
				"roughnessFactor":0.8999999761581421
			}
		}
	],
	"meshes":[
		{
			"name":"Mesh",
			"primitives":[
				{
					"attributes":{
						"POSITION":0,
						"NORMAL":1,
						"TEXCOORD_0":2,
						"TEXCOORD_1":3
					},
					"indices":4,
					"material":0
				}
			]
		}
	],
	"textures":[
		{
			"sampler":0,
			"source":0
		},
		{
			"sampler":0,
			"source":1
		}
	],
	"images":[
		{
			"mimeType":"image/png",
			"name":"PolygonDarkFantasy_01_A_Emissive",
			"uri":"PolygonDarkFantasy_01_A_Emissive.png"
		},
		{
			"mimeType":"image/png",
			"name":"PolygonDarkFantasy_01_A",
			"uri":"PolygonDarkFantasy_01_A.png"
		}
	],
	"accessors":[
		{
			"bufferView":0,
			"componentType":5126,
			"count":1031,
			"max":[
				0.08725616335868835,
				0.3688456118106842,
				0.08926727622747421
			],
			"min":[
				-0.08725616335868835,
				0,
				-0.08926727622747421
			],
			"type":"VEC3"
		},
		{
			"bufferView":1,
			"componentType":5126,
			"count":1031,
			"type":"VEC3"
		},
		{
			"bufferView":2,
			"componentType":5126,
			"count":1031,
			"type":"VEC2"
		},
		{
			"bufferView":3,
			"componentType":5126,
			"count":1031,
			"type":"VEC2"
		},
		{
			"bufferView":4,
			"componentType":5123,
			"count":1566,
			"type":"SCALAR"
		}
	],
	"bufferViews":[
		{
			"buffer":0,
			"byteLength":12372,
			"byteOffset":0,
			"target":34962
		},
		{
			"buffer":0,
			"byteLength":12372,
			"byteOffset":12372,
			"target":34962
		},
		{
			"buffer":0,
			"byteLength":8248,
			"byteOffset":24744,
			"target":34962
		},
		{
			"buffer":0,
			"byteLength":8248,
			"byteOffset":32992,
			"target":34962
		},
		{
			"buffer":0,
			"byteLength":3132,
			"byteOffset":41240,
			"target":34963
		}
	],
	"samplers":[
		{
			"magFilter":9729,
			"minFilter":9987
		}
	],
	"buffers":[
		{
			"byteLength":44372,
			"uri":"crypt_goblet.bin"
		}
	]
}
