{"asset":{"generator":"Khronos glTF Blender I/O v5.1.20","version":"2.0"},"scene":0,"scenes":[{"name":"Scene","nodes":[0]}],"nodes":[{"mesh":0,"name":"crypt_vine_a"}],"materials":[{"alphaMode":"MASK","doubleSided":true,"name":"crypt_sheet_vines","pbrMetallicRoughness":{"baseColorFactor":[0.23999999463558197,0.3199999928474426,0.15000000596046448,1],"baseColorTexture":{"index":0},"metallicFactor":0,"roughnessFactor":0.949999988079071},"alphaCutoff":0.45}],"meshes":[{"name":"Mesh","primitives":[{"attributes":{"POSITION":0,"NORMAL":1,"TEXCOORD_0":2},"indices":3,"material":0}]}],"textures":[{"sampler":0,"source":0}],"images":[{"mimeType":"image/png","name":"Vines_01","uri":"Vines_01.png"}],"accessors":[{"bufferView":0,"componentType":5126,"count":34,"max":[0.7836938500404358,1.6327730417251587,0.03708859533071518],"min":[-0.7836938500404358,0,-0.03708859905600548],"type":"VEC3"},{"bufferView":1,"componentType":5126,"count":34,"type":"VEC3"},{"bufferView":2,"componentType":5126,"count":34,"type":"VEC2"},{"bufferView":3,"componentType":5123,"count":120,"type":"SCALAR"}],"bufferViews":[{"buffer":0,"byteLength":408,"byteOffset":0,"target":34962},{"buffer":0,"byteLength":408,"byteOffset":408,"target":34962},{"buffer":0,"byteLength":272,"byteOffset":816,"target":34962},{"buffer":0,"byteLength":240,"byteOffset":1088,"target":34963}],"samplers":[{"magFilter":9729,"minFilter":9987}],"buffers":[{"byteLength":1328,"uri":"crypt_vine_a.bin"}]}