{
	"asset":{
		"generator":"Khronos glTF Blender I/O v5.1.20",
		"version":"2.0"
	},
	"scene":0,
	"scenes":[
		{
			"name":"Scene",
			"nodes":[
				0
			]
		}
	],
	"nodes":[
		{
			"mesh":0,
			"name":"crypt_wall_a"
		}
	],
	"materials":[
		{
			"doubleSided":true,
			"name":"crypt_tiling_mat",
			"pbrMetallicRoughness":{
				"baseColorTexture":{
					"index":0
				},
				"metallicFactor":0,
				"roughnessFactor":0.8999999761581421
			}
		},
		{
			"doubleSided":true,
			"emissiveFactor":[
				1,
				1,
				1
			],
			"emissiveTexture":{
				"index":1
			},
			"name":"crypt_mat",
			"pbrMetallicRoughness":{
				"baseColorTexture":{
					"index":2
				},
				"metallicFactor":0,
				"roughnessFactor":0.8999999761581421
			}
		}
	],
	"meshes":[
		{
			"name":"Mesh",
			"primitives":[
				{
					"attributes":{
						"POSITION":0,
						"NORMAL":1,
						"TEXCOORD_0":2
					},
					"indices":3,
					"material":0
				},
				{
					"attributes":{
						"POSITION":4,
						"NORMAL":5,
						"TEXCOORD_0":6
					},
					"indices":7,
					"material":1
				}
			]
		}
	],
	"textures":[
		{
			"sampler":0,
			"source":0
		},
		{
			"sampler":0,
			"source":1
		},
		{
			"sampler":0,
			"source":2
		}
	],
	"images":[
		{
			"mimeType":"image/png",
			"name":"Brick_Large_01",
			"uri":"Brick_Large_01.png"
		},
		{
			"mimeType":"image/png",
			"name":"PolygonDarkFantasy_01_A_Emissive",
			"uri":"PolygonDarkFantasy_01_A_Emissive.png"
		},
		{
			"mimeType":"image/png",
			"name":"PolygonDarkFantasy_01_A",
			"uri":"PolygonDarkFantasy_01_A.png"
		}
	],
	"accessors":[
		{
			"bufferView":0,
			"componentType":5126,
			"count":256,
			"max":[
				4.999995708465576,
				6.005743026733398,
				0.11250010877847672
			],
			"min":[
				-4.999995708465576,
				0,
				-0.11250010877847672
			],
			"type":"VEC3"
		},
		{
			"bufferView":1,
			"componentType":5126,
			"count":256,
			"type":"VEC3"
		},
		{
			"bufferView":2,
			"componentType":5126,
			"count":256,
			"type":"VEC2"
		},
		{
			"bufferView":3,
			"componentType":5123,
			"count":480,
			"type":"SCALAR"
		},
		{
			"bufferView":4,
			"componentType":5126,
			"count":240,
			"max":[
				4.999995708465576,
				6.244652271270752,
				0.022013984620571136
			],
			"min":[
				-4.999995708465576,
				6.010000228881836,
				-0.01923050731420517
			],
			"type":"VEC3"
		},
		{
			"bufferView":5,
			"componentType":5126,
			"count":240,
			"type":"VEC3"
		},
		{
			"bufferView":6,
			"componentType":5126,
			"count":240,
			"type":"VEC2"
		},
		{
			"bufferView":7,
			"componentType":5123,
			"count":432,
			"type":"SCALAR"
		}
	],
	"bufferViews":[
		{
			"buffer":0,
			"byteLength":3072,
			"byteOffset":0,
			"target":34962
		},
		{
			"buffer":0,
			"byteLength":3072,
			"byteOffset":3072,
			"target":34962
		},
		{
			"buffer":0,
			"byteLength":2048,
			"byteOffset":6144,
			"target":34962
		},
		{
			"buffer":0,
			"byteLength":960,
			"byteOffset":8192,
			"target":34963
		},
		{
			"buffer":0,
			"byteLength":2880,
			"byteOffset":9152,
			"target":34962
		},
		{
			"buffer":0,
			"byteLength":2880,
			"byteOffset":12032,
			"target":34962
		},
		{
			"buffer":0,
			"byteLength":1920,
			"byteOffset":14912,
			"target":34962
		},
		{
			"buffer":0,
			"byteLength":864,
			"byteOffset":16832,
			"target":34963
		}
	],
	"samplers":[
		{
			"magFilter":9729,
			"minFilter":9987
		}
	],
	"buffers":[
		{
			"byteLength":17696,
			"uri":"crypt_wall_a.bin"
		}
	]
}
