{
	"asset":{
		"generator":"Khronos glTF Blender I/O v5.1.20",
		"version":"2.0"
	},
	"scene":0,
	"scenes":[
		{
			"name":"Scene",
			"nodes":[
				0
			]
		}
	],
	"nodes":[
		{
			"mesh":0,
			"name":"crypt_ward"
		}
	],
	"materials":[
		{
			"doubleSided":true,
			"emissiveFactor":[
				1,
				1,
				1
			],
			"emissiveTexture":{
				"index":0
			},
			"name":"crypt_mat",
			"pbrMetallicRoughness":{
				"baseColorTexture":{
					"index":1
				},
				"metallicFactor":0,
				"roughnessFactor":0.8999999761581421
			}
		}
	],
	"meshes":[
		{
			"name":"Mesh",
			"primitives":[
				{
					"attributes":{
						"POSITION":0,
						"NORMAL":1,
						"TEXCOORD_0":2,
						"TEXCOORD_1":3,
						"TEXCOORD_2":4
					},
					"indices":5,
					"material":0
				}
			]
		}
	],
	"textures":[
		{
			"sampler":0,
			"source":0
		},
		{
			"sampler":0,
			"source":1
		}
	],
	"images":[
		{
			"mimeType":"image/png",
			"name":"PolygonDarkFantasy_01_A_Emissive",
			"uri":"PolygonDarkFantasy_01_A_Emissive.png"
		},
		{
			"mimeType":"image/png",
			"name":"PolygonDarkFantasy_01_A",
			"uri":"PolygonDarkFantasy_01_A.png"
		}
	],
	"accessors":[
		{
			"bufferView":0,
			"componentType":5126,
			"count":5984,
			"max":[
				0.7387504577636719,
				3.189950942993164,
				0.3563462197780609
			],
			"min":[
				-0.7387504577636719,
				0,
				-0.3563462197780609
			],
			"type":"VEC3"
		},
		{
			"bufferView":1,
			"componentType":5126,
			"count":5984,
			"type":"VEC3"
		},
		{
			"bufferView":2,
			"componentType":5126,
			"count":5984,
			"type":"VEC2"
		},
		{
			"bufferView":3,
			"componentType":5126,
			"count":5984,
			"type":"VEC2"
		},
		{
			"bufferView":4,
			"componentType":5126,
			"count":5984,
			"type":"VEC2"
		},
		{
			"bufferView":5,
			"componentType":5123,
			"count":8691,
			"type":"SCALAR"
		}
	],
	"bufferViews":[
		{
			"buffer":0,
			"byteLength":71808,
			"byteOffset":0,
			"target":34962
		},
		{
			"buffer":0,
			"byteLength":71808,
			"byteOffset":71808,
			"target":34962
		},
		{
			"buffer":0,
			"byteLength":47872,
			"byteOffset":143616,
			"target":34962
		},
		{
			"buffer":0,
			"byteLength":47872,
			"byteOffset":191488,
			"target":34962
		},
		{
			"buffer":0,
			"byteLength":47872,
			"byteOffset":239360,
			"target":34962
		},
		{
			"buffer":0,
			"byteLength":17382,
			"byteOffset":287232,
			"target":34963
		}
	],
	"samplers":[
		{
			"magFilter":9729,
			"minFilter":9987
		}
	],
	"buffers":[
		{
			"byteLength":304616,
			"uri":"crypt_ward.bin"
		}
	]
}
