{"asset":{"generator":"Khronos glTF Blender I/O v5.1.20","version":"2.0"},"scene":0,"scenes":[{"name":"Scene","nodes":[0,1,2,3,4,5,6,7,8]}],"nodes":[{"mesh":0,"name":"crypt_nave_bay_lite"},{"mesh":1,"name":"SM_Bld_Pillar_05_0_collider"},{"mesh":2,"name":"SM_Bld_Pillar_05_1_collider"},{"mesh":3,"name":"SM_Bld_Pillar_05_2_collider"},{"mesh":4,"name":"SM_Bld_Pillar_05_3_collider"},{"mesh":5,"name":"SM_Bld_Pillar_05_4_collider"},{"mesh":6,"name":"SM_Bld_Pillar_05_5_collider"},{"mesh":7,"name":"SM_Bld_Pillar_05_6_collider"},{"mesh":8,"name":"SM_Bld_Pillar_05_7_collider"}],"materials":[{"doubleSided":true,"emissiveFactor":[1,1,1],"emissiveTexture":{"index":0},"name":"crypt_mat","pbrMetallicRoughness":{"baseColorTexture":{"index":1},"metallicFactor":0,"roughnessFactor":0.8999999761581421}},{"alphaMode":"MASK","doubleSided":true,"name":"crypt_sheet_vines","pbrMetallicRoughness":{"baseColorFactor":[0.23999999463558197,0.3199999928474426,0.15000000596046448,1],"baseColorTexture":{"index":2},"metallicFactor":0,"roughnessFactor":0.949999988079071},"alphaCutoff":0.45}],"meshes":[{"name":"Mesh","primitives":[{"attributes":{"POSITION":0,"NORMAL":1,"TEXCOORD_0":2,"TEXCOORD_1":3,"COLOR_0":4,"COLOR_1":5},"indices":6,"material":0},{"attributes":{"POSITION":7,"NORMAL":8,"TEXCOORD_0":9,"TEXCOORD_1":10,"COLOR_0":11,"COLOR_1":12},"indices":13,"material":1}]},{"name":"SM_Bld_Pillar_05_0_collider","primitives":[{"attributes":{"POSITION":14,"NORMAL":15,"TEXCOORD_0":16},"indices":17}]},{"name":"SM_Bld_Pillar_05_1_collider","primitives":[{"attributes":{"POSITION":18,"NORMAL":19,"TEXCOORD_0":20},"indices":17}]},{"name":"SM_Bld_Pillar_05_2_collider","primitives":[{"attributes":{"POSITION":21,"NORMAL":22,"TEXCOORD_0":23},"indices":17}]},{"name":"SM_Bld_Pillar_05_3_collider","primitives":[{"attributes":{"POSITION":24,"NORMAL":25,"TEXCOORD_0":26},"indices":17}]},{"name":"SM_Bld_Pillar_05_4_collider","primitives":[{"attributes":{"POSITION":27,"NORMAL":28,"TEXCOORD_0":29},"indices":17}]},{"name":"SM_Bld_Pillar_05_5_collider","primitives":[{"attributes":{"POSITION":30,"NORMAL":31,"TEXCOORD_0":32},"indices":17}]},{"name":"SM_Bld_Pillar_05_6_collider","primitives":[{"attributes":{"POSITION":33,"NORMAL":34,"TEXCOORD_0":35},"indices":17}]},{"name":"SM_Bld_Pillar_05_7_collider","primitives":[{"attributes":{"POSITION":36,"NORMAL":37,"TEXCOORD_0":38},"indices":17}]}],"textures":[{"sampler":0,"source":0},{"sampler":0,"source":1},{"sampler":0,"source":2}],"images":[{"mimeType":"image/png","name":"PolygonDarkFantasy_01_A_Emissive","uri":"PolygonDarkFantasy_01_A_Emissive.png"},{"mimeType":"image/png","name":"PolygonDarkFantasy_01_A","uri":"PolygonDarkFantasy_01_A.png"},{"mimeType":"image/png","name":"Vines_01","uri":"Vines_01.png"}],"accessors":[{"bufferView":0,"componentType":5126,"count":60752,"max":[5.328456878662109,6.222334861755371,5.77628755569458],"min":[-5.328456878662109,0,-5.77628755569458],"type":"VEC3"},{"bufferView":1,"componentType":5126,"count":60752,"type":"VEC3"},{"bufferView":2,"componentType":5126,"count":60752,"type":"VEC2"},{"bufferView":3,"componentType":5126,"count":60752,"type":"VEC2"},{"bufferView":4,"componentType":5121,"count":60752,"normalized":true,"type":"VEC4"},{"bufferView":5,"componentType":5123,"count":60752,"normalized":true,"type":"VEC4"},{"bufferView":6,"componentType":5123,"count":91839,"type":"SCALAR"},{"bufferView":7,"componentType":5126,"count":681,"max":[3.4290695190429688,5.415505409240723,5.472567081451416],"min":[-4.4241943359375,0.07646825164556503,1.5497316122055054],"type":"VEC3"},{"bufferView":8,"componentType":5126,"count":681,"type":"VEC3"},{"bufferView":9,"componentType":5126,"count":681,"type":"VEC2"},{"bufferView":10,"componentType":5126,"count":681,"type":"VEC2"},{"bufferView":11,"componentType":5121,"count":681,"normalized":true,"type":"VEC4"},{"bufferView":12,"componentType":5123,"count":681,"normalized":true,"type":"VEC4"},{"bufferView":13,"componentType":5123,"count":2619,"type":"SCALAR"},{"bufferView":14,"componentType":5126,"count":24,"max":[1.2534458637237549,6.088335037231445,0.32333600521087646],"min":[0.3335115909576416,0.08833496272563934,-0.5965981483459473],"type":"VEC3"},{"bufferView":15,"componentType":5126,"count":24,"type":"VEC3"},{"bufferView":16,"componentType":5126,"count":24,"type":"VEC2"},{"bufferView":17,"componentType":5123,"count":36,"type":"SCALAR"},{"bufferView":18,"componentType":5126,"count":24,"max":[1.2534458637237549,6.088335037231445,0.32333600521087646],"min":[0.3335115909576416,0.08833496272563934,-0.5965981483459473],"type":"VEC3"},{"bufferView":19,"componentType":5126,"count":24,"type":"VEC3"},{"bufferView":20,"componentType":5126,"count":24,"type":"VEC2"},{"bufferView":21,"componentType":5126,"count":24,"max":[1.2534458637237549,6.088335037231445,0.32333600521087646],"min":[0.3335115909576416,0.08833496272563934,-0.5965981483459473],"type":"VEC3"},{"bufferView":22,"componentType":5126,"count":24,"type":"VEC3"},{"bufferView":23,"componentType":5126,"count":24,"type":"VEC2"},{"bufferView":24,"componentType":5126,"count":24,"max":[1.2534458637237549,6.088335037231445,0.32333600521087646],"min":[0.3335115909576416,0.08833496272563934,-0.5965981483459473],"type":"VEC3"},{"bufferView":25,"componentType":5126,"count":24,"type":"VEC3"},{"bufferView":26,"componentType":5126,"count":24,"type":"VEC2"},{"bufferView":27,"componentType":5126,"count":24,"max":[1.2534458637237549,6.088335037231445,0.32333600521087646],"min":[0.3335115909576416,0.08833496272563934,-0.5965981483459473],"type":"VEC3"},{"bufferView":28,"componentType":5126,"count":24,"type":"VEC3"},{"bufferView":29,"componentType":5126,"count":24,"type":"VEC2"},{"bufferView":30,"componentType":5126,"count":24,"max":[1.2534458637237549,6.088335037231445,0.32333600521087646],"min":[0.3335115909576416,0.08833496272563934,-0.5965981483459473],"type":"VEC3"},{"bufferView":31,"componentType":5126,"count":24,"type":"VEC3"},{"bufferView":32,"componentType":5126,"count":24,"type":"VEC2"},{"bufferView":33,"componentType":5126,"count":24,"max":[1.2534458637237549,6.088335037231445,0.32333600521087646],"min":[0.3335115909576416,0.08833496272563934,-0.5965981483459473],"type":"VEC3"},{"bufferView":34,"componentType":5126,"count":24,"type":"VEC3"},{"bufferView":35,"componentType":5126,"count":24,"type":"VEC2"},{"bufferView":36,"componentType":5126,"count":24,"max":[1.2534458637237549,6.088335037231445,0.32333600521087646],"min":[0.3335115909576416,0.08833496272563934,-0.5965981483459473],"type":"VEC3"},{"bufferView":37,"componentType":5126,"count":24,"type":"VEC3"},{"bufferView":38,"componentType":5126,"count":24,"type":"VEC2"}],"bufferViews":[{"buffer":0,"byteLength":729024,"byteOffset":0,"target":34962},{"buffer":0,"byteLength":729024,"byteOffset":729024,"target":34962},{"buffer":0,"byteLength":486016,"byteOffset":1458048,"target":34962},{"buffer":0,"byteLength":486016,"byteOffset":1944064,"target":34962},{"buffer":0,"byteLength":243008,"byteOffset":2430080,"target":34962},{"buffer":0,"byteLength":486016,"byteOffset":2673088,"target":34962},{"buffer":0,"byteLength":183678,"byteOffset":3159104,"target":34963},{"buffer":0,"byteLength":8172,"byteOffset":3342784,"target":34962},{"buffer":0,"byteLength":8172,"byteOffset":3350956,"target":34962},{"buffer":0,"byteLength":5448,"byteOffset":3359128,"target":34962},{"buffer":0,"byteLength":5448,"byteOffset":3364576,"target":34962},{"buffer":0,"byteLength":2724,"byteOffset":3370024,"target":34962},{"buffer":0,"byteLength":5448,"byteOffset":3372748,"target":34962},{"buffer":0,"byteLength":5238,"byteOffset":3378196,"target":34963},{"buffer":0,"byteLength":288,"byteOffset":3383436,"target":34962},{"buffer":0,"byteLength":288,"byteOffset":3383724,"target":34962},{"buffer":0,"byteLength":192,"byteOffset":3384012,"target":34962},{"buffer":0,"byteLength":72,"byteOffset":3384204,"target":34963},{"buffer":0,"byteLength":288,"byteOffset":3384276,"target":34962},{"buffer":0,"byteLength":288,"byteOffset":3384564,"target":34962},{"buffer":0,"byteLength":192,"byteOffset":3384852,"target":34962},{"buffer":0,"byteLength":288,"byteOffset":3385044,"target":34962},{"buffer":0,"byteLength":288,"byteOffset":3385332,"target":34962},{"buffer":0,"byteLength":192,"byteOffset":3385620,"target":34962},{"buffer":0,"byteLength":288,"byteOffset":3385812,"target":34962},{"buffer":0,"byteLength":288,"byteOffset":3386100,"target":34962},{"buffer":0,"byteLength":192,"byteOffset":3386388,"target":34962},{"buffer":0,"byteLength":288,"byteOffset":3386580,"target":34962},{"buffer":0,"byteLength":288,"byteOffset":3386868,"target":34962},{"buffer":0,"byteLength":192,"byteOffset":3387156,"target":34962},{"buffer":0,"byteLength":288,"byteOffset":3387348,"target":34962},{"buffer":0,"byteLength":288,"byteOffset":3387636,"target":34962},{"buffer":0,"byteLength":192,"byteOffset":3387924,"target":34962},{"buffer":0,"byteLength":288,"byteOffset":3388116,"target":34962},{"buffer":0,"byteLength":288,"byteOffset":3388404,"target":34962},{"buffer":0,"byteLength":192,"byteOffset":3388692,"target":34962},{"buffer":0,"byteLength":288,"byteOffset":3388884,"target":34962},{"buffer":0,"byteLength":288,"byteOffset":3389172,"target":34962},{"buffer":0,"byteLength":192,"byteOffset":3389460,"target":34962}],"samplers":[{"magFilter":9729,"minFilter":9987}],"buffers":[{"byteLength":3389652,"uri":"crypt_nave_bay_lite.bin"}]}