{
	"asset":{
		"generator":"Khronos glTF Blender I/O v5.1.20",
		"version":"2.0"
	},
	"scene":0,
	"scenes":[
		{
			"name":"Scene",
			"nodes":[
				0
			]
		}
	],
	"nodes":[
		{
			"mesh":0,
			"name":"crypt_pew"
		}
	],
	"materials":[
		{
			"doubleSided":true,
			"emissiveFactor":[
				1,
				1,
				1
			],
			"emissiveTexture":{
				"index":0
			},
			"name":"crypt_mat",
			"pbrMetallicRoughness":{
				"baseColorTexture":{
					"index":1
				},
				"metallicFactor":0,
				"roughnessFactor":0.8999999761581421
			}
		}
	],
	"meshes":[
		{
			"name":"Mesh",
			"primitives":[
				{
					"attributes":{
						"POSITION":0,
						"NORMAL":1,
						"TEXCOORD_0":2,
						"TEXCOORD_1":3
					},
					"indices":4,
					"material":0
				}
			]
		}
	],
	"textures":[
		{
			"sampler":0,
			"source":0
		},
		{
			"sampler":0,
			"source":1
		}
	],
	"images":[
		{
			"mimeType":"image/png",
			"name":"PolygonDarkFantasy_01_A_Emissive",
			"uri":"PolygonDarkFantasy_01_A_Emissive.png"
		},
		{
			"mimeType":"image/png",
			"name":"PolygonDarkFantasy_01_A",
			"uri":"PolygonDarkFantasy_01_A.png"
		}
	],
	"accessors":[
		{
			"bufferView":0,
			"componentType":5126,
			"count":1623,
			"max":[
				1.0049610137939453,
				1.0278534889221191,
				0.3821606934070587
			],
			"min":[
				-1.0049610137939453,
				0,
				-0.3821606934070587
			],
			"type":"VEC3"
		},
		{
			"bufferView":1,
			"componentType":5126,
			"count":1623,
			"type":"VEC3"
		},
		{
			"bufferView":2,
			"componentType":5126,
			"count":1623,
			"type":"VEC2"
		},
		{
			"bufferView":3,
			"componentType":5126,
			"count":1623,
			"type":"VEC2"
		},
		{
			"bufferView":4,
			"componentType":5123,
			"count":2580,
			"type":"SCALAR"
		}
	],
	"bufferViews":[
		{
			"buffer":0,
			"byteLength":19476,
			"byteOffset":0,
			"target":34962
		},
		{
			"buffer":0,
			"byteLength":19476,
			"byteOffset":19476,
			"target":34962
		},
		{
			"buffer":0,
			"byteLength":12984,
			"byteOffset":38952,
			"target":34962
		},
		{
			"buffer":0,
			"byteLength":12984,
			"byteOffset":51936,
			"target":34962
		},
		{
			"buffer":0,
			"byteLength":5160,
			"byteOffset":64920,
			"target":34963
		}
	],
	"samplers":[
		{
			"magFilter":9729,
			"minFilter":9987
		}
	],
	"buffers":[
		{
			"byteLength":70080,
			"uri":"crypt_pew.bin"
		}
	]
}
