{
	"asset":{
		"generator":"Khronos glTF Blender I/O v5.1.20",
		"version":"2.0"
	},
	"scene":0,
	"scenes":[
		{
			"name":"Scene",
			"nodes":[
				0
			]
		}
	],
	"nodes":[
		{
			"mesh":0,
			"name":"crypt_stone_c"
		}
	],
	"materials":[
		{
			"doubleSided":true,
			"emissiveFactor":[
				1,
				1,
				1
			],
			"emissiveTexture":{
				"index":0
			},
			"name":"crypt_mat",
			"pbrMetallicRoughness":{
				"baseColorTexture":{
					"index":1
				},
				"metallicFactor":0,
				"roughnessFactor":0.8999999761581421
			}
		}
	],
	"meshes":[
		{
			"name":"Mesh",
			"primitives":[
				{
					"attributes":{
						"POSITION":0,
						"NORMAL":1,
						"TEXCOORD_0":2
					},
					"indices":3,
					"material":0
				}
			]
		}
	],
	"textures":[
		{
			"sampler":0,
			"source":0
		},
		{
			"sampler":0,
			"source":1
		}
	],
	"images":[
		{
			"mimeType":"image/png",
			"name":"PolygonDarkFantasy_01_A_Emissive",
			"uri":"PolygonDarkFantasy_01_A_Emissive.png"
		},
		{
			"mimeType":"image/png",
			"name":"PolygonDarkFantasy_01_A",
			"uri":"PolygonDarkFantasy_01_A.png"
		}
	],
	"accessors":[
		{
			"bufferView":0,
			"componentType":5126,
			"count":1279,
			"max":[
				0.6978725790977478,
				0.30000004172325134,
				1.3260838985443115
			],
			"min":[
				-0.6978727579116821,
				-1.0011655149355647e-07,
				-1.3260838985443115
			],
			"type":"VEC3"
		},
		{
			"bufferView":1,
			"componentType":5126,
			"count":1279,
			"type":"VEC3"
		},
		{
			"bufferView":2,
			"componentType":5126,
			"count":1279,
			"type":"VEC2"
		},
		{
			"bufferView":3,
			"componentType":5123,
			"count":1998,
			"type":"SCALAR"
		}
	],
	"bufferViews":[
		{
			"buffer":0,
			"byteLength":15348,
			"byteOffset":0,
			"target":34962
		},
		{
			"buffer":0,
			"byteLength":15348,
			"byteOffset":15348,
			"target":34962
		},
		{
			"buffer":0,
			"byteLength":10232,
			"byteOffset":30696,
			"target":34962
		},
		{
			"buffer":0,
			"byteLength":3996,
			"byteOffset":40928,
			"target":34963
		}
	],
	"samplers":[
		{
			"magFilter":9729,
			"minFilter":9987
		}
	],
	"buffers":[
		{
			"byteLength":44924,
			"uri":"crypt_stone_c.bin"
		}
	]
}
