{
	"asset":{
		"generator":"Khronos glTF Blender I/O v5.1.20",
		"version":"2.0"
	},
	"scene":0,
	"scenes":[
		{
			"name":"Scene",
			"nodes":[
				0
			]
		}
	],
	"nodes":[
		{
			"mesh":0,
			"name":"crypt_body_a"
		}
	],
	"materials":[
		{
			"doubleSided":true,
			"emissiveFactor":[
				1,
				1,
				1
			],
			"emissiveTexture":{
				"index":0
			},
			"name":"crypt_mat",
			"pbrMetallicRoughness":{
				"baseColorTexture":{
					"index":1
				},
				"metallicFactor":0,
				"roughnessFactor":0.8999999761581421
			}
		}
	],
	"meshes":[
		{
			"name":"Mesh",
			"primitives":[
				{
					"attributes":{
						"POSITION":0,
						"NORMAL":1,
						"TEXCOORD_0":2,
						"TEXCOORD_1":3
					},
					"indices":4,
					"material":0
				}
			]
		}
	],
	"textures":[
		{
			"sampler":0,
			"source":0
		},
		{
			"sampler":0,
			"source":1
		}
	],
	"images":[
		{
			"mimeType":"image/png",
			"name":"PolygonDarkFantasy_01_A_Emissive",
			"uri":"PolygonDarkFantasy_01_A_Emissive.png"
		},
		{
			"mimeType":"image/png",
			"name":"PolygonDarkFantasy_01_A",
			"uri":"PolygonDarkFantasy_01_A.png"
		}
	],
	"accessors":[
		{
			"bufferView":0,
			"componentType":5126,
			"count":8444,
			"max":[
				0.48713070154190063,
				0.2931913137435913,
				0.9326179027557373
			],
			"min":[
				-0.48713070154190063,
				0,
				-0.9326179027557373
			],
			"type":"VEC3"
		},
		{
			"bufferView":1,
			"componentType":5126,
			"count":8444,
			"type":"VEC3"
		},
		{
			"bufferView":2,
			"componentType":5126,
			"count":8444,
			"type":"VEC2"
		},
		{
			"bufferView":3,
			"componentType":5126,
			"count":8444,
			"type":"VEC2"
		},
		{
			"bufferView":4,
			"componentType":5123,
			"count":10722,
			"type":"SCALAR"
		}
	],
	"bufferViews":[
		{
			"buffer":0,
			"byteLength":101328,
			"byteOffset":0,
			"target":34962
		},
		{
			"buffer":0,
			"byteLength":101328,
			"byteOffset":101328,
			"target":34962
		},
		{
			"buffer":0,
			"byteLength":67552,
			"byteOffset":202656,
			"target":34962
		},
		{
			"buffer":0,
			"byteLength":67552,
			"byteOffset":270208,
			"target":34962
		},
		{
			"buffer":0,
			"byteLength":21444,
			"byteOffset":337760,
			"target":34963
		}
	],
	"samplers":[
		{
			"magFilter":9729,
			"minFilter":9987
		}
	],
	"buffers":[
		{
			"byteLength":359204,
			"uri":"crypt_body_a.bin"
		}
	]
}
