{
	"asset":{
		"generator":"Khronos glTF Blender I/O v5.1.20",
		"version":"2.0"
	},
	"scene":0,
	"scenes":[
		{
			"name":"Scene",
			"nodes":[
				0
			]
		}
	],
	"nodes":[
		{
			"mesh":0,
			"name":"arm_r_lower"
		}
	],
	"materials":[
		{
			"doubleSided":true,
			"emissiveFactor":[
				1,
				1,
				1
			],
			"emissiveTexture":{
				"index":0
			},
			"name":"colossus_mat",
			"pbrMetallicRoughness":{
				"baseColorTexture":{
					"index":1
				},
				"metallicFactor":0,
				"roughnessFactor":0.949999988079071
			}
		}
	],
	"meshes":[
		{
			"name":"Mesh.005",
			"primitives":[
				{
					"attributes":{
						"POSITION":0,
						"NORMAL":1,
						"TEXCOORD_0":2,
						"TEXCOORD_1":3
					},
					"indices":4,
					"material":0
				}
			]
		}
	],
	"textures":[
		{
			"sampler":0,
			"source":0
		},
		{
			"sampler":0,
			"source":1
		}
	],
	"images":[
		{
			"mimeType":"image/png",
			"name":"Dungeons_2_Texture_Emission_01",
			"uri":"Dungeons_2_Texture_Emission_01.png"
		},
		{
			"mimeType":"image/png",
			"name":"Dungeons_2_Texture_01_A",
			"uri":"Dungeons_2_Texture_01_A.png"
		}
	],
	"accessors":[
		{
			"bufferView":0,
			"componentType":5126,
			"count":2068,
			"max":[
				1.1606762409210205,
				-1.0375976700061074e-07,
				1.2953295707702637
			],
			"min":[
				-1.6702064275741577,
				-5.131418704986572,
				-1.4685763120651245
			],
			"type":"VEC3"
		},
		{
			"bufferView":1,
			"componentType":5126,
			"count":2068,
			"type":"VEC3"
		},
		{
			"bufferView":2,
			"componentType":5126,
			"count":2068,
			"type":"VEC2"
		},
		{
			"bufferView":3,
			"componentType":5126,
			"count":2068,
			"type":"VEC2"
		},
		{
			"bufferView":4,
			"componentType":5123,
			"count":3096,
			"type":"SCALAR"
		}
	],
	"bufferViews":[
		{
			"buffer":0,
			"byteLength":24816,
			"byteOffset":0,
			"target":34962
		},
		{
			"buffer":0,
			"byteLength":24816,
			"byteOffset":24816,
			"target":34962
		},
		{
			"buffer":0,
			"byteLength":16544,
			"byteOffset":49632,
			"target":34962
		},
		{
			"buffer":0,
			"byteLength":16544,
			"byteOffset":66176,
			"target":34962
		},
		{
			"buffer":0,
			"byteLength":6192,
			"byteOffset":82720,
			"target":34963
		}
	],
	"samplers":[
		{
			"magFilter":9729,
			"minFilter":9987
		}
	],
	"buffers":[
		{
			"byteLength":88912,
			"uri":"arm_r_lower.bin"
		}
	]
}
