{
	"asset":{
		"generator":"Khronos glTF Blender I/O v5.1.20",
		"version":"2.0"
	},
	"scene":0,
	"scenes":[
		{
			"name":"Scene",
			"nodes":[
				0
			]
		}
	],
	"nodes":[
		{
			"mesh":0,
			"name":"arm_l_lower"
		}
	],
	"materials":[
		{
			"doubleSided":true,
			"emissiveFactor":[
				1,
				1,
				1
			],
			"emissiveTexture":{
				"index":0
			},
			"name":"colossus_mat",
			"pbrMetallicRoughness":{
				"baseColorTexture":{
					"index":1
				},
				"metallicFactor":0,
				"roughnessFactor":0.949999988079071
			}
		}
	],
	"meshes":[
		{
			"name":"Mesh.003",
			"primitives":[
				{
					"attributes":{
						"POSITION":0,
						"NORMAL":1,
						"TEXCOORD_0":2,
						"TEXCOORD_1":3
					},
					"indices":4,
					"material":0
				}
			]
		}
	],
	"textures":[
		{
			"sampler":0,
			"source":0
		},
		{
			"sampler":0,
			"source":1
		}
	],
	"images":[
		{
			"mimeType":"image/png",
			"name":"Dungeons_2_Texture_Emission_01",
			"uri":"Dungeons_2_Texture_Emission_01.png"
		},
		{
			"mimeType":"image/png",
			"name":"Dungeons_2_Texture_01_A",
			"uri":"Dungeons_2_Texture_01_A.png"
		}
	],
	"accessors":[
		{
			"bufferView":0,
			"componentType":5126,
			"count":2082,
			"max":[
				1.672548770904541,
				0,
				1.3523417711257935
			],
			"min":[
				-1.3587669134140015,
				-4.396404266357422,
				-1.9235543012619019
			],
			"type":"VEC3"
		},
		{
			"bufferView":1,
			"componentType":5126,
			"count":2082,
			"type":"VEC3"
		},
		{
			"bufferView":2,
			"componentType":5126,
			"count":2082,
			"type":"VEC2"
		},
		{
			"bufferView":3,
			"componentType":5126,
			"count":2082,
			"type":"VEC2"
		},
		{
			"bufferView":4,
			"componentType":5123,
			"count":3096,
			"type":"SCALAR"
		}
	],
	"bufferViews":[
		{
			"buffer":0,
			"byteLength":24984,
			"byteOffset":0,
			"target":34962
		},
		{
			"buffer":0,
			"byteLength":24984,
			"byteOffset":24984,
			"target":34962
		},
		{
			"buffer":0,
			"byteLength":16656,
			"byteOffset":49968,
			"target":34962
		},
		{
			"buffer":0,
			"byteLength":16656,
			"byteOffset":66624,
			"target":34962
		},
		{
			"buffer":0,
			"byteLength":6192,
			"byteOffset":83280,
			"target":34963
		}
	],
	"samplers":[
		{
			"magFilter":9729,
			"minFilter":9987
		}
	],
	"buffers":[
		{
			"byteLength":89472,
			"uri":"arm_l_lower.bin"
		}
	]
}
