{
	"asset":{
		"generator":"Khronos glTF Blender I/O v5.1.20",
		"version":"2.0"
	},
	"scene":0,
	"scenes":[
		{
			"name":"Scene",
			"nodes":[
				0
			]
		}
	],
	"nodes":[
		{
			"mesh":0,
			"name":"arm_r_upper"
		}
	],
	"materials":[
		{
			"doubleSided":true,
			"emissiveFactor":[
				1,
				1,
				1
			],
			"emissiveTexture":{
				"index":0
			},
			"name":"colossus_mat",
			"pbrMetallicRoughness":{
				"baseColorTexture":{
					"index":1
				},
				"metallicFactor":0,
				"roughnessFactor":0.949999988079071
			}
		}
	],
	"meshes":[
		{
			"name":"Mesh.004",
			"primitives":[
				{
					"attributes":{
						"POSITION":0,
						"NORMAL":1,
						"TEXCOORD_0":2,
						"TEXCOORD_1":3
					},
					"indices":4,
					"material":0
				}
			]
		}
	],
	"textures":[
		{
			"sampler":0,
			"source":0
		},
		{
			"sampler":0,
			"source":1
		}
	],
	"images":[
		{
			"mimeType":"image/png",
			"name":"Dungeons_2_Texture_Emission_01",
			"uri":"Dungeons_2_Texture_Emission_01.png"
		},
		{
			"mimeType":"image/png",
			"name":"Dungeons_2_Texture_01_A",
			"uri":"Dungeons_2_Texture_01_A.png"
		}
	],
	"accessors":[
		{
			"bufferView":0,
			"componentType":5126,
			"count":1044,
			"max":[
				0.7156170010566711,
				0.3494064211845398,
				1.4920419454574585
			],
			"min":[
				-2.996180295944214,
				-3.2903218269348145,
				-1.6181731224060059
			],
			"type":"VEC3"
		},
		{
			"bufferView":1,
			"componentType":5126,
			"count":1044,
			"type":"VEC3"
		},
		{
			"bufferView":2,
			"componentType":5126,
			"count":1044,
			"type":"VEC2"
		},
		{
			"bufferView":3,
			"componentType":5126,
			"count":1044,
			"type":"VEC2"
		},
		{
			"bufferView":4,
			"componentType":5123,
			"count":1560,
			"type":"SCALAR"
		}
	],
	"bufferViews":[
		{
			"buffer":0,
			"byteLength":12528,
			"byteOffset":0,
			"target":34962
		},
		{
			"buffer":0,
			"byteLength":12528,
			"byteOffset":12528,
			"target":34962
		},
		{
			"buffer":0,
			"byteLength":8352,
			"byteOffset":25056,
			"target":34962
		},
		{
			"buffer":0,
			"byteLength":8352,
			"byteOffset":33408,
			"target":34962
		},
		{
			"buffer":0,
			"byteLength":3120,
			"byteOffset":41760,
			"target":34963
		}
	],
	"samplers":[
		{
			"magFilter":9729,
			"minFilter":9987
		}
	],
	"buffers":[
		{
			"byteLength":44880,
			"uri":"arm_r_upper.bin"
		}
	]
}
