{
	"asset":{
		"generator":"Khronos glTF Blender I/O v5.1.20",
		"version":"2.0"
	},
	"scene":0,
	"scenes":[
		{
			"name":"Scene",
			"nodes":[
				0
			]
		}
	],
	"nodes":[
		{
			"mesh":0,
			"name":"arm_l_upper"
		}
	],
	"materials":[
		{
			"doubleSided":true,
			"emissiveFactor":[
				1,
				1,
				1
			],
			"emissiveTexture":{
				"index":0
			},
			"name":"colossus_mat",
			"pbrMetallicRoughness":{
				"baseColorTexture":{
					"index":1
				},
				"metallicFactor":0,
				"roughnessFactor":0.949999988079071
			}
		}
	],
	"meshes":[
		{
			"name":"Mesh.002",
			"primitives":[
				{
					"attributes":{
						"POSITION":0,
						"NORMAL":1,
						"TEXCOORD_0":2,
						"TEXCOORD_1":3
					},
					"indices":4,
					"material":0
				}
			]
		}
	],
	"textures":[
		{
			"sampler":0,
			"source":0
		},
		{
			"sampler":0,
			"source":1
		}
	],
	"images":[
		{
			"mimeType":"image/png",
			"name":"Dungeons_2_Texture_Emission_01",
			"uri":"Dungeons_2_Texture_Emission_01.png"
		},
		{
			"mimeType":"image/png",
			"name":"Dungeons_2_Texture_01_A",
			"uri":"Dungeons_2_Texture_01_A.png"
		}
	],
	"accessors":[
		{
			"bufferView":0,
			"componentType":5126,
			"count":1042,
			"max":[
				2.664046049118042,
				0.2964308261871338,
				1.3867303133010864
			],
			"min":[
				-0.8000392913818359,
				-3.488830089569092,
				-1.7530531883239746
			],
			"type":"VEC3"
		},
		{
			"bufferView":1,
			"componentType":5126,
			"count":1042,
			"type":"VEC3"
		},
		{
			"bufferView":2,
			"componentType":5126,
			"count":1042,
			"type":"VEC2"
		},
		{
			"bufferView":3,
			"componentType":5126,
			"count":1042,
			"type":"VEC2"
		},
		{
			"bufferView":4,
			"componentType":5123,
			"count":1560,
			"type":"SCALAR"
		}
	],
	"bufferViews":[
		{
			"buffer":0,
			"byteLength":12504,
			"byteOffset":0,
			"target":34962
		},
		{
			"buffer":0,
			"byteLength":12504,
			"byteOffset":12504,
			"target":34962
		},
		{
			"buffer":0,
			"byteLength":8336,
			"byteOffset":25008,
			"target":34962
		},
		{
			"buffer":0,
			"byteLength":8336,
			"byteOffset":33344,
			"target":34962
		},
		{
			"buffer":0,
			"byteLength":3120,
			"byteOffset":41680,
			"target":34963
		}
	],
	"samplers":[
		{
			"magFilter":9729,
			"minFilter":9987
		}
	],
	"buffers":[
		{
			"byteLength":44800,
			"uri":"arm_l_upper.bin"
		}
	]
}
