{
	"asset":{
		"generator":"Khronos glTF Blender I/O v5.1.20",
		"version":"2.0"
	},
	"scene":0,
	"scenes":[
		{
			"name":"Scene",
			"nodes":[
				0
			]
		}
	],
	"nodes":[
		{
			"mesh":0,
			"name":"chest"
		}
	],
	"materials":[
		{
			"doubleSided":true,
			"emissiveFactor":[
				1,
				1,
				1
			],
			"emissiveTexture":{
				"index":0
			},
			"name":"colossus_mat",
			"pbrMetallicRoughness":{
				"baseColorTexture":{
					"index":1
				},
				"metallicFactor":0,
				"roughnessFactor":0.949999988079071
			}
		}
	],
	"meshes":[
		{
			"name":"Mesh",
			"primitives":[
				{
					"attributes":{
						"POSITION":0,
						"NORMAL":1,
						"TEXCOORD_0":2,
						"TEXCOORD_1":3,
						"TEXCOORD_2":4
					},
					"indices":5,
					"material":0
				}
			]
		}
	],
	"textures":[
		{
			"sampler":0,
			"source":0
		},
		{
			"sampler":0,
			"source":1
		}
	],
	"images":[
		{
			"mimeType":"image/png",
			"name":"Dungeons_2_Texture_Emission_01",
			"uri":"Dungeons_2_Texture_Emission_01.png"
		},
		{
			"mimeType":"image/png",
			"name":"Dungeons_2_Texture_01_A",
			"uri":"Dungeons_2_Texture_01_A.png"
		}
	],
	"accessors":[
		{
			"bufferView":0,
			"componentType":5126,
			"count":2988,
			"max":[
				2.3423779010772705,
				3.2599549293518066,
				2.1460094451904297
			],
			"min":[
				-2.3423779010772705,
				-3.2599544525146484,
				-2.146009683609009
			],
			"type":"VEC3"
		},
		{
			"bufferView":1,
			"componentType":5126,
			"count":2988,
			"type":"VEC3"
		},
		{
			"bufferView":2,
			"componentType":5126,
			"count":2988,
			"type":"VEC2"
		},
		{
			"bufferView":3,
			"componentType":5126,
			"count":2988,
			"type":"VEC2"
		},
		{
			"bufferView":4,
			"componentType":5126,
			"count":2988,
			"type":"VEC2"
		},
		{
			"bufferView":5,
			"componentType":5123,
			"count":4455,
			"type":"SCALAR"
		}
	],
	"bufferViews":[
		{
			"buffer":0,
			"byteLength":35856,
			"byteOffset":0,
			"target":34962
		},
		{
			"buffer":0,
			"byteLength":35856,
			"byteOffset":35856,
			"target":34962
		},
		{
			"buffer":0,
			"byteLength":23904,
			"byteOffset":71712,
			"target":34962
		},
		{
			"buffer":0,
			"byteLength":23904,
			"byteOffset":95616,
			"target":34962
		},
		{
			"buffer":0,
			"byteLength":23904,
			"byteOffset":119520,
			"target":34962
		},
		{
			"buffer":0,
			"byteLength":8910,
			"byteOffset":143424,
			"target":34963
		}
	],
	"samplers":[
		{
			"magFilter":9729,
			"minFilter":9987
		}
	],
	"buffers":[
		{
			"byteLength":152336,
			"uri":"chest.bin"
		}
	]
}
