{
	"asset":{
		"generator":"Khronos glTF Blender I/O v5.1.20",
		"version":"2.0"
	},
	"scene":0,
	"scenes":[
		{
			"name":"Scene",
			"nodes":[
				0
			]
		}
	],
	"nodes":[
		{
			"mesh":0,
			"name":"head"
		}
	],
	"materials":[
		{
			"doubleSided":true,
			"emissiveFactor":[
				1,
				1,
				1
			],
			"emissiveTexture":{
				"index":0
			},
			"name":"colossus_mat",
			"pbrMetallicRoughness":{
				"baseColorTexture":{
					"index":1
				},
				"metallicFactor":0,
				"roughnessFactor":0.949999988079071
			}
		}
	],
	"meshes":[
		{
			"name":"Mesh.001",
			"primitives":[
				{
					"attributes":{
						"POSITION":0,
						"NORMAL":1,
						"TEXCOORD_0":2,
						"TEXCOORD_1":3
					},
					"indices":4,
					"material":0
				}
			]
		}
	],
	"textures":[
		{
			"sampler":0,
			"source":0
		},
		{
			"sampler":0,
			"source":1
		}
	],
	"images":[
		{
			"mimeType":"image/png",
			"name":"Dungeons_2_Texture_Emission_01",
			"uri":"Dungeons_2_Texture_Emission_01.png"
		},
		{
			"mimeType":"image/png",
			"name":"Dungeons_2_Texture_01_A",
			"uri":"Dungeons_2_Texture_01_A.png"
		}
	],
	"accessors":[
		{
			"bufferView":0,
			"componentType":5126,
			"count":1633,
			"max":[
				1.2884140014648438,
				2.544999599456787,
				1.14946448802948
			],
			"min":[
				-1.0194323062896729,
				-0.13562479615211487,
				-1.0357728004455566
			],
			"type":"VEC3"
		},
		{
			"bufferView":1,
			"componentType":5126,
			"count":1633,
			"type":"VEC3"
		},
		{
			"bufferView":2,
			"componentType":5126,
			"count":1633,
			"type":"VEC2"
		},
		{
			"bufferView":3,
			"componentType":5126,
			"count":1633,
			"type":"VEC2"
		},
		{
			"bufferView":4,
			"componentType":5123,
			"count":2496,
			"type":"SCALAR"
		}
	],
	"bufferViews":[
		{
			"buffer":0,
			"byteLength":19596,
			"byteOffset":0,
			"target":34962
		},
		{
			"buffer":0,
			"byteLength":19596,
			"byteOffset":19596,
			"target":34962
		},
		{
			"buffer":0,
			"byteLength":13064,
			"byteOffset":39192,
			"target":34962
		},
		{
			"buffer":0,
			"byteLength":13064,
			"byteOffset":52256,
			"target":34962
		},
		{
			"buffer":0,
			"byteLength":4992,
			"byteOffset":65320,
			"target":34963
		}
	],
	"samplers":[
		{
			"magFilter":9729,
			"minFilter":9987
		}
	],
	"buffers":[
		{
			"byteLength":70312,
			"uri":"head.bin"
		}
	]
}
