{
	"asset":{
		"generator":"Khronos glTF Blender I/O v5.1.20",
		"version":"2.0"
	},
	"scene":0,
	"scenes":[
		{
			"name":"Scene",
			"nodes":[
				0
			]
		}
	],
	"nodes":[
		{
			"mesh":0,
			"name":"leg_l_upper"
		}
	],
	"materials":[
		{
			"doubleSided":true,
			"emissiveFactor":[
				1,
				1,
				1
			],
			"emissiveTexture":{
				"index":0
			},
			"name":"colossus_mat",
			"pbrMetallicRoughness":{
				"baseColorTexture":{
					"index":1
				},
				"metallicFactor":0,
				"roughnessFactor":0.949999988079071
			}
		}
	],
	"meshes":[
		{
			"name":"Mesh.006",
			"primitives":[
				{
					"attributes":{
						"POSITION":0,
						"NORMAL":1,
						"TEXCOORD_0":2,
						"TEXCOORD_1":3
					},
					"indices":4,
					"material":0
				}
			]
		}
	],
	"textures":[
		{
			"sampler":0,
			"source":0
		},
		{
			"sampler":0,
			"source":1
		}
	],
	"images":[
		{
			"mimeType":"image/png",
			"name":"Dungeons_2_Texture_Emission_01",
			"uri":"Dungeons_2_Texture_Emission_01.png"
		},
		{
			"mimeType":"image/png",
			"name":"Dungeons_2_Texture_01_A",
			"uri":"Dungeons_2_Texture_01_A.png"
		}
	],
	"accessors":[
		{
			"bufferView":0,
			"componentType":5126,
			"count":926,
			"max":[
				1.8478401899337769,
				0.12818893790245056,
				1.3214349746704102
			],
			"min":[
				-0.7993884086608887,
				-2.7258851528167725,
				-1.5384671688079834
			],
			"type":"VEC3"
		},
		{
			"bufferView":1,
			"componentType":5126,
			"count":926,
			"type":"VEC3"
		},
		{
			"bufferView":2,
			"componentType":5126,
			"count":926,
			"type":"VEC2"
		},
		{
			"bufferView":3,
			"componentType":5126,
			"count":926,
			"type":"VEC2"
		},
		{
			"bufferView":4,
			"componentType":5123,
			"count":1314,
			"type":"SCALAR"
		}
	],
	"bufferViews":[
		{
			"buffer":0,
			"byteLength":11112,
			"byteOffset":0,
			"target":34962
		},
		{
			"buffer":0,
			"byteLength":11112,
			"byteOffset":11112,
			"target":34962
		},
		{
			"buffer":0,
			"byteLength":7408,
			"byteOffset":22224,
			"target":34962
		},
		{
			"buffer":0,
			"byteLength":7408,
			"byteOffset":29632,
			"target":34962
		},
		{
			"buffer":0,
			"byteLength":2628,
			"byteOffset":37040,
			"target":34963
		}
	],
	"samplers":[
		{
			"magFilter":9729,
			"minFilter":9987
		}
	],
	"buffers":[
		{
			"byteLength":39668,
			"uri":"leg_l_upper.bin"
		}
	]
}
